<?xml version="1.0" encoding="utf-8"?>
<!-- Generator: Adobe Illustrator 21.1.0, SVG Export Plug-In . SVG Version: 6.00 Build 0)  -->
<svg version="1.1" id="Layer_1" xmlns="http://www.w3.org/2000/svg" xmlns:xlink="http://www.w3.org/1999/xlink" x="0px" y="0px"
	 viewBox="0 0 2475.4 2857.4" style="enable-background:new 0 0 2475.4 2857.4;" xml:space="preserve">
<style type="text/css">
	.st0{clip-path:url(#SVGID_2_);}
	.st1{fill-rule:evenodd;clip-rule:evenodd;fill:#5897D1;}
	.st2{fill:#484B7F;}
	.st3{fill:#343A6E;}
	.st4{fill:none;}
	.st5{fill:#FF668C;}
	.st6{fill:#F9DF73;}
	.st7{fill:#F9AF6B;}
	.st8{fill:#FFFFFF;}
	.st9{fill:#EFEFEF;}
</style>
<g>
	<g>
		<g>
			<g>
				<defs>
					<path id="SVGID_1_" d="M1956.9,2411.3c749.6-749.6,417.2-1093.7,0-1510.9s-761.3-749.6-1510.9,0s-417.2,1093.7,0,1510.9
						S1207.4,3160.9,1956.9,2411.3z"/>
				</defs>
				<clipPath id="SVGID_2_">
					<use xlink:href="#SVGID_1_"  style="overflow:visible;"/>
				</clipPath>
				<g className="st0">
					<path className="st1" d="M1201.5,2765.9c1101.4,0,1110-497,1110-1110s-8.6-1110-1110-1110s-1110,497-1110,1110
						S100.1,2765.9,1201.5,2765.9z"/>
				</g>
				<g className="st0">
					<path className="st2" d="M2460.9,1653.6c0,173.1-34.8,338-97.8,488.2c-431,1028.6,353,501-650.7,867.4
						c-135.2,49.4-363.1-91.7-515.4-91.7c-82.3,0-290.6,149.7-368.5,134.7c-176.9-34.1-340.7-105.1-483-204.8
						c-184.4-129-332.7-306-427-512.8c-72.7-159.5,14.6-494.4,14.6-681.2c0-61.5,4.4-122,12.9-181.1
						c36-250.5,145.3-477.3,305.6-657.8c231.5-260.7,569.3-425,945.4-425c221.8,0,430.3,57.2,611.5,157.6
						c109.8,60.8,209.6,137.5,296.2,227c27.1,27.9,52.9,57.1,77.3,87.4c7.8,9.8,15.5,19.6,23.1,29.6c41,54.1,77.7,111.6,109.7,172
						c73.5,138.8,121.9,292.9,139.1,456.3C2458.6,1563.5,2460.9,1608.3,2460.9,1653.6z"/>
					<path className="st3" d="M2041.3,1567.1c0,113.8-22.9,222.3-64.3,321c-89.1,212.7-264.2,380.4-481.7,459.8
						c-88.9,32.5-184.9,50.2-285.1,50.2c-54.1,0-107.1-5.2-158.3-15.1c-116.3-22.4-224-69.1-317.6-134.6
						c-121.2-84.8-218.8-201.2-280.7-337.1c-47.8-104.9-74.4-221.5-74.4-344.2c0-459,372.1-831.1,831.1-831.1
						S2041.3,1108.1,2041.3,1567.1z"/>
					<g>
						<path className="st4" d="M1013.3,2625.4h474.5v158.2h-474.5V2625.4z"/>
						<polygon className="st5" points="1025.2,3001.9 1250.6,2382.3 1475.9,3001.9 1618.9,3001.9 1641.2,2993.8 1329.6,2137 
							1329.6,1913.7 1171.5,1913.7 1171.5,2137 860,2993.8 882.2,3001.9 						"/>
						<path className="st6" d="M180.2,1891.1l600-342.6l237.3,410.9L462,2276.7c-67.9,38.8-154.4,15.4-193.5-52.3L147,2014
							C122.1,1970.9,137,1915.8,180.2,1891.1z"/>
						<path className="st4" d="M1329.6,2137v-223.3h-158.2V2137l-45.5,125.2l205.9-118.9L1329.6,2137z"/>
						<path className="st7" d="M1017.5,1959.5l-237.3-411l-274,158.2L675,1999.1l-335.8,189.7l-168.8-292.4h0
							c-37.8,21.8-50.8,70.2-28.9,108.1l147.7,255.8c27.7,47.9,88.9,64.5,137,37.1L1017.5,1959.5z"/>
						<path className="st6" d="M564.1,1490.5L1658.3,853l395.5,685L959.6,2175.5L564.1,1490.5z"/>
						<path className="st7" d="M2053.8,1538l-395.4-685l-274,158.2l326.9,566.3l-819.4,480.7l67.7,117.3L2053.8,1538z"/>
						<path className="st6" d="M1924.7,1630.8l-411.2-712.2c-39.3-68.1-16-155.2,52.1-194.5l356.2-205.6l553.6,958.8l-356.2,205.6
							C2051.1,1722.2,1964,1698.9,1924.7,1630.8z"/>
						<path className="st7" d="M1924.6,1630.6l0.1,0.2c39.3,68.1,126.4,91.4,194.5,52.1l356.2-205.6l-68.5-118.6L1924.6,1630.6z"/>
						<g>
							<path className="st8" d="M1860.4,801.6L1860.4,801.6c43.7,0,79.1,35.4,79.1,79.1v0c0,43.7-35.4,79.1-79.1,79.1h0
								c-43.7,0-79.1-35.4-79.1-79.1v0C1781.3,837,1816.7,801.6,1860.4,801.6z"/>
							<path className="st8" d="M1171.5,1360.1L1171.5,1360.1c43.7,0,79.1,35.4,79.1,79.1v0c0,43.7-35.4,79.1-79.1,79.1h0
								c-43.7,0-79.1-35.4-79.1-79.1v0C1092.4,1395.5,1127.8,1360.1,1171.5,1360.1z"/>
						</g>
					</g>
				</g>
			</g>
		</g>
	</g>
</g>
<g>
	<path className="st4" d="M1013.3,2625.4h474.5v158.2h-474.5V2625.4z"/>
	<polygon className="st5" points="1225.9,2449.9 1250.6,2382.3 1275.2,2449.9 1443.4,2449.9 1329.6,2137 1329.6,1913.7 1171.5,1913.7 
		1171.5,2137 1057.7,2449.9 	"/>
	<path className="st6" d="M265,1969.6L407,2111.7c42.3,42.3,84.6,84.6,126.9,126.9l483.6-279.2l-237.3-410.9l-593.7,342.8
		C212.7,1917.4,238.8,1943.5,265,1969.6z"/>
	<path className="st4" d="M1329.6,2137v-223.3h-158.2V2137l-45.5,125.2l205.9-118.9L1329.6,2137z"/>
	<path className="st7" d="M433.7,2138.4c33.4,33.4,66.9,66.9,100.3,100.3l483.5-279.2l-237.3-411l-274,158.2L675,1999.1L433.7,2138.4z"
		/>
	<path className="st6" d="M564.1,1490.5L1658.3,853l395.5,685L959.6,2175.5L564.1,1490.5z"/>
	<path className="st7" d="M2053.8,1538l-395.4-685l-274,158.2l326.9,566.3l-819.4,480.7l67.7,117.3L2053.8,1538z"/>
	<path className="st6" d="M1924.7,1630.8l-411.2-712.2c-39.3-68.1-16-155.2,52.1-194.5l356.2-205.6l553.6,958.8l-356.2,205.6
		C2051.1,1722.2,1964,1698.9,1924.7,1630.8z"/>
	<path className="st7" d="M1924.6,1630.6l0.1,0.2c39.3,68.1,126.4,91.4,194.5,52.1l356.2-205.6l-68.5-118.6L1924.6,1630.6z"/>
	<g>
		<path className="st8" d="M1860.4,801.6L1860.4,801.6c43.7,0,79.1,35.4,79.1,79.1v0c0,43.7-35.4,79.1-79.1,79.1h0
			c-43.7,0-79.1-35.4-79.1-79.1v0C1781.3,837,1816.7,801.6,1860.4,801.6z"/>
		<path className="st8" d="M1171.5,1360.1L1171.5,1360.1c43.7,0,79.1,35.4,79.1,79.1v0c0,43.7-35.4,79.1-79.1,79.1h0
			c-43.7,0-79.1-35.4-79.1-79.1v0C1092.4,1395.5,1127.8,1360.1,1171.5,1360.1z"/>
	</g>
</g>
<g>
	<g>
		<path className="st9" d="M1290.3,689.3H596.2c-190.3,0-344.6-154.3-344.6-344.6v0C251.5,154.3,405.8,0,596.2,0l694.2,0
			C1480.7,0,1635,154.3,1635,344.6v0C1635,535,1480.7,689.3,1290.3,689.3z"/>
		<path className="st8" d="M1351.3,689.3H657.1c-190.3,0-344.6-154.3-344.6-344.6v0C312.5,154.3,466.8,0,657.1,0l694.2,0
			C1541.6,0,1696,154.3,1696,344.6v0C1696,535,1541.6,689.3,1351.3,689.3z"/>
	</g>
	<g>
		<g>
			<path className="st5" d="M778.5,459.9c-4.3-4.5-6.4-10.8-6.4-19v-23.7h-82.4c-7,0-12.6-1.9-16.9-5.7c-4.3-3.8-6.4-8.7-6.4-14.6
				c0-4.2,1.1-8.5,3.4-12.9l74-128.7c8.8-15.3,22-22.9,39.6-22.9c12,0,21.1,2.8,27.3,8.5c6.2,5.7,9.4,15.4,9.4,29.2v111.5h17
				c5.9,0,10.6,1.5,14.1,4.6c3.4,3.1,5.2,7.5,5.2,13.3c0,5.6-1.6,10-4.8,13.2c-3.2,3.2-8,4.8-14.5,4.8H820v23.3
				c0,8.2-2.1,14.6-6.3,19.2c-4.2,4.6-10.1,6.9-17.8,6.9C788.6,466.6,782.8,464.3,778.5,459.9z M772.1,381.3V273.9l-58.6,107.4
				H772.1z"/>
			<path className="st5" d="M795.9,473.6c-9.3,0-16.8-3-22.4-8.9l0,0c-5.5-5.8-8.3-13.8-8.3-23.8v-16.7h-75.4c-8.8,0-16-2.5-21.6-7.5
				c-5.7-5.1-8.7-12-8.7-19.8c0-5.3,1.4-10.7,4.2-16.1l0.2-0.3l74-128.7c10.1-17.6,25.5-26.4,45.6-26.4c13.7,0,24.5,3.5,32,10.3
				c7.7,7,11.7,18.6,11.7,34.3v104.5h10c7.7,0,14,2.1,18.7,6.4c5,4.4,7.5,10.7,7.5,18.6c0,7.5-2.3,13.6-6.8,18.1
				c-4.5,4.5-11.1,6.8-19.4,6.8H827v16.3c0,9.9-2.7,18-8.1,23.9C813.3,470.5,805.6,473.6,795.9,473.6z M676.1,387.2
				c-1.7,3.3-2.6,6.6-2.6,9.6c0,3.9,1.3,6.9,4.1,9.4c3,2.7,6.9,3.9,12.2,3.9h89.4v30.7c0,6.4,1.5,11,4.4,14.2l0,0
				c2.9,3,6.9,4.5,12.3,4.5c5.6,0,9.7-1.5,12.6-4.6c3-3.3,4.5-8.1,4.5-14.5v-30.3h24.1c4.5,0,7.7-0.9,9.5-2.7
				c1.8-1.8,2.7-4.5,2.7-8.2c0-5.6-2.1-7.5-2.8-8.1c-2.1-1.9-5.2-2.8-9.4-2.8h-24V269.8c0-11.7-2.4-19.7-7.1-24
				c-4.9-4.4-12.5-6.7-22.6-6.7c-15,0-26,6.4-33.5,19.4L676.1,387.2z M779.1,388.3h-77.4l77.4-141.9V388.3z M725.3,374.3h39.8v-73
				L725.3,374.3z"/>
		</g>
		<g>
			<path className="st5" d="M944.1,464c-10.4-4.3-19-10.1-25.7-17.5c-6.7-7.4-12.3-16.3-16.7-26.7c-4.4-10.4-7.5-21.5-9.4-33
				c-1.8-11.6-2.7-24.1-2.7-37.6c0-13.2,0.9-25.6,2.7-37c1.8-11.4,4.9-22.3,9.3-32.8c4.4-10.4,9.9-19.3,16.6-26.7
				c6.7-7.3,15.2-13.2,25.7-17.5c10.4-4.4,22.3-6.5,35.5-6.5c13,0,24.7,2.1,35,6.4c10.3,4.3,18.8,10,25.5,17.3
				c6.7,7.3,12.3,16.1,16.8,26.5c4.5,10.4,7.6,21.3,9.5,32.9c1.9,11.5,2.8,24,2.8,37.5c0,13.4-0.9,25.8-2.7,37.4
				c-1.8,11.6-5,22.6-9.4,33c-4.4,10.4-10,19.4-16.7,26.7c-6.7,7.4-15.3,13.2-25.6,17.6c-10.3,4.4-22.1,6.5-35.2,6.5
				C966.3,470.5,954.5,468.3,944.1,464z M999.4,426.4c5.4-4.3,9.4-10.5,12-18.7c2.6-8.2,4.5-16.9,5.5-26c1-9.2,1.5-20,1.5-32.6
				c0-9.9-0.3-18.6-0.8-26.1c-0.5-7.5-1.6-15-3.3-22.5c-1.7-7.5-3.9-13.6-6.7-18.4c-2.8-4.8-6.6-8.7-11.3-11.6
				c-4.7-3-10.4-4.4-17-4.4c-5.5,0-10.3,1-14.5,2.9c-4.2,1.9-7.7,4.8-10.5,8.6c-2.8,3.8-5.1,8.1-7,12.9c-1.9,4.8-3.3,10.5-4.4,17
				c-1,6.6-1.7,13.1-2.1,19.5c-0.4,6.5-0.6,13.8-0.6,22c0,8.2,0.2,15.5,0.6,22c0.4,6.5,1.1,13.1,2.1,19.7c1,6.6,2.5,12.4,4.4,17.2
				c1.9,4.8,4.2,9.2,7,13c2.8,3.8,6.3,6.7,10.5,8.7c4.2,2,9,3,14.5,3C987.4,432.8,994,430.7,999.4,426.4z"/>
			<path className="st5" d="M979.4,477.5c-14,0-26.8-2.4-38-7l0,0c-11.3-4.7-20.8-11.2-28.2-19.3c-7.2-7.9-13.3-17.6-18-28.7
				c-4.6-10.9-7.9-22.6-9.8-34.7c-1.9-11.9-2.8-24.9-2.8-38.6c0-13.6,1-26.4,2.8-38.1c1.9-11.9,5.2-23.5,9.7-34.4
				c4.7-11.1,10.7-20.8,17.8-28.7c7.3-8,16.8-14.5,28.2-19.3c11.3-4.7,24.1-7.1,38.2-7.1c13.9,0,26.6,2.3,37.6,6.9
				c11.2,4.6,20.6,11,28,19c7.2,7.8,13.3,17.4,18.1,28.5c4.7,10.9,8,22.5,10,34.5c1.9,11.9,2.9,24.8,2.9,38.6
				c0,13.7-1,26.6-2.8,38.5c-1.9,12.1-5.2,23.8-9.8,34.7c-4.7,11.1-10.8,20.8-18,28.7c-7.4,8.1-16.8,14.6-28.1,19.3
				C1006.2,475.1,993.4,477.5,979.4,477.5z M979.4,235.6c-12.3,0-23.3,2-32.8,6c-9.4,3.9-17.3,9.3-23.2,15.8
				c-6.1,6.7-11.2,15-15.3,24.6c-4.1,9.9-7.1,20.4-8.8,31.2c-1.8,11-2.7,23.1-2.7,35.9c0,13,0.9,25.3,2.7,36.5
				c1.7,11,4.7,21.5,8.9,31.4c4.1,9.7,9.3,18,15.4,24.7c6,6.6,13.8,11.9,23.2,15.8h0c9.5,3.9,20.5,5.9,32.6,5.9
				c12.1,0,23.1-2,32.5-6c9.4-3.9,17.1-9.3,23.2-15.9c6.2-6.8,11.4-15.1,15.4-24.7c4.2-9.9,7.2-20.4,8.9-31.4
				c1.8-11.2,2.7-23.4,2.7-36.3c0-13-0.9-25.2-2.7-36.3c-1.8-10.9-4.8-21.4-9.1-31.2c-4.1-9.6-9.3-17.9-15.5-24.5
				c-6-6.5-13.8-11.7-23.1-15.6C1002.3,237.6,991.4,235.6,979.4,235.6z M979.4,439.8c-6.5,0-12.4-1.2-17.5-3.7
				c-5.2-2.5-9.7-6.2-13.1-10.9c-3.1-4.3-5.8-9.2-7.9-14.6c-2.1-5.3-3.7-11.6-4.8-18.7c-1.1-6.8-1.8-13.7-2.2-20.4
				c-0.4-6.6-0.6-14.2-0.6-22.5c0-8.3,0.2-15.8,0.6-22.4c0.4-6.7,1.1-13.5,2.2-20.2c1.1-7,2.7-13.3,4.8-18.5
				c2.1-5.3,4.8-10.2,7.9-14.5c3.5-4.8,7.9-8.4,13.2-10.9c5.1-2.4,11-3.6,17.5-3.6c7.9,0,14.8,1.9,20.7,5.5
				c5.7,3.6,10.3,8.3,13.6,14c3.2,5.4,5.7,12.3,7.5,20.4c1.7,7.8,2.9,15.7,3.5,23.5c0.5,7.6,0.8,16.6,0.8,26.6
				c0,12.8-0.5,24-1.6,33.4c-1.1,9.6-3,18.8-5.8,27.4c-3.1,9.5-7.9,16.9-14.4,22l0,0C997.1,437.2,988.9,439.8,979.4,439.8z
				 M979.4,273.1c-4.4,0-8.4,0.8-11.6,2.3c-3.1,1.4-5.7,3.5-7.8,6.4c-2.4,3.3-4.5,7.1-6.2,11.3c-1.7,4.3-3,9.5-4,15.6
				c-1,6.3-1.7,12.7-2,18.9c-0.4,6.3-0.6,13.5-0.6,21.6c0,8,0.2,15.3,0.6,21.6c0.4,6.3,1,12.7,2,19c0.9,6.1,2.3,11.4,4,15.7
				c1.7,4.3,3.7,8.1,6.1,11.4c2.1,2.9,4.7,5,7.9,6.5c3.2,1.5,7.1,2.3,11.5,2.3c6.4,0,11.5-1.6,15.7-4.9l0,0
				c4.2-3.4,7.5-8.5,9.7-15.3c2.5-7.7,4.2-16,5.2-24.6c1-8.9,1.5-19.6,1.5-31.9c0-9.7-0.3-18.3-0.8-25.6c-0.5-7.1-1.6-14.3-3.2-21.4
				c-1.5-6.7-3.5-12.3-5.9-16.4c-2.2-3.8-5.2-6.9-9-9.2C989,274.2,984.7,273.1,979.4,273.1z"/>
		</g>
		<g>
			<path className="st5" d="M1215.2,459.9c-4.3-4.5-6.4-10.8-6.4-19v-23.7h-82.4c-7,0-12.6-1.9-16.9-5.7c-4.3-3.8-6.4-8.7-6.4-14.6
				c0-4.2,1.1-8.5,3.4-12.9l74-128.7c8.8-15.3,22-22.9,39.6-22.9c12,0,21.1,2.8,27.3,8.5c6.2,5.7,9.4,15.4,9.4,29.2v111.5h17
				c5.9,0,10.6,1.5,14.1,4.6c3.4,3.1,5.2,7.5,5.2,13.3c0,5.6-1.6,10-4.8,13.2c-3.2,3.2-8,4.8-14.5,4.8h-17.1v23.3
				c0,8.2-2.1,14.6-6.3,19.2c-4.2,4.6-10.1,6.9-17.8,6.9C1225.3,466.6,1219.5,464.3,1215.2,459.9z M1208.8,381.3V273.9l-58.6,107.4
				H1208.8z"/>
			<path className="st5" d="M1232.6,473.6c-9.3,0-16.8-3-22.4-8.9l0,0c-5.5-5.8-8.3-13.8-8.3-23.8v-16.7h-75.4c-8.8,0-16-2.5-21.6-7.5
				c-5.7-5.1-8.7-12-8.7-19.8c0-5.3,1.4-10.7,4.2-16.1l0.2-0.3l74-128.7c10.1-17.6,25.5-26.4,45.6-26.4c13.7,0,24.5,3.5,32,10.3
				c7.7,7,11.7,18.6,11.7,34.3v104.5h10c7.7,0,14,2.1,18.7,6.4c5,4.4,7.5,10.7,7.5,18.6c0,7.5-2.3,13.6-6.8,18.1
				c-4.5,4.5-11.1,6.8-19.4,6.8h-10.1v16.3c0,9.9-2.7,18-8.1,23.9C1250,470.5,1242.3,473.6,1232.6,473.6z M1112.7,387.2
				c-1.7,3.3-2.6,6.6-2.6,9.6c0,3.9,1.3,6.9,4.1,9.4c3,2.7,6.9,3.9,12.2,3.9h89.4v30.7c0,6.4,1.5,11,4.4,14.2l0,0
				c2.9,3,6.9,4.5,12.3,4.5c5.6,0,9.7-1.5,12.6-4.6c3-3.3,4.5-8.1,4.5-14.5v-30.3h24.1c4.5,0,7.7-0.9,9.5-2.7
				c1.8-1.8,2.7-4.5,2.7-8.2c0-5.6-2.1-7.5-2.8-8.1c-2.1-1.9-5.2-2.8-9.4-2.8h-24V269.8c0-11.7-2.4-19.7-7.1-24
				c-4.9-4.4-12.5-6.7-22.6-6.7c-15,0-26,6.4-33.5,19.4L1112.7,387.2z M1215.8,388.3h-77.4l77.4-141.9V388.3z M1162,374.3h39.8v-73
				L1162,374.3z"/>
		</g>
	</g>
	<path className="st8" d="M1377.9,645v120.8c0,21.7-26.3,32.6-41.6,17.3l-178.9-178.9L1377.9,645z"/>
</g>
</svg>
