<svg xmlns="http://www.w3.org/2000/svg" width="3897.768" height="2683.445" viewBox="0 0 3897.768 2683.445">
  <g id="_404-bg-r" data-name="404-bg-r" transform="translate(311.024 1702.012)">
    <g id="Group_3332" data-name="Group 3332">
      <g id="Group_3331" data-name="Group 3331">
        <path id="Path_13833" data-name="Path 13833" d="M-161.5-1312s418.4-507.9,779-364.5c237.3,94.4,180.7,184.6,383.4,184.9s294.9-159.3,548.5-135.1c269.4,25.7,605.4-127.5,946.2-38.4s61.5,44,870.2,826.3C4009.4-216.2,3117.1,358,2349.2,392.3,1652,423.4,1182.6,885.5,999.2,964.5,815.9,1043.5,611,866,9.2,6.6S-161.5-1312-161.5-1312Z" fill="#0c315d"/>
      </g>
    </g>
    <path id="Path_13834" data-name="Path 13834" d="M1261.2,822.4c-38.3-19.3-40-79.3-3.8-102.4,36.5-23.3,76.7,2.6,80.3,43.8,3.2,36.7-33.9,74.9-71.1,61Q1263.75,823.6,1261.2,822.4Z" fill="#ffca2a"/>
  </g>
</svg>
