<svg id="Basketball_camp" xmlns="http://www.w3.org/2000/svg" width="514.12" height="513.314" viewBox="0 0 514.12 513.314">
  <g id="Group_1032" data-name="Group 1032" transform="translate(111.422 78.543)">
    <g id="Group_1029" data-name="Group 1029" transform="translate(56.169 14.452)">
      <g id="Group_1028" data-name="Group 1028">
        <path id="Path_3299" data-name="Path 3299" d="M661.09,543.913c-5-2.471-38.137-19.136-47.284-38.383-1.273-2.679-3.248-6.836-2.7-12.115,1.1-10.541,10.858-11.837,12.05-19.887,1.571-10.617-14.555-14.073-21.04-34.552-1.557-4.911-3.977-12.561-.94-20.331,3.391-8.679,10.1-8.578,14.045-16.491,4.92-9.865-2.426-16.2-1.826-29.853.631-14.381,9.944-33.688,26.193-37.769,14.168-3.56,28.241,5.809,35.413,14.485,10.594,12.819,11.411,30.529,6.878,43.228-6.516,18.252-23.739,25.2-21,31.55,2.547,5.916,17.587.149,24.726,9.04,4.984,6.21,4.342,17.36-.328,24.395-6.477,9.75-17.784,7.217-20.314,14.482-2.654,7.618,8.552,13.935,12.333,25.545,3.119,9.576,1.633,24.126-16.2,46.658Z" transform="translate(-599.093 -333.134)" fill="#fff"/>
        <path id="Path_3300" data-name="Path 3300" d="M659.473,542.934a.608.608,0,0,1-.275-.065c-8.948-4.421-38.824-20.272-47.57-38.675-1.324-2.785-3.324-6.993-2.755-12.446.617-5.913,3.916-9.083,6.825-11.882,2.424-2.331,4.712-4.533,5.229-8.031.715-4.839-2.477-8.1-6.895-12.611-4.782-4.883-10.735-10.962-14.123-21.666-1.61-5.085-4.045-12.768-.926-20.746,1.851-4.738,4.693-6.973,7.442-9.136,2.48-1.952,4.825-3.8,6.625-7.408,2.707-5.43,1.576-9.674.143-15.049a45.272,45.272,0,0,1-2.036-14.555c.69-15.73,10.852-34.372,26.661-38.344,13.669-3.433,27.952,4.9,36.041,14.69,11.663,14.112,11.052,32.431,6.984,43.828-3.509,9.834-10.157,16.5-15.007,21.363-4.137,4.149-7.125,7.144-6.011,9.736,1,2.337,4.586,2.609,8.732,2.923,5.273.4,11.834.9,15.91,5.975,4.945,6.163,4.813,17.433-.3,25.124-3.467,5.22-8.2,7-12.367,8.572-3.776,1.422-6.754,2.544-7.879,5.773-1.391,3.994,1.363,7.655,4.853,12.289,2.724,3.616,5.809,7.717,7.484,12.861,4.078,12.519-1.405,28.412-16.3,47.236a.612.612,0,0,1-.485.236Zm-15.2-210.152a25.231,25.231,0,0,0-6.157.752c-15.248,3.829-25.054,21.921-25.724,37.2a44.294,44.294,0,0,0,1.994,14.182c1.442,5.4,2.684,10.07-.23,15.918-1.924,3.86-4.488,5.876-6.968,7.826-2.738,2.154-5.324,4.191-7.055,8.614-2.959,7.568-.6,15,.954,19.918,3.3,10.421,9.139,16.381,13.829,21.172,4.494,4.589,8.042,8.213,7.237,13.657-.578,3.916-3.015,6.261-5.6,8.74-2.889,2.78-5.879,5.658-6.451,11.119-.533,5.105,1.377,9.125,2.64,11.784,8.6,18.1,39.312,34.26,46.549,37.873,14.384-18.3,19.694-33.674,15.784-45.688-1.61-4.948-4.631-8.959-7.3-12.5-3.562-4.732-6.639-8.822-5.032-13.441,1.313-3.773,4.858-5.108,8.611-6.524,4-1.506,8.524-3.212,11.773-8.1,4.752-7.153,4.917-17.988.362-23.663-3.739-4.656-9.742-5.113-15.038-5.517-4.547-.345-8.474-.645-9.775-3.669-1.447-3.36,1.79-6.609,6.272-11.1,4.768-4.782,11.3-11.332,14.718-20.906,3.958-11.094,4.561-28.911-6.771-42.625-6.62-8.011-17.489-15.029-28.628-15.029Z" transform="translate(-597.475 -331.535)"/>
      </g>
      <path id="Path_3301" data-name="Path 3301" d="M745.036,635.931a.622.622,0,0,1-.533-.3,167.018,167.018,0,0,1-21.234-60.007,208.793,208.793,0,0,1-.909-54.826c3.565-32.3,12.993-55.264,13.088-55.491a.62.62,0,1,1,1.144.477c-.1.227-9.461,23.054-13,55.191-3.265,29.629-2.1,73.463,21.98,114.025a.621.621,0,0,1-.216.85.612.612,0,0,1-.314.087Z" transform="translate(-686.343 -427.508)"/>
    </g>
    <g id="Group_1031" data-name="Group 1031">
      <g id="Group_1030" data-name="Group 1030">
        <path id="Path_3302" data-name="Path 3302" d="M516.84,506.83c-57.283-25.065-71.8-45.7-73.339-60.762-.457-4.494-.328-13.761-5.377-24.956-6.55-14.519-15.444-18.165-23.573-27.736-15.9-18.718-18.667-48.091-11.756-69.839,4.827-15.192,18.51-39.657,39.309-41.236,8.8-.668,21.231,2.578,24.269,10.384,4.348,11.172-15.845,21.444-13.335,39.539,1.369,9.874,7.728,9.655,9.094,20.151,2.151,16.541-12.642,24.779-8.5,34.106,4.011,9.032,19.06,3.548,25.654,13.812,7.523,11.705-6.053,26.743,2.261,37.04,4.951,6.132,10.785,2.064,17.262,8.516,7.882,7.851,3.551,18.162,7.812,36.7a83.507,83.507,0,0,0,10.216,24.277Z" transform="translate(-398.674 -281.599)" fill="#fff"/>
        <path id="Path_3303" data-name="Path 3303" d="M515.394,505.864a.584.584,0,0,1-.247-.053c-26.134-11.436-45.561-22.956-57.749-34.246-9.677-8.965-15.046-18.056-15.96-27.02-.073-.7-.129-1.518-.194-2.44a61.745,61.745,0,0,0-5.13-22.325c-4.286-9.5-9.514-14.224-15.052-19.223a86.844,86.844,0,0,1-8.426-8.367c-17.127-20.165-18.159-50.641-11.874-70.428,4.673-14.707,18.328-40.033,39.853-41.665,8.348-.634,21.59,2.292,24.891,10.78,2.174,5.59-1.324,10.763-5.374,16.751-4.32,6.39-9.217,13.629-7.927,22.928.648,4.682,2.429,6.979,4.317,9.408a19.6,19.6,0,0,1,4.777,10.749c1.153,8.872-2.53,15.542-5.489,20.9-2.74,4.959-4.9,8.878-3.057,13.032,1.834,4.132,6.132,5.01,11.1,6.025,5.156,1.052,11,2.247,14.5,7.7,3.857,6,2.387,12.754.968,19.284s-2.766,12.723,1.254,17.7c2.331,2.886,4.811,3.363,7.683,3.916s6.157,1.186,9.534,4.55c4.92,4.9,5.24,10.628,5.68,18.552a102.3,102.3,0,0,0,2.3,18.451,83.08,83.08,0,0,0,10.146,24.1.618.618,0,0,1-.07.726.625.625,0,0,1-.463.208ZM443.011,281.249q-1.17,0-2.3.084c-20.866,1.585-34.187,26.395-38.768,40.8-6.188,19.469-5.186,49.446,11.635,69.249a85.723,85.723,0,0,0,8.311,8.249c5.635,5.088,10.959,9.893,15.352,19.632a62.9,62.9,0,0,1,5.237,22.748c.064.906.121,1.711.191,2.4,1.98,19.427,25.94,39.438,71.23,59.491a81.678,81.678,0,0,1-9.324-22.8,104.683,104.683,0,0,1-2.328-18.659c-.424-7.649-.732-13.178-5.315-17.742-3.111-3.1-6.05-3.663-8.895-4.21-2.982-.575-5.8-1.116-8.412-4.356-4.393-5.442-2.923-12.2-1.5-18.743,1.366-6.286,2.78-12.782-.8-18.353-3.223-5.015-8.555-6.106-13.711-7.158-5.088-1.038-9.893-2.02-11.989-6.735s.314-9.083,3.105-14.134c3.021-5.473,6.446-11.672,5.346-20.143-.673-5.178-2.547-7.593-4.527-10.148a18.768,18.768,0,0,1-4.564-10c-1.355-9.767,3.683-17.217,8.129-23.792,3.854-5.7,7.184-10.625,5.245-15.61-2.527-6.494-12.569-10.078-21.34-10.078Z" transform="translate(-397.227 -280.013)"/>
      </g>
      <path id="Path_3304" data-name="Path 3304" d="M576.345,550.646a.615.615,0,0,1-.424-.168c-35.811-33.643-65.261-77.272-78.784-116.7-17.927-52.279-3.616-85.443-3.47-85.771a.619.619,0,1,1,1.13.5c-.146.325-14.247,33.082,3.509,84.865,13.458,39.25,42.79,82.688,78.461,116.2a.62.62,0,0,1-.424,1.071Z" transform="translate(-462.625 -328.669)"/>
    </g>
  </g>
  <g id="Group_1034" data-name="Group 1034" transform="translate(0 279.112)">
    <path id="Path_3305" data-name="Path 3305" d="M1.341,1000.44a183.678,183.678,0,0,0-.494,39.921c9.876,94.708,108.429,173.671,208.682,189.631,112.267,17.876,238.084-41.438,285.9-155.7A243.544,243.544,0,0,0,513.5,1000.44Z" transform="translate(0 -998.93)" fill="#f5b03c"/>
    <path id="Path_3306" data-name="Path 3306" d="M515.349,999.46H3.19a.62.62,0,0,1,0-1.24H515.349a.62.62,0,1,1,0,1.24Z" transform="translate(-1.849 -997.332)"/>
    <g id="Group_1033" data-name="Group 1033" transform="translate(139.476)">
      <path id="Path_3307" data-name="Path 3307" d="M621.834,1123.786c-45.113,0-90.806-10.636-111.919-26.911-9.422-7.262-13.627-15.195-12.491-23.57a.535.535,0,0,1,.034-.132l28.274-76.45a.621.621,0,0,1,1.164.432l-28.249,76.385c-1.041,7.882,3.007,15.4,12.028,22.356,16.5,12.721,48.3,22.238,85.067,25.464,38.524,3.383,75.3-.757,100.906-11.346,23.556-9.744,36.748-24.148,39.216-42.815l-9.195-70.175a.62.62,0,1,1,1.229-.163l9.206,70.257a.76.76,0,0,1,0,.16c-2.466,18.908-16.291,34.081-39.982,43.878-21.234,8.782-48.156,12.631-75.286,12.631Z" transform="translate(-497.243 -995.964)" fill="#fff"/>
      <path id="Path_3308" data-name="Path 3308" d="M830.95,1061.667h-.022l-132.143-1.823a2.122,2.122,0,0,1-2.067-2.446l14.207-60.621a.619.619,0,0,1,1.206.281l-14.2,60.574a.848.848,0,0,0,.208.656.862.862,0,0,0,.662.311l132.143,1.823a.226.226,0,0,0,.216-.208l1.759-64.554a.613.613,0,0,1,.637-.6.62.62,0,0,1,.6.637l-1.759,64.548a1.451,1.451,0,0,1-1.45,1.419Z" transform="translate(-640.748 -995.055)" fill="#fff"/>
      <path id="Path_3309" data-name="Path 3309" d="M801.118,1262.4c-14.235,0-27.946-3.057-36.785-10.008-8.364-6.578-11.248-15.943-8.342-27.09a.619.619,0,1,1,1.2.311c-2.811,10.785-.151,19.467,7.91,25.8,17.9,14.078,56.335,11.812,77.451.463,8.073-4.337,17.492-11.949,16.541-23.587a.619.619,0,0,1,1.234-.1c.8,9.739-5.144,18.308-17.189,24.779-11.068,5.947-26.838,9.425-42.019,9.428Z" transform="translate(-682.622 -1160.386)" fill="#fff"/>
    </g>
  </g>
  <g id="Group_1037" data-name="Group 1037" transform="translate(383.898 129.006)">
    <g id="Group_1035" data-name="Group 1035">
      <path id="Path_3310" data-name="Path 3310" d="M1445.618,569.016c16.664-15.394,36.986-43,14.311-53.718-10-4.726-17.927-11.84-19.775-23.677-1.955-12.538-.339-26.659-15.571-29.141-9.792-1.6-21.587,1.916-29.618,7.851-23.579,17.433-30.726,56.189-17.784,82.478,10.479,21.29,33.486,38.445,56.139,25.73A73.445,73.445,0,0,0,1445.618,569.016Z" transform="translate(-1370.191 -461.483)" fill="#fff"/>
      <path id="Path_3311" data-name="Path 3311" d="M1415.8,581.959a33.232,33.232,0,0,1-9.89-1.548c-12.286-3.815-23.817-14.617-30.846-28.9-6.32-12.838-8.089-29.225-4.853-44.958,3.349-16.286,11.456-29.884,22.827-38.291,8.533-6.308,20.625-9.506,30.086-7.966,13.085,2.135,14.207,12.827,15.293,23.166.224,2.143.457,4.356.791,6.491,1.59,10.193,7.944,17.786,19.427,23.211,5.972,2.822,9.419,6.99,10.247,12.387,1.961,12.791-11.321,30.26-24.4,42.347a73.939,73.939,0,0,1-12.415,9.607,32.886,32.886,0,0,1-16.258,4.446Zm2.348-120.805a42.882,42.882,0,0,0-24.375,8.109c-22.583,16.7-30.8,54.874-17.6,81.706,6.883,13.98,18.137,24.546,30.1,28.26a30.948,30.948,0,0,0,25.178-2.8,72.662,72.662,0,0,0,12.179-9.439c12.85-11.871,25.907-28.939,24.019-41.25-.76-4.965-3.975-8.819-9.551-11.453-11.882-5.616-18.462-13.512-20.123-24.14-.337-2.165-.572-4.4-.8-6.552-1.083-10.334-2.107-20.092-14.258-22.072a29.688,29.688,0,0,0-4.774-.37Zm25.907,106.295Z" transform="translate(-1368.628 -459.916)"/>
    </g>
    <g id="Group_1036" data-name="Group 1036" transform="translate(14.636 39.95)">
      <path id="Path_3312" data-name="Path 3312" d="M1528.8,806.7a.62.62,0,0,1-.62-.62V706.99a.62.62,0,1,1,1.24,0v99.086A.62.62,0,0,1,1528.8,806.7Z" transform="translate(-1498.062 -677.19)"/>
      <path id="Path_3313" data-name="Path 3313" d="M1530.53,745.153a.626.626,0,0,1-.331-.1.618.618,0,0,1-.193-.853l13.411-21.276a.619.619,0,0,1,1.049.659l-13.411,21.276A.617.617,0,0,1,1530.53,745.153Z" transform="translate(-1499.306 -688.897)"/>
      <path id="Path_3314" data-name="Path 3314" d="M1451.081,621.819a.622.622,0,0,1-.544-.323l-9.91-18.238a.619.619,0,1,1,1.088-.592l9.91,18.238a.621.621,0,0,1-.25.841.631.631,0,0,1-.295.076Z" transform="translate(-1435.013 -602.342)"/>
      <path id="Path_3315" data-name="Path 3315" d="M1431.626,751.814a.619.619,0,0,1-.379-.129l-10.2-7.9a.62.62,0,0,1,.76-.979l10.2,7.9a.621.621,0,0,1-.381,1.111Z" transform="translate(-1420.806 -703.31)"/>
    </g>
  </g>
  <g id="Group_1055" data-name="Group 1055" transform="translate(314.089 125.389)">
    <g id="Group_1038" data-name="Group 1038" transform="translate(21.362 1.789)">
      <path id="Path_3316" data-name="Path 3316" d="M1220.593,515.335c-2.182,1.245-10.676-22.549-9.935-41.228.168-3.38.457-6.754.718-10.134.121-1.565.208-3.265-.679-4.561a5.6,5.6,0,0,0-1.487-1.386,14.116,14.116,0,0,0-11.063-2.1c-.18.292.185.609.491.769a12.957,12.957,0,0,1,4.746,4.3c.684,1.038,1.206,2.443.513,3.473-.132.157-3.408-1.335-3.975-1.231-2.435.449,2.387,4.039,3.069,4.662a5.9,5.9,0,0,1,1.725,2.157c.454,1.217-.062,2.769-.32,3.989-.345,1.63-.645,3.268-.884,4.914a53.317,53.317,0,0,0-.55,10.05c.452,9.983,2.738,22.336,9.871,29.882l6.165,3.08,1.59-6.648Z" transform="translate(-1197.485 -454.966)" fill="#fff"/>
      <path id="Path_3317" data-name="Path 3317" d="M1217.429,521.038a.639.639,0,0,1-.278-.065l-6.165-3.08a.653.653,0,0,1-.174-.129c-7.526-7.958-9.613-20.858-10.042-30.28a54.1,54.1,0,0,1,.555-10.168c.227-1.568.519-3.189.892-4.954.045-.21.1-.432.149-.659a5.636,5.636,0,0,0,.2-2.984A5.5,5.5,0,0,0,1201,466.8c-.087-.079-.244-.208-.446-.373-2.409-1.986-3.75-3.349-3.467-4.446a1.285,1.285,0,0,1,1.15-.909,7.164,7.164,0,0,1,2.763.774c.311.118.7.261.976.359a3.489,3.489,0,0,0-.682-2.423,12.268,12.268,0,0,0-4.519-4.1,1.611,1.611,0,0,1-.833-.906.922.922,0,0,1,.107-.738.62.62,0,0,1,.387-.278,14.762,14.762,0,0,1,11.554,2.191,6.133,6.133,0,0,1,1.644,1.546c.971,1.417.926,3.153.785,4.959l-.154,1.961c-.21,2.673-.429,5.436-.564,8.154-.724,18.235,7.183,39.542,9.133,40.6a.618.618,0,0,1,.785.735l-1.59,6.648a.62.62,0,0,1-.6.477Zm-5.789-4.2,5.369,2.684,1.254-5.242c-.014-.008-.028-.017-.045-.025-2.948-1.792-10.451-24.154-9.753-41.727.137-2.74.356-5.515.567-8.2l.154-1.961c.121-1.576.168-3.08-.572-4.163a5,5,0,0,0-1.327-1.223,13.555,13.555,0,0,0-9.579-2.193,13.577,13.577,0,0,1,4.623,4.32c1.041,1.579,1.226,3.1.508,4.163a.348.348,0,0,1-.039.051c-.342.407-.668.283-2.236-.306a14.61,14.61,0,0,0-2.149-.71.5.5,0,0,0-.121.039c.056.3.567,1.091,3.049,3.136.224.185.4.328.494.415a4.885,4.885,0,0,1,1.739,6.1c-.051.216-.1.426-.143.628-.368,1.739-.654,3.335-.878,4.878a53.023,53.023,0,0,0-.544,9.932c.415,9.178,2.426,21.716,9.629,29.4Z" transform="translate(-1195.908 -453.402)"/>
    </g>
    <g id="Group_1041" data-name="Group 1041" transform="translate(30.841 14.324)">
      <g id="Group_1039" data-name="Group 1039" transform="translate(6.07 17.881)">
        <path id="Path_3318" data-name="Path 3318" d="M1255.061,579.921l1.029,6.46c2.757,2.788,6.813,2.676,12.359-.769l-.168-11.38L1253.56,564.05Z" transform="translate(-1252.938 -563.43)" fill="#fff"/>
        <path id="Path_3319" data-name="Path 3319" d="M1259.18,587.37a6.962,6.962,0,0,1-5.13-2.146.624.624,0,0,1-.171-.339l-1.029-6.46s0-.025-.006-.039l-1.5-15.871a.618.618,0,0,1,.968-.567l14.72,10.182a.617.617,0,0,1,.266.5l.168,11.38a.621.621,0,0,1-.292.536c-3.029,1.882-5.7,2.825-8,2.825Zm-4.109-2.881c2.558,2.446,6.213,2.179,11.155-.813l-.157-10.707-13.363-9.245,1.372,14.527Z" transform="translate(-1251.34 -561.838)"/>
      </g>
      <g id="Group_1040" data-name="Group 1040" transform="translate(0 3.605)">
        <path id="Path_3320" data-name="Path 3320" d="M1243.569,514.4c-2.637,1.649-4.71,4.6-6.724,6.7a19.007,19.007,0,0,0-3.677,4.6c-1.024,2.129-1.823,4.867-.682,7.111,1.907,3.75,7.885,3.646,9.248,3.487s10.979-2.527,14.266-10.062c2.283-5.229-2.482-12.909-8.182-13.08a7.448,7.448,0,0,0-4.247,1.237Z" transform="translate(-1231.303 -512.537)" fill="#fff"/>
        <path id="Path_3321" data-name="Path 3321" d="M1238.859,535.393c-2.6,0-6.9-.687-8.527-3.891-1.027-2.02-.8-4.6.676-7.66a17.253,17.253,0,0,1,3.358-4.317l.432-.449c.564-.589,1.128-1.24,1.725-1.93a24.205,24.205,0,0,1,5.116-4.869,8.09,8.09,0,0,1,4.595-1.332c2.85.087,5.672,1.9,7.545,4.861s2.337,6.451,1.187,9.085c-3.285,7.529-12.625,10.177-14.76,10.429a11.667,11.667,0,0,1-1.344.07ZM1246,512.184a6.882,6.882,0,0,0-3.708,1.144,23.3,23.3,0,0,0-4.839,4.631c-.609.7-1.184,1.366-1.767,1.975l-.435.452a16.321,16.321,0,0,0-3.133,3.992c-1.3,2.7-1.529,4.9-.687,6.561,1.633,3.212,6.906,3.355,8.623,3.153,1.655-.2,10.7-2.665,13.77-9.694.987-2.261.567-5.3-1.1-7.927-1.652-2.609-4.1-4.213-6.536-4.283l-.191,0Zm-4.036.62Z" transform="translate(-1229.701 -510.942)"/>
      </g>
      <path id="Path_3322" data-name="Path 3322" d="M1259.833,499.863a5.8,5.8,0,0,1-2.244-1.307,4.943,4.943,0,0,0,1.178,1.983,15.887,15.887,0,0,1-2.993-2.449,6.85,6.85,0,0,0,.463,3.888,7.687,7.687,0,0,0,1.456,1.907c1.857,1.907,4.429,2.979,6.365,4.811,2.85,2.69,1.809,5.568.39,8.869.516-1.2,9.512-2.912,1,5.251-1.338,1.282-.712,4.569.687,5.714a1.373,1.373,0,0,0,2.053-.37c.323-.4.553-.872.895-1.259a5.632,5.632,0,0,1,2.581-1.4c3.574-1.17,6.435-2.721,8.275-6.132,5.862-10.878-8.331-20.945-18.218-19.455a4.577,4.577,0,0,1-1.882-.056Z" transform="translate(-1248.4 -498.09)"/>
    </g>
    <g id="Group_1042" data-name="Group 1042">
      <path id="Path_3323" data-name="Path 3323" d="M1160.022,499.632c-1.492,2.02-20.925-12.676-27.8-30.055,0,0-1.846-4.735-1.531-5.991,1.043-4.177,2.536-8.625-1.338-11.96a10.592,10.592,0,0,0-5.043-2.244c-.539-.1-2.188-.471-2.348.4-.132.724,1.3,1.725,1.691,2.216a16.147,16.147,0,0,1,1.82,2.965,6.472,6.472,0,0,1,.844,3.287.907.907,0,0,1-.359.755.887.887,0,0,1-.735-.022c-.875-.337-1.086-.906-1.565-1.579-.2-.275-.583-1.192-1.024-.269a9.073,9.073,0,0,0-.1,3.93c.334,1.843,1.464,2.965,2.659,4.219.7.738,1.172,6.264,1.172,6.264,1.9,14.432,14.768,33.416,25.966,38.109l9.38-4.6-1.691-5.43Z" transform="translate(-1121.333 -448.602)" fill="#fff"/>
      <path id="Path_3324" data-name="Path 3324" d="M1150.752,508.7a.634.634,0,0,1-.238-.048c-11.349-4.757-24.4-23.876-26.342-38.6-.216-2.527-.673-5.492-1.013-5.924l-.135-.14a8.313,8.313,0,0,1-2.682-4.387,9.566,9.566,0,0,1,.149-4.308,1.119,1.119,0,0,1,.917-.755c.583-.008.9.5,1.1.816.028.045.051.084.073.115.1.14.191.278.278.41a1.926,1.926,0,0,0,1,.951.679.679,0,0,0,.213.053c0-.017.028-.1.042-.258a5.994,5.994,0,0,0-.783-2.968,15.482,15.482,0,0,0-1.747-2.85,5.792,5.792,0,0,0-.454-.449c-.676-.628-1.517-1.408-1.36-2.264a1.2,1.2,0,0,1,.5-.783,3.557,3.557,0,0,1,2.449-.14l.112.022a11.081,11.081,0,0,1,5.338,2.384c3.9,3.355,2.76,7.8,1.756,11.711l-.222.87c-.166.665.637,3.377,1.506,5.616,6.642,16.782,24.249,29.859,26.687,29.859a.324.324,0,0,0,.093-.008.619.619,0,0,1,1.035.247l1.691,5.43a.621.621,0,0,1-.32.741l-9.38,4.6a.622.622,0,0,1-.272.062Zm-29.225-52.577a10.245,10.245,0,0,0,.036,3.257,7.248,7.248,0,0,0,2.356,3.753l.14.149c.771.808,1.195,4.912,1.341,6.639,1.879,14.227,14.373,32.684,25.332,37.48l8.648-4.238-1.341-4.3a2.015,2.015,0,0,1-.359-.017c-3.832-.5-21.152-14.269-27.621-30.616-.32-.825-1.9-4.99-1.557-6.367l.222-.875c1-3.916,1.949-7.613-1.363-10.465a9.991,9.991,0,0,0-4.752-2.1l-.123-.022c-1.167-.222-1.453-.112-1.52-.053.034.216.71.844,1,1.114a6.29,6.29,0,0,1,.583.586,16.489,16.489,0,0,1,1.891,3.08,7.045,7.045,0,0,1,.9,3.61,1.322,1.322,0,0,1-1.933,1.262,3.105,3.105,0,0,1-1.6-1.431c-.076-.118-.157-.241-.247-.367-.014-.02-.028-.042-.045-.065Zm36.417,41.564Z" transform="translate(-1119.752 -447.023)"/>
    </g>
    <g id="Group_1053" data-name="Group 1053" transform="translate(10.74 91.226)">
      <g id="Group_1047" data-name="Group 1047" transform="translate(1.209 47.371)">
        <g id="Group_1043" data-name="Group 1043">
          <path id="Path_3325" data-name="Path 3325" d="M1182.229,989.367s2.6,5.593,1.458,8.639l-.255,1.22,9.209-4.028-.842-.858a12.536,12.536,0,0,1-3.133-5.338c-2.048-12.39-5.071-23.293-10.221-30.97a1.475,1.475,0,0,1-.252-.928l2.017-7.736-12.336-6.028L1164.56,956.9a7.366,7.366,0,0,0,.839,2.407l16.83,30.061Z" transform="translate(-1163.94 -942.721)" fill="#fff"/>
          <path id="Path_3326" data-name="Path 3326" d="M1181.843,998.255a.617.617,0,0,1-.606-.743l.255-1.22c.006-.031.017-.062.025-.093.858-2.286-.732-6.628-1.431-8.137l-16.819-30.041a7.893,7.893,0,0,1-.909-2.609.665.665,0,0,1,.008-.247l3.313-13.562a.612.612,0,0,1,.339-.412.619.619,0,0,1,.536.006l12.336,6.028a.622.622,0,0,1,.328.712l-2,7.672a.885.885,0,0,0,.149.491c4.667,6.959,7.944,16.866,10.314,31.18a12,12,0,0,0,2.97,5.041l.842.858a.62.62,0,0,1-.194,1l-9.209,4.028a.6.6,0,0,1-.25.053Zm.85-1.669,7.287-3.186-.213-.216a13.252,13.252,0,0,1-3.287-5.6.515.515,0,0,1-.014-.07c-2.339-14.151-5.557-23.915-10.126-30.726a2.091,2.091,0,0,1-.356-1.313.4.4,0,0,1,.02-.115l1.891-7.248-11.192-5.467-3.1,12.69a6.651,6.651,0,0,0,.746,2.081l16.83,30.061s.014.028.022.042c.109.238,2.67,5.812,1.495,9.071Z" transform="translate(-1162.352 -941.133)"/>
        </g>
        <g id="Group_1046" data-name="Group 1046" transform="translate(10.235 48.05)">
          <g id="Group_1044" data-name="Group 1044">
            <path id="Path_3327" data-name="Path 3327" d="M1217.987,1114.928c.726,1,2.55,3.888,3.529,5.672a2.517,2.517,0,0,1-.746,3.254c-2.909,2.081-10.659,4.931-16.993,7.618a1.767,1.767,0,0,1-2.087-.662c-2.578-3.167,3.773-6.816,9.088-13a.412.412,0,0,1,.421-.132c.1.025.222.056.365.087a4.788,4.788,0,0,0,4.292-1.565l1.035-1.3a.688.688,0,0,1,1.1.025Z" transform="translate(-1200.465 -1114.024)" fill="#fff"/>
            <path id="Path_3328" data-name="Path 3328" d="M1201.55,1130.621a2.513,2.513,0,0,1-1.964-1.007c-2.154-2.648.69-5.386,4.294-8.85,1.5-1.447,3.212-3.088,4.8-4.94a1.045,1.045,0,0,1,1.052-.325c.087.022.2.053.331.078a4.134,4.134,0,0,0,3.677-1.346l1.035-1.3a1.246,1.246,0,0,1,1.049-.494,1.3,1.3,0,0,1,1.032.541h0c.757,1.043,2.592,3.952,3.571,5.739a3.139,3.139,0,0,1-.928,4.056c-2.224,1.59-7.01,3.543-12.078,5.607-1.7.693-3.414,1.391-5.032,2.079a2.213,2.213,0,0,1-.847.168Zm7.991-13.9c-1.607,1.857-3.3,3.489-4.8,4.931-3.593,3.456-5.562,5.495-4.193,7.175a1.155,1.155,0,0,0,1.366.482c1.624-.69,3.344-1.391,5.049-2.084,4.777-1.947,9.719-3.961,11.823-5.467a1.9,1.9,0,0,0,.564-2.454c-.931-1.7-2.755-4.6-3.484-5.6a.068.068,0,0,0-.059-.031l-1.091,1.327a5.359,5.359,0,0,1-4.906,1.787c-.1-.022-.188-.042-.269-.062Zm-.126-.034Z" transform="translate(-1198.841 -1112.435)"/>
          </g>
          <g id="Group_1045" data-name="Group 1045" transform="translate(0.293 5.814)">
            <path id="Path_3329" data-name="Path 3329" d="M1222.746,1136.286c.02.031.031.051.036.062.614,1.119-.238,2.266-1.125,3.17-2.628,2.687-15.823,6.634-16.333,6.785l-.028.008c-.16.062-1.792.673-2.645-.168a1.829,1.829,0,0,1-.292-.426,2.471,2.471,0,0,1-.261-.83.417.417,0,0,1,.367-.477c2.617-.281,8.272-2.16,13.621-4.855,3.554-1.792,4.864-3.2,5.531-4.036a.419.419,0,0,1,.687.048c.129.208.286.463.443.721Z" transform="translate(-1201.474 -1134.744)" fill="#fff"/>
            <path id="Path_3330" data-name="Path 3330" d="M1202.315,1145.625a2.119,2.119,0,0,1-2.093-1.2,3.084,3.084,0,0,1-.328-1.038,1.057,1.057,0,0,1,.21-.788,1.019,1.019,0,0,1,.7-.39c2.4-.258,7.916-2.025,13.408-4.791,3.349-1.689,4.645-3.018,5.327-3.868a1.038,1.038,0,0,1,1.7.109l.443.721h0l-.527.323.533-.314s.045.073.051.084c.926,1.691-.64,3.293-1.229,3.893-2.757,2.816-16.036,6.777-16.6,6.945a4.621,4.621,0,0,1-1.593.311Zm-1.159-2.208a1.743,1.743,0,0,0,.16.429,1.3,1.3,0,0,0,.18.278c.48.474,1.593.185,1.983.031l.079-.028c4.67-1.386,14.039-4.552,16.067-6.623,1.046-1.069,1.363-1.823,1.024-2.44l.508-.359-.527.325-.3-.485a16.738,16.738,0,0,1-5.557,3.98C1209.305,1141.28,1203.766,1143.073,1201.157,1143.418Z" transform="translate(-1199.885 -1133.164)"/>
          </g>
          <path id="Path_3331" data-name="Path 3331" d="M1229.849,1134.1a.665.665,0,0,1-.18-.025l-2.508-.757a.618.618,0,0,1,.359-1.184l2.508.757a.619.619,0,0,1-.179,1.212Z" transform="translate(-1218.901 -1126.585)"/>
          <path id="Path_3332" data-name="Path 3332" d="M1222.826,1141.62a.644.644,0,0,1-.177-.025l-2.188-.645a.619.619,0,0,1,.351-1.187l2.188.645a.618.618,0,0,1-.177,1.212Z" transform="translate(-1214.077 -1132.079)"/>
        </g>
      </g>
      <g id="Group_1052" data-name="Group 1052" transform="translate(28.201 45.797)">
        <g id="Group_1048" data-name="Group 1048">
          <path id="Path_3333" data-name="Path 3333" d="M1281.442,982.183s3.116,5.324,2.266,8.463l-.137,1.237,8.788-4.878-.917-.774a12.565,12.565,0,0,1-3.621-5.018c-3.2-12.143-7.243-22.712-13.091-29.87a1.488,1.488,0,0,1-.339-.9l-2.224-12.157-9.343-.575-2.022,13.812a7.362,7.362,0,0,0,1.06,2.317l19.584,28.344Z" transform="translate(-1260.177 -937.096)" fill="#fff"/>
          <path id="Path_3334" data-name="Path 3334" d="M1281.971,990.926a.627.627,0,0,1-.342-.1.618.618,0,0,1-.272-.583l.137-1.237a.56.56,0,0,1,.017-.093c.64-2.359-1.352-6.53-2.191-7.969l-19.57-28.325a7.837,7.837,0,0,1-1.15-2.513.651.651,0,0,1-.014-.244l2.022-13.812a.634.634,0,0,1,.651-.527l9.343.575a.623.623,0,0,1,.572.508l2.224,12.157a.523.523,0,0,1,.008.1.866.866,0,0,0,.2.527c5.3,6.488,9.495,16.042,13.2,30.067a11.989,11.989,0,0,0,3.433,4.738l.917.774a.623.623,0,0,1,.216.533.614.614,0,0,1-.317.48l-8.788,4.878a.6.6,0,0,1-.3.079Zm.749-1.742,6.954-3.86-.233-.2a13.2,13.2,0,0,1-3.8-5.268.632.632,0,0,1-.022-.067c-3.661-13.868-7.781-23.284-12.97-29.635a2.087,2.087,0,0,1-.474-1.223l-2.129-11.638-8.292-.51-1.921,13.122a6.631,6.631,0,0,0,.94,2l19.584,28.344.025.039c.132.224,3.206,5.534,2.342,8.889Z" transform="translate(-1258.58 -935.519)"/>
        </g>
        <g id="Group_1051" data-name="Group 1051" transform="translate(14.801 45.639)">
          <g id="Group_1049" data-name="Group 1049">
            <path id="Path_3335" data-name="Path 3335" d="M1329.075,1100.671c.816.923,2.906,3.63,4.045,5.313a2.521,2.521,0,0,1-.435,3.31c-2.7,2.348-10.146,5.913-16.2,9.183a1.769,1.769,0,0,1-2.14-.463c-2.864-2.912,3.114-7.139,7.823-13.792a.409.409,0,0,1,.407-.171c.1.017.224.036.37.053a4.785,4.785,0,0,0,4.126-1.964l.909-1.391a.687.687,0,0,1,1.094-.076Z" transform="translate(-1312.968 -1099.817)" fill="#fff"/>
            <path id="Path_3336" data-name="Path 3336" d="M1314.119,1117.687a2.542,2.542,0,0,1-1.834-.83c-2.4-2.432.18-5.428,3.442-9.214,1.36-1.582,2.906-3.374,4.317-5.369a1.036,1.036,0,0,1,1.018-.424c.09.014.2.031.337.048a4.2,4.2,0,0,0,3.534-1.686l.909-1.394a1.31,1.31,0,0,1,2.078-.149c.853.968,2.954,3.691,4.1,5.377a3.138,3.138,0,0,1-.541,4.126c-2.064,1.8-6.648,4.188-11.5,6.721-1.627.85-3.265,1.705-4.811,2.541a2.2,2.2,0,0,1-1.041.255Zm6.864-14.6c-1.425,2-2.959,3.784-4.317,5.36-3.254,3.778-5.021,5.994-3.5,7.54a1.152,1.152,0,0,0,1.4.351c1.551-.839,3.195-1.7,4.827-2.55,4.575-2.387,9.307-4.858,11.259-6.558a1.9,1.9,0,0,0,.328-2.494c-1.088-1.6-3.175-4.32-4-5.251a.062.062,0,0,0-.059-.025l-.959,1.425a5.347,5.347,0,0,1-4.715,2.238C1321.154,1103.115,1321.064,1103.1,1320.983,1103.09Z" transform="translate(-1311.347 -1098.225)"/>
          </g>
          <g id="Group_1050" data-name="Group 1050" transform="translate(0.36 5.429)">
            <path id="Path_3337" data-name="Path 3337" d="M1334.591,1120.645a.422.422,0,0,1,.042.059c.715,1.057-.025,2.278-.822,3.262-2.365,2.923-15.13,8.092-15.624,8.292-.011,0-.017.008-.028.011-.151.076-1.722.839-2.648.081a1.832,1.832,0,0,1-.331-.4,2.532,2.532,0,0,1-.339-.8.419.419,0,0,1,.32-.51c2.581-.525,8.034-2.928,13.1-6.115,3.369-2.118,4.541-3.644,5.128-4.538a.42.42,0,0,1,.687-.02l.51.676Z" transform="translate(-1314.214 -1119.175)" fill="#fff"/>
            <path id="Path_3338" data-name="Path 3338" d="M1314.976,1131.709a2.208,2.208,0,0,1-1.436-.474,2.4,2.4,0,0,1-.457-.536,3.134,3.134,0,0,1-.424-1,1.056,1.056,0,0,1,.137-.805,1.018,1.018,0,0,1,.662-.454c2.367-.482,7.691-2.76,12.9-6.033,3.175-2,4.339-3.439,4.94-4.353a1.042,1.042,0,0,1,.83-.469,1.008,1.008,0,0,1,.867.415l.51.679c.031.042.053.073.062.087,1.085,1.6-.376,3.4-.856,4-2.418,2.987-14.5,7.921-15.871,8.477a4.518,4.518,0,0,1-1.863.471Zm-1.055-2.1a1.758,1.758,0,0,0,.2.412,1.132,1.132,0,0,0,.208.258c.522.424,1.6.031,1.978-.157.022-.011.076-.034.1-.042,4.5-1.818,13.54-5.862,15.346-8.1.943-1.164,1.187-1.941.791-2.525a.351.351,0,0,1-.025-.034l-.342-.454a16.72,16.72,0,0,1-5.156,4.488c-5.181,3.257-10.527,5.562-13.094,6.151Z" transform="translate(-1312.632 -1117.581)"/>
          </g>
          <path id="Path_3339" data-name="Path 3339" d="M1339.267,1122.423a.613.613,0,0,1-.124-.011l-2.569-.519a.619.619,0,0,1,.244-1.214l2.569.519a.619.619,0,0,1-.121,1.226Z" transform="translate(-1329.14 -1114.371)"/>
          <path id="Path_3340" data-name="Path 3340" d="M1333,1130.589a.557.557,0,0,1-.118-.011l-2.238-.435a.619.619,0,0,1,.238-1.215l2.238.435a.62.62,0,0,1-.118,1.229Z" transform="translate(-1324.873 -1120.307)"/>
        </g>
      </g>
      <path id="Path_3341" data-name="Path 3341" d="M1247.6,841.172c-3.624-7.119-3.377-20.53-2.452-26.8,2.014-13.663-1.994-22.42-1.994-22.42-.724,1-8.97,3.554-8.97,3.554l-13.764,20.308s6.123,20.878,10.286,31.663c8.216,2.654,10.364-1.447,16.9-6.3Z" transform="translate(-1202.923 -786.424)"/>
      <path id="Path_3342" data-name="Path 3342" d="M1196.886,772.25c-10.28,3.352-22.538,7.781-22.538,7.781s-13.312,27.121-16.308,43.817c6.005,3.33,11.433,7.276,18.328,7.733.833-5.45,7.641-20.555,13.318-26.538,12.089-12.735,7.2-32.793,7.2-32.793Z" transform="translate(-1158.04 -772.25)"/>
      <path id="Path_3343" data-name="Path 3343" d="M1218.3,874.663a.618.618,0,0,1-.589-.429c-1.523-4.693-3.088-9.845-4.656-15.321a.619.619,0,1,1,1.189-.342c1.562,5.458,3.125,10.6,4.645,15.279a.619.619,0,0,1-.4.78.662.662,0,0,1-.191.031Z" transform="translate(-1197.607 -834.035)" fill="#fff"/>
    </g>
    <g id="Group_1054" data-name="Group 1054" transform="translate(19.878 43.903)">
      <path id="Path_3344" data-name="Path 3344" d="M1230.233,624.526c-1.2-3.24-4.926-9.781-5.06-11.04a.513.513,0,0,0-.763-.387,8.52,8.52,0,0,1-8.788-.353l-13.495-7.015-9.307,11.094,8.07,9.141a6.309,6.309,0,0,1,1.346,5.9c-3.5,12.314-7.773,33.6-6.536,34.412,7.029,4.645,29.189,2.311,29.189,2.311,2.048-1.229,8.233-36.268,5.344-44.072Z" transform="translate(-1192.202 -605.116)" fill="#fff"/>
      <path id="Path_3345" data-name="Path 3345" d="M1211.324,668.237c-6.5,0-13.9-.6-17.551-3.01-.435-.286-1.24-.819,1.226-13.528,1.425-7.346,3.363-15.613,5.057-21.568a5.669,5.669,0,0,0-1.215-5.327l-8.07-9.141a.621.621,0,0,1-.011-.808l9.307-11.094a.619.619,0,0,1,.76-.151l13.495,7.015a.743.743,0,0,1,.079.048,7.831,7.831,0,0,0,8.123.311,1.142,1.142,0,0,1,1.08-.014,1.12,1.12,0,0,1,.6.878,35.035,35.035,0,0,0,2.2,4.839c1.1,2.2,2.236,4.468,2.822,6.053,1.832,4.945.059,19-.788,24.8-.028.188-2.757,18.777-4.816,20.011a.6.6,0,0,1-.255.084C1222.923,667.688,1217.54,668.237,1211.324,668.237Zm11.98-1.215Zm-28.745-2.763c6.53,4.154,26.288,2.379,28.482,2.165,1.7-2.247,7.848-35.64,5.024-43.258h0c-.564-1.523-1.734-3.862-2.768-5.93a31.8,31.8,0,0,1-2.3-5.1,9.058,9.058,0,0,1-9.282-.435l-13.018-6.768-8.645,10.306,7.717,8.74a6.9,6.9,0,0,1,1.478,6.485c-3.677,12.942-7.248,31.8-6.687,33.794Z" transform="translate(-1190.617 -603.541)"/>
    </g>
  </g>
  <g id="Group_1056" data-name="Group 1056" transform="translate(61.418 39.954)">
    <circle id="Ellipse_55" data-name="Ellipse 55" cx="26.631" cy="26.631" r="26.631" transform="translate(0.62 0.62)" fill="#fff"/>
    <path id="Path_3346" data-name="Path 3346" d="M246.21,196.941a27.25,27.25,0,1,1,27.25-27.25A27.281,27.281,0,0,1,246.21,196.941Zm0-53.264a26.013,26.013,0,1,0,26.013,26.013A26.044,26.044,0,0,0,246.21,143.677Z" transform="translate(-218.96 -142.44)"/>
  </g>
  <g id="Group_1060" data-name="Group 1060" transform="translate(14.72 180.295)">
    <path id="Path_3347" data-name="Path 3347" d="M1786.47,913.61a4.789,4.789,0,0,1-1.736-.328,4.858,4.858,0,0,1-2.713-2.631,4.985,4.985,0,0,1,2.485-6.508,4.745,4.745,0,0,1,3.694-.1,4.872,4.872,0,0,1,2.715,2.631,4.986,4.986,0,0,1-2.485,6.51,4.8,4.8,0,0,1-1.961.424Zm-1.456-8.336a3.742,3.742,0,0,0-1.857,4.889,3.619,3.619,0,0,0,2.025,1.966,3.514,3.514,0,0,0,2.738-.07,3.742,3.742,0,0,0,1.857-4.889,3.62,3.62,0,0,0-2.025-1.966A3.514,3.514,0,0,0,1785.014,905.274Z" transform="translate(-1296.593 -830.523)" fill="#fff"/>
    <g id="Group_1057" data-name="Group 1057" transform="translate(168.575 279.36)">
      <path id="Path_3348" data-name="Path 3348" d="M665,1752.42a.567.567,0,0,1-.118-.011c-3.644-.7-7.327-1.484-10.945-2.334a.62.62,0,1,1,.286-1.206c3.6.847,7.268,1.63,10.895,2.323a.618.618,0,0,1-.118,1.226Z" transform="translate(-653.46 -1717.958)" fill="#fff"/>
      <path id="Path_3349" data-name="Path 3349" d="M740.8,1719.928a254.952,254.952,0,0,1-47.9-4.6.62.62,0,0,1,.233-1.217c50.515,9.66,101.855,3.717,144.563-16.737a.62.62,0,1,1,.536,1.119,219.353,219.353,0,0,1-69.948,19.87,240.72,240.72,0,0,1-27.486,1.562Z" transform="translate(-681.477 -1680.877)" fill="#fff"/>
      <path id="Path_3350" data-name="Path 3350" d="M779.569,1685.5a232.89,232.89,0,0,1-27.9-1.689.62.62,0,0,1,.149-1.231c36.9,4.457,73.465.006,105.751-12.869a.619.619,0,1,1,.46,1.15,212.067,212.067,0,0,1-78.461,14.636Z" transform="translate(-723.73 -1660.984)" fill="#fff"/>
      <path id="Path_3351" data-name="Path 3351" d="M1154.683,1647.611a.608.608,0,0,1-.407-.154l-6.3-5.509a.619.619,0,0,1,.25-1.066l8.224-2.154a.618.618,0,0,1,.763.724c-.794,3.863-1.924,7.677-1.936,7.717a.617.617,0,0,1-.421.418.6.6,0,0,1-.171.025Zm-5.013-5.826,4.687,4.1c.334-1.192.923-3.377,1.433-5.7Z" transform="translate(-1009.113 -1638.708)" fill="#fff"/>
    </g>
    <g id="Group_1058" data-name="Group 1058">
      <path id="Path_3352" data-name="Path 3352" d="M82.628,649.177a.619.619,0,0,1-.418-1.077l3.557-3.231a.62.62,0,1,1,.833.917l-3.557,3.231A.617.617,0,0,1,82.628,649.177Z" transform="translate(-73.724 -644.163)" fill="#fff"/>
      <path id="Path_3353" data-name="Path 3353" d="M53.1,676.006a.619.619,0,0,1-.418-1.077l3.557-3.231a.62.62,0,0,1,.833.917l-3.557,3.231a.617.617,0,0,1-.415.16Z" transform="translate(-52.477 -663.467)" fill="#fff"/>
      <path id="Path_3354" data-name="Path 3354" d="M58.259,647.562a.622.622,0,0,1-.46-.2L54.568,643.8a.62.62,0,0,1,.917-.833l3.231,3.557a.618.618,0,0,1-.457,1.035Z" transform="translate(-53.866 -642.767)" fill="#fff"/>
      <path id="Path_3355" data-name="Path 3355" d="M85.089,677.1a.622.622,0,0,1-.46-.2L81.4,673.343a.62.62,0,1,1,.917-.833l3.231,3.557a.618.618,0,0,1-.457,1.035Z" transform="translate(-73.17 -664.021)" fill="#fff"/>
    </g>
    <g id="Group_1059" data-name="Group 1059" transform="translate(475.462 42.229)">
      <path id="Path_3356" data-name="Path 3356" d="M1777.7,799.716a.619.619,0,0,1-.418-1.077l3.557-3.231a.62.62,0,1,1,.833.917l-3.557,3.231A.617.617,0,0,1,1777.7,799.716Z" transform="translate(-1768.792 -794.706)" fill="#fff"/>
      <path id="Path_3357" data-name="Path 3357" d="M1748.158,826.546a.619.619,0,0,1-.418-1.077l3.557-3.231a.62.62,0,0,1,.833.917l-3.557,3.231a.617.617,0,0,1-.415.16Z" transform="translate(-1747.537 -814.01)" fill="#fff"/>
      <path id="Path_3358" data-name="Path 3358" d="M1753.329,798.112a.621.621,0,0,1-.46-.2l-3.231-3.557a.62.62,0,0,1,.917-.833l3.231,3.557a.618.618,0,0,1-.457,1.035Z" transform="translate(-1748.933 -793.317)" fill="#fff"/>
      <path id="Path_3359" data-name="Path 3359" d="M1780.159,827.652a.622.622,0,0,1-.46-.2l-3.231-3.557a.62.62,0,1,1,.917-.833l3.231,3.557a.618.618,0,0,1-.457,1.035Z" transform="translate(-1768.237 -814.572)" fill="#fff"/>
    </g>
  </g>
  <g id="Group_1074" data-name="Group 1074" transform="translate(375.831 235.747)">
    <circle id="Ellipse_56" data-name="Ellipse 56" cx="26.266" cy="26.266" r="26.266" transform="translate(0 99.554) rotate(-45)"/>
    <g id="Group_1065" data-name="Group 1065" transform="translate(44.445 183.76)">
      <g id="Group_1061" data-name="Group 1061" transform="translate(6.354)">
        <path id="Path_3360" data-name="Path 3360" d="M1549.509,1520.934c5.574,7.9,2.673,31.923.965,55.034a.806.806,0,0,1-.679.928l-8.317.513a.713.713,0,0,1-.718-.67c.227-10.844-4.415-33.04-9.032-55.171l-8.538-23.778,25.4,3.669Z" transform="translate(-1522.568 -1497.169)" fill="#fff"/>
        <path id="Path_3361" data-name="Path 3361" d="M1539.843,1576.438a1.33,1.33,0,0,1-1.293-1.215c0-.031-.006-.059-.006-.09.224-10.707-4.432-33.037-8.937-54.633l-.076-.359-8.524-23.739a.62.62,0,0,1,.673-.822l25.4,3.669a.617.617,0,0,1,.53.583l.909,19.3c4.825,7.136,3.31,25.977,1.705,45.918-.25,3.094-.5,6.216-.729,9.318a1.5,1.5,0,0,1-.345,1.077,1.3,1.3,0,0,1-.92.474l-8.317.513h-.079Zm-.059-1.338c.017.064.048.1.062.1l8.314-.513a.279.279,0,0,0,.1-.241.4.4,0,0,1,0-.115c.23-3.125.482-6.264.735-9.377,1.6-19.851,3.105-38.6-1.588-45.256a.623.623,0,0,1-.112-.328l-.892-18.964-23.876-3.45,8.191,22.81a.735.735,0,0,1,.022.084l.084.4c4.51,21.624,9.172,43.982,8.962,54.854Z" transform="translate(-1520.971 -1495.574)"/>
      </g>
      <g id="Group_1064" data-name="Group 1064" transform="translate(0 73)">
        <g id="Group_1062" data-name="Group 1062">
          <path id="Path_3362" data-name="Path 3362" d="M1535.489,1758.867c.552,1.978,1.717,7.554,2.2,10.906a4.2,4.2,0,0,1-3.06,4.645c-5.753,1.557-19.509,1.489-30.961,1.994a2.947,2.947,0,0,1-2.872-2.25c-2.18-6.446,9.857-8.44,21.755-14.993a.684.684,0,0,1,.735.039c.137.1.311.216.516.348a7.972,7.972,0,0,0,7.61.056l2.373-1.428a1.145,1.145,0,0,1,1.7.682Z" transform="translate(-1499.918 -1757.404)" fill="#fff"/>
          <path id="Path_3363" data-name="Path 3363" d="M1501.974,1775.458a3.6,3.6,0,0,1-3.36-2.67c-1.7-5.029,4.182-7.579,11.632-10.8,3.2-1.386,6.827-2.957,10.409-4.931a1.3,1.3,0,0,1,1.394.078c.129.093.295.2.488.328a7.346,7.346,0,0,0,6.959.048l2.373-1.428a1.769,1.769,0,0,1,2.614,1.046c.575,2.056,1.734,7.641,2.219,10.984a4.813,4.813,0,0,1-3.509,5.332c-4.351,1.178-12.934,1.433-22.022,1.7-3.021.09-6.146.182-9.074.311l-.126,0Zm19.321-17.332a.1.1,0,0,0-.042.011c-3.632,2-7.29,3.585-10.516,4.982-7.846,3.4-12.224,5.5-10.951,9.271a2.329,2.329,0,0,0,2.258,1.829c2.94-.129,6.067-.224,9.094-.314,8.617-.255,17.526-.522,21.736-1.661a3.577,3.577,0,0,0,2.609-3.961c-.466-3.214-1.627-8.824-2.188-10.83a.526.526,0,0,0-.317-.354.517.517,0,0,0-.466.039l-2.373,1.428a8.6,8.6,0,0,1-8.264-.064c-.216-.137-.4-.264-.544-.365A.061.061,0,0,0,1521.295,1758.126Z" transform="translate(-1498.319 -1755.825)"/>
        </g>
        <g id="Group_1063" data-name="Group 1063" transform="translate(0.156 11.316)">
          <path id="Path_3364" data-name="Path 3364" d="M1538.431,1800.328c.011.059.02.1.022.118.306,2.1-1.691,3.4-3.6,4.294-5.669,2.662-28.563,1.136-29.45,1.077h-.048c-.286.006-3.192.006-4.028-1.8a3.1,3.1,0,0,1-.208-.836,4.141,4.141,0,0,1,.076-1.45.7.7,0,0,1,.85-.533c4.25,1.085,14.171,1.447,24.089.356,6.592-.727,9.456-2.163,10.984-3.077a.7.7,0,0,1,1.043.471c.079.4.177.889.272,1.386Z" transform="translate(-1500.464 -1797.755)" fill="#fff"/>
          <path id="Path_3365" data-name="Path 3365" d="M1518.22,1805.345c-6.712,0-13.178-.415-14.451-.5-.367.006-3.6-.008-4.6-2.163a3.535,3.535,0,0,1-.258-1.015A4.805,4.805,0,0,1,1499,1800a1.329,1.329,0,0,1,.6-.844,1.3,1.3,0,0,1,1.007-.151c3.933,1.007,13.635,1.467,23.865.339,6.294-.693,9.139-2.039,10.732-2.993a1.318,1.318,0,0,1,1.969.884l.272,1.386h0l.025.143c.376,2.595-2.076,4.064-3.952,4.948-2.732,1.282-9.122,1.632-15.3,1.632Zm-14.463-1.739h.1c.962.064,23.635,1.568,29.144-1.018,2.449-1.15,3.453-2.275,3.254-3.644l-.289-1.47a.089.089,0,0,0-.05-.067.076.076,0,0,0-.07.006c-1.691,1.013-4.7,2.44-11.234,3.161-10.378,1.145-20.269.662-24.308-.37-.067.017-.087.034-.093.067a3.566,3.566,0,0,0-.067,1.234,2.381,2.381,0,0,0,.154.656c.682,1.47,3.344,1.445,3.458,1.445Z" transform="translate(-1498.876 -1796.166)"/>
        </g>
        <path id="Path_3366" data-name="Path 3366" d="M1565.611,1772.951a.625.625,0,0,1-.376-.126l-3.473-2.645a.619.619,0,0,1,.749-.985l3.473,2.645a.618.618,0,0,1-.376,1.111Z" transform="translate(-1543.791 -1765.354)"/>
        <path id="Path_3367" data-name="Path 3367" d="M1550.283,1780.628a.606.606,0,0,1-.37-.123l-3.038-2.28a.619.619,0,0,1,.743-.99l3.038,2.28a.619.619,0,0,1-.373,1.114Z" transform="translate(-1533.077 -1771.14)"/>
      </g>
    </g>
    <g id="Group_1068" data-name="Group 1068" transform="translate(84.671 181.217)">
      <path id="Path_3368" data-name="Path 3368" d="M1680.579,1554.274c-.94-4.693-24.844-37.52-27.1-41.138-.4-.645-7.195-14.951-5.927-16.087,3.108-2.788,16.44-5.728,20.039-7.338,1.038-.463,2.048,13.812,2.4,13.758,3.456-.712,13.405,37.059,17.357,42.125l3.613,3.3s-9.568,9.475-10.387,5.374Z" transform="translate(-1645.808 -1488.806)" fill="#fff"/>
      <path id="Path_3369" data-name="Path 3369" d="M1676.5,1555.194a1,1,0,0,1-.46-.1c-.337-.168-.712-.567-.586-1.5.4-2.945-18.847-31.183-27.079-42.316a15.636,15.636,0,0,1-2.213-4.219l-4.4-13.242a.621.621,0,0,1,.39-.783l19.192-6.491a.616.616,0,0,1,.78.376l3.888,10.735a14.133,14.133,0,0,0,1.949,3.579c1.694,2.286,4.171,9.568,7.038,18,3.212,9.444,6.853,20.151,9.433,23.4l2.934,3.576a.617.617,0,0,1-.045.833c-3.189,3.144-8.611,8.148-10.819,8.148Zm-33.374-61.18,4.216,12.681a14.529,14.529,0,0,0,2.028,3.849c3.329,4.5,27.879,39.029,27.309,43.219a1.158,1.158,0,0,0-.014.219c1.147-.07,5.6-3.75,9.38-7.425l-2.581-3.144c-2.721-3.422-6.238-13.77-9.644-23.778-2.715-7.989-5.282-15.531-6.861-17.663a15.415,15.415,0,0,1-2.121-3.9l-3.683-10.165-18.036,6.1Z" transform="translate(-1641.728 -1486.511)"/>
      <g id="Group_1066" data-name="Group 1066" transform="translate(32.048 56.341)">
        <path id="Path_3370" data-name="Path 3370" d="M1759.336,1698.037l4-6.036a5.383,5.383,0,0,1,8.252-.872l4.581,3.843a11.759,11.759,0,0,1,.6,4.348,35.954,35.954,0,0,1-2.457,8.521c-2.126,4.825-8.008,14.519-10.1,17.927-.438.713-1.537,1.419-2.3,1.077a10.7,10.7,0,0,1-2.757-1.991c-1.408-1.318-.934-7.489-.432-11.784a121.756,121.756,0,0,0-.036-12.676,3.97,3.97,0,0,1,.659-2.356Z" transform="translate(-1757.589 -1688.969)" fill="#fff"/>
        <path id="Path_3371" data-name="Path 3371" d="M1760.728,1725.953a1.675,1.675,0,0,1-.684-.143,11.137,11.137,0,0,1-2.928-2.1c-.8-.749-1.733-2.841-.623-12.308a121.581,121.581,0,0,0-.039-12.58,4.578,4.578,0,0,1,.76-2.724l4-6.036a6,6,0,0,1,9.2-.973l4.544,3.812a.629.629,0,0,1,.191.281,12.232,12.232,0,0,1,.62,4.642,36.585,36.585,0,0,1-2.5,8.67c-2.112,4.791-7.8,14.185-10.143,18a3.152,3.152,0,0,1-2.4,1.461Zm5.492-37.34q-.253,0-.5.025a4.751,4.751,0,0,0-3.47,2.1l-4,6.036a3.336,3.336,0,0,0-.555,1.989,121.3,121.3,0,0,1,.031,12.774c-1.055,8.973-.182,10.864.238,11.259a9.964,9.964,0,0,0,2.586,1.877c.367.165,1.178-.281,1.52-.836,1.82-2.962,7.927-13,10.064-17.851a35.411,35.411,0,0,0,2.412-8.37,10.607,10.607,0,0,0-.522-3.888l-4.44-3.728a4.8,4.8,0,0,0-3.363-1.391Zm-8.491,7.826Z" transform="translate(-1755.982 -1687.371)"/>
      </g>
      <path id="Path_3372" data-name="Path 3372" d="M1758.911,1740.229a.618.618,0,0,1-.166-1.214l4.306-1.184a.618.618,0,1,1,.328,1.192l-4.306,1.184a.676.676,0,0,1-.165.022Z" transform="translate(-1725.596 -1667.32)"/>
      <path id="Path_3373" data-name="Path 3373" d="M1760.051,1753.94a.618.618,0,0,1-.166-1.215l4.306-1.184a.618.618,0,0,1,.328,1.192l-4.306,1.184a.67.67,0,0,1-.166.022Z" transform="translate(-1726.416 -1677.184)"/>
      <g id="Group_1067" data-name="Group 1067" transform="translate(32.004 59.941)">
        <path id="Path_3374" data-name="Path 3374" d="M1763.439,1736.389a3.788,3.788,0,0,1-1.237-.2c-1.285-.443-4.5-1.4-4.143-6.014.373-4.78,4.008-7.214,6.662-10.35,2.025-2.393,1.82-12.4,2.46-14.364,1.142-3.512,6.275-4.042,8.855-1.259,1.63,1.759,1.823,5.573,1.663,8.381-.3,5.257-3.388,15.719-7.293,20.774a8.593,8.593,0,0,1-6.968,3.032Z" transform="translate(-1757.412 -1701.799)" fill="#fff"/>
        <path id="Path_3375" data-name="Path 3375" d="M1761.846,1735.416a4.351,4.351,0,0,1-1.433-.236l-.112-.039a5.838,5.838,0,0,1-4.446-6.609c.3-3.9,2.637-6.308,4.892-8.637.648-.667,1.316-1.36,1.916-2.067,1.206-1.425,1.585-6.485,1.834-9.831a25.539,25.539,0,0,1,.508-4.325,5,5,0,0,1,3.84-3.316,6.481,6.481,0,0,1,6.059,1.829c1.907,2.056,1.964,6.421,1.829,8.839-.286,5.066-3.321,15.812-7.422,21.119a9.29,9.29,0,0,1-7.456,3.273h-.006Zm8.39-33.968a5.246,5.246,0,0,0-1.125.121,3.8,3.8,0,0,0-2.928,2.491,27.4,27.4,0,0,0-.452,4.034c-.295,3.924-.659,8.8-2.123,10.538-.625.741-1.31,1.447-1.972,2.129-2.2,2.272-4.278,4.415-4.547,7.871-.311,4,2.241,4.872,3.61,5.341l.118.039a3.186,3.186,0,0,0,1.032.168h0a8.08,8.08,0,0,0,6.477-2.791c3.958-5.122,6.889-15.52,7.167-20.432.213-3.778-.334-6.667-1.5-7.927a5.152,5.152,0,0,0-3.759-1.582Z" transform="translate(-1755.824 -1700.207)"/>
      </g>
      <path id="Path_3376" data-name="Path 3376" d="M1767.5,1741.155a3.964,3.964,0,0,1-3.018-1.279,3.325,3.325,0,0,1-.766-2.676c.693-5.01,3.411-7.616,6.289-10.376,2.171-2.081,2.752-9.545,3.032-13.133a18.016,18.016,0,0,1,.247-2.331c.415-1.517,2.359-2.928,4.337-3.147a4.151,4.151,0,0,1,4.289,2.292.619.619,0,0,1-1.094.578,2.888,2.888,0,0,0-3.06-1.641,4.01,4.01,0,0,0-3.279,2.241c-.062.222-.132,1.133-.208,2.1-.314,4.025-.9,11.52-3.408,13.93-2.836,2.721-5.285,5.068-5.918,9.652a2.066,2.066,0,0,0,.474,1.694,2.736,2.736,0,0,0,2.087.855h0a11.021,11.021,0,0,0,1.4-.09.625.625,0,0,1,.693.536.618.618,0,0,1-.536.693,12.429,12.429,0,0,1-1.56.1h0Z" transform="translate(-1729.477 -1646.005)"/>
    </g>
    <g id="Group_1069" data-name="Group 1069" transform="translate(47.264 119.945)">
      <path id="Path_3377" data-name="Path 3377" d="M1600.571,1312.593c-.864-5.806,28.086-11.949,28.9-4.465,2.861,26.353,7.192,40.824,11.848,54.535-8.934,6.062-19.049,9.394-29.615,10.872a63.822,63.822,0,0,1-4.188-15.57C1605.985,1345.639,1602.386,1324.8,1600.571,1312.593Z" transform="translate(-1574.695 -1294.403)"/>
      <path id="Path_3378" data-name="Path 3378" d="M1508.8,1304.4c1.209-12.76,7-22.894,8.415-36.33l21.584,11.515c-2.651,14.563-.174,27.915,1.641,35.494a164.409,164.409,0,0,1,4.2,29.41c-10.956,3.447-21.913,1.781-32.869,1.705-2.634-13.89-4.213-28.689-2.973-41.794Z" transform="translate(-1508.367 -1268.07)"/>
      <path id="Path_3379" data-name="Path 3379" d="M1633.259,1481.4a.618.618,0,0,1-.617-.583c-.721-12.7-1.546-20.99-1.972-24.8a.619.619,0,0,1,.547-.684.629.629,0,0,1,.684.547c.429,3.826,1.257,12.146,1.978,24.872a.619.619,0,0,1-.583.654Z" transform="translate(-1596.361 -1402.803)" fill="#fff"/>
    </g>
    <g id="Group_1070" data-name="Group 1070" transform="translate(4.044 79.709)">
      <path id="Path_3380" data-name="Path 3380" d="M1387.323,1126.82l-4.1,33.764a1.641,1.641,0,0,1-2.025,1.456l-11.952-3.161c-4.55-1.9-6.418-7.585-7.686-14.112l-4.665,9.61a4.222,4.222,0,0,0,1.717,5.517l10.754,6.1,15.164,6.92a5.892,5.892,0,0,0,8.5-2.923l13.214-33.9-18.928-9.268Z" transform="translate(-1355.861 -1126.204)" fill="#fff"/>
      <path id="Path_3381" data-name="Path 3381" d="M1385.973,1172.789a6.506,6.506,0,0,1-3.3-.9l-15.133-6.906-10.8-6.126a4.855,4.855,0,0,1-1.969-6.328l4.662-9.613a.619.619,0,0,1,1.164.154c1.105,5.686,2.833,11.75,7.279,13.643l11.91,3.15a1.02,1.02,0,0,0,1.248-.909l4.1-33.786a.628.628,0,0,1,.32-.471.622.622,0,0,1,.567-.011l18.928,9.268a.623.623,0,0,1,.306.783l-13.214,33.9a6.518,6.518,0,0,1-6.067,4.149Zm-26.218-27.688-3.868,7.972a3.613,3.613,0,0,0,1.464,4.71l10.754,6.1,15.116,6.895a.591.591,0,0,1,.059.031,5.268,5.268,0,0,0,7.6-2.617l13.007-33.374-17.635-8.636-3.989,32.9a2.262,2.262,0,0,1-2.785,1.983l-11.963-3.164c-.028-.008-.053-.017-.081-.028-4.519-1.891-6.485-7.31-7.686-12.774Z" transform="translate(-1354.286 -1124.626)"/>
    </g>
    <g id="Group_1071" data-name="Group 1071" transform="translate(34.085 49.724)">
      <path id="Path_3382" data-name="Path 3382" d="M1463.576,1052.81a48.731,48.731,0,0,1,.581-5.214,29.373,29.373,0,0,1,24.7-24.005h0c9.966-3.93,26.616-5.231,38.364-1.111,19.568,6.864,4.306,40.358,3.13,43.73-1.98,5.683-.036,18.732,6.867,37.623,2.081,5.7-13.489,10.084-29.04,11.332-16.246,1.3-33.43-3.879-32.883-8.154a146.3,146.3,0,0,1,7.6-31.733c.97-2.749-.143-4.466-1.237-12.794a7.09,7.09,0,0,0-4.937-5.862c-4.272-1.313-7.444-2.827-13.15-3.815Z" transform="translate(-1462.957 -1019.326)" fill="#fff"/>
      <path id="Path_3383" data-name="Path 3383" d="M1501.323,1114.392c-12.255,0-23.918-3.192-27.236-6.667a2.925,2.925,0,0,1-.979-2.39,147.051,147.051,0,0,1,7.632-31.859c.575-1.627.351-2.855-.193-5.818-.306-1.672-.687-3.75-1.072-6.69a6.485,6.485,0,0,0-4.5-5.349c-1.265-.39-2.449-.8-3.593-1.2a54.715,54.715,0,0,0-9.481-2.6.622.622,0,0,1-.513-.589,49.134,49.134,0,0,1,.586-5.335,30.04,30.04,0,0,1,25.15-24.507c9.593-3.761,26.4-5.419,38.731-1.091a14.142,14.142,0,0,1,8.538,7.663c3.408,7.486,1.891,19.441-4.513,35.528-.244.611-.423,1.063-.516,1.327-2.056,5.9.508,19.814,6.864,37.208a3.578,3.578,0,0,1-.418,3.293c-3.049,4.755-16.841,7.882-29.155,8.869-1.773.143-3.56.208-5.329.208Zm-38.686-63.7a57.225,57.225,0,0,1,9.147,2.555c1.133.393,2.306.8,3.548,1.184a7.725,7.725,0,0,1,5.369,6.373c.381,2.909.76,4.97,1.063,6.628.55,3,.828,4.513.143,6.452a145.953,145.953,0,0,0-7.571,31.6,1.792,1.792,0,0,0,.648,1.38c3.529,3.7,18.086,7.167,31.57,6.078,14.207-1.139,25.806-4.555,28.213-8.3a2.361,2.361,0,0,0,.3-2.2c-6.547-17.918-9.052-31.783-6.869-38.041.1-.272.28-.743.533-1.377,6.275-15.761,7.8-27.388,4.536-34.557a12.94,12.94,0,0,0-7.82-7.007c-12.075-4.235-28.557-2.595-37.932,1.1a.535.535,0,0,1-.1.028l-.045.008a28.794,28.794,0,0,0-24.176,23.489c-.2,1.265-.485,3.492-.555,4.6Z" transform="translate(-1461.384 -1017.726)"/>
    </g>
    <g id="Group_1073" data-name="Group 1073" transform="translate(49.08)">
      <g id="Group_1072" data-name="Group 1072" transform="translate(4.273 7.234)">
        <path id="Path_3384" data-name="Path 3384" d="M1532.44,884.374c.238,1.431,1.018,4.844.729,6.174-.71,3.271,1.324,11.666,6.752,15.478a12.886,12.886,0,0,1,4.934,5.93,2.8,2.8,0,0,0,2.252,1.79l.042.006a15.418,15.418,0,0,0,7.332-.791l.684-.25a2.811,2.811,0,0,0,1.848-2.631c.017-3.582.2-11.057,1.45-13.531,1.661-3.3,8.567-27.562-4.014-28.041-21.845-.833-22.754,11.427-22.011,15.868Z" transform="translate(-1531.659 -867.844)" fill="#fff"/>
        <path id="Path_3385" data-name="Path 3385" d="M1547.617,912.912a16.026,16.026,0,0,1-2.135-.143,3.429,3.429,0,0,1-2.791-2.193,12.27,12.27,0,0,0-4.71-5.638c-5.652-3.969-7.747-12.69-7-16.117a19.054,19.054,0,0,0-.544-4.9c-.076-.4-.143-.76-.191-1.041a13.282,13.282,0,0,1,2.97-10.766c3.714-4.221,10.328-6.188,19.674-5.823a7.137,7.137,0,0,1,6.255,3.613c4.314,7.313-.572,23.068-1.711,25.329-.85,1.686-1.352,6.519-1.383,13.256a3.446,3.446,0,0,1-2.255,3.212l-.684.25a16.1,16.1,0,0,1-5.492.965Zm-16.151-30.238c.045.275.112.623.188,1.015.421,2.213.777,4.289.539,5.394-.665,3.06,1.352,11.223,6.5,14.841a13.494,13.494,0,0,1,5.158,6.219,2.172,2.172,0,0,0,1.753,1.391,14.908,14.908,0,0,0,7.08-.752l.684-.25a2.2,2.2,0,0,0,1.442-2.053c.017-4.067.238-11.271,1.515-13.806,1.459-2.895,5.559-17.688,1.75-24.143a5.9,5.9,0,0,0-5.234-3c-8.956-.339-15.245,1.478-18.7,5.405a12.024,12.024,0,0,0-2.679,9.742Z" transform="translate(-1530.076 -866.247)"/>
      </g>
      <path id="Path_3386" data-name="Path 3386" d="M1547.709,946.87a.619.619,0,0,1-.283-1.17c1.2-.612,1.265-2.819.634-4.6-.443-1.251-1.175-2.115-1.7-2-.269.056-.437.727-.452,1.072a.611.611,0,0,1-.645.592.618.618,0,0,1-.592-.645c.008-.2.118-1.952,1.43-2.23,1.229-.255,2.424.813,3.125,2.8.816,2.306.654,5.147-1.237,6.115a.626.626,0,0,1-.281.067Z" transform="translate(-1536.302 -910.536)"/>
      <path id="Path_3387" data-name="Path 3387" d="M1517.043,868.03s-6.174-14.294,2.157-20.58,20.866-8.555,25.837-5.9,5.63,10.735,5.63,10.735,6.676,4.754,3.372,9.977-4.365,15.11-10.488,14.965-10.177-1.722-12.37-6.841c-2.906-6.788-14.14-2.351-14.14-2.351Z" transform="translate(-1514.842 -840.456)"/>
    </g>
  </g>
  <g id="Group_1078" data-name="Group 1078" transform="translate(204.27)">
    <g id="Group_1075" data-name="Group 1075" transform="translate(59.645 41.96)">
      <path id="Path_3388" data-name="Path 3388" d="M956.087,399.834c-3.8,4.3-11.809,2.213-13.007,0V151.8h13.007Z" transform="translate(-942.463 -151.18)" fill="#fff"/>
      <path id="Path_3389" data-name="Path 3389" d="M948.229,401.365a13.117,13.117,0,0,1-1.467-.084c-2.715-.311-5.1-1.439-5.806-2.74a.629.629,0,0,1-.076-.295V150.21a.62.62,0,0,1,.62-.62h13.007a.62.62,0,0,1,.62.62V398.244a.624.624,0,0,1-.154.41,8.805,8.805,0,0,1-6.74,2.712Zm-6.109-3.3c.552.785,2.421,1.708,4.785,1.98,1.38.16,4.777.266,6.984-2.048V150.83H942.123V398.07Zm12.387.174Z" transform="translate(-940.88 -149.59)"/>
    </g>
    <g id="Group_1076" data-name="Group 1076">
      <rect id="Rectangle_234" data-name="Rectangle 234" width="131.714" height="67.042" rx="8" transform="translate(0.62 0.62)" fill="#e61e29"/>
      <path id="Path_3390" data-name="Path 3390" d="M853.037,68.282H736.394a8.163,8.163,0,0,1-8.154-8.154V8.154A8.163,8.163,0,0,1,736.394,0H853.037a8.163,8.163,0,0,1,8.154,8.154V60.125a8.163,8.163,0,0,1-8.154,8.154ZM736.394,1.24a6.924,6.924,0,0,0-6.917,6.917V60.125a6.924,6.924,0,0,0,6.917,6.917H853.037a6.924,6.924,0,0,0,6.917-6.917V8.154a6.924,6.924,0,0,0-6.917-6.917H736.394Z" transform="translate(-728.24)"/>
    </g>
    <g id="Group_1077" data-name="Group 1077" transform="translate(40.05 55.536)">
      <rect id="Rectangle_235" data-name="Rectangle 235" width="53.469" height="6.115" rx="3.057"/>
      <path id="Path_3391" data-name="Path 3391" d="M937.853,390.21h-35.3a.62.62,0,0,1,0-1.24h35.3a.62.62,0,1,1,0,1.24Z" transform="translate(-893.26 -335.4)"/>
      <path id="Path_3392" data-name="Path 3392" d="M890.664,253.422a.622.622,0,0,1-.614-.533l-6.926-49.5a.619.619,0,0,1,1.226-.171l6.261,44.754,1.778-14.981-5.568-31.449a.62.62,0,1,1,1.22-.216l4.853,27.413,3.153-26.574a.6.6,0,0,1,.62-.547.617.617,0,0,1,.612.555l1.773,17.29,1.84-18.625a.618.618,0,0,1,.617-.558h0a.616.616,0,0,1,.614.561l2.376,25.046,3.318-25.335a.63.63,0,0,1,.634-.539.62.62,0,0,1,.6.575l1.114,15.638,2.039-16.474a.62.62,0,0,1,.614-.544h.008a.617.617,0,0,1,.606.564l2.264,24.6,3.433-23.032a.62.62,0,0,1,1.231.053l1.9,29.949,7.495-30.327a.619.619,0,0,1,1.214.236l-7.385,51.1a.613.613,0,0,1-.637.53.624.624,0,0,1-.595-.581l-.816-12.864-3.271,13.24a.619.619,0,0,1-1.217-.093L915.41,234.73l-2.667,17.9a.605.605,0,0,1-.637.527.621.621,0,0,1-.595-.575l-1.677-23.587-2.858,23.085a.612.612,0,0,1-.623.544.622.622,0,0,1-.609-.561l-1.436-15.136-1.949,14.889a.618.618,0,0,1-.614.539h-.008a.618.618,0,0,1-.606-.555l-2.05-19.974-2.028,20.507a.619.619,0,0,1-.592.558.593.593,0,0,1-.634-.511l-2.684-15.169-1.86,15.669a.62.62,0,0,1-.609.547h-.006Zm25.514-23.856,1.77,19.251,3.332-13.481L919.5,207.294l-3.318,22.272Zm-22.535,3.386,2.617,14.779,2.185-22.092-1.823-17.775-2.976,25.085Zm16.979-10.331,1.725,24.249,2.583-17.34-2.2-23.932-2.109,17.023Zm-10.934,3.018,2.129,20.751,1.964-15-2.283-24.07-1.812,18.319Zm5.341,5.775,1.411,14.889,2.937-23.711-1.125-15.8-3.226,24.622Zm17.5,4.034.687,10.83,4.74-32.8-5.428,21.966Z" transform="translate(-879.725 -198.868)"/>
    </g>
  </g>
  <g id="Group_1080" data-name="Group 1080" transform="translate(321.799 41.64)">
    <g id="Group_1079" data-name="Group 1079">
      <circle id="Ellipse_57" data-name="Ellipse 57" cx="31.119" cy="31.119" r="31.119" transform="translate(0.62 0.62)" fill="#fff"/>
      <path id="Path_3393" data-name="Path 3393" d="M1178.978,211.927a31.738,31.738,0,1,1,31.738-31.738A31.775,31.775,0,0,1,1178.978,211.927Zm0-62.237a30.5,30.5,0,1,0,30.5,30.5A30.533,30.533,0,0,0,1178.978,149.69Z" transform="translate(-1147.24 -148.45)"/>
    </g>
    <path id="Path_3394" data-name="Path 3394" d="M1262.559,211.206a.618.618,0,0,1-.294-1.161c10.081-5.481,16.855-17.455,16.855-29.8a29.847,29.847,0,0,0-26.176-30.025.619.619,0,0,1,.157-1.229,31.07,31.07,0,0,1,27.256,31.253c0,12.788-7.035,25.2-17.5,30.891a.63.63,0,0,1-.295.076Z" transform="translate(-1222.905 -148.835)"/>
    <path id="Path_3395" data-name="Path 3395" d="M1151.324,225.319a.6.6,0,0,1-.356-.115.62.62,0,0,1-.149-.864c13.181-18.648,32.973-25.949,46.748-24.908,6.8.513,11.857,3.116,13.876,7.141a.618.618,0,1,1-1.105.555c-1.82-3.627-6.508-5.983-12.861-6.463-13.425-1.021-32.743,6.137-45.643,24.389a.615.615,0,0,1-.5.261Z" transform="translate(-1149.734 -185.062)"/>
    <path id="Path_3396" data-name="Path 3396" d="M1228.919,172.531c-4.353,0-9.4-1.3-14.308-2.564-6.056-1.557-11.778-3.029-15.82-2.087a.619.619,0,1,1-.281-1.206c4.339-1.015,10.2.494,16.412,2.093,6.241,1.607,12.693,3.268,17.416,2.174a1.62,1.62,0,0,0,.928-.813,2.184,2.184,0,0,0,.269-1.54.62.62,0,1,1,1.178-.387,3.375,3.375,0,0,1-.362,2.524,2.778,2.778,0,0,1-1.722,1.419,16.4,16.4,0,0,1-3.705.384Z" transform="translate(-1183.784 -161.325)"/>
    <path id="Path_3397" data-name="Path 3397" d="M1205,264.2a.62.62,0,0,1-.14-1.223c7.231-1.672,13.321-10.544,19.211-19.124,6.558-9.551,12.749-18.572,20.2-17.1,4.182.914,6.589,5.007,7.369,12.513a.619.619,0,1,1-1.231.129c-.718-6.906-2.808-10.645-6.39-11.43-6.637-1.307-12.608,7.386-18.925,16.591-6.022,8.777-12.252,17.851-19.952,19.629a.6.6,0,0,1-.14.017Z" transform="translate(-1188.355 -204.677)"/>
  </g>
  <g id="Group_1093" data-name="Group 1093" transform="translate(0.331 184.632)">
    <g id="Group_1081" data-name="Group 1081" transform="translate(0 81.168)">
      <path id="Path_3398" data-name="Path 3398" d="M5.222,949.81c-7.122,28.8,7.088,49.932,34.372,65.031l5.885-12.078c-22.3-11.593-28.515-27.508-22.3-46.759L5.222,949.81Z" transform="translate(-2.776 -949.19)" fill="#fff"/>
      <path id="Path_3399" data-name="Path 3399" d="M38,1013.871a.6.6,0,0,1-.3-.079C7.974,997.344-3.7,975.232,3.023,948.071a.622.622,0,0,1,.805-.438l17.96,6.193a.619.619,0,0,1,.387.777c-6.437,19.927.757,34.981,21.994,46.021a.622.622,0,0,1,.272.822l-5.885,12.078a.615.615,0,0,1-.558.348ZM4.069,949.028c-6.174,26.075,5.147,47.39,33.663,63.365l5.335-10.948C22.119,990.359,14.638,974.674,20.818,954.8L4.072,949.028Z" transform="translate(-1.18 -947.6)"/>
    </g>
    <path id="Path_3400" data-name="Path 3400" d="M45.621,856.976,39.354,820.04c-13.4,3.77-29.873,16.154-35.884,37.828,6.822,1.59,13.068,7.405,18.667,12.37a3.143,3.143,0,0,0,4.494-.306c6.32-7.6,18.993-12.956,18.993-12.956Z" transform="translate(-2.828 -774.652)"/>
    <g id="Group_1088" data-name="Group 1088" transform="translate(31.153 125.461)">
      <g id="Group_1082" data-name="Group 1082" transform="translate(6.738 122.619)">
        <path id="Path_3401" data-name="Path 3401" d="M143.556,1611.314l10.277-.174,6.193-63.794-19.82-2.477C135.009,1561.885,143.3,1585.127,143.556,1611.314Z" transform="translate(-137.871 -1544.249)" fill="#fff"/>
        <path id="Path_3402" data-name="Path 3402" d="M141.948,1610.341a.611.611,0,0,1-.432-.177.625.625,0,0,1-.188-.437c-.1-10.46-1.467-20.288-2.788-29.789-1.978-14.23-3.686-26.518-.533-36.844a.621.621,0,0,1,.67-.435l19.82,2.477a.616.616,0,0,1,.539.673l-6.193,63.794a.616.616,0,0,1-.606.558l-10.277.177h-.011Zm-2.906-66.385c-2.869,9.963-1.2,21.96.724,35.811,1.3,9.352,2.645,19.018,2.794,29.323l9.1-.154,6.081-62.644Z" transform="translate(-136.263 -1542.656)"/>
      </g>
      <g id="Group_1083" data-name="Group 1083" transform="translate(43.771 118.289)">
        <path id="Path_3403" data-name="Path 3403" d="M270.49,1597.587l9.276,2.438,22.917-65.651-17.96-4.954C274.619,1540.213,274.193,1570.3,270.49,1597.587Z" transform="translate(-269.873 -1528.803)" fill="#fff"/>
        <path id="Path_3404" data-name="Path 3404" d="M278.186,1599.061a.593.593,0,0,1-.157-.02l-9.276-2.437a.619.619,0,0,1-.457-.682c.864-6.37,1.554-12.939,2.222-19.293,2.2-20.979,4.286-40.79,12.171-49.213a.618.618,0,0,1,.617-.174l17.96,4.954a.618.618,0,0,1,.421.8l-22.917,65.651a.619.619,0,0,1-.583.415Zm-8.589-3.517,8.193,2.154,22.51-64.484-16.956-4.679c-7.394,8.28-9.433,27.688-11.593,48.223-.651,6.182-1.321,12.569-2.154,18.788Z" transform="translate(-268.29 -1527.22)"/>
      </g>
      <g id="Group_1084" data-name="Group 1084">
        <path id="Path_3405" data-name="Path 3405" d="M116.345,1107.72s-3.588,28.361-.833,39.371,1.834,61.914,1.834,89.443c14.44,4.289,24.83,6.081,32.207.62l-1.346-79.819,20.547,46.992a19.015,19.015,0,0,1,1.24,11.767l-3.1,13.627c10.522,6.824,19.472,9.1,26.631,6.193l5.593-25.135a22.529,22.529,0,0,0,.244-11.826l-20.535-82.141-62.478-9.091Z" transform="translate(-113.846 -1107.1)" fill="#fff"/>
        <path id="Path_3406" data-name="Path 3406" d="M136.421,1239.582c-5.7,0-12.533-1.574-20.855-4.045a.619.619,0,0,1-.443-.595c0-5.139.031-11.113.067-17.441.151-28.056.339-62.969-1.882-71.853-2.749-11,.673-38.437.822-39.6a.615.615,0,0,1,.238-.415.623.623,0,0,1,.463-.121l62.478,9.091a.614.614,0,0,1,.51.463l20.535,82.144a23.2,23.2,0,0,1-.25,12.151l-5.582,25.1a.625.625,0,0,1-.37.44c-7.17,2.909-16.322.808-27.2-6.247a.615.615,0,0,1-.266-.656l3.1-13.627a18.353,18.353,0,0,0-1.2-11.385l-19.307-44.153,1.3,76.725a.621.621,0,0,1-.25.508,19.186,19.186,0,0,1-11.9,3.52Zm-20.058-5.1c14.325,4.224,24.044,5.68,30.961.769l-1.341-79.5a.619.619,0,0,1,1.187-.261l20.547,46.992a19.568,19.568,0,0,1,1.276,12.146l-3,13.211c10.2,6.538,18.746,8.561,25.4,6.022l5.523-24.816a22,22,0,0,0,.247-11.542l-20.434-81.74-61.44-8.94c-.5,4.23-3.24,28.645-.771,38.518,2.258,9.032,2.07,44.033,1.919,72.158-.034,6.137-.065,11.944-.067,16.973Z" transform="translate(-112.242 -1105.509)"/>
      </g>
      <path id="Path_3407" data-name="Path 3407" d="M208.92,1246.593a.608.608,0,0,1-.482-.233l-8.356-10.446a.619.619,0,1,1,.965-.774l8.356,10.446a.617.617,0,0,1-.1.87.608.608,0,0,1-.387.135Z" transform="translate(-175.345 -1198.611)"/>
      <g id="Group_1086" data-name="Group 1086" transform="translate(8.861 185.934)">
        <g id="Group_1085" data-name="Group 1085">
          <path id="Path_3408" data-name="Path 3408" d="M148.194,1770.58h14.1l2.09,10.645a3.263,3.263,0,0,1-3.066,3.98H149.165a3.263,3.263,0,0,1-3.066-3.98l2.09-10.645Z" transform="translate(-145.415 -1769.963)" fill="#fff"/>
          <path id="Path_3409" data-name="Path 3409" d="M159.738,1784.242H147.584a3.675,3.675,0,0,1-2.841-1.363,4.036,4.036,0,0,1-.833-3.355l2.09-10.645a.617.617,0,0,1,.609-.5h14.1a.622.622,0,0,1,.609.5l2.09,10.645a4.031,4.031,0,0,1-.833,3.355,3.675,3.675,0,0,1-2.841,1.363Zm-12.617-14.625-1.992,10.143a2.8,2.8,0,0,0,.575,2.331,2.414,2.414,0,0,0,1.882.912h12.154a2.411,2.411,0,0,0,1.885-.912,2.8,2.8,0,0,0,.575-2.331l-1.992-10.143H147.127Z" transform="translate(-143.831 -1768.38)"/>
        </g>
        <path id="Path_3410" data-name="Path 3410" d="M166.765,1809.64H152.14a.62.62,0,1,1,0-1.24h14.625a.62.62,0,1,1,0,1.24Z" transform="translate(-149.363 -1797.175)"/>
      </g>
      <g id="Group_1087" data-name="Group 1087" transform="translate(39.366 182.801)">
        <path id="Path_3411" data-name="Path 3411" d="M258.826,1759.41l-3.862,12.816c-.673,2.23.687,4.586,2.684,4.656l26.53.9c1.641.056,2.3-2.488.912-3.529-4.317-3.245-10.059-7.75-11.638-9.888-3.655-4.954-7.313-.62-7.313-.62S263.527,1759.41,258.826,1759.41Z" transform="translate(-254.171 -1758.793)" fill="#fff"/>
        <path id="Path_3412" data-name="Path 3412" d="M282.644,1776.817h-.073l-26.53-.9a3.407,3.407,0,0,1-2.637-1.481,4.579,4.579,0,0,1-.62-3.972l3.862-12.816a.619.619,0,0,1,.592-.44,9.574,9.574,0,0,1,7.4,4,5.363,5.363,0,0,1,3.543-1.417,5.531,5.531,0,0,1,4.179,2.623c1.186,1.6,5.273,5.071,11.512,9.759a2.7,2.7,0,0,1,.836,3.066,2.2,2.2,0,0,1-2.064,1.579ZM257.7,1758.461l-3.725,12.362a3.391,3.391,0,0,0,.44,2.895,2.148,2.148,0,0,0,1.672.965l26.53.9a1.029,1.029,0,0,0,.928-.752,1.474,1.474,0,0,0-.412-1.663c-4.48-3.366-10.154-7.837-11.764-10.014a4.38,4.38,0,0,0-3.215-2.12,4.667,4.667,0,0,0-3.128,1.534.62.62,0,0,1-1-.079c-.022-.039-2.325-3.753-6.325-4.02Z" transform="translate(-252.584 -1757.21)"/>
      </g>
      <path id="Path_3413" data-name="Path 3413" d="M286.033,1806.969h-.028l-24.025-1.043a.618.618,0,0,1-.592-.645.629.629,0,0,1,.645-.592l24.025,1.043a.619.619,0,0,1-.025,1.237Z" transform="translate(-219.553 -1608.569)"/>
    </g>
    <g id="Group_1090" data-name="Group 1090" transform="translate(27.615 39.907)">
      <path id="Path_3414" data-name="Path 3414" d="M159.026,801.784c-11.708-1.711-31.419-2.827-50.487,4.2-2.292,13.2-3.865,24.6-4.962,33.621-1.933,15.89-.729,10.816-3.133,34.013-1.5,14.418-.721,31.977.648,34.521,4.712,8.735,24.908,6,32.622,5.489,7.464-.491,14.9-1.372,22.305-2.443,9.809-1.422,18.089-.323,18.2-12.673.174-20.3.746-40.641-.129-60.93-.258-5.944,6.219-10.322,4.631-19.868C177.648,811.287,165.469,802.723,159.026,801.784Z" transform="translate(-99.631 -800.499)"/>
      <g id="Group_1089" data-name="Group 1089" transform="translate(83.835 14.328)">
        <path id="Path_3415" data-name="Path 3415" d="M449.953,878.378l3.616-15.641,10.084-8.948s5.736.1-3.655,9.924c0,0,4.488,8.785,1.588,12.272-.844,1.015-5.677,7.3-5.677,7.3-10.32,11.136-33.511,17.573-55.188,12.928l12.387-19.2C421.971,881.419,433.533,882.707,449.953,878.378Z" transform="translate(-400.1 -853.17)" fill="#fff"/>
        <path id="Path_3416" data-name="Path 3416" d="M413.654,896.736A70,70,0,0,1,399,895.222a.619.619,0,0,1-.393-.94L411,875.082a.621.621,0,0,1,.8-.219c9.579,4.766,21.374,5.228,36.052,1.419l3.531-15.276a.592.592,0,0,1,.194-.323l10.084-8.948a.6.6,0,0,1,.421-.157,2.409,2.409,0,0,1,2.165,1.363c.76,1.818-.906,4.858-5.085,9.293.864,1.812,4.107,9.2,1.318,12.552-.827.993-5.616,7.214-5.663,7.279-8.53,9.209-24.7,14.67-41.155,14.67ZM400.14,894.2c20.145,4.02,43.1-1.467,53.724-12.925.16-.213,4.813-6.261,5.655-7.271,2.163-2.6-.466-9.251-1.663-11.593a.617.617,0,0,1,.1-.71c5.4-5.646,5.391-7.666,5.136-8.272a1.078,1.078,0,0,0-.827-.575l-9.728,8.634-3.574,15.45a.62.62,0,0,1-.446.46c-14.9,3.927-26.936,3.543-36.782-1.17L400.14,894.2Zm48.223-17.408Z" transform="translate(-398.51 -851.579)"/>
      </g>
      <path id="Path_3417" data-name="Path 3417" d="M314.6,813.28l-2.586,29.576s12.9,18.252,27.708,27.946a1.113,1.113,0,0,0,1.708-.752c1.492-9.349,5.08-17.074,11.021-21.955a.644.644,0,0,0-.059-1.055c-12.28-7.414-18.605-32.454-37.789-33.761Z" transform="translate(-252.438 -809.695)"/>
      <path id="Path_3418" data-name="Path 3418" d="M272.691,1033.144a.62.62,0,0,1-.435-1.06c12.084-11.913,14.659-30.569,14.684-30.757a.62.62,0,0,1,1.229.163c-.025.191-2.659,19.27-15.043,31.475A.623.623,0,0,1,272.691,1033.144Z" transform="translate(-223.702 -944.607)" fill="#fff"/>
    </g>
    <g id="Group_1092" data-name="Group 1092" transform="translate(51.978)">
      <g id="Group_1091" data-name="Group 1091" transform="translate(4.208 8.716)">
        <path id="Path_3419" data-name="Path 3419" d="M207.973,720.236l-3.349,4.7c2.424,2.74,9.6,2.8,20.687.648a1.428,1.428,0,0,0,.281-2.721l-5.083-2.1-1.394-6.426c1.84-.272,4.367-.457,5.172-1.459,1.422-1.77.78-7.9.78-7.9l1.557-1.226a.664.664,0,0,0,.339-.412.657.657,0,0,0-.076-.527c-1.324-2.109-2.572-2.788-3.156-4.94-.578-2.118-.323-1.8-2.6-6.362l-13.674-.02-.076,10.247s-2.1-1.355-3.428.477c-.968,1.332,1.172,5.784,2.909,5.784l1.119,12.235Z" transform="translate(-203.086 -690.876)" fill="#fff"/>
        <path id="Path_3420" data-name="Path 3420" d="M210.918,726.141c-4.193,0-6.956-.791-8.356-2.376a.617.617,0,0,1-.039-.769l3.215-4.508-1.055-11.54a5.288,5.288,0,0,1-2.4-2.536c-.687-1.346-1.161-3.139-.44-4.135a2.855,2.855,0,0,1,3.318-1.063l.07-9.3a.619.619,0,0,1,.62-.614h0l13.674.02a.614.614,0,0,1,.553.342c2,4.006,2.078,4.3,2.452,5.736.056.213.118.454.2.738a7,7,0,0,0,1.63,2.808,18.081,18.081,0,0,1,1.453,1.963,1.282,1.282,0,0,1-.443,1.79l-1.251.982c.126,1.433.438,6.289-.945,8.011-.841,1.049-2.816,1.313-4.726,1.568l-.182.025,1.184,5.456,4.783,1.975a2.048,2.048,0,0,1-.4,3.9,70.549,70.549,0,0,1-12.911,1.529Zm-7.083-2.855c2.494,2.135,9.133,2.171,19.758.109a.81.81,0,0,0,.16-1.543l-5.083-2.1a.615.615,0,0,1-.367-.44l-1.394-6.426a.619.619,0,0,1,.513-.743c.272-.039.561-.079.858-.118,1.433-.191,3.394-.454,3.924-1.116.92-1.144.884-5.175.645-7.447a.62.62,0,0,1,.233-.553l1.557-1.223a.818.818,0,0,1,.1-.067,12.6,12.6,0,0,0-1.346-1.893,8.2,8.2,0,0,1-1.868-3.268c-.079-.289-.143-.533-.2-.752-.334-1.29-.412-1.59-2.188-5.153l-12.676-.017-.073,9.632a.62.62,0,0,1-.957.516,1.894,1.894,0,0,0-2.592.32c-.258.353-.123,1.543.541,2.844.656,1.285,1.436,1.958,1.868,1.958a.621.621,0,0,1,.617.564l1.119,12.235a.608.608,0,0,1-.112.415l-3.043,4.264Z" transform="translate(-201.487 -689.3)"/>
      </g>
      <path id="Path_3421" data-name="Path 3421" d="M193.795,688.652c2.754.917,5.473-1.237,5.961-1.627,1.913-1.518,3.478-4.224,2.71-5.419-.424-.656-1.178-.3-2.168-1.083-1.459-1.156-1.871-3.663-1.083-4.337.645-.553,1.655.5,2.71,0,1.287-.617.628-2.595,1.627-4.336,1.63-2.844,5.425-1.128,8.342-4.157,1.9-1.978,2.732-5.273,1.644-7.133a3.825,3.825,0,0,0-1.5-1.408c-4.592-2.527-5.279.931-9.747.971-9.2.079-13.711,1.919-15.374,5.733-1.13,2.586.25,6.71.917,8.7a29.333,29.333,0,0,1,1.083,3.792c.429,2.045.3,2.572.541,3.792.171.856,1.086,5.419,4.337,6.5Z" transform="translate(-186.487 -658.229)"/>
    </g>
  </g>
  <g id="Group_1107" data-name="Group 1107" transform="translate(147.815 148.155)">
    <g id="Group_1100" data-name="Group 1100" transform="translate(31.719 136.763)">
      <g id="Group_1096" data-name="Group 1096" transform="translate(38.411 1.612)">
        <g id="Group_1094" data-name="Group 1094">
          <path id="Path_3422" data-name="Path 3422" d="M782.265,1030.322c.474.612-4.261,20-2.777,32.406a198.39,198.39,0,0,0,4.39,23.534h15.354l-7.172-3.181s-.025-38.958,3.865-53.194-13.66.438-13.66.438Z" transform="translate(-778.581 -1023.064)" fill="#fff"/>
          <path id="Path_3423" data-name="Path 3423" d="M797.649,1085.32H782.295a.624.624,0,0,1-.6-.463,200.591,200.591,0,0,1-4.407-23.618c-1.069-8.942,1.043-21.366,2.177-28.041.331-1.955.645-3.806.631-4.236a.612.612,0,0,1,.188-.679c1.063-.889,10.485-8.611,13.977-6.373,1.417.909,1.638,3.06.679,6.575-3.613,13.223-3.829,48.456-3.843,52.63l6.8,3.018a.62.62,0,0,1-.252,1.187Zm-14.872-1.24h11.949l-4.5-2a.618.618,0,0,1-.367-.567c0-1.593.02-39.205,3.885-53.359.766-2.8.713-4.651-.151-5.206-2.017-1.293-8.471,2.951-12.258,6.067a44.237,44.237,0,0,1-.648,4.384c-1.122,6.611-3.214,18.92-2.168,27.685a200.355,200.355,0,0,0,4.258,22.987Zm-2.586-54.941Z" transform="translate(-776.995 -1021.505)"/>
        </g>
        <g id="Group_1095" data-name="Group 1095" transform="translate(0.176 57.123)">
          <path id="Path_3424" data-name="Path 3424" d="M794.6,1227.67a19.588,19.588,0,0,1,1.907,1.778c1.865,2.034,6.754,4.1,7.716,4.339a7.778,7.778,0,0,1,2.278.926,2.719,2.719,0,0,1,1.2,2.362l-.011.46a1.7,1.7,0,0,1-.785,1.4,13.645,13.645,0,0,1-6.53,1.8c-5.355.328-10.35-.076-13.75.02s-5.5-.252-6.524-1.484c-.923-1.111.188-7.464,1.422-9.383a.864.864,0,0,1,.909-.37,5.6,5.6,0,0,1,2.754,1.425,7.594,7.594,0,0,0,4.552,1.551,2.412,2.412,0,0,0,2.494-2.367c.008-.446.025-.931.048-1.417a1.417,1.417,0,0,1,2.32-1.038Z" transform="translate(-779.164 -1226.725)" fill="#fff"/>
          <path id="Path_3425" data-name="Path 3425" d="M794.155,1239.907c-1.59,0-3.108-.036-4.53-.07-1.734-.042-3.231-.076-4.519-.039-3.885.109-5.919-.384-7.018-1.705-1.178-1.419.107-8.137,1.377-10.112a1.493,1.493,0,0,1,1.557-.642,6.214,6.214,0,0,1,3.063,1.593,7.121,7.121,0,0,0,4.143,1.372,1.755,1.755,0,0,0,1.276-.477,1.8,1.8,0,0,0,.572-1.285c.011-.452.025-.943.048-1.431a2.038,2.038,0,0,1,1.215-1.781,2.01,2.01,0,0,1,2.118.3,21.177,21.177,0,0,1,1.969,1.834c1.708,1.86,6.443,3.913,7.411,4.157a8.285,8.285,0,0,1,2.463,1.007,3.358,3.358,0,0,1,1.487,2.9l-.011.46a2.317,2.317,0,0,1-1.072,1.9,14.21,14.21,0,0,1-6.825,1.891c-1.624.1-3.2.132-4.721.132Zm-7.879-1.363c1.038,0,2.185.028,3.38.056,2.755.067,5.874.14,9.147-.059a13.1,13.1,0,0,0,6.238-1.7,1.076,1.076,0,0,0,.5-.892l.011-.46a2.115,2.115,0,0,0-.923-1.829,7.1,7.1,0,0,0-2.09-.844c-.962-.241-6.031-2.354-8.022-4.522a19.3,19.3,0,0,0-1.849-1.719.783.783,0,0,0-.827-.118.791.791,0,0,0-.477.7c-.022.48-.036.959-.045,1.4a3.03,3.03,0,0,1-.962,2.16,2.961,2.961,0,0,1-2.174.813,8.3,8.3,0,0,1-4.965-1.731,4.955,4.955,0,0,0-2.443-1.259.254.254,0,0,0-.261.1c-1.229,1.913-2.093,7.9-1.467,8.653.813.979,2.617,1.355,6.031,1.259.381-.011.785-.014,1.206-.014Z" transform="translate(-777.623 -1225.154)"/>
        </g>
      </g>
      <g id="Group_1099" data-name="Group 1099">
        <g id="Group_1097" data-name="Group 1097" transform="translate(4.063)">
          <path id="Path_3426" data-name="Path 3426" d="M662.943,1079.549c.311-.687,8.047-27.1,14.078-44.883,4.85-14.3,1.843-15.652,1.843-15.652L667.5,1017.96s-6.342,16.179-8.381,27.074-2.365,34.513-2.365,34.513h6.193Z" transform="translate(-656.13 -1017.342)" fill="#fff"/>
          <path id="Path_3427" data-name="Path 3427" d="M661.353,1078.584H655.16a.618.618,0,0,1-.44-.185.636.636,0,0,1-.18-.443c0-.236.351-23.795,2.376-34.616s8.35-27.026,8.415-27.189a.611.611,0,0,1,.634-.39l11.369,1.055a.6.6,0,0,1,.2.053c.589.264,3.276,2.3-1.512,16.417-4.3,12.69-9.442,29.657-12.2,38.773-1.332,4.406-1.8,5.941-1.9,6.162a.619.619,0,0,1-.564.365Zm-5.562-1.24h5.119c.272-.858.931-3.029,1.722-5.646,2.763-9.122,7.9-26.1,12.213-38.813,4.017-11.84,2.522-14.454,2.185-14.855l-10.715-.993c-1.018,2.648-6.362,16.8-8.182,26.53s-2.272,29.96-2.342,33.781Z" transform="translate(-654.54 -1015.757)"/>
        </g>
        <g id="Group_1098" data-name="Group 1098" transform="translate(0 57.77)">
          <path id="Path_3428" data-name="Path 3428" d="M654.68,1224.937a.435.435,0,0,0-.738-.3l-.4.452a.555.555,0,0,1-.881-.053,2.374,2.374,0,0,0-2-1.1l-.71.011a2.14,2.14,0,0,0-1.358.513,1.154,1.154,0,0,1-1.54.011l-.067-.062a.654.654,0,0,0-1.074-.053,19.682,19.682,0,0,0-3.618,10.687h0c-.014.238-.025.48-.031.724,0,.053,0,.107,0,.16-.006.236-.008.468-.006.707v.236c.006.286.011.569.025.858.087,1.734,1.655,3.745,4.44,4.2,3.646.6,8.179-.137,8.393-2.9l-.435-14.089Z" transform="translate(-641.639 -1223.307)" fill="#fff"/>
          <path id="Path_3429" data-name="Path 3429" d="M647.569,1241.14a15.692,15.692,0,0,1-2.53-.2c-3.125-.516-4.858-2.8-4.956-4.785-.014-.295-.022-.586-.025-.881v-.182c0-.3,0-.541.006-.783v-.165c.011-.247.02-.5.036-.743a.346.346,0,0,1,.006-.056,20.244,20.244,0,0,1,3.742-10.965,1.247,1.247,0,0,1,1.066-.5,1.273,1.273,0,0,1,.971.516l.017.014a.543.543,0,0,0,.718-.025,2.757,2.757,0,0,1,1.753-.662l.71-.011a3.042,3.042,0,0,1,2.485,1.324l.339-.41a1.053,1.053,0,0,1,1.82.693l.435,14.089v.067a3.138,3.138,0,0,1-1.265,2.258,8.875,8.875,0,0,1-5.315,1.405Zm-6.241-7.61c-.011.216-.02.432-.028.648v.154c-.008.23-.011.457-.008.687v.23c.006.278.014.558.028.836a4.363,4.363,0,0,0,3.921,3.624c2.752.454,5.582.062,6.881-.954a1.887,1.887,0,0,0,.791-1.346l-.418-13.593-.073.081a1.183,1.183,0,0,1-.99.4,1.14,1.14,0,0,1-.881-.533,1.738,1.738,0,0,0-1.461-.811l-.707.011a1.525,1.525,0,0,0-.965.365,1.764,1.764,0,0,1-2.359,0l-.067-.062a.664.664,0,0,1-.107-.126,18.574,18.574,0,0,0-3.551,10.339.343.343,0,0,1-.006.056Zm11.153-10.174Z" transform="translate(-640.056 -1221.71)"/>
        </g>
      </g>
    </g>
    <path id="Path_3430" data-name="Path 3430" d="M679.277,877.713,664.27,916.877c3.262,3.638,11.666,6.25,25.988,7.686l3.955-16.35a1.13,1.13,0,0,1,2.221.146l1.874,17.669a39.628,39.628,0,0,0,21.6-2.928l-6.221-49.048-34.406,3.661Z" transform="translate(-625.759 -777.036)"/>
    <path id="Path_3431" data-name="Path 3431" d="M612.12,657.221c-.881,1.1-8.55,10.443-16.451,9.1-7.329-1.251-9.282-10.752-15.405-10.331-4.2.289-4.533,4.855-9.963,6.527-5.652,1.742-13.217-.763-16.735-5.6-6.325-8.7,2.123-22.625,7.618-28.678,2.516-2.774,8.681-9.571,16.1-8.959,5.043.415,7.069,3.961,10.836,2.8,3.812-1.17,3.279-5.271,8.031-9.955,5.31-5.234,12.137-6.182,14.115-6.429,2.74-.342,10.207-1.276,16.19,3.6,3.257,2.654,7.226,7.966,5.921,12.639-1.046,3.759,2.808,14.286-1.245,17.865-8.819,7.789-10.555,6.875-19.007,17.422Z" transform="translate(-544.487 -583.735)"/>
    <g id="Group_1101" data-name="Group 1101" transform="translate(0 9.12)">
      <path id="Path_3432" data-name="Path 3432" d="M585.79,607.435s-19.882-16.824-26.832-23.784-12.019-10.272-12.768-13.758a63.345,63.345,0,0,1-1.043-6.973s-1.332-.025-1.694,2.746l-.362,2.768s-9.795-3.013-13.155-.813,5.139,4.348,9.815,6.23,8.855,5.212,15.077,15.388,21.576,28.019,24.468,29.18,6.491-10.982,6.491-10.982Z" transform="translate(-528.552 -562.297)" fill="#fff"/>
      <path id="Path_3433" data-name="Path 3433" d="M578.119,617.518a1.619,1.619,0,0,1-.628-.123c-3.091-1.24-18.415-19.043-24.765-29.433-6.2-10.146-10.255-13.312-14.779-15.136-.942-.379-2.031-.766-3.184-1.175-4.71-1.672-7.582-2.8-7.778-4.426a1.826,1.826,0,0,1,1.038-1.722c3.052-2,10.611-.121,12.973.536l.269-2.053c.424-3.223,2.123-3.279,2.32-3.285a.618.618,0,0,1,.606.567,62.708,62.708,0,0,0,1.029,6.895c.468,2.182,2.9,4.4,6.581,7.761,1.778,1.621,3.792,3.461,6.02,5.691,6.853,6.861,26.594,23.581,26.793,23.75a.617.617,0,0,1,.194.648c-.3,1.013-3.013,9.93-5.846,11.3a1.94,1.94,0,0,1-.841.2Zm-46.024-51.673a6.5,6.5,0,0,0-3.4.7c-.314.2-.5.412-.485.539.118.976,4.4,2.5,6.962,3.405,1.164.415,2.266.805,3.231,1.195,4.76,1.916,8.993,5.2,15.374,15.638,6.362,10.4,21.612,27.9,24.171,28.928a.534.534,0,0,0,.471-.048c1.7-.822,3.961-6.5,5.08-10.148-2.555-2.168-20.145-17.136-26.56-23.556-2.208-2.21-4.21-4.039-5.98-5.652-3.857-3.52-6.407-5.846-6.956-8.415-.508-2.367-.811-4.754-.954-6.053a4.074,4.074,0,0,0-.561,1.778l-.362,2.768a.62.62,0,0,1-.8.51,36.758,36.758,0,0,0-9.237-1.588Z" transform="translate(-526.974 -560.7)"/>
    </g>
    <g id="Group_1102" data-name="Group 1102" transform="translate(78.372)">
      <path id="Path_3434" data-name="Path 3434" d="M808.59,586.693S821.7,564.186,825.919,555.3s7.893-13.7,7.43-17.24a63.638,63.638,0,0,0-1.349-6.92s1.245-.468,2.513,2.02l1.268,2.488s8.221-6.115,12.123-5.167-3.391,5.815-7.167,9.155-6.6,7.874-9.06,19.545-10.959,33.623-13.3,35.685S808.59,586.693,808.59,586.693Z" transform="translate(-807.969 -529.767)" fill="#fff"/>
      <path id="Path_3435" data-name="Path 3435" d="M816.025,594.179a2.361,2.361,0,0,1-.241-.014c-3.128-.342-8.665-7.837-9.287-8.693a.617.617,0,0,1-.034-.676c.132-.224,13.141-22.586,17.3-31.346,1.355-2.847,2.637-5.257,3.77-7.38,2.345-4.4,3.893-7.3,3.6-9.514a63.249,63.249,0,0,0-1.335-6.841.62.62,0,0,1,.381-.738c.182-.067,1.806-.578,3.285,2.32l.94,1.846c2.006-1.408,8.5-5.708,12.045-4.844.889.216,1.411.645,1.554,1.276.359,1.593-1.969,3.621-5.848,6.771-.948.771-1.846,1.5-2.606,2.171-3.655,3.231-6.412,7.573-8.864,19.208-2.51,11.916-11,33.82-13.495,36.022a1.732,1.732,0,0,1-1.172.429Zm-8.289-9.111c2.278,3.066,6.3,7.658,8.182,7.865a.533.533,0,0,0,.46-.112c2.067-1.823,10.589-23.416,13.1-35.346,2.522-11.969,5.411-16.482,9.256-19.882.78-.69,1.686-1.425,2.645-2.2,2.109-1.714,5.638-4.581,5.422-5.537-.028-.123-.272-.255-.637-.345-2.965-.718-9.385,3.411-11.61,5.063a.617.617,0,0,1-.92-.216l-1.268-2.488a4.06,4.06,0,0,0-1.125-1.484c.3,1.273.813,3.621,1.125,6.022.339,2.606-1.285,5.649-3.742,10.255-1.128,2.112-2.4,4.5-3.745,7.329-3.9,8.2-15.467,28.185-17.15,31.085Z" transform="translate(-806.378 -528.185)"/>
    </g>
    <g id="Group_1103" data-name="Group 1103" transform="translate(45.941 48.636)">
      <path id="Path_3436" data-name="Path 3436" d="M703.082,705.57s-7.941,10.471-9.879,15.352c0,0,5.156,2.236,5.2,2.76.042.474-3.554,28.386-4.227,33.612-.062.477-1.206,6.328-1.206,6.328,6.224,1.408,46.49,9.453,44.288.365-2.39-9.865.255-43.632.255-43.632l3.386-4.233L729.087,703.78s-2.025,7.315-8.216,7.279-17.792-5.492-17.792-5.492Z" transform="translate(-692.35 -703.161)" fill="#fff"/>
      <path id="Path_3437" data-name="Path 3437" d="M725.482,767.28c-13.24,0-33.957-4.578-34.24-4.642a.622.622,0,0,1-.471-.724c.457-2.345,1.156-5.952,1.2-6.289,1.989-15.422,4.005-31.278,4.207-33.332a37.45,37.45,0,0,0-4.813-2.393.619.619,0,0,1-.328-.8c1.947-4.906,9.635-15.068,9.961-15.5a.621.621,0,0,1,.757-.185c.115.053,11.551,5.4,17.534,5.436h.042c5.618,0,7.554-6.757,7.573-6.827a.614.614,0,0,1,.446-.435.622.622,0,0,1,.6.171l11.812,12.342a.623.623,0,0,1,.036.816l-3.268,4.084c-.208,2.738-2.5,33.971-.258,43.247a2.912,2.912,0,0,1-.746,2.867c-1.551,1.576-5.321,2.157-10.042,2.157ZM692.1,761.561c8.743,1.924,38,7.293,42.538,2.693a1.67,1.67,0,0,0,.426-1.705c-2.387-9.848.132-42.442.241-43.825a.611.611,0,0,1,.135-.339l3.049-3.809-10.743-11.226c-.844,2.084-3.3,6.749-8.415,6.749h-.05c-5.624-.034-15.346-4.314-17.6-5.341-1.4,1.871-7.3,9.882-9.265,14.258,4.934,2.174,4.976,2.665,5.01,3.027.042.468-2.278,18.611-4.23,33.747-.053.407-.794,4.227-1.1,5.776Z" transform="translate(-690.759 -701.575)"/>
    </g>
    <g id="Group_1106" data-name="Group 1106" transform="translate(57.503 30.748)">
      <g id="Group_1104" data-name="Group 1104" transform="translate(6.233 17.392)">
        <path id="Path_3438" data-name="Path 3438" d="M757.611,702s1.879,6.771-.631,7.329,3.3,6.594,14.886,1.279c0,0-3.442-2.37-3.352-4.247S757.611,702,757.611,702Z" transform="translate(-755.784 -701.385)" fill="#fff"/>
        <path id="Path_3439" data-name="Path 3439" d="M761.474,711.81a10.065,10.065,0,0,1-6.252-1.776,2.111,2.111,0,0,1-.993-1.972,1.264,1.264,0,0,1,1.029-.914.719.719,0,0,0,.477-.37c.7-1.17.185-4.415-.309-6.188a.619.619,0,0,1,.735-.769c4.294.973,11.486,2.914,11.385,5-.053,1.111,1.862,2.864,3.086,3.705a.62.62,0,0,1-.093,1.074,21.839,21.839,0,0,1-9.063,2.216Zm-6.031-3.428a2.045,2.045,0,0,0,.884.931c2.112,1.417,6.665,2.1,12.74-.426-1.105-.906-2.83-2.572-2.755-4.132-.241-.738-4.463-2.3-9.442-3.5.353,1.6.844,4.637-.067,6.16a1.957,1.957,0,0,1-1.271.942.489.489,0,0,0-.087.025Z" transform="translate(-754.197 -699.806)"/>
      </g>
      <g id="Group_1105" data-name="Group 1105">
        <path id="Path_3440" data-name="Path 3440" d="M754.6,642.426s1.464,4.4,3.035,5.644,5.338,9.276-2.693,13.3-14.2-1.879-14.2-1.879-4.005,1.341-6.087-2.137,3.346-2.956,3.346-2.956a16.035,16.035,0,0,0,4.1-8.342c1.108-5.6,7.083-8.4,12.5-3.635Z" transform="translate(-733.566 -639.38)" fill="#fff"/>
        <path id="Path_3441" data-name="Path 3441" d="M747.7,661.81a14.177,14.177,0,0,1-8.7-3.206,5.739,5.739,0,0,1-6.466-2.508,2.483,2.483,0,0,1-.286-2.684c.8-1.259,3.071-1.268,3.924-1.226a16.176,16.176,0,0,0,3.731-7.823A7.94,7.94,0,0,1,745,638.176c2.712-.92,5.784-.115,8.426,2.208a.652.652,0,0,1,.18.269c.393,1.175,1.663,4.429,2.83,5.355,1.069.844,2.8,4.048,2.454,7.422-.21,2.062-1.3,4.937-5.254,6.923a13.113,13.113,0,0,1-5.932,1.461Zm-8.547-4.513a.621.621,0,0,1,.429.171,12.02,12.02,0,0,0,13.495,1.776c2.777-1.391,4.317-3.391,4.578-5.941a8.521,8.521,0,0,0-1.992-6.322c-1.543-1.22-2.87-4.867-3.181-5.773-2.3-1.969-4.811-2.628-7.085-1.86a6.721,6.721,0,0,0-4.275,5.257,16.524,16.524,0,0,1-4.289,8.676.621.621,0,0,1-.477.16c-1.041-.1-2.679.034-3.057.634-.224.353.042.948.3,1.386,1.8,3.015,5.212,1.916,5.358,1.868a.588.588,0,0,1,.2-.031Z" transform="translate(-731.976 -637.804)"/>
      </g>
    </g>
  </g>
</svg>
