<svg xmlns="http://www.w3.org/2000/svg" xmlns:xlink="http://www.w3.org/1999/xlink" width="77" height="71" viewBox="0 0 77 71">
  <defs>
    <filter id="Rectangle_391" x="0" y="0" width="77" height="71" filterUnits="userSpaceOnUse">
      <feOffset dy="3" input="SourceAlpha"/>
      <feGaussianBlur stdDeviation="3" result="blur"/>
      <feFlood flood-opacity="0.161"/>
      <feComposite operator="in" in2="blur"/>
      <feComposite in="SourceGraphic"/>
    </filter>
    <clipPath id="clip-path">
      <rect id="Rectangle_387" data-name="Rectangle 387" width="31" height="32" transform="translate(0.281 0.219)" fill="#2b9f5d"/>
    </clipPath>
  </defs>
  <g id="g2" transform="translate(8.938 6.281)">
    <g transform="matrix(1, 0, 0, 1, -8.94, -6.28)" filter="url(#Rectangle_391)">
      <rect id="Rectangle_391-2" data-name="Rectangle 391" width="59" height="53" rx="20" transform="translate(9 6)" fill="#fff"/>
    </g>
    <g id="svgexport-31" transform="translate(13.781 10.5)" clip-path="url(#clip-path)">
      <path id="Path_7903" data-name="Path 7903" d="M3.792,33.167H29.524a2.844,2.844,0,0,0,2.838-2.838v-14.7a2.977,2.977,0,0,0-1.275-2.391l-2.934-2.009V10.113a2.368,2.368,0,0,0-2.391-2.391H23.178l-.064-.064L18.268,4.246a2.69,2.69,0,0,0-3.061.064L10.488,7.53c-.128.064-.128.128-.159.159H7.714a2.368,2.368,0,0,0-2.391,2.391V11.2l-2.9,2.009A2.8,2.8,0,0,0,1.081,15.6V30.329a2.662,2.662,0,0,0,2.71,2.838Zm.67-1.658L16.2,21.56a.558.558,0,0,1,.8,0l11.83,9.949H4.461ZM28.089,13.238l2.009,1.4a1.079,1.079,0,0,1,.51.8l-2.455,2.1-.064-4.3Zm2.583,4.368V30.329a.781.781,0,0,1-.128.383l-7.716-6.473,7.844-6.632ZM16.1,5.744a1.294,1.294,0,0,1,1.18-.064l2.9,2.009H13.134C13.134,7.721,16.1,5.744,16.1,5.744ZM6.916,10.113a.672.672,0,0,1,.733-.67h18.08a.709.709,0,0,1,.733.67v8.864l-4.91,4.145L18.2,20.285a2.36,2.36,0,0,0-3.029,0l-3.348,2.838L6.853,18.977V10.113h.064ZM3.249,14.641l1.945-1.4v4.3L2.676,15.406a1.111,1.111,0,0,1,.574-.765Zm-.574,2.965,7.812,6.6L2.739,30.775a1.018,1.018,0,0,1-.1-.446V17.606h.032Z" transform="translate(-1.003 -2.504)" fill="#2b9f5d" stroke="#9ecb45" stroke-width="0"/>
      <path id="Path_7904" data-name="Path 7904" d="M28.825,33.06H3.061A3.06,3.06,0,0,1,.829,32.1,3.019,3.019,0,0,1,0,30V15.236a3.026,3.026,0,0,1,1.467-2.615l2.806-1.945V9.719A2.661,2.661,0,0,1,6.951,7.1H9.406l.159-.159,4.751-3.189a3.044,3.044,0,0,1,3.348-.064L22.512,7.1h2.455a2.654,2.654,0,0,1,2.678,2.678v.957l2.838,1.945a3.247,3.247,0,0,1,1.4,2.615V30.031A3.015,3.015,0,0,1,28.825,33.06ZM6.919,7.647A2.137,2.137,0,0,0,4.783,9.783v1.244L1.722,13.163A2.475,2.475,0,0,0,.542,15.3V30.031a2.414,2.414,0,0,0,.67,1.69,2.642,2.642,0,0,0,1.849.8H28.793a2.613,2.613,0,0,0,2.583-2.583v-14.7A2.556,2.556,0,0,0,30.2,13.1l-3.061-2.136V9.719A2.137,2.137,0,0,0,25,7.583H22.32l-.128-.128L17.378,4.2a2.4,2.4,0,0,0-2.742.064L9.949,7.487l-.064.064-.159.128ZM28.857,31.37H3.029l12.34-10.427a.845.845,0,0,1,1.18,0ZM4.528,30.828H27.358L16.134,21.39a.306.306,0,0,0-.446,0Zm-2.615,0-.128-.383a1.087,1.087,0,0,1-.128-.51v-13.3l8.482,7.143L1.913,30.828Zm.319-13.01V29.84l7.079-6.027C9.311,23.781,2.232,17.819,2.232,17.819Zm27.741,13.01-8.322-6.983,8.482-7.206V30a.922.922,0,0,1-.128.446C30.037,30.446,29.973,30.828,29.973,30.828Zm-7.4-6.983,7.079,5.963V17.819Zm-1.754-.733-3.507-3.029a2.2,2.2,0,0,0-2.678,0l-3.507,3.029-5.261-4.4V9.719a.956.956,0,0,1,1.02-.957h18.08a1,1,0,0,1,1.02.957v9.056ZM6.473,18.424l4.687,3.922,3.189-2.678a2.564,2.564,0,0,1,3.348,0l3.189,2.678,4.592-3.858V9.719a.425.425,0,0,0-.446-.383H6.856c-.287,0-.446.159-.446.383v8.7h.064Zm-1.722-.67L1.69,15.172v-.159a1.469,1.469,0,0,1,.606-1.02L4.687,12.3v5.421l.064.032ZM2.3,14.981l1.913,1.626V13.418L2.647,14.534C2.455,14.566,2.36,14.757,2.3,14.981Zm24.839,2.774V13.067l-.67-.446h1.244v.159l1.913,1.275a1.172,1.172,0,0,1,.606.957v.159Zm.574-4.337v3.125l1.913-1.626c-.064-.159-.159-.351-.351-.383l-1.562-1.116Zm-7.4-5.835h-8.8l3.7-2.519A1.951,1.951,0,0,1,16.677,5l3.635,2.583ZM13.3,7.041h5.261l-2.168-1.5a.907.907,0,0,0-.893.064Z" transform="translate(-0.272 -2.111)" fill="#2b9f5d" stroke="#9ecb45" stroke-width="0"/>
      <path id="Path_7905" data-name="Path 7905" d="M30.915,32.458h11a.829.829,0,1,0,0-1.658h-11a.844.844,0,0,0-.829.829A.786.786,0,0,0,30.915,32.458Z" transform="translate(-20.761 -20.896)" fill="#2b9f5d" stroke="#9ecb45" stroke-width="0"/>
      <path id="Path_7906" data-name="Path 7906" d="M41.317,32.132h-11a1.116,1.116,0,1,1,0-2.232h11a1.13,1.13,0,0,1,1.116,1.116A1.109,1.109,0,0,1,41.317,32.132Zm-11-1.658a.571.571,0,0,0-.574.574.617.617,0,0,0,.574.574h11a.571.571,0,0,0,.574-.574.617.617,0,0,0-.574-.574h-11ZM42.178,34.81a.844.844,0,0,0-.829-.829H30.316a.829.829,0,0,0,0,1.658h11a.793.793,0,0,0,.861-.829Z" transform="translate(-20.162 -20.283)" fill="#2b9f5d" stroke="#9ecb45" stroke-width="0"/>
      <path id="Path_7907" data-name="Path 7907" d="M41.317,44.232h-11a1.116,1.116,0,1,1,0-2.232h11a1.13,1.13,0,0,1,1.116,1.116A1.109,1.109,0,0,1,41.317,44.232Zm-11-1.722a.571.571,0,0,0-.574.574.617.617,0,0,0,.574.574h11a.571.571,0,0,0,.574-.574.617.617,0,0,0-.574-.574h-11Z" transform="translate(-20.162 -28.525)" fill="#2b9f5d" stroke="#9ecb45" stroke-width="0"/>
    </g>
  </g>
</svg>
