<svg xmlns="http://www.w3.org/2000/svg" xmlns:xlink="http://www.w3.org/1999/xlink" width="77" height="71" viewBox="0 0 77 71">
  <defs>
    <filter id="Rectangle_393" x="0" y="0" width="77" height="71" filterUnits="userSpaceOnUse">
      <feOffset dy="3" input="SourceAlpha"/>
      <feGaussianBlur stdDeviation="3" result="blur"/>
      <feFlood flood-opacity="0.161"/>
      <feComposite operator="in" in2="blur"/>
      <feComposite in="SourceGraphic"/>
    </filter>
    <clipPath id="clip-path">
      <rect id="Rectangle_388" data-name="Rectangle 388" width="32" height="32" transform="translate(0.281 0.281)" fill="#09bbf7"/>
    </clipPath>
  </defs>
  <g id="g3" transform="translate(8.938 6.219)">
    <g transform="matrix(1, 0, 0, 1, -8.94, -6.22)" filter="url(#Rectangle_393)">
      <rect id="Rectangle_393-2" data-name="Rectangle 393" width="59" height="53" rx="20" transform="translate(9 6)" fill="#fff"/>
    </g>
    <g id="svgexport-32" transform="translate(13.781 10.5)" clip-path="url(#clip-path)">
      <path id="Path_7908" data-name="Path 7908" d="M10.319,47.65H7.96V39.36h2.36ZM5.6,38.18V48.8a1.2,1.2,0,0,0,1.18,1.18H11.5a1.2,1.2,0,0,0,1.18-1.18V38.18A1.2,1.2,0,0,0,11.5,37H6.78A1.177,1.177,0,0,0,5.6,38.18ZM19.184,54.729H16.218v-1.18h2.965Zm-5.325-2.36v3.539a1.2,1.2,0,0,0,1.18,1.18h5.325a1.2,1.2,0,0,0,1.18-1.18V52.369a1.2,1.2,0,0,0-1.18-1.18H15.038A1.157,1.157,0,0,0,13.859,52.369Z" transform="translate(-3.782 -25.218)" fill="#09bbf7" stroke="#4dabfc" stroke-width="0"/>
      <path id="Path_7909" data-name="Path 7909" d="M18.9,55.3a1.18,1.18,0,0,0,0-2.36A3.552,3.552,0,0,1,15.36,49.4a1.18,1.18,0,1,0-2.36,0A5.906,5.906,0,0,0,18.9,55.3ZM36.6,47.65h-2.36V39.36H36.6Zm-4.719-9.47V48.8a1.2,1.2,0,0,0,1.18,1.18h4.719a1.2,1.2,0,0,0,1.18-1.18V38.18A1.2,1.2,0,0,0,37.776,37H33.056a1.2,1.2,0,0,0-1.18,1.18Z" transform="translate(-8.823 -25.218)" fill="#09bbf7" stroke="#4dabfc" stroke-width="0"/>
      <path id="Path_7910" data-name="Path 7910" d="M24.8,0A11.833,11.833,0,0,0,13,11.8a1.18,1.18,0,1,0,2.36,0,9.438,9.438,0,1,1,18.877,0,1.2,1.2,0,0,0,1.18,1.18A1.177,1.177,0,0,0,36.6,11.8,11.833,11.833,0,0,0,24.8,0Z" transform="translate(-8.823 -0.016)" fill="#09bbf7" stroke="#4dabfc" stroke-width="0"/>
    </g>
  </g>
</svg>
