<svg xmlns="http://www.w3.org/2000/svg" width="33.988" height="28.104" viewBox="0 0 33.988 28.104">
  <g id="Group_1500" data-name="Group 1500" transform="translate(0.318 -2.506)">
    <path id="Path_7445" data-name="Path 7445" d="M28.047,7.3H7.876a4.905,4.905,0,0,0-4.807,4.135A4.887,4.887,0,0,0-1.1,16.276V30.53A4.878,4.878,0,0,0,3.775,35.4H23.912a4.9,4.9,0,0,0,4.807-4.169,4.887,4.887,0,0,0,4.169-4.841V12.175A4.828,4.828,0,0,0,28.047,7.3Zm-4.1,4.068H5.556A2.511,2.511,0,0,1,7.91,9.72H28.047a2.482,2.482,0,0,1,2.488,2.488V26.462a2.462,2.462,0,0,1-1.715,2.353V16.242a4.878,4.878,0,0,0-4.875-4.875Zm2.488,4.875V30.5a2.482,2.482,0,0,1-2.488,2.488H3.775A2.482,2.482,0,0,1,1.287,30.5V16.242a2.482,2.482,0,0,1,2.488-2.488H23.912A2.511,2.511,0,0,1,26.433,16.242Z" transform="translate(0.782 -4.794)" fill="#fff" stroke="#fff" stroke-width="0"/>
    <path id="Path_7446" data-name="Path 7446" d="M20.723,37.987a3.194,3.194,0,1,0-3.194-3.194A3.171,3.171,0,0,0,20.723,37.987Zm0-4.572a1.345,1.345,0,1,1-1.345,1.345,1.213,1.213,0,0,1,.37-.941,1.327,1.327,0,0,1,.807-.4Zm6.791,2.992a1.159,1.159,0,0,0-.706-.471,1.313,1.313,0,0,0-.874.134c-.1.034-.168.134-.269.2l-4.706,5.614-2.084-1.546A1.124,1.124,0,0,0,18,40.105a1.344,1.344,0,0,0-.74.471l-3.8,5.312a1.118,1.118,0,0,0,.235,1.58,1.028,1.028,0,0,0,.672.235H32.657a1.065,1.065,0,0,0,.773-.3,1.023,1.023,0,0,0,.37-.807,1.28,1.28,0,0,0-.2-.639Zm3.093,9.01H16.554L18.4,42.862l2.017,1.479a1.185,1.185,0,0,0,1.546-.168L26.4,38.929l4.2,6.488Z" transform="translate(-8.737 -20.925)" fill="#fff" stroke="#fff" stroke-width="0"/>
    <g id="Group_1498" data-name="Group 1498" transform="translate(4.758 16.32)" opacity="0.4">
      <path id="Path_7447" data-name="Path 7447" d="M32.608,55.717a19.75,19.75,0,0,1-2.084-3.16c-.235-.471-.471-.975-.706-1.446A9.589,9.589,0,0,0,28.977,50c-.2-.269-.4-.773-.773-.807-.269-.034-.538.269-.672.471a7.155,7.155,0,0,0-.538.84,6.156,6.156,0,0,1-.874,1.21c-.336.4-.639.807-.975,1.21a6.262,6.262,0,0,1-.773.874,1.927,1.927,0,0,1-1.95.235c-.807-.3-1.849-1.009-2.689-.471a8.586,8.586,0,0,0-1.95,2.42A12.181,12.181,0,0,1,15.9,58.036H33.65a1.111,1.111,0,0,0-.168-1.009,9.87,9.87,0,0,0-.874-1.311Z" transform="translate(-15.261 -48.924)" fill="#fff" stroke="#fff" stroke-width="0"/>
      <path id="Path_7448" data-name="Path 7448" d="M32.523,57.708H14l.437-.4a14.392,14.392,0,0,0,1.849-2.017,4.617,4.617,0,0,0,.437-.672,5.651,5.651,0,0,1,1.546-1.782,2.466,2.466,0,0,1,2.32.2c.2.1.37.168.538.235a1.608,1.608,0,0,0,1.715-.2,4.761,4.761,0,0,0,.672-.74l.067-.1c.336-.437.639-.807.975-1.21a11.136,11.136,0,0,0,.84-1.177l.067-.1a5.05,5.05,0,0,1,.5-.773c.168-.2.471-.605.908-.571.4.034.639.437.807.706.034.067.1.134.134.2a3.572,3.572,0,0,0,.3.37,4.609,4.609,0,0,1,.571.773c.2.37.4.773.572,1.143.034.1.1.2.134.3a17.544,17.544,0,0,0,1.748,2.689c.1.134.235.3.336.437a1.423,1.423,0,0,1,.168.235,11.865,11.865,0,0,1,.706,1.076,1.271,1.271,0,0,1,.168,1.244v.134ZM15.21,57.238H32.221a1.052,1.052,0,0,0-.2-.672,5.412,5.412,0,0,0-.706-1.009,1.423,1.423,0,0,1-.168-.235,3.805,3.805,0,0,0-.336-.437,18.367,18.367,0,0,1-1.782-2.757c-.034-.1-.1-.2-.134-.3-.168-.37-.37-.74-.572-1.109a3.2,3.2,0,0,0-.5-.672c-.1-.134-.235-.269-.336-.4-.034-.067-.1-.134-.134-.2-.134-.2-.3-.471-.471-.5-.168,0-.4.269-.471.4-.168.2-.3.471-.471.706l-.067.1a12.182,12.182,0,0,1-.874,1.244c-.3.37-.639.773-.941,1.177l-.067.1a5.537,5.537,0,0,1-.74.807,2.151,2.151,0,0,1-2.185.269,4.1,4.1,0,0,1-.572-.235c-.672-.3-1.345-.605-1.883-.235a5.57,5.57,0,0,0-1.412,1.647c-.134.235-.3.471-.471.706a21.227,21.227,0,0,1-1.513,1.614Z" transform="translate(-14 -48.394)" fill="#fff" stroke="#fff" stroke-width="0"/>
    </g>
    <g id="Group_1499" data-name="Group 1499" transform="translate(9.801 11.616)" opacity="0.4">
      <path id="Path_7449" data-name="Path 7449" d="M29.7,35.1h3.933v3.933H29.7Z" transform="translate(-29.465 -34.865)" fill="#fff" stroke="#fff" stroke-width="0"/>
      <path id="Path_7450" data-name="Path 7450" d="M33.37,38.8H29V34.4h4.4v4.4Zm-3.933-.471H32.9V34.871H29.437Z" transform="translate(-29 -34.4)" fill="#fff" stroke="#fff" stroke-width="0"/>
    </g>
    <path id="Path_7451" data-name="Path 7451" d="M37.909,36.6H36.8c.034.067.067.168.1.235A3.657,3.657,0,0,1,37.909,36.6Z" transform="translate(-24.377 -24.244)" fill="#fff" stroke="#fff" stroke-width="0" opacity="0.4"/>
    <path id="Path_7452" data-name="Path 7452" d="M15.9,13v2.252a74.166,74.166,0,0,0,10.59.874c2.757.067,5.984-.3,8.64.672,2.925,1.076,4.1,3.866,3.53,6.824a24.871,24.871,0,0,0-.874,4.673,8.175,8.175,0,0,0,.74,3.362,1.624,1.624,0,0,1,.571.74,1.562,1.562,0,0,1,.2.773v.2h3.295V13Z" transform="translate(-10.503 -8.578)" fill="#fff" stroke="#fff" stroke-width="0" opacity="0.4"/>
  </g>
</svg>
