<svg xmlns="http://www.w3.org/2000/svg" xmlns:xlink="http://www.w3.org/1999/xlink" width="647.763" height="484.528" viewBox="0 0 647.763 484.528">
  <defs>
    <filter id="_شارك" x="253.733" y="245.472" width="111" height="88" filterUnits="userSpaceOnUse">
      <feOffset dy="20" input="SourceAlpha"/>
      <feGaussianBlur stdDeviation="10" result="blur"/>
      <feFlood flood-opacity="0.439"/>
      <feComposite operator="in" in2="blur"/>
      <feComposite in="SourceGraphic"/>
    </filter>
    <filter id="ناقش" x="205.733" y="245.472" width="106" height="88" filterUnits="userSpaceOnUse">
      <feOffset dy="20" input="SourceAlpha"/>
      <feGaussianBlur stdDeviation="10" result="blur-2"/>
      <feFlood flood-opacity="0.439"/>
      <feComposite operator="in" in2="blur-2"/>
      <feComposite in="SourceGraphic"/>
    </filter>
    <filter id="تفاعل" x="152.733" y="245.472" width="107" height="87" filterUnits="userSpaceOnUse">
      <feOffset dy="20" input="SourceAlpha"/>
      <feGaussianBlur stdDeviation="10" result="blur-3"/>
      <feFlood flood-opacity="0.439"/>
      <feComposite operator="in" in2="blur-3"/>
      <feComposite in="SourceGraphic"/>
    </filter>
  </defs>
  <g id="Group_1466" data-name="Group 1466" transform="translate(-996.267 -4015.528)">
    <g id="Group_1448" data-name="Group 1448" transform="translate(996.267 3960.575)">
      <g id="Background_Complete" data-name="Background Complete" transform="translate(0 54.953)">
        <g id="Group_1417" data-name="Group 1417">
          <rect id="Rectangle_286" data-name="Rectangle 286" width="647.763" height="0.321" transform="translate(0 426.614)" fill="#ebebeb"/>
          <rect id="Rectangle_287" data-name="Rectangle 287" width="42.474" height="0.321" transform="translate(533.336 438.826)" fill="#ebebeb"/>
          <rect id="Rectangle_288" data-name="Rectangle 288" width="63.94" height="0.321" transform="translate(170.516 443.165)" fill="#ebebeb"/>
          <rect id="Rectangle_289" data-name="Rectangle 289" width="37.862" height="0.321" transform="translate(492.926 450.734)" fill="#ebebeb"/>
          <rect id="Rectangle_290" data-name="Rectangle 290" width="27.694" height="0.321" transform="translate(67.271 448.579)" fill="#ebebeb"/>
          <rect id="Rectangle_291" data-name="Rectangle 291" width="49.209" height="0.321" transform="translate(107.566 448.579)" fill="#ebebeb"/>
          <rect id="Rectangle_292" data-name="Rectangle 292" width="120.125" height="0.321" transform="translate(308.467 435.346)" fill="#ebebeb"/>
          <path id="Path_7176" data-name="Path 7176" d="M293.146,417.661H45.527a7.329,7.329,0,0,1-7.32-7.32V62.271a7.327,7.327,0,0,1,7.32-7.318h247.62a7.327,7.327,0,0,1,7.318,7.318v348.07A7.328,7.328,0,0,1,293.146,417.661ZM45.527,55.274a7.006,7.006,0,0,0-7,7v348.07a7.006,7.006,0,0,0,7,7h247.62a7.006,7.006,0,0,0,7-7V62.271a7.006,7.006,0,0,0-7-7Z" transform="translate(10.788 -54.953)" fill="#ebebeb"/>
          <path id="Path_7177" data-name="Path 7177" d="M509.442,417.661H261.823a7.327,7.327,0,0,1-7.318-7.32V62.271a7.326,7.326,0,0,1,7.318-7.318H509.442a7.328,7.328,0,0,1,7.321,7.318v348.07A7.329,7.329,0,0,1,509.442,417.661ZM261.823,55.274a7.006,7.006,0,0,0-7,7v348.07a7.006,7.006,0,0,0,7,7H509.442a7.007,7.007,0,0,0,7-7V62.271a7.007,7.007,0,0,0-7-7Z" transform="translate(78.449 -54.953)" fill="#ebebeb"/>
        </g>
        <g id="Group_1429" data-name="Group 1429" transform="translate(62.098 18.579)">
          <g id="Group_1421" data-name="Group 1421" transform="translate(0 4.648)">
            <g id="Group_1418" data-name="Group 1418" transform="translate(0 3.069)">
              <rect id="Rectangle_293" data-name="Rectangle 293" width="255.06" height="292.569" transform="translate(12.898 5.899)" fill="#e6e6e6"/>
              <path id="Path_7178" data-name="Path 7178" d="M334.895,75.459H50.141a1.715,1.715,0,0,0-1.716,1.715h0a1.715,1.715,0,0,0,1.716,1.715H334.895a1.715,1.715,0,0,0,1.716-1.715h0A1.715,1.715,0,0,0,334.895,75.459Z" transform="translate(-48.425 -75.459)" fill="#f5f5f5"/>
              <rect id="Rectangle_294" data-name="Rectangle 294" width="258.965" height="292.569" transform="translate(16.323 5.899)" fill="#ebebeb"/>
              <rect id="Rectangle_295" data-name="Rectangle 295" width="272.046" height="238.441" transform="translate(265.025 16.161) rotate(90)" fill="#fafafa"/>
              <path id="Path_7179" data-name="Path 7179" d="M113.271,360.108,153.508,88.062h63.644L176.914,360.108Z" transform="translate(-30.116 -71.901)" fill="#fff"/>
              <path id="Path_7180" data-name="Path 7180" d="M173.563,360.108,213.8,88.062h24.812L198.375,360.108Z" transform="translate(-13.093 -71.901)" fill="#fff"/>
              <rect id="Rectangle_296" data-name="Rectangle 296" width="272.046" height="1.303" transform="translate(265.025 16.161) rotate(90)" fill="#e6e6e6"/>
            </g>
            <g id="Group_1419" data-name="Group 1419" transform="translate(9.043)" opacity="0.5">
              <rect id="Rectangle_297" data-name="Rectangle 297" width="17.661" height="275.478" fill="#f0f0f0"/>
              <rect id="Rectangle_298" data-name="Rectangle 298" width="13.76" height="275.478" transform="translate(10.781)" fill="#e6e6e6"/>
              <rect id="Rectangle_299" data-name="Rectangle 299" width="17.661" height="275.478" transform="translate(17.661)" fill="#f0f0f0"/>
              <rect id="Rectangle_300" data-name="Rectangle 300" width="13.76" height="275.478" transform="translate(28.443)" fill="#e6e6e6"/>
              <rect id="Rectangle_301" data-name="Rectangle 301" width="17.661" height="275.478" transform="translate(35.323)" fill="#f0f0f0"/>
            </g>
            <g id="Group_1420" data-name="Group 1420" transform="translate(179.355)" opacity="0.5">
              <rect id="Rectangle_302" data-name="Rectangle 302" width="33.151" height="275.478" fill="#f0f0f0"/>
              <rect id="Rectangle_303" data-name="Rectangle 303" width="25.828" height="275.478" transform="translate(20.237)" fill="#e6e6e6"/>
              <rect id="Rectangle_304" data-name="Rectangle 304" width="33.151" height="275.478" transform="translate(33.151)" fill="#f0f0f0"/>
              <rect id="Rectangle_305" data-name="Rectangle 305" width="25.828" height="275.478" transform="translate(53.388)" fill="#e6e6e6"/>
              <rect id="Rectangle_306" data-name="Rectangle 306" width="33.151" height="275.478" transform="translate(66.302)" fill="#f0f0f0"/>
            </g>
          </g>
          <g id="Group_1422" data-name="Group 1422" transform="translate(145.415 230.241)">
            <rect id="Rectangle_307" data-name="Rectangle 307" width="12.105" height="177.791" transform="translate(15.925 177.791) rotate(180)" fill="#e6e6e6"/>
            <rect id="Rectangle_308" data-name="Rectangle 308" width="8.407" height="177.791" transform="translate(8.407 177.791) rotate(180)" fill="#f0f0f0"/>
            <rect id="Rectangle_309" data-name="Rectangle 309" width="259.807" height="12.855" transform="translate(0 0)" fill="#f0f0f0"/>
            <rect id="Rectangle_310" data-name="Rectangle 310" width="12.105" height="164.936" transform="translate(277.332 177.791) rotate(180)" fill="#e6e6e6"/>
            <rect id="Rectangle_311" data-name="Rectangle 311" width="8.407" height="164.936" transform="translate(269.813 177.791) rotate(180)" fill="#f0f0f0"/>
            <rect id="Rectangle_312" data-name="Rectangle 312" width="12.105" height="164.936" transform="translate(353.938 177.791) rotate(180)" fill="#e6e6e6"/>
            <rect id="Rectangle_313" data-name="Rectangle 313" width="8.407" height="164.936" transform="translate(346.419 177.791) rotate(180)" fill="#f0f0f0"/>
            <rect id="Rectangle_314" data-name="Rectangle 314" width="12.105" height="164.936" transform="translate(95.135 177.791) rotate(180)" fill="#e6e6e6"/>
            <rect id="Rectangle_315" data-name="Rectangle 315" width="8.407" height="164.936" transform="translate(87.617 177.791) rotate(180)" fill="#f0f0f0"/>
            <rect id="Rectangle_316" data-name="Rectangle 316" width="94.131" height="12.855" transform="translate(353.938 12.855) rotate(180)" fill="#e6e6e6"/>
          </g>
          <g id="Group_1425" data-name="Group 1425" transform="translate(232.11 163.081)">
            <g id="Group_1423" data-name="Group 1423">
              <rect id="Rectangle_317" data-name="Rectangle 317" width="34.212" height="56.282" transform="translate(21.096 7.343)" fill="#e0e0e0"/>
              <rect id="Rectangle_318" data-name="Rectangle 318" width="21.096" height="56.282" transform="translate(21.096 63.625) rotate(180)" fill="#ebebeb"/>
              <path id="Path_7181" data-name="Path 7181" d="M309.843,194.135h-39.3l-14.172,63.626h39.3Z" transform="translate(-215.232 -194.135)" fill="#e6e6e6"/>
              <path id="Path_7182" data-name="Path 7182" d="M257.284,194.135h17l-14.172,63.626h-17Z" transform="translate(-218.976 -194.135)" fill="#f0f0f0"/>
              <rect id="Rectangle_319" data-name="Rectangle 319" width="37.99" height="58.12" transform="translate(74.575 5.505)" fill="#ebebeb"/>
              <rect id="Rectangle_320" data-name="Rectangle 320" width="19.267" height="58.12" transform="translate(74.575 63.625) rotate(180)" fill="#f5f5f5"/>
              <rect id="Rectangle_321" data-name="Rectangle 321" width="27.507" height="48.715" transform="translate(98.118 14.91)" fill="#e0e0e0"/>
              <rect id="Rectangle_322" data-name="Rectangle 322" width="19.267" height="48.715" transform="translate(98.118 63.625) rotate(180)" fill="#e6e6e6"/>
            </g>
            <g id="Group_1424" data-name="Group 1424" transform="translate(110.135)">
              <rect id="Rectangle_323" data-name="Rectangle 323" width="34.212" height="56.282" transform="translate(21.096 7.343)" fill="#e0e0e0"/>
              <rect id="Rectangle_324" data-name="Rectangle 324" width="21.097" height="56.282" transform="translate(21.097 63.625) rotate(180)" fill="#ebebeb"/>
              <path id="Path_7183" data-name="Path 7183" d="M395.728,194.135h-39.3l-14.172,63.626h39.3Z" transform="translate(-301.118 -194.135)" fill="#e6e6e6"/>
              <path id="Path_7184" data-name="Path 7184" d="M343.169,194.135h17L346,257.761H329Z" transform="translate(-304.861 -194.135)" fill="#f0f0f0"/>
              <rect id="Rectangle_325" data-name="Rectangle 325" width="37.99" height="58.12" transform="translate(74.575 5.505)" fill="#ebebeb"/>
              <rect id="Rectangle_326" data-name="Rectangle 326" width="19.267" height="58.12" transform="translate(74.575 63.625) rotate(180)" fill="#f5f5f5"/>
              <rect id="Rectangle_327" data-name="Rectangle 327" width="27.507" height="48.715" transform="translate(98.118 14.91)" fill="#e0e0e0"/>
              <rect id="Rectangle_328" data-name="Rectangle 328" width="19.267" height="48.715" transform="translate(98.118 63.625) rotate(180)" fill="#e6e6e6"/>
            </g>
          </g>
          <g id="Group_1428" data-name="Group 1428" transform="translate(377.627)">
            <g id="Group_1426" data-name="Group 1426">
              <rect id="Rectangle_329" data-name="Rectangle 329" width="83.963" height="137.073" transform="translate(102.498 137.073) rotate(180)" fill="#f0f0f0"/>
              <rect id="Rectangle_330" data-name="Rectangle 330" width="99.281" height="137.073" transform="translate(99.281 137.073) rotate(180)" fill="#f5f5f5"/>
              <rect id="Rectangle_331" data-name="Rectangle 331" width="120.438" height="82.646" transform="translate(8.317 128.755) rotate(-90)" fill="#fff"/>
            </g>
            <g id="Group_1427" data-name="Group 1427" transform="translate(16.507 34.845)" opacity="0.5">
              <path id="Path_7185" data-name="Path 7185" d="M385.766,165.5c-.088,0-.178,0-.268-.006a10.217,10.217,0,0,1-5.154-2.024,34.949,34.949,0,0,1-8.539-7.588,8.242,8.242,0,0,1-1.667-1.679,20.706,20.706,0,0,1-5.358-1.543,21.55,21.55,0,0,1-7.727-5.908c-1.84-2.216-3.97-5.713-3.669-9.793a14.056,14.056,0,0,1,.709-3.323,13.6,13.6,0,0,1-.557-6.022,18.252,18.252,0,0,1,2.515-6.623c.395-.678.817-1.348,1.262-2,1.709-9.5,9.415-17.97,19.431-20.879a16.794,16.794,0,0,1,5.223-.78,14.257,14.257,0,0,1,7.571,2.6,18.155,18.155,0,0,1,8.674.487,16.691,16.691,0,0,1,9.4,8.217,24.477,24.477,0,0,1,2.5,11.548,28.594,28.594,0,0,1-3.619,14.569l-.008.013a40.32,40.32,0,0,1-.749,4.81,43.794,43.794,0,0,1-13.245,22.66C390.812,163.767,388.55,165.5,385.766,165.5Zm-8.979-8.174a38.61,38.61,0,0,0,5.037,3.9,7.725,7.725,0,0,0,3.782,1.584c1.938.063,3.716-1.327,5.061-2.558a41.138,41.138,0,0,0,12.359-20.923,29.018,29.018,0,0,1-9.565,6.575,43.553,43.553,0,0,1-9.619,8.669A14.593,14.593,0,0,1,376.787,157.329Zm-1.965-2.892a5.822,5.822,0,0,0,3.131,0l-.314-.282A26.238,26.238,0,0,1,374.823,154.437Zm-2.565-2.7a22.164,22.164,0,0,0,2.919,0,46.692,46.692,0,0,1-3.607-4.291c-.365-.088-.732-.183-1.1-.285A16.58,16.58,0,0,0,372.258,151.739Zm3.351-3.541q1.368,1.6,2.892,3.072a24.125,24.125,0,0,0,7.986-3.283l-.147.009A35.943,35.943,0,0,1,375.609,148.2Zm-19.561-10.49a11.857,11.857,0,0,0,3.076,7.329,18.85,18.85,0,0,0,6.753,5.169,17.579,17.579,0,0,0,2.684.939,16.464,16.464,0,0,1-.768-3.574c-.006-.059-.013-.117-.018-.174-.08-.392-.144-.781-.195-1.172a25.345,25.345,0,0,1-9.525-6A17.821,17.821,0,0,1,356.048,137.709Zm17.107,7.34a34.416,34.416,0,0,0,4.272.641c-.564-.272-1.111-.548-1.632-.817-1.4-.714-2.854-1.5-4.313-2.371Q372.269,143.8,373.154,145.049Zm-16.215-11.417a14.619,14.619,0,0,0,3.06,4.732,21.99,21.99,0,0,0,7.466,4.923,14.783,14.783,0,0,1,.244-2.013q-.508-.979-.962-1.98a25.707,25.707,0,0,1-6.534-7.176,15.975,15.975,0,0,1-1.677-2.462q-.789,1.77-1.479,3.65C357.017,133.416,356.977,133.525,356.939,133.632Zm14.9,4.228a50.956,50.956,0,0,0,7.771,3.62,17.048,17.048,0,0,0,5.6,1.252h.069a11.474,11.474,0,0,0,8.7-4.434,14.766,14.766,0,0,0,.319-4.979,9.916,9.916,0,0,0-1.243-4.245,7.627,7.627,0,0,1-8.764,2.778,1.346,1.346,0,0,1,.934-2.525,4.94,4.94,0,0,0,5.642-1.83,3.317,3.317,0,0,0,.19-.376c-2.61-1.445-6.271-.623-8.934.7a23.988,23.988,0,0,0-9.828,9.252Q372.046,137.475,371.835,137.86Zm25.5,2.431c-.128.223-.258.446-.391.668a23.8,23.8,0,0,0,6.909-7.048,38.926,38.926,0,0,0-2-15.66,22.839,22.839,0,0,1,.535,6.369,28.688,28.688,0,0,1-.781,4.95A38.25,38.25,0,0,1,397.333,140.292Zm-29.234-4.8q.569.4,1.149.781c2.81-6.466,9.008-11.18,14.061-15.021,1.087-.827,2.712-2.092,4.764-2.029a5.658,5.658,0,0,1,2.862.926,6.66,6.66,0,0,1,3.08,5.855,10.54,10.54,0,0,1,2.837,6.105,23.335,23.335,0,0,0,.521-3.221c.274-2.949-.076-5.09-1.1-6.736-1.894-3.037-6.122-4.414-10.41-5.449a16.3,16.3,0,0,0-6.492-.657,11.888,11.888,0,0,0-3.93,1.584c-4.71,2.753-7.824,6.849-8.331,10.958A15.044,15.044,0,0,0,368.1,135.487Zm-5.668-4.91a21.121,21.121,0,0,0,2.153,2.175,15.091,15.091,0,0,1-.149-4.5c.609-4.934,4.214-9.777,9.643-12.948a14.342,14.342,0,0,1,4.828-1.912,18.538,18.538,0,0,1,7.584.691c4.843,1.168,9.657,2.783,12.063,6.64a9.788,9.788,0,0,1,.909,1.884c-.005-.058-.009-.115-.014-.172a15.971,15.971,0,0,0-8.87-12.576,24.2,24.2,0,0,0-9.234-2.286c-.873-.059-1.725-.076-2.557-.069-.755.49-1.5.99-2.224,1.486a68.617,68.617,0,0,0-7.421,5.65,42.562,42.562,0,0,0-8.494,10.8,14.489,14.489,0,0,0,.889,3.288A15.646,15.646,0,0,0,362.431,130.576Zm-5.364-5.626A12.438,12.438,0,0,0,356.2,128c-.019.133-.035.267-.049.4q.525-1.168,1.093-2.288C357.171,125.734,357.112,125.351,357.067,124.951Zm35.744-22.328a16.793,16.793,0,0,1,4.6,3.049,24.821,24.821,0,0,1,5.621,8.262,41.551,41.551,0,0,1,3.488,13.649,29.705,29.705,0,0,0,.891-7.4,21.893,21.893,0,0,0-2.193-10.3,13.316,13.316,0,0,0-12.717-7.552C392.606,102.424,392.71,102.523,392.811,102.623Zm-4.852,19.284a5.6,5.6,0,0,0-3.021,1.48q-.594.454-1.209.922a12.3,12.3,0,0,1,7.259-.137,3.954,3.954,0,0,0-1.494-1.756,3.035,3.035,0,0,0-1.486-.508Zm-26.368-4.1a14.564,14.564,0,0,0-.707,2.2,43.591,43.591,0,0,1,6.451-7.359q.631-.569,1.285-1.119c-.283.191-.567.386-.844.583A34.033,34.033,0,0,0,361.591,117.8ZM381.6,100.019a14.668,14.668,0,0,0-4.107.68,25.681,25.681,0,0,0-13.153,9.025,20.23,20.23,0,0,1,6.03-3.474,23.05,23.05,0,0,1,4.241-1.09c1.052-.489,2.059-.931,2.99-1.331a33.8,33.8,0,0,1,5.968-2.054q1-.44,2.041-.813l.144-.05a10.5,10.5,0,0,0-3.868-.887C381.795,100.022,381.7,100.019,381.6,100.019Zm1.416,5a25.8,25.8,0,0,1,8.764,2.433,19.061,19.061,0,0,1,3.285,2.089,35.651,35.651,0,0,0-2.675-3.45q-.544-.617-1.09-1.175a11.548,11.548,0,0,0-3.761-.843,13.031,13.031,0,0,0-3.112.264C383.953,104.554,383.482,104.782,383.018,105.019Z" transform="translate(-349.872 -96.412)" fill="#f5f5f5"/>
              <path id="Path_7186" data-name="Path 7186" d="M381.229,160.461c-4.206,0-8.116-1.863-10.841-3.376q-2.433-1.348-4.715-2.906-.8-.371-1.581-.78a15.877,15.877,0,0,1-6.546-5.6c-.145-.241-.277-.486-.4-.734-3.062-3.146-4.928-6.057-5.827-9.073a21.607,21.607,0,0,1,.009-10.829c1.361-6.276,4.006-11.287,7.863-14.9a26.237,26.237,0,0,1,9.537-5.517q.729-1.166,1.463-2.316a1.345,1.345,0,0,1,2.368,1.259,43.729,43.729,0,0,1,18.343.189,15.415,15.415,0,0,1,11.808,1.457,22.332,22.332,0,0,1,4.845,4.531,52.6,52.6,0,0,1,6.912,9.238,17.219,17.219,0,0,1,2.186,11.489,18.962,18.962,0,0,1-2,5.232,37.614,37.614,0,0,1-21.682,17.876q-.825.264-1.661.489a15.4,15.4,0,0,1-7.857,4.084A13.428,13.428,0,0,1,381.229,160.461Zm-3.183-3.09a12.236,12.236,0,0,0,4.964.255c.328-.055.654-.126.98-.214A39.128,39.128,0,0,1,378.047,157.37ZM367,151.828a35.725,35.725,0,0,0,22.964,1.936q.371-.365.737-.763a22.7,22.7,0,0,1-7.18.636,27.111,27.111,0,0,1-16.653-7.107,15.7,15.7,0,0,1-5.036-8.567,16.037,16.037,0,0,1,.672-7.213A25.216,25.216,0,0,1,377.6,113.96a20.018,20.018,0,0,1,2.41-.714,22.659,22.659,0,0,1,6.221-5.447q-1.566-.187-3.23-.258A37.649,37.649,0,0,0,370.495,109c-6.046,9.72-11.192,19.435-11.89,30.062a13.725,13.725,0,0,0,.78,6.44q.369.371.763.748A55.35,55.35,0,0,0,367,151.828Zm28.976-1.308c-.358.555-.732,1.1-1.121,1.638a34.783,34.783,0,0,0,17.423-15.592,16.414,16.414,0,0,0,1.734-4.491c.736-3.714-.635-7.318-1.915-9.686a50.5,50.5,0,0,0-6.575-8.752,19.973,19.973,0,0,0-4.242-4.015,10.59,10.59,0,0,0-3.8-1.416q.8.4,1.558.839c5.154,3,8.73,7.744,9.566,12.7a21.726,21.726,0,0,1-1.123,10.225,48.681,48.681,0,0,1-6.031,12.526A23.356,23.356,0,0,1,395.979,150.52Zm-18.506-33.612a22.729,22.729,0,0,0-12.385,14.6,11.365,11.365,0,0,0,3.632,13.066,24.38,24.38,0,0,0,14.978,6.377,17.357,17.357,0,0,0,9.593-1.886q.36-.21.7-.439a30.616,30.616,0,0,0,3.968-9.869q.175-.844.287-1.653a15.691,15.691,0,0,1-12.534,4.186c-5.705-.712-10.686-4.963-11.844-10.107a12.406,12.406,0,0,1-.215-1.277,1.346,1.346,0,0,1-2.233-1.381A25.728,25.728,0,0,1,375.2,120.7q.29-.364.6-.7.287-.6.612-1.212Q376.93,117.813,377.473,116.908ZM401.1,133.085a23.564,23.564,0,0,1-.509,6.218q-.267,1.287-.641,2.554a45.882,45.882,0,0,0,4.96-10.7,19.2,19.2,0,0,0,1.039-8.97c-.705-4.173-3.8-8.219-8.267-10.819a26.392,26.392,0,0,0-6.754-2.708,15.206,15.206,0,0,0-2.915,1.22,18.5,18.5,0,0,0-3.873,2.842c6.3-.176,12.491,2.415,15.7,7.026A13.679,13.679,0,0,1,401.1,133.085Zm-34.745-22.464a21.818,21.818,0,0,0-5.329,3.614c-3.45,3.226-5.83,7.768-7.071,13.5-.83,3.832-.849,6.848-.06,9.489a15.146,15.146,0,0,0,1.966,4.077c-.024-.876.009-1.694.055-2.412C356.578,128.866,361.077,119.474,366.359,110.621Zm11.682,10.938c-1.618,3.5-2.124,6.466-1.547,9.033.918,4.077,4.934,7.453,9.552,8.029a12.645,12.645,0,0,0,11.873-5.305q.238-.365.442-.749a13.011,13.011,0,0,0-.937-3.733c-1.548-3.652-5.088-6.785-9.968-8.817a10.918,10.918,0,0,0-3.794-.972A7.98,7.98,0,0,0,378.041,121.559Zm5.483-5.206.2,0a13.389,13.389,0,0,1,4.768,1.177c5.233,2.181,9.142,5.556,11.094,9.557a10.991,10.991,0,0,0-1.949-5.8c-3.1-4.457-9.874-6.673-16.116-5.6q-.4.535-.785,1.1A9.281,9.281,0,0,1,383.525,116.353Z" transform="translate(-350.639 -94.581)" fill="#ebebeb"/>
              <path id="Path_7187" data-name="Path 7187" d="M377.777,160.893a15.024,15.024,0,0,1-4.018-.481,13.053,13.053,0,0,1-6.335-4.088,17.167,17.167,0,0,1-7.91-2.406,14.945,14.945,0,0,1-6.528-9.755,22.916,22.916,0,0,1,.849-11.213,28.564,28.564,0,0,1,7.347-12.57l.014-.013a39.691,39.691,0,0,1,2.012-4.252,44.866,44.866,0,0,1,18.477-17.827c2.027-1.062,4.7-2.19,7.375-1.422a9.363,9.363,0,0,1,4.279,3.055,31.054,31.054,0,0,1,5.858,8.908,7.326,7.326,0,0,1,1.076,1.885,18.658,18.658,0,0,1,10.111,9.832c1.11,2.471,2.136,6.194.727,9.9a14.13,14.13,0,0,1-1.561,2.889A13,13,0,0,1,408.412,139a18.416,18.416,0,0,1-4.145,5.515q-.831.806-1.722,1.559c-4.183,8.333-13.642,14.378-23.716,14.8Q378.285,160.892,377.777,160.893Zm-6.455-4.623a9.505,9.505,0,0,0,3.148,1.548,13.639,13.639,0,0,0,4.248.365,26.326,26.326,0,0,0,14-4.838,20.61,20.61,0,0,1-5.749,1.485,22.453,22.453,0,0,1-4.232.047c-1.109.214-2.165.392-3.138.551a33.862,33.862,0,0,1-6.1.548q-1.045.181-2.111.287Zm-12.236-28.836a29.323,29.323,0,0,0-2.672,6.289,20.326,20.326,0,0,0-.789,9.91,12.24,12.24,0,0,0,5.322,8.006,13.1,13.1,0,0,0,4.283,1.673c-.046-.074-.091-.151-.136-.228a15.1,15.1,0,0,1-3.446-3.857,22.248,22.248,0,0,1-2.97-8.91A38.6,38.6,0,0,1,359.085,127.434Zm8.067,23.832a10.512,10.512,0,0,0,3.187,1.562,12.344,12.344,0,0,0,2.94.455c.444-.081.886-.172,1.326-.269a23.531,23.531,0,0,1-7.217-4.123,17.083,17.083,0,0,1-2.4-2.552,31.642,31.642,0,0,0,1.485,3.619Q366.8,150.639,367.152,151.266ZM364.4,133.538a14.183,14.183,0,0,0,4.751,13.317,22.1,22.1,0,0,0,7.9,4.151q1.187.375,2.34.636c.836-.281,1.661-.574,2.471-.866a71.063,71.063,0,0,0,8.435-3.526,44.033,44.033,0,0,0,10.846-8.021,13.22,13.22,0,0,0,.074-3.184,14.092,14.092,0,0,0-.315-1.87,18.527,18.527,0,0,0-1.323-2.356,14.525,14.525,0,0,1-1.094,4.147c-1.944,4.456-6.49,8-12.471,9.716a14.513,14.513,0,0,1-5,.671,17.518,17.518,0,0,1-6.871-2.348c-4.2-2.175-8.249-4.759-9.439-8.9A8.9,8.9,0,0,1,364.4,133.538Zm34.759,11.092a44.989,44.989,0,0,1-7.438,4.91,35.115,35.115,0,0,0,6.45-3.506A14.5,14.5,0,0,0,399.156,144.63Zm-29.817-19.244a23.042,23.042,0,0,0-1.231,2.6c-1.057,2.631-1.318,4.657-.825,6.376.908,3.161,4.424,5.354,8.089,7.252a15.135,15.135,0,0,0,5.814,2.053,11.981,11.981,0,0,0,4.079-.573c5.131-1.473,9.148-4.542,10.746-8.2a14.116,14.116,0,0,0,.968-6.49c-.251-.3-.508-.59-.767-.88-4.374,5.3-11.409,8.239-17.141,10.629a7.844,7.844,0,0,1-4.978.789,5.259,5.259,0,0,1-2.456-1.527,6.226,6.226,0,0,1-1.29-6.127A9.477,9.477,0,0,1,369.339,125.386Zm35.224,14.162c-.023.247-.055.5-.095.754a12.594,12.594,0,0,0,1.4-2.22C405.439,138.581,405,139.071,404.562,139.548Zm-31.818-5.809a3.351,3.351,0,0,0,.86,1.838,2.643,2.643,0,0,0,1.185.766,5.537,5.537,0,0,0,3.246-.673l.987-.413A11.516,11.516,0,0,1,372.745,133.739Zm-9.268-11.823a36.8,36.8,0,0,0-2.46,13.952,21.56,21.56,0,0,1,1.191-5.261,28.3,28.3,0,0,1,2.082-4.374,38.74,38.74,0,0,1,6.929-8.915c.06-.06.122-.119.183-.18A24.455,24.455,0,0,0,363.477,121.916Zm39.973,11.378a14.629,14.629,0,0,1,.846,2.483q1.193-1.421,2.326-2.967c.067-.09.131-.177.194-.264a12.914,12.914,0,0,0-1.521-4.954,19.35,19.35,0,0,0-5.5-6.126,14.468,14.468,0,0,1-.773,1.789q.194.981.34,1.971A22.892,22.892,0,0,1,403.451,133.294Zm-29.92-2.317c2.027,1.808,5.676,1.832,8.331,1.257a24.773,24.773,0,0,0,11.667-6.3c.208-.2.406-.39.595-.581a45.548,45.548,0,0,0-6.11-4.972,15.617,15.617,0,0,0-4.815-2.392,11.594,11.594,0,0,0-9.357,2.116,14.342,14.342,0,0,0-1.659,4.493,9.272,9.272,0,0,0-.051,3.982,7.576,7.576,0,0,1,8.866-.517,1.345,1.345,0,1,1-1.518,2.221,4.876,4.876,0,0,0-5.71.441C373.685,130.8,373.605,130.89,373.531,130.977ZM400.5,118.661a22.661,22.661,0,0,1,7.161,7.65,16.173,16.173,0,0,1,1.125,2.607,10.747,10.747,0,0,0-.858-7.27,16.507,16.507,0,0,0-4.8-6.207,15.675,15.675,0,0,0-2.2-1.446,15.451,15.451,0,0,1-.269,3.461l-.03.158C400.6,117.968,400.555,118.315,400.5,118.661Zm-9.139-1.6c.371.315.734.633,1.09.949,1.078.954,2.2,1.986,3.294,3.092q-.358-1.3-.809-2.572A32.01,32.01,0,0,0,391.363,117.066Zm5.732-.458q.442.231.88.476a15.064,15.064,0,0,0-.378-4.487,20.764,20.764,0,0,0-2.617-.626A41.519,41.519,0,0,1,397.1,116.608Zm-9.864-17.3a9.9,9.9,0,0,0-4.3,1.363,42.268,42.268,0,0,0-17.018,16.122,29.8,29.8,0,0,1,10.388-3.721,44.958,44.958,0,0,1,11.291-5.8,14.6,14.6,0,0,1,7.277-.952,33.883,33.883,0,0,0-3.532-4.6,6.849,6.849,0,0,0-3.017-2.267A3.947,3.947,0,0,0,387.231,99.31Zm-3.466,13.462a34.364,34.364,0,0,1,9.709,2.2q-.8-1.7-1.762-3.324A24.515,24.515,0,0,0,383.765,112.772Zm9.51-3.716q1.212.1,2.39.319a5.787,5.787,0,0,0-2.5-.5h-.009C393.2,108.936,393.237,109,393.275,109.055Z" transform="translate(-350.078 -96.614)" fill="#e0e0e0"/>
            </g>
          </g>
        </g>
      </g>
      <g id="Shadow" transform="translate(71.954 510.44)">
        <ellipse id="_Path_" data-name="&lt;Path&gt;" cx="251.928" cy="14.521" rx="251.928" ry="14.521" fill="#f5f5f5"/>
      </g>
      <g id="Status_update" data-name="Status update" transform="translate(142.154 157.762)">
        <g id="Group_1438" data-name="Group 1438" transform="translate(0 0)">
          <path id="Path_7188" data-name="Path 7188" d="M109.825,221.654a.684.684,0,0,1-.683-.683v-31.7a.683.683,0,0,1,1.367,0v31.7A.684.684,0,0,1,109.825,221.654Z" transform="translate(-109.141 -116.726)" fill="#f49223"/>
          <path id="Path_7189" data-name="Path 7189" d="M109.825,234.9a.684.684,0,0,1-.683-.683V222.252a.683.683,0,1,1,1.367,0v11.966A.684.684,0,0,1,109.825,234.9Z" transform="translate(-109.141 -107.415)" fill="#f49223"/>
          <rect id="Rectangle_332" data-name="Rectangle 332" width="216.238" height="230.702" rx="12.789" transform="translate(4.53 44.238)" fill="#fff"/>
          <path id="Path_7190" data-name="Path 7190" d="M258.069,177.838h-67.21a2.2,2.2,0,0,1-2.194-2.194h0a2.2,2.2,0,0,1,2.194-2.194h67.21a2.2,2.2,0,0,1,2.193,2.194h0A2.2,2.2,0,0,1,258.069,177.838Z" transform="translate(-86.688 -121)" fill="#e9460a" opacity="0.4"/>
          <path id="Path_7191" data-name="Path 7191" d="M234.347,184.53H190.859a2.2,2.2,0,0,1-2.194-2.194h0a2.2,2.2,0,0,1,2.194-2.194h43.488a2.2,2.2,0,0,1,2.194,2.194h0A2.2,2.2,0,0,1,234.347,184.53Z" transform="translate(-86.688 -119.111)" fill="#e9460a" opacity="0.4"/>
          <rect id="Rectangle_333" data-name="Rectangle 333" width="216.238" height="112.371" transform="translate(4.53 86.415)" fill="#e9460a"/>
          <g id="Group_1430" data-name="Group 1430" transform="translate(4.529 86.415)" opacity="0.3">
            <path id="Path_7192" data-name="Path 7192" d="M134.746,238.093c4.978,5.613,14.071,6.941,14.071,6.941a33.6,33.6,0,0,1,4.427,6.512c1.935,3.77,6.241,2.006,6.241,2.006s1.6.726,3.583,4.2c3.114,5.444,12.632-1.672,15.333-4.5s.191-8.83-.507-11.091c5.6-8.251,4.943-21.091-.315-23.209-.716-7.353-8.583-15.36-12.611-19.016h-4.125a.248.248,0,0,1-.018.042.529.529,0,0,1-.019.064c-3.762,6.793-8.674,12.977-13.422,18.958a173.956,173.956,0,0,0-11.174,15.173.505.505,0,0,1-.43.236.5.5,0,0,1-.181-.032.511.511,0,0,1-.321-.558,11.7,11.7,0,0,1,1.29-3.455l-.03.032a.507.507,0,1,1-.754-.678,26.176,26.176,0,0,0,3.153-4.774c.241-.432.483-.863.731-1.29a104.414,104.414,0,0,1,7.672-10.967c1.126-1.472,2.268-2.963,3.379-4.486l4.552-6.953a.507.507,0,0,1,.867.526,70.568,70.568,0,0,1-4.586,7.007l-8.967,13.7c-1.345,2.054-2.72,4.155-3.971,6.3,2.553-3.582,5.295-7.036,7.974-10.411,4.632-5.833,9.412-11.864,13.106-18.432H119.75c-.147.957-.305,1.918-.444,2.863a95.057,95.057,0,0,1-2.465,12.735c-.135.467-.277.934-.421,1.4a23.922,23.922,0,0,0-1.209,5.415.528.528,0,0,1-.536.477.508.508,0,0,1-.477-.537c0-.032,0-.067.006-.1a12.775,12.775,0,0,1-1.532,3.3v3.923C117.929,236.393,128.779,238.99,134.746,238.093Zm42.085,12.875c-1.018,1.877-3.393,3.189-5.808,4.328a22.227,22.227,0,0,1-4.995,1.813,3.782,3.782,0,0,1-.768.095,1.928,1.928,0,0,1-.46-.053,1.774,1.774,0,0,1-1.1-.916l-1.561-2.606a.507.507,0,1,1,.869-.522l1.562,2.607c.16.265.272.4.473.451a1.89,1.89,0,0,0,.777-.051,21.419,21.419,0,0,0,4.768-1.738c2.258-1.066,4.469-2.274,5.346-3.893.793-1.462.345-3.239-1.2-4.754a.507.507,0,0,1,.71-.723C177.335,246.855,177.851,249.086,176.831,250.968Zm-.542-28.519a.5.5,0,0,1,.591.407,46.509,46.509,0,0,1,.753,9.241,12.979,12.979,0,0,1-.708,4.54,15.461,15.461,0,0,1-2.227,3.638,49.718,49.718,0,0,1-6.805,7.638,27.219,27.219,0,0,0,7.4-8.253.508.508,0,0,1,.878.509A27.694,27.694,0,0,1,164.623,251.1a5.435,5.435,0,0,1-2.3.663,2.21,2.21,0,0,1-.58-.094,7.9,7.9,0,0,1-2.525.471,3.883,3.883,0,0,1-2.776-1,6.374,6.374,0,0,1-1.311-2.211l-.2-.457a13.013,13.013,0,0,0-3.55-4.747.507.507,0,1,1,.648-.781,14.012,14.012,0,0,1,3.83,5.118l.2.473a5.579,5.579,0,0,0,1.078,1.873c.964.926,2.486.785,3.638.486a.5.5,0,0,1,.162-.371c4.023-3.706,7.947-7.638,11.663-11.69a.508.508,0,1,1,.748.687c-3.326,3.626-6.823,7.153-10.4,10.513,4.284-2.1,7.79-6.2,10.94-10.377a14.644,14.644,0,0,0,2.093-3.394,12.148,12.148,0,0,0,.639-4.189,45.549,45.549,0,0,0-.736-9.038A.506.506,0,0,1,176.289,222.449ZM136.355,234.76a.508.508,0,0,1,.718-.012,25.639,25.639,0,0,0,13.1,6.991,271.559,271.559,0,0,0,20.857-19.007,23.927,23.927,0,0,0-3.23,2.757,156.615,156.615,0,0,1-16.745,13.453.507.507,0,1,1-.6-.818,156.149,156.149,0,0,0,16.551-13.281c1.816-1.747,3.768-3.62,5.962-4.061.191-.2.39-.386.58-.583a1.748,1.748,0,0,0,.43-.58,1.222,1.222,0,0,0-.118-.737,40.115,40.115,0,0,0-13.065-17.923.508.508,0,0,1,.617-.807,41.13,41.13,0,0,1,13.4,18.375,2.081,2.081,0,0,1,.136,1.394,2.539,2.539,0,0,1-.668.982l-.013.013c.014.021.04.031.05.054a.5.5,0,0,1-.067.542,190.022,190.022,0,0,1-19.076,19.966.508.508,0,0,1-.681-.754,188.167,188.167,0,0,0,13.535-13.566c-5.6,5.437-11.422,10.641-17.4,15.518a.516.516,0,0,1-.321.114.561.561,0,0,1-.092-.008,26.628,26.628,0,0,1-13.851-7.306A.508.508,0,0,1,136.355,234.76Zm-22.764-7.8a.508.508,0,0,1,.9-.464c1.6,3.117,13.907,9.033,19.107,7.8a.507.507,0,1,1,.238.986,8.124,8.124,0,0,1-1.9.2C125.644,235.477,115.206,230.111,113.591,226.957Z" transform="translate(-112.673 -199.937)" fill="#fff"/>
            <path id="Path_7193" data-name="Path 7193" d="M115.612,199.937h-2.939v20.5c.832-4.372,1.4-8.778,1.943-13.077C114.927,204.909,115.245,202.427,115.612,199.937Z" transform="translate(-112.673 -199.937)" fill="#fff"/>
            <path id="Path_7194" data-name="Path 7194" d="M113.522,220.183c.714-2.456,1.285-4.959,1.839-7.391l2.926-12.854H116.4c-.376,2.533-.7,5.056-1.016,7.55C114.854,211.658,114.313,215.929,113.522,220.183Z" transform="translate(-112.433 -199.937)" fill="#fff"/>
            <path id="Path_7195" data-name="Path 7195" d="M133.639,228.781c1.252-2.144,2.626-4.245,3.971-6.3l8.967-13.7a70.568,70.568,0,0,0,4.586-7.007.507.507,0,0,0-.867-.526l-4.552,6.953c-1.111,1.522-2.253,3.014-3.379,4.486a104.411,104.411,0,0,0-7.672,10.967c-.248.427-.49.858-.731,1.29a26.174,26.174,0,0,1-3.153,4.774.507.507,0,1,0,.754.678l.03-.032a11.7,11.7,0,0,0-1.29,3.455.511.511,0,0,0,.321.558.5.5,0,0,0,.181.032.505.505,0,0,0,.43-.236A173.956,173.956,0,0,1,142.408,219c4.749-5.981,9.66-12.166,13.422-18.958a.526.526,0,0,0,.019-.064.492.492,0,0,1-.187.244.507.507,0,0,1-.7-.149c-.031-.046-.064-.091-.095-.137h-.147c-3.693,6.568-8.474,12.6-13.106,18.432C138.934,221.745,136.192,225.2,133.639,228.781Z" transform="translate(-107.697 -199.937)" fill="#407bff"/>
            <path id="Path_7196" data-name="Path 7196" d="M163.713,220.891l.013-.013a2.539,2.539,0,0,0,.668-.982,2.081,2.081,0,0,0-.136-1.394,41.13,41.13,0,0,0-13.4-18.375.508.508,0,0,0-.617.807,40.115,40.115,0,0,1,13.065,17.923,1.222,1.222,0,0,1,.118.737,1.748,1.748,0,0,1-.43.58c-.19.2-.389.387-.58.583a4.947,4.947,0,0,1,.882-.1A.527.527,0,0,1,163.713,220.891Z" transform="translate(-102.122 -199.912)" fill="#407bff"/>
            <path id="Path_7197" data-name="Path 7197" d="M145.035,237.939a.561.561,0,0,0,.092.008.516.516,0,0,0,.321-.114c5.973-4.877,11.8-10.081,17.4-15.518q2.32-2.572,4.55-5.223a7.042,7.042,0,0,0-1.547.8A271.556,271.556,0,0,1,144.988,236.9a25.638,25.638,0,0,1-13.1-6.991.507.507,0,0,0-.707.728A26.628,26.628,0,0,0,145.035,237.939Z" transform="translate(-107.49 -195.093)" fill="#407bff"/>
            <path id="Path_7198" data-name="Path 7198" d="M159.753,222.591a188.167,188.167,0,0,1-13.535,13.566.508.508,0,0,0,.681.754,190.025,190.025,0,0,0,19.076-19.966.5.5,0,0,0,.067-.542c-.01-.023-.036-.033-.05-.054a.527.527,0,0,0-.414-.235,4.945,4.945,0,0,0-.882.1c-2.194.441-4.146,2.315-5.962,4.061a156.148,156.148,0,0,1-16.551,13.281.507.507,0,1,0,.6.818,156.614,156.614,0,0,0,16.745-13.453,23.928,23.928,0,0,1,3.23-2.757,7.04,7.04,0,0,1,1.547-.8Q162.079,220.023,159.753,222.591Z" transform="translate(-104.4 -195.369)" fill="#407bff"/>
            <path id="Path_7199" data-name="Path 7199" d="M152.3,241.467v-.013c-1.152.3-2.674.44-3.638-.486a5.578,5.578,0,0,1-1.078-1.874l-.2-.473a14.012,14.012,0,0,0-3.83-5.118.507.507,0,1,0-.648.781,13.013,13.013,0,0,1,3.55,4.747l.2.457a6.374,6.374,0,0,0,1.311,2.211,3.883,3.883,0,0,0,2.776,1,7.9,7.9,0,0,0,2.525-.471,1.905,1.905,0,0,1-.784-.382A.5.5,0,0,1,152.3,241.467Z" transform="translate(-104.191 -190.493)" fill="#407bff"/>
            <path id="Path_7200" data-name="Path 7200" d="M165.073,231.313a14.641,14.641,0,0,1-2.093,3.394c-3.149,4.182-6.655,8.274-10.94,10.377-.246.231-.489.468-.736.7a4.228,4.228,0,0,0,1.965-.549,24.715,24.715,0,0,0,3.716-2.276,49.717,49.717,0,0,0,6.805-7.638,15.462,15.462,0,0,0,2.227-3.638,12.979,12.979,0,0,0,.708-4.54,46.508,46.508,0,0,0-.753-9.241.5.5,0,0,0-.591-.406.506.506,0,0,0-.407.591,45.55,45.55,0,0,1,.736,9.038A12.147,12.147,0,0,1,165.073,231.313Z" transform="translate(-101.766 -194.983)" fill="#407bff"/>
            <path id="Path_7201" data-name="Path 7201" d="M151.619,242.207c.247-.23.49-.467.736-.7,3.582-3.36,7.079-6.886,10.4-10.513a.508.508,0,1,0-.748-.687c-3.716,4.052-7.64,7.984-11.663,11.69a.5.5,0,0,0-.162.371v.013a.5.5,0,0,0,.177.374,1.906,1.906,0,0,0,.784.382,2.21,2.21,0,0,0,.58.094,5.435,5.435,0,0,0,2.3-.663,27.694,27.694,0,0,0,11.545-10.932.508.508,0,0,0-.878-.509,27.219,27.219,0,0,1-7.4,8.253,24.715,24.715,0,0,1-3.716,2.276A4.228,4.228,0,0,1,151.619,242.207Z" transform="translate(-102.081 -191.408)" fill="#407bff"/>
            <path id="Path_7202" data-name="Path 7202" d="M163.857,235.123a.507.507,0,0,0,.006.717c1.543,1.514,1.99,3.292,1.2,4.754-.877,1.62-3.088,2.828-5.346,3.893a21.421,21.421,0,0,1-4.768,1.738,1.891,1.891,0,0,1-.777.051c-.2-.05-.313-.186-.473-.451l-1.562-2.607a.507.507,0,1,0-.869.522l1.561,2.606a1.774,1.774,0,0,0,1.1.916,1.928,1.928,0,0,0,.46.053,3.782,3.782,0,0,0,.768-.095,22.229,22.229,0,0,0,4.995-1.813c2.415-1.139,4.79-2.451,5.808-4.328s.5-4.113-1.381-5.96A.5.5,0,0,0,163.857,235.123Z" transform="translate(-101.797 -190.046)" fill="#407bff"/>
            <path id="Path_7203" data-name="Path 7203" d="M133.649,229.489a.507.507,0,1,0-.239-.986c-5.2,1.236-17.512-4.679-19.107-7.8a.508.508,0,0,0-.9.464c1.614,3.153,12.053,8.52,18.35,8.52A8.125,8.125,0,0,0,133.649,229.489Z" transform="translate(-112.483 -194.151)" fill="#407bff"/>
            <path id="Path_7204" data-name="Path 7204" d="M149.977,200.305a.508.508,0,0,0,.276-.082.492.492,0,0,0,.187-.244.248.248,0,0,0,.018-.042h-1c.031.046.064.091.095.137A.508.508,0,0,0,149.977,200.305Z" transform="translate(-102.287 -199.937)" fill="#407bff"/>
            <path id="Path_7205" data-name="Path 7205" d="M114.2,222.292a.508.508,0,0,0,.477.537.528.528,0,0,0,.536-.477,23.922,23.922,0,0,1,1.209-5.415c.144-.468.286-.935.421-1.4a95.057,95.057,0,0,0,2.465-12.735c.138-.945.3-1.907.444-2.863h-1.223L115.6,212.791c-.554,2.433-1.125,4.936-1.839,7.391.791-4.254,1.332-8.525,1.861-12.7.317-2.494.64-5.018,1.016-7.55h-1.026c-.367,2.49-.685,4.972-1,7.423-.545,4.3-1.111,8.706-1.943,13.077v5.056a12.775,12.775,0,0,0,1.532-3.3C114.2,222.225,114.2,222.26,114.2,222.292Z" transform="translate(-112.673 -199.937)" fill="#407bff"/>
            <path id="Path_7206" data-name="Path 7206" d="M218.985,294.767c5.036-4.783,10.142-13.97,8.555-18.264,2.706-9.694-2.678-18.906-2.678-18.906a10.921,10.921,0,0,0,2.379-4.555c.535-2.553-1.675-5.813-8.351-6.709s-5.951,1.417-6.186,4.555c0,0-4.007-.464-4.646,2.262s-3.173,4.9-4.069,7.177c-4.4,1.173-8.5,5.573-10.62,8.284-6.793-.739-14.028,4.261-16.613,8.208-5.778-.021-11.206,4.52-11.206,4.52a25.915,25.915,0,0,1-6.012-.8c-3.157-.823-4.354,2.556-4.354,2.556s-1.235.545-4.25-.1c-4.724-1-5.522,8.113-5.283,11.114.214,2.708,4.087,4.3,6.058,5.149h2.522a21.291,21.291,0,0,1-.274-11.957,3.308,3.308,0,0,1,1.159-1.962c.712-1.666,1.791-2.67,3.015-2.761a5.08,5.08,0,0,1,1.947.382l.358.121a10.045,10.045,0,0,0,4.548.4.391.391,0,0,1,.117.773,10.88,10.88,0,0,1-4.906-.426l-.371-.124a4.277,4.277,0,0,0-1.632-.344,2.97,2.97,0,0,0-2.149,1.843.394.394,0,0,1,.132.28c.064,4.214.309,8.485.728,12.7a.391.391,0,0,1-.35.428.4.4,0,0,1-.427-.351c-.377-3.779-.6-7.6-.692-11.394-1,3.546-.448,7.667.34,11.631.053.263.105.518.16.768h9.032c-.382-4.156-.608-8.319-.632-12.45a.391.391,0,0,1,.389-.392h0a.389.389,0,0,1,.39.389c.024,4.133.251,8.3.636,12.454h.144c-.162-5.246-.15-10.49.081-15.672a.4.4,0,0,1,.151-.291,20.475,20.475,0,0,1,11.3-4.207.382.382,0,0,1,.419.36.391.391,0,0,1-.362.418,19.753,19.753,0,0,0-10.736,3.937c-.223,5.111-.232,10.282-.072,15.455h.34c.027-4.608.45-9.125.885-13.515a.391.391,0,0,1,.778.078c-.435,4.386-.857,8.9-.884,13.436h14.4c-.341-1.806-.655-3.609-.962-5.392a134.245,134.245,0,0,0-2.98-14.2.391.391,0,0,1,.68-.353,8.947,8.947,0,0,1,1.322,2.513l0-.035a.391.391,0,0,1,.778-.085,20.143,20.143,0,0,0,1.123,4.259q.188.542.368,1.085a80.494,80.494,0,0,1,2.361,10.031c.137.719.289,1.45.432,2.177h29.531a12.879,12.879,0,0,0,1.858-3.194.391.391,0,1,1,.732.273,13.246,13.246,0,0,1-1.6,2.921h2.221A9.518,9.518,0,0,0,218.985,294.767Zm-65.355-9.416-2.3-.442a.63.63,0,0,0-.5.04,1.526,1.526,0,0,0-.369.473,16.523,16.523,0,0,0-1.448,3.632c-.548,1.841-.989,3.73-.508,5.067.433,1.205,1.691,1.848,3.344,1.752a.378.378,0,0,1,.415.364.389.389,0,0,1-.364.414c-.139.01-.276.014-.41.014a3.663,3.663,0,0,1-3.721-2.28c-.557-1.548-.091-3.584.495-5.554a17.134,17.134,0,0,1,1.52-3.8,2.125,2.125,0,0,1,.608-.728,1.369,1.369,0,0,1,1.087-.162l2.3.441a.391.391,0,0,1,.31.459A.409.409,0,0,1,153.63,285.351Zm60.092-34.4,1.058-2.22a1.483,1.483,0,0,1,.763-.814,1.985,1.985,0,0,1,.928-.09,15,15,0,0,1,3.8.943c1.85.662,3.678,1.468,4.519,2.865.828,1.38.54,3.179-.775,4.816a.4.4,0,0,1-.305.145.391.391,0,0,1-.305-.636c1.1-1.368,1.368-2.835.714-3.923-.714-1.186-2.4-1.918-4.111-2.531a14.231,14.231,0,0,0-3.606-.9,1.3,1.3,0,0,0-.568.035c-.155.064-.24.192-.35.426l-1.058,2.218a.391.391,0,1,1-.707-.335Zm-7.289,9.459a12.468,12.468,0,0,0,2.367-4.333l.121-.395a6.117,6.117,0,0,1,.832-1.934,3.623,3.623,0,0,1,3.8-1.086,2.815,2.815,0,0,1,2.153.109,18.055,18.055,0,0,1,8.878,7.457.391.391,0,1,1-.662.415,17.976,17.976,0,0,0-6.209-6.067,31.01,31.01,0,0,1,5.8,5.745,8.9,8.9,0,0,1,2.5,6.268,43.265,43.265,0,0,1-.123,7.588.391.391,0,0,1-.389.349.245.245,0,0,1-.042,0,.389.389,0,0,1-.346-.428,42.448,42.448,0,0,0,.121-7.45,8.17,8.17,0,0,0-2.32-5.827c-2.5-3.046-5.268-5.967-8.511-7.093,2.8,2.322,5.55,4.79,8.174,7.37a.39.39,0,0,1-.274.668.385.385,0,0,1-.274-.113c-2.869-2.821-5.883-5.522-8.962-8.027a.388.388,0,0,1-.141-.265v0a2.691,2.691,0,0,0-2.544.863,5.412,5.412,0,0,0-.709,1.69l-.124.4a13.249,13.249,0,0,1-2.519,4.606.391.391,0,0,1-.594-.508Zm-12.626,10.729c-2.606-.687-12.331,3.346-14.279,6.975a.391.391,0,0,1-.345.205.383.383,0,0,1-.185-.046.391.391,0,0,1-.159-.53c2.176-4.054,12.236-8.113,15.166-7.361a.391.391,0,0,1-.2.757Zm21.366,24.148a.392.392,0,0,1-.536-.135,98.3,98.3,0,0,0-10.491-13.612c-2.125-2.444-4.3-4.947-6.339-7.584,1.04,1.665,2.181,3.27,3.291,4.832l7.121,10.022a50.216,50.216,0,0,1,3.635,5.118.391.391,0,0,1-.653.43l-3.606-5.076c-.873-1.1-1.768-2.167-2.651-3.221a73.125,73.125,0,0,1-6.048-7.949c-.2-.315-.392-.635-.586-.954a18.464,18.464,0,0,0-2.493-3.48.39.39,0,1,1,.553-.55l.056.056a9.447,9.447,0,0,1-1.166-2.779.39.39,0,0,1,.7-.3,120.866,120.866,0,0,0,8.77,10.922,98.86,98.86,0,0,1,10.57,13.722A.392.392,0,0,1,215.174,295.286Zm.587-.782a.391.391,0,0,1-.553.024.391.391,0,0,1-.022-.553,38.2,38.2,0,0,0,8.648-16.237,1.2,1.2,0,0,0,.053-.654,1.136,1.136,0,0,0-.328-.408c-.144-.133-.292-.259-.436-.392-1.614-.1-3.1-1.361-4.436-2.5a98.543,98.543,0,0,0-12.631-8.766.39.39,0,1,1,.41-.663,98.748,98.748,0,0,1,12.661,8.778A14.742,14.742,0,0,0,221.8,275.1a174.124,174.124,0,0,0-16.085-12.957,21.974,21.974,0,0,0-9.137,7.313.39.39,0,1,1-.628-.463,22.722,22.722,0,0,1,9.66-7.656.394.394,0,0,1,.378.04c4.664,3.3,9.234,6.893,13.642,10.723a123.082,123.082,0,0,0-10.788-9.706.391.391,0,0,1,.487-.61,125.331,125.331,0,0,1,14.711,13.833.391.391,0,0,1,.078.394.337.337,0,0,1-.053.076l.021.018a1.846,1.846,0,0,1,.535.723,1.869,1.869,0,0,1-.035,1.109A38.977,38.977,0,0,1,215.761,294.5Z" transform="translate(-103.372 -186.892)" fill="#fff"/>
            <path id="Path_7207" data-name="Path 7207" d="M152.261,280.983a20.957,20.957,0,0,0,.934,8.442h.09c-.042-.2-.086-.405-.128-.616A38.167,38.167,0,0,1,152.261,280.983Z" transform="translate(-101.522 -177.054)" fill="#fff"/>
            <path id="Path_7208" data-name="Path 7208" d="M172.522,275.522c.748,3.3,1.323,6.65,1.888,9.92.314,1.827.636,3.675.986,5.524h1.371l-2.663-9.931C173.615,279.215,173.113,277.346,172.522,275.522Z" transform="translate(-95.775 -178.596)" fill="#fff"/>
            <path id="Path_7209" data-name="Path 7209" d="M175.34,279.782q-.179-.542-.368-1.085a20.143,20.143,0,0,1-1.123-4.259.391.391,0,0,0-.778.085l0,.035a8.947,8.947,0,0,0-1.322-2.513.391.391,0,0,0-.68.353,134.255,134.255,0,0,1,2.98,14.2c.306,1.784.621,3.587.962,5.392h.8c-.35-1.849-.672-3.7-.986-5.524-.564-3.27-1.14-6.616-1.888-9.92.591,1.823,1.093,3.693,1.581,5.514l2.663,9.931h.953c-.144-.727-.295-1.458-.432-2.177A80.5,80.5,0,0,0,175.34,279.782Z" transform="translate(-96.188 -179.619)" fill="#407bff"/>
            <path id="Path_7210" data-name="Path 7210" d="M162.306,276.553a19.753,19.753,0,0,1,10.736-3.937.391.391,0,0,0,.362-.418.382.382,0,0,0-.419-.36,20.475,20.475,0,0,0-11.3,4.207.394.394,0,0,0-.151.291c-.231,5.182-.242,10.426-.081,15.672h.782C162.074,286.835,162.083,281.665,162.306,276.553Z" transform="translate(-98.931 -179.637)" fill="#407bff"/>
            <path id="Path_7211" data-name="Path 7211" d="M163.966,277.183a.391.391,0,0,0-.778-.078c-.435,4.389-.858,8.907-.885,13.515h.78C163.11,286.08,163.531,281.568,163.966,277.183Z" transform="translate(-98.66 -178.248)" fill="#407bff"/>
            <path id="Path_7212" data-name="Path 7212" d="M160.6,277.551h0a.391.391,0,0,0-.389.392c.024,4.132.25,8.294.632,12.45h.785c-.385-4.157-.612-8.321-.636-12.454A.389.389,0,0,0,160.6,277.551Z" transform="translate(-99.251 -178.023)" fill="#407bff"/>
            <path id="Path_7213" data-name="Path 7213" d="M153.946,277.171l0,.01a2.97,2.97,0,0,1,2.149-1.843,4.278,4.278,0,0,1,1.632.344l.371.124a10.88,10.88,0,0,0,4.906.426.391.391,0,0,0-.117-.773,10.045,10.045,0,0,1-4.548-.4l-.358-.121a5.079,5.079,0,0,0-1.947-.382c-1.223.091-2.3,1.1-3.015,2.761a1.5,1.5,0,0,1,.614-.241A.4.4,0,0,1,153.946,277.171Z" transform="translate(-101.28 -178.869)" fill="#407bff"/>
            <path id="Path_7214" data-name="Path 7214" d="M153.563,278.064c-.006-.251-.026-.505-.03-.757a3.33,3.33,0,0,0-.694,1.409,19.02,19.02,0,0,0-.6,3.3,38.166,38.166,0,0,0,.9,7.826c.042.21.086.413.128.616h.8c-.055-.25-.108-.505-.16-.768C153.115,285.731,152.564,281.609,153.563,278.064Z" transform="translate(-101.502 -178.092)" fill="#407bff"/>
            <path id="Path_7215" data-name="Path 7215" d="M152.434,282.243a19.02,19.02,0,0,1,.6-3.3,3.33,3.33,0,0,1,.694-1.409c0,.251.023.505.029.757.092,3.792.315,7.615.692,11.394a.4.4,0,0,0,.427.351.391.391,0,0,0,.35-.428c-.419-4.211-.664-8.483-.728-12.7a.394.394,0,0,0-.132-.28l0-.01a.4.4,0,0,0-.308-.091,1.5,1.5,0,0,0-.614.241,3.308,3.308,0,0,0-1.159,1.962,21.291,21.291,0,0,0,.274,11.957h.813A20.957,20.957,0,0,1,152.434,282.243Z" transform="translate(-101.695 -178.314)" fill="#407bff"/>
            <path id="Path_7216" data-name="Path 7216" d="M153.357,276.224l-2.3-.441a1.369,1.369,0,0,0-1.087.162,2.125,2.125,0,0,0-.608.728,17.134,17.134,0,0,0-1.52,3.8c-.586,1.97-1.052,4.006-.495,5.554a3.663,3.663,0,0,0,3.721,2.28c.135,0,.272,0,.41-.014a.389.389,0,0,0,.364-.414.378.378,0,0,0-.415-.364c-1.653.1-2.911-.546-3.344-1.752-.481-1.336-.04-3.225.508-5.067a16.523,16.523,0,0,1,1.448-3.632,1.526,1.526,0,0,1,.369-.473.63.63,0,0,1,.5-.04l2.3.442a.41.41,0,0,0,.456-.31A.391.391,0,0,0,153.357,276.224Z" transform="translate(-102.953 -178.535)" fill="#407bff"/>
            <path id="Path_7217" data-name="Path 7217" d="M186.7,265.064c-2.93-.753-12.99,3.307-15.166,7.361a.391.391,0,0,0,.159.53.383.383,0,0,0,.185.046.391.391,0,0,0,.345-.205c1.948-3.629,11.673-7.662,14.279-6.975a.391.391,0,0,0,.2-.757Z" transform="translate(-96.067 -181.574)" fill="#407bff"/>
            <path id="Path_7218" data-name="Path 7218" d="M201.965,284.9a.388.388,0,0,0-.5.23,12.878,12.878,0,0,1-1.858,3.194h.991a13.248,13.248,0,0,0,1.6-2.921A.391.391,0,0,0,201.965,284.9Z" transform="translate(-88.128 -175.955)" fill="#407bff"/>
            <path id="Path_7219" data-name="Path 7219" d="M193.807,275.787a120.868,120.868,0,0,1-8.77-10.922.39.39,0,0,0-.7.3,9.447,9.447,0,0,0,1.166,2.779l-.056-.056a.39.39,0,1,0-.553.55,18.463,18.463,0,0,1,2.493,3.48c.194.319.389.639.586.954a73.128,73.128,0,0,0,6.048,7.949c.882,1.054,1.777,2.124,2.651,3.221l3.606,5.076a.391.391,0,0,0,.653-.43,50.216,50.216,0,0,0-3.635-5.118l-7.121-10.022c-1.109-1.562-2.251-3.167-3.291-4.832,2.038,2.637,4.214,5.14,6.339,7.584a98.3,98.3,0,0,1,10.491,13.612.391.391,0,1,0,.669-.4A98.863,98.863,0,0,0,193.807,275.787Z" transform="translate(-92.442 -181.653)" fill="#407bff"/>
            <path id="Path_7220" data-name="Path 7220" d="M209.33,270.233a1.846,1.846,0,0,0-.535-.723l-.021-.018a.379.379,0,0,1-.255.18,3.2,3.2,0,0,1-.491.038c-.068,0-.135-.015-.2-.019.144.133.292.259.436.392a1.135,1.135,0,0,1,.328.408,1.2,1.2,0,0,1-.053.654,38.2,38.2,0,0,1-8.648,16.237.39.39,0,0,0,.287.655.387.387,0,0,0,.287-.127,38.977,38.977,0,0,0,8.83-16.568A1.869,1.869,0,0,0,209.33,270.233Z" transform="translate(-88.077 -180.298)" fill="#407bff"/>
            <path id="Path_7221" data-name="Path 7221" d="M208.568,268.761c-4.407-3.83-8.978-7.425-13.642-10.723a.394.394,0,0,0-.378-.04,22.723,22.723,0,0,0-9.66,7.656.39.39,0,1,0,.628.463,21.974,21.974,0,0,1,9.137-7.313,174.122,174.122,0,0,1,16.084,12.957,3.95,3.95,0,0,0,1.054.377Q210.208,270.415,208.568,268.761Z" transform="translate(-92.305 -183.553)" fill="#407bff"/>
            <path id="Path_7222" data-name="Path 7222" d="M210.548,272.84a.379.379,0,0,0,.255-.18.335.335,0,0,0,.053-.076.391.391,0,0,0-.078-.394,125.33,125.33,0,0,0-14.711-13.833.391.391,0,0,0-.487.61,123.089,123.089,0,0,1,10.788,9.706q1.637,1.656,3.224,3.376a3.946,3.946,0,0,1-1.054-.377,14.74,14.74,0,0,1-2.678-1.968,98.743,98.743,0,0,0-12.661-8.778.39.39,0,1,0-.41.663,98.549,98.549,0,0,1,12.631,8.766c1.332,1.141,2.821,2.4,4.436,2.5.067,0,.133.019.2.019A3.2,3.2,0,0,0,210.548,272.84Z" transform="translate(-90.105 -183.467)" fill="#407bff"/>
            <path id="Path_7223" data-name="Path 7223" d="M198.9,251.765c.153.126.3.262.451.389,3.243,1.126,6.007,4.047,8.511,7.093a8.17,8.17,0,0,1,2.32,5.827,42.452,42.452,0,0,1-.121,7.45.389.389,0,0,0,.346.428.242.242,0,0,0,.042,0,.391.391,0,0,0,.389-.349,43.267,43.267,0,0,0,.123-7.588,8.9,8.9,0,0,0-2.5-6.268,31.012,31.012,0,0,0-5.8-5.745,14.868,14.868,0,0,0-2.276-1.071A2.3,2.3,0,0,0,198.9,251.765Z" transform="translate(-88.326 -185.322)" fill="#407bff"/>
            <path id="Path_7224" data-name="Path 7224" d="M193.657,259.506a13.25,13.25,0,0,0,2.519-4.606l.124-.4a5.412,5.412,0,0,1,.709-1.69,2.691,2.691,0,0,1,2.544-.863.392.392,0,0,1,.089-.286,1.528,1.528,0,0,1,.544-.407,3.623,3.623,0,0,0-3.8,1.086,6.118,6.118,0,0,0-.832,1.934l-.121.395A12.469,12.469,0,0,1,193.063,259a.391.391,0,0,0,.594.508Z" transform="translate(-90.002 -185.481)" fill="#407bff"/>
            <path id="Path_7225" data-name="Path 7225" d="M198.1,251.954v0a.388.388,0,0,0,.141.265c3.079,2.506,6.094,5.206,8.962,8.027a.385.385,0,0,0,.274.113.39.39,0,0,0,.274-.668c-2.624-2.58-5.372-5.047-8.174-7.37-.153-.127-.3-.263-.451-.389a2.3,2.3,0,0,1,1.489.169,14.872,14.872,0,0,1,2.276,1.071,17.976,17.976,0,0,1,6.209,6.067.391.391,0,1,0,.662-.415,18.055,18.055,0,0,0-8.878-7.457,2.815,2.815,0,0,0-2.153-.109,1.527,1.527,0,0,0-.544.406A.392.392,0,0,0,198.1,251.954Z" transform="translate(-88.553 -185.493)" fill="#407bff"/>
            <path id="Path_7226" data-name="Path 7226" d="M199.441,250.917,200.5,248.7c.11-.233.195-.362.35-.426a1.3,1.3,0,0,1,.568-.035,14.23,14.23,0,0,1,3.606.9c1.713.613,3.4,1.345,4.111,2.531.654,1.087.387,2.554-.714,3.923a.392.392,0,0,0,.61.491c1.314-1.638,1.6-3.437.775-4.816-.841-1.4-2.669-2.2-4.519-2.865a15,15,0,0,0-3.8-.943,1.985,1.985,0,0,0-.928.09,1.484,1.484,0,0,0-.763.814l-1.058,2.22a.391.391,0,0,0,.707.335Z" transform="translate(-88.385 -186.524)" fill="#407bff"/>
            <path id="Path_7227" data-name="Path 7227" d="M216.747,207.148a159.512,159.512,0,0,1,20.6-7.211H232.8c-6.825,2.656-13.584,5.614-20.221,8.807A25.311,25.311,0,0,0,216.747,207.148Z" transform="translate(-84.466 -199.937)" fill="#fff"/>
            <path id="Path_7228" data-name="Path 7228" d="M228.93,199.937h-1.866q-5.547,2.568-10.96,5.482Q222.459,202.513,228.93,199.937Z" transform="translate(-83.47 -199.937)" fill="#fff"/>
            <path id="Path_7229" data-name="Path 7229" d="M302.836,256.376q-.554.914-1.185,1.8a.533.533,0,0,1-.433.222.527.527,0,0,1-.31-.1.532.532,0,0,1-.123-.744,26.214,26.214,0,0,0,2.052-3.364v-.959c-.58,1.226-1.209,2.442-1.856,3.641a12.138,12.138,0,0,1-6.631,6.384,58.732,58.732,0,0,1-9.647,3.757.533.533,0,1,1-.3-1.025,57.739,57.739,0,0,0,9.471-3.689,14.258,14.258,0,0,0,3.875-2.546,14.439,14.439,0,0,0,2.289-3.388,60.845,60.845,0,0,0,2.794-5.764v-3.273c-1.03,2.939-2.131,5.865-3.316,8.752a.534.534,0,0,1-.987-.406c1.572-3.826,3.014-7.722,4.3-11.624v-6.468a2.729,2.729,0,0,0-.918-.45,7.4,7.4,0,0,0-2.5-.027l-.577.053a18.066,18.066,0,0,1-7.118-.807.533.533,0,0,1,.337-1.012,17.034,17.034,0,0,0,6.694.757l.563-.051a8.227,8.227,0,0,1,2.87.055,3.965,3.965,0,0,1,.648.233V233.61a3.556,3.556,0,0,0-.767.035c-3.773.6-7.826-1.481-11.164-1.44-3.751-4.951-11.424-7.867-15.941-9.144-2.569-8.961-12.616-15.521-18.934-16.753a20.059,20.059,0,0,0-4.357-6.371h-4.307a29.268,29.268,0,0,1,6.14,8.389.533.533,0,0,1-.955.473,27.849,27.849,0,0,0-6.8-8.862h-4.979a.549.549,0,0,1,.078.149.533.533,0,0,1-.359.662,164.117,164.117,0,0,0-21.06,7.321c-2.122.96-4.389,1.988-6.493,1.988a5.9,5.9,0,0,1-.841-.062c-.258.127-.521.245-.777.372a1.812,1.812,0,0,0-.628.422,1.262,1.262,0,0,0-.144.773,42.131,42.131,0,0,0,6.626,22.342.534.534,0,0,1-.156.737.523.523,0,0,1-.29.086.532.532,0,0,1-.448-.242,43.207,43.207,0,0,1-6.8-22.907,2.211,2.211,0,0,1,.358-1.431,2.675,2.675,0,0,1,1.007-.736l.015-.008c-.006-.024-.026-.044-.03-.069a.533.533,0,0,1,.258-.514c5.4-3.23,10.974-6.182,16.637-8.883h-16.1a46.965,46.965,0,0,0-1.622,6.8.535.535,0,0,1-.526.45.47.47,0,0,1-.085-.008.533.533,0,0,1-.444-.61,48.276,48.276,0,0,1,1.564-6.627h-4.672c-1.308,4.329-1.112,8.338,1.043,10.245-2.535,10.163,7.4,26.1,7.4,26.1s3.691,14.14,13.112,22.394,19.647,13.992,27.728,10.232c8.639,3.893,22.876,5.608,27.482,1.387,9.568-1.108,16.767-7.108,20.223-10.6Zm-46.9-46.96c6.246.659,16.577,11.268,17.118,15.363a.533.533,0,0,1-.458.6.444.444,0,0,1-.071.005.532.532,0,0,1-.528-.463c-.482-3.647-10.582-13.852-16.173-14.443a.532.532,0,0,1-.474-.586A.527.527,0,0,1,255.937,209.416Zm-3.591,58.347c-.139,0-.278.006-.419.006-11.228,0-30.689-13.374-35.254-32.44a.447.447,0,0,1,0-.072.466.466,0,0,1,0-.112.522.522,0,0,1,.026-.1.472.472,0,0,1,.035-.092,63.731,63.731,0,0,0,.112-.147c6.116-5.4,13.156-9.8,19.962-14.046a183.031,183.031,0,0,0,16.4-11.088.534.534,0,0,1,.8.678,12.232,12.232,0,0,1-2.489,2.964l.037-.019a.533.533,0,1,1,.508.937,27.353,27.353,0,0,0-4.8,3.617c-.391.344-.782.685-1.177,1.019a109.651,109.651,0,0,1-11.455,8.156c-1.634,1.062-3.291,2.138-4.927,3.255l-6.953,5.279a.528.528,0,0,1-.735-.088.534.534,0,0,1,.062-.739,74.706,74.706,0,0,1,7-5.32l13.7-10.406c2.043-1.552,4.142-3.146,6.149-4.841-3.788,2.649-7.718,5.1-11.558,7.5-6.678,4.17-13.579,8.485-19.572,13.729,4.524,18.127,23.566,31.308,34.145,31.308.127,0,.251,0,.376-.006a.534.534,0,0,1,.033,1.067Zm.485-3.3a.534.534,0,0,1-.427-.853c4.76-6.358,8.333-13.433,11.787-20.274,1.991-3.942,4.03-7.979,6.309-11.909-1.571,2.177-3.015,4.454-4.419,6.666l-8.973,14.137a68.429,68.429,0,0,1-4.592,7.232.533.533,0,0,1-.878-.6l4.554-7.176c.936-1.667,1.826-3.347,2.7-5a99.656,99.656,0,0,1,6.921-11.739c.3-.415.6-.827.909-1.24a25.216,25.216,0,0,0,3.1-4.936.533.533,0,0,1,.982.415c-.014.032-.027.063-.04.094a12.884,12.884,0,0,1,2.9-2.9.527.527,0,0,1,.673.063.534.534,0,0,1,.069.673,164.607,164.607,0,0,0-9.273,16.705c-3.476,6.882-7.071,14-11.886,20.432A.531.531,0,0,1,252.831,264.465Zm29.1.958a.531.531,0,0,1-.455.3h-.026a.574.574,0,0,1-.1-.026l-.012.032a2.459,2.459,0,0,1-.636,1.046,2.555,2.555,0,0,1-1.42.532,57.724,57.724,0,0,1-7.584.505,51.34,51.34,0,0,1-17.9-3.116.534.534,0,1,1,.372-1,52.1,52.1,0,0,0,24.97,2.553,1.659,1.659,0,0,0,.854-.271,1.55,1.55,0,0,0,.345-.627c.091-.242.172-.489.263-.731-.717-2.1.127-4.641.884-6.921a134.508,134.508,0,0,0,4.557-20.469.533.533,0,0,1,1.052.176c-1.131,6.745-2.3,13.719-4.56,20.519a20.015,20.015,0,0,0-1.107,4.4,237.479,237.479,0,0,0,8.074-27,29.951,29.951,0,0,0-13.949-7.768.534.534,0,1,1,.263-1.035,31.016,31.016,0,0,1,14.65,8.254.534.534,0,0,1,.145.5c-1.762,7.6-3.947,15.221-6.513,22.762a167.838,167.838,0,0,0,6.7-18.632.533.533,0,0,1,1.023.3A170.968,170.968,0,0,1,281.931,265.423Z" transform="translate(-86.598 -199.937)" fill="#fff"/>
            <path id="Path_7230" data-name="Path 7230" d="M214.107,227.506a.466.466,0,0,1,0-.112A.466.466,0,0,0,214.107,227.506Z" transform="translate(-84.035 -192.185)" fill="#407bff"/>
            <path id="Path_7231" data-name="Path 7231" d="M214.476,232.569a.535.535,0,0,1,.642.395c.024.105.056.208.082.312,5.994-5.243,12.894-9.559,19.572-13.729,3.839-2.4,7.77-4.851,11.558-7.5-2.007,1.7-4.106,3.289-6.149,4.841l-13.7,10.406a74.7,74.7,0,0,0-7,5.32.534.534,0,0,0-.062.739.528.528,0,0,0,.735.088l6.953-5.279c1.636-1.117,3.293-2.193,4.927-3.255a109.651,109.651,0,0,0,11.455-8.156c.395-.335.786-.676,1.177-1.019a27.354,27.354,0,0,1,4.8-3.617.533.533,0,1,0-.508-.937l-.037.019a12.232,12.232,0,0,0,2.489-2.964.534.534,0,0,0-.8-.678,183.016,183.016,0,0,1-16.4,11.088c-6.807,4.25-13.847,8.644-19.962,14.046a.458.458,0,0,0-.044.058A.525.525,0,0,1,214.476,232.569Z" transform="translate(-84.006 -197.818)" fill="#407bff"/>
            <path id="Path_7232" data-name="Path 7232" d="M214.123,227.336a.568.568,0,0,1,.035-.092A.47.47,0,0,0,214.123,227.336Z" transform="translate(-84.029 -192.227)" fill="#407bff"/>
            <path id="Path_7233" data-name="Path 7233" d="M211.159,208.989h.046a7.482,7.482,0,0,0,1.768-.245c6.637-3.193,13.4-6.151,20.221-8.807h-2.869q-6.459,2.583-12.826,5.482Q214.3,207.15,211.159,208.989Z" transform="translate(-84.866 -199.937)" fill="#407bff"/>
            <path id="Path_7234" data-name="Path 7234" d="M243.584,208.8a.533.533,0,0,0,.955-.473,29.268,29.268,0,0,0-6.14-8.389h-1.617A27.849,27.849,0,0,1,243.584,208.8Z" transform="translate(-77.631 -199.937)" fill="#407bff"/>
            <path id="Path_7235" data-name="Path 7235" d="M209.878,207.319l-.015.008a2.675,2.675,0,0,0-1.007.736,2.21,2.21,0,0,0-.358,1.431,43.207,43.207,0,0,0,6.8,22.907.532.532,0,0,0,.448.242.523.523,0,0,0,.29-.086.534.534,0,0,0,.156-.737,42.131,42.131,0,0,1-6.626-22.342,1.262,1.262,0,0,1,.144-.773,1.812,1.812,0,0,1,.628-.422c.256-.127.519-.245.777-.372a5.043,5.043,0,0,1-.905-.213A.52.52,0,0,1,209.878,207.319Z" transform="translate(-85.617 -197.853)" fill="#407bff"/>
            <path id="Path_7236" data-name="Path 7236" d="M209.552,209.334c0,.026.023.045.03.069a.52.52,0,0,0,.331.378,5.044,5.044,0,0,0,.905.213,5.9,5.9,0,0,0,.841.062c2.1,0,4.37-1.027,6.493-1.988a164.117,164.117,0,0,1,21.06-7.321.533.533,0,0,0,.359-.662.549.549,0,0,0-.078-.149H238.2a159.511,159.511,0,0,0-20.6,7.211,25.313,25.313,0,0,1-4.173,1.6,7.482,7.482,0,0,1-1.768.245h-.046q3.135-1.845,6.341-3.57,5.4-2.918,10.96-5.482h-2.469c-5.663,2.7-11.238,5.653-16.637,8.883A.533.533,0,0,0,209.552,209.334Z" transform="translate(-85.321 -199.937)" fill="#407bff"/>
            <path id="Path_7237" data-name="Path 7237" d="M208.532,207.175a.47.47,0,0,0,.085.008.535.535,0,0,0,.526-.45,46.965,46.965,0,0,1,1.622-6.8h-1.112a48.271,48.271,0,0,0-1.564,6.627A.533.533,0,0,0,208.532,207.175Z" transform="translate(-85.735 -199.937)" fill="#407bff"/>
            <path id="Path_7238" data-name="Path 7238" d="M244.745,208.389c5.591.591,15.691,10.8,16.173,14.443a.532.532,0,0,0,.528.463.444.444,0,0,0,.071-.005.533.533,0,0,0,.458-.6c-.541-4.095-10.872-14.7-17.118-15.363a.527.527,0,0,0-.586.473A.532.532,0,0,0,244.745,208.389Z" transform="translate(-75.518 -197.851)" fill="#407bff"/>
            <path id="Path_7239" data-name="Path 7239" d="M249.75,259.048c-.124,0-.249.006-.376.006-10.579,0-29.621-13.181-34.145-31.308-.026-.1-.058-.206-.082-.312a.535.535,0,0,0-.642-.395.525.525,0,0,0-.273.177.46.46,0,0,0-.068.09.572.572,0,0,0-.035.092.522.522,0,0,0-.026.1.466.466,0,0,0,0,.112.447.447,0,0,0,0,.072c4.565,19.066,24.026,32.439,35.254,32.439.141,0,.281,0,.419-.006a.534.534,0,0,0-.033-1.067Z" transform="translate(-84.035 -192.289)" fill="#407bff"/>
            <path id="Path_7240" data-name="Path 7240" d="M264.172,221.313a.534.534,0,0,0-.069-.673.527.527,0,0,0-.673-.063,12.883,12.883,0,0,0-2.9,2.9l.04-.094a.533.533,0,0,0-.982-.415,25.213,25.213,0,0,1-3.1,4.936c-.305.413-.612.825-.909,1.24a99.666,99.666,0,0,0-6.921,11.739c-.877,1.657-1.767,3.337-2.7,5l-4.554,7.176a.533.533,0,0,0,.878.6,68.431,68.431,0,0,0,4.592-7.232l8.973-14.137c1.4-2.212,2.848-4.488,4.419-6.666-2.279,3.93-4.318,7.967-6.309,11.909-3.455,6.841-7.027,13.916-11.787,20.274a.533.533,0,1,0,.854.639c4.815-6.432,8.41-13.549,11.886-20.432A164.632,164.632,0,0,1,264.172,221.313Z" transform="translate(-76.353 -194.136)" fill="#407bff"/>
            <path id="Path_7241" data-name="Path 7241" d="M269.941,250.592c-.091.242-.172.489-.263.731a1.551,1.551,0,0,1-.345.627,1.659,1.659,0,0,1-.854.271,52.1,52.1,0,0,1-24.97-2.553.534.534,0,1,0-.372,1,51.34,51.34,0,0,0,17.9,3.116,57.73,57.73,0,0,0,7.584-.505,2.555,2.555,0,0,0,1.419-.532,2.459,2.459,0,0,0,.636-1.046l.012-.032a.524.524,0,0,1-.356-.232A4.435,4.435,0,0,1,269.941,250.592Z" transform="translate(-75.935 -185.905)" fill="#407bff"/>
            <path id="Path_7242" data-name="Path 7242" d="M266.056,258q1.358-2.885,2.6-5.812c2.566-7.54,4.751-15.166,6.513-22.762a.534.534,0,0,0-.145-.5,31.015,31.015,0,0,0-14.65-8.254.534.534,0,1,0-.263,1.035,29.951,29.951,0,0,1,13.949,7.768,237.466,237.466,0,0,1-8.074,27A5.437,5.437,0,0,0,266.056,258Z" transform="translate(-71.157 -194.086)" fill="#407bff"/>
            <path id="Path_7243" data-name="Path 7243" d="M274.879,230.932a.537.537,0,0,0-.662.362,167.837,167.837,0,0,1-6.7,18.632q-1.246,2.924-2.6,5.812a5.434,5.434,0,0,1-.067-1.525,20.019,20.019,0,0,1,1.107-4.4c2.261-6.8,3.429-13.774,4.56-20.519a.533.533,0,0,0-1.052-.176,134.508,134.508,0,0,1-4.557,20.469c-.757,2.28-1.6,4.824-.884,6.921a4.434,4.434,0,0,0,.39.844.524.524,0,0,0,.357.232.573.573,0,0,0,.1.026h.026a.53.53,0,0,0,.455-.3,170.977,170.977,0,0,0,9.891-25.715A.534.534,0,0,0,274.879,230.932Z" transform="translate(-70.017 -191.823)" fill="#407bff"/>
            <path id="Path_7244" data-name="Path 7244" d="M280.309,228.252l-.563.051a17.035,17.035,0,0,1-6.694-.757.533.533,0,0,0-.337,1.012,18.067,18.067,0,0,0,7.118.807l.577-.053a7.4,7.4,0,0,1,2.5.027,2.729,2.729,0,0,1,.918.45v-1.249a3.967,3.967,0,0,0-.648-.233A8.227,8.227,0,0,0,280.309,228.252Z" transform="translate(-67.589 -192.149)" fill="#407bff"/>
            <path id="Path_7245" data-name="Path 7245" d="M280.36,248.6a14.258,14.258,0,0,1-3.875,2.545,57.736,57.736,0,0,1-9.471,3.689.533.533,0,1,0,.3,1.025,58.732,58.732,0,0,0,9.647-3.757,12.138,12.138,0,0,0,6.631-6.384c.646-1.2,1.276-2.415,1.855-3.641v-2.63a60.839,60.839,0,0,1-2.794,5.764A14.443,14.443,0,0,1,280.36,248.6Z" transform="translate(-69.205 -188.783)" fill="#407bff"/>
            <path id="Path_7246" data-name="Path 7246" d="M279.845,246.349a.527.527,0,0,0,.31.1.533.533,0,0,0,.433-.222q.633-.881,1.185-1.8v-2.189a26.212,26.212,0,0,1-2.052,3.364A.532.532,0,0,0,279.845,246.349Z" transform="translate(-65.536 -187.992)" fill="#407bff"/>
            <path id="Path_7247" data-name="Path 7247" d="M278.245,246.655a.535.535,0,0,0,.7-.29c1.185-2.887,2.286-5.813,3.316-8.752v-3.279c-1.29,3.9-2.731,7.8-4.3,11.624A.535.535,0,0,0,278.245,246.655Z" transform="translate(-66.018 -190.225)" fill="#407bff"/>
          </g>
          <path id="Path_7248" data-name="Path 7248" d="M312.661,398.582H129.223A17.1,17.1,0,0,1,112.141,381.5V183.6a17.1,17.1,0,0,1,17.082-17.083H312.661A17.1,17.1,0,0,1,329.745,183.6V381.5A17.1,17.1,0,0,1,312.661,398.582ZM129.223,167.88A15.734,15.734,0,0,0,113.507,183.6V381.5a15.734,15.734,0,0,0,15.716,15.716H312.661A15.734,15.734,0,0,0,328.378,381.5V183.6a15.734,15.734,0,0,0-15.717-15.716Z" transform="translate(-108.294 -122.959)" fill="#e9460a"/>
          <g id="Group_1431" data-name="Group 1431" transform="translate(14.816 205.307)">
            <path id="Rectangle_334" data-name="Rectangle 334" d="M4.337,0H189.961A4.336,4.336,0,0,1,194.3,4.336V25.275a4.337,4.337,0,0,1-4.337,4.337H4.336A4.336,4.336,0,0,1,0,25.275V4.337A4.337,4.337,0,0,1,4.337,0Z" transform="translate(0.684 0.685)" fill="none" stroke="#e9460a" stroke-width="1"/>
            <path id="Path_7249" data-name="Path 7249" d="M310.115,323.631H126.94a6.253,6.253,0,0,1-6.245-6.245V298.9a6.253,6.253,0,0,1,6.245-6.245H310.115a6.252,6.252,0,0,1,6.244,6.245v18.49A6.251,6.251,0,0,1,310.115,323.631ZM126.94,294.019a4.883,4.883,0,0,0-4.878,4.877v18.49a4.883,4.883,0,0,0,4.878,4.877H310.115a4.882,4.882,0,0,0,4.877-4.877V298.9a4.882,4.882,0,0,0-4.877-4.877Z" transform="translate(-120.695 -292.651)" fill="#e9460a"/>
          </g>
          <g id="Group_1434" data-name="Group 1434" transform="translate(144.636 213.108)">
            <g id="Group_1432" data-name="Group 1432" transform="translate(0 1.379)">
              <rect id="Rectangle_335" data-name="Rectangle 335" width="11.253" height="11.253" rx="2.194" transform="translate(0.682 0.683)" fill="none" stroke="#707070" stroke-width="1"/>
              <path id="Path_7250" data-name="Path 7250" d="M231.052,312.43h-5.626a3.5,3.5,0,0,1-3.5-3.5v-5.627a3.5,3.5,0,0,1,3.5-3.5h5.626a3.5,3.5,0,0,1,3.5,3.5v5.627A3.5,3.5,0,0,1,231.052,312.43Zm-5.626-11.253a2.132,2.132,0,0,0-2.13,2.13v5.627a2.131,2.131,0,0,0,2.13,2.129h5.626a2.131,2.131,0,0,0,2.131-2.129v-5.627a2.132,2.132,0,0,0-2.131-2.13Z" transform="translate(-221.931 -299.81)" fill="#e9460a"/>
            </g>
            <g id="Group_1433" data-name="Group 1433" transform="translate(22.569)">
              <path id="Path_7251" data-name="Path 7251" d="M250.742,304.607c0,5.143-5.338,8.67-5.338,8.67s-5.34-3.526-5.34-8.67a5.339,5.339,0,0,1,10.678,0Z" transform="translate(-239.381 -298.584)" fill="#e9460a"/>
              <path id="Path_7252" data-name="Path 7252" d="M245.554,314.112a.681.681,0,0,1-.377-.114c-.231-.151-5.646-3.791-5.646-9.238a6.023,6.023,0,1,1,12.045,0c0,5.447-5.415,9.087-5.646,9.238A.68.68,0,0,1,245.554,314.112Zm0-14.008a4.662,4.662,0,0,0-4.656,4.656c0,3.935,3.485,6.93,4.656,7.824,1.169-.894,4.656-3.888,4.656-7.824A4.662,4.662,0,0,0,245.554,300.1Z" transform="translate(-239.531 -298.735)" fill="#e9460a"/>
            </g>
            <path id="Path_7253" data-name="Path 7253" d="M258.773,305.164a1.966,1.966,0,1,1-1.966-1.967A1.966,1.966,0,0,1,258.773,305.164Z" transform="translate(-212.639 -297.475)" fill="#e9460a"/>
            <path id="Path_7254" data-name="Path 7254" d="M263.48,305.164a1.966,1.966,0,1,1-1.966-1.967A1.966,1.966,0,0,1,263.48,305.164Z" transform="translate(-211.31 -297.475)" fill="#e9460a"/>
            <path id="Path_7255" data-name="Path 7255" d="M268.188,305.164a1.966,1.966,0,1,1-1.967-1.967A1.967,1.967,0,0,1,268.188,305.164Z" transform="translate(-209.981 -297.475)" fill="#e9460a"/>
          </g>
          <g id="Group_1435" data-name="Group 1435" transform="translate(17.128)">
            <circle id="Ellipse_104" data-name="Ellipse 104" cx="31.281" cy="31.281" r="31.281" transform="translate(0 44.238) rotate(-45)" fill="#fff"/>
            <path id="Path_7256" data-name="Path 7256" d="M164.034,206.049a31.965,31.965,0,1,1,0-63.93,32.7,32.7,0,0,1,7.266.833,31.967,31.967,0,0,1-7.266,63.1Zm0-62.563a30.6,30.6,0,1,0,30.6,30.6A30.633,30.633,0,0,0,164.034,143.486Z" transform="translate(-119.796 -129.846)" fill="#f49223"/>
          </g>
          <g id="Group_1436" data-name="Group 1436" transform="translate(39.257 21.985)">
            <path id="Path_7257" data-name="Path 7257" d="M178.26,160.8c4.5,2.272,6.368,7.675,1.638,12.808s4.019,10.991-3.8,13.763-21.787,3.332-30.769-4.9,11.725-29.105,11.725-29.105Z" transform="translate(-138.818 -148.656)" fill="#263238"/>
            <path id="Path_7258" data-name="Path 7258" d="M145.493,182.639c2.569-.4,6.218-.889,9.593-1.135a96.33,96.33,0,0,1,13.912.287,56.4,56.4,0,0,1,5.778.646c2.761.437,5.674,2.084,6.625,4.7a34.111,34.111,0,0,1-19.9,7.14,31.153,31.153,0,0,1-20.46-7.612A5.487,5.487,0,0,1,145.493,182.639Z" transform="translate(-139.393 -140.753)" fill="#e9460a"/>
            <path id="Path_7259" data-name="Path 7259" d="M165.533,181.563a2.776,2.776,0,0,1,2.937.41c-.916,2.694-4.26,6.537-7.6,9.384a15.72,15.72,0,0,0-3.475-4.014l-4.248-.455a7.044,7.044,0,0,0-4.071,1.508,9.164,9.164,0,0,1,2.592-6.848c1.58-.185,4.982-.341,4.982-.341Z" transform="translate(-137.135 -140.795)" fill="#fff"/>
            <path id="Path_7260" data-name="Path 7260" d="M166.225,169.311c-1.3,4.511-2.956,12.791-.108,15.877,0,0-2.312,3.493-13.37,7.707-3.07-5.158-.542-7.99-.542-7.99,5.1-1.1,5.327-4.854,4.788-8.389Z" transform="translate(-136.516 -144.154)" fill="#ffb573"/>
            <path id="Path_7261" data-name="Path 7261" d="M162.049,170.729l-6.322,5.382a14.216,14.216,0,0,1,.195,2.507c1.432.66,5.585-.682,6.391-4.5A10.268,10.268,0,0,0,162.049,170.729Z" transform="translate(-135.245 -143.753)" opacity="0.2"/>
            <path id="Path_7262" data-name="Path 7262" d="M171.716,165.808c-1.258,7.432-1.631,10.6-5.819,14.042-6.3,5.169-15.153,2-16.141-5.658-.89-6.894,1.316-17.89,8.956-20.085A10.28,10.28,0,0,1,171.716,165.808Z" transform="translate(-136.983 -148.566)" fill="#ffb573"/>
            <path id="Path_7263" data-name="Path 7263" d="M174.318,171.258c-5.537-.6-7.248-7.748-6.35-11.106-5.678,1.3-9.7-1.926-12.2-.573-4.593,2.49-6.818,8.084-4.954,17.481.949,4.779-2.18,5.537-6.06,3.573-5.631-2.852-8.446-8.565,2.222-17.734,7.434-6.39,4.473-9.324,10.668-12.166,7.435-3.411,27.469,1.9,21.549,11.108C177.8,169.83,174.318,171.258,174.318,171.258Z" transform="translate(-139.755 -149.693)" fill="#263238"/>
            <path id="Path_7264" data-name="Path 7264" d="M168.1,166.344a9.775,9.775,0,0,1-1.429,1.217,4.256,4.256,0,0,0-4.071-.86A3.6,3.6,0,0,1,168.1,166.344Z" transform="translate(-133.304 -145.306)" fill="#263238"/>
            <path id="Path_7265" data-name="Path 7265" d="M167.514,166.235a9.642,9.642,0,0,1-.777,1.708,4.256,4.256,0,0,0-4.053.948A3.6,3.6,0,0,1,167.514,166.235Z" transform="translate(-133.281 -145.08)" fill="#263238"/>
            <path id="Path_7266" data-name="Path 7266" d="M158.577,163.815c-.065.609-.441,1.068-.839,1.026s-.668-.571-.6-1.18.441-1.068.839-1.026S158.641,163.206,158.577,163.815Z" transform="translate(-134.85 -146.039)" fill="#263238"/>
            <path id="Path_7267" data-name="Path 7267" d="M153.208,163.242c-.065.609-.441,1.068-.839,1.026s-.669-.571-.6-1.18.441-1.068.839-1.026S153.272,162.633,153.208,163.242Z" transform="translate(-136.366 -146.201)" fill="#263238"/>
            <path id="Path_7268" data-name="Path 7268" d="M152.863,162.23l-1.417-.578S152.074,162.875,152.863,162.23Z" transform="translate(-136.454 -146.316)" fill="#263238"/>
            <path id="Path_7269" data-name="Path 7269" d="M155.344,164.245a16.372,16.372,0,0,1-2.585,3.656,2.633,2.633,0,0,0,2.127.639Z" transform="translate(-136.083 -145.584)" fill="#ed893e"/>
            <path id="Path_7270" data-name="Path 7270" d="M156.739,169.995a6.012,6.012,0,0,1-1.022-.131.182.182,0,0,1-.138-.215.18.18,0,0,1,.214-.137,4.851,4.851,0,0,0,4.269-1.016.18.18,0,1,1,.253.255A5.021,5.021,0,0,1,156.739,169.995Z" transform="translate(-135.288 -144.399)" fill="#263238"/>
            <path id="Path_7271" data-name="Path 7271" d="M169.725,169.545a5.9,5.9,0,0,1-3.441,2.91c-1.975.616-2.9-.532-2.4-2.427.448-1.707,1.717-4.1,3.9-4.475C169.742,165.219,170.587,167.836,169.725,169.545Z" transform="translate(-132.98 -145.223)" fill="#ffb573"/>
            <path id="Path_7272" data-name="Path 7272" d="M161.162,160.642a.359.359,0,0,1-.254-.127,2.868,2.868,0,0,0-2.369-1.069.36.36,0,0,1-.091-.714,3.572,3.572,0,0,1,3.008,1.318.362.362,0,0,1-.041.508A.367.367,0,0,1,161.162,160.642Z" transform="translate(-134.565 -147.144)" fill="#263238"/>
            <path id="Path_7273" data-name="Path 7273" d="M150.227,161.2a.355.355,0,0,1-.254-.082.36.36,0,0,1-.047-.507,3.572,3.572,0,0,1,2.994-1.349.36.36,0,0,1-.082.716,2.845,2.845,0,0,0-2.358,1.094A.36.36,0,0,1,150.227,161.2Z" transform="translate(-136.906 -146.994)" fill="#263238"/>
            <path id="Path_7274" data-name="Path 7274" d="M158.233,162.8l-1.418-.578S157.443,163.448,158.233,162.8Z" transform="translate(-134.938 -146.154)" fill="#263238"/>
          </g>
          <path id="Path_7275" data-name="Path 7275" d="M308.275,336.4h-179.8a7.273,7.273,0,0,1-7.25-7.252h0a7.273,7.273,0,0,1,7.25-7.25h179.8a7.272,7.272,0,0,1,7.25,7.25h0A7.272,7.272,0,0,1,308.275,336.4Z" transform="translate(-105.728 -79.087)" fill="#e9460a"/>
        </g>
      </g>
      <g id="Character" transform="translate(328.991 97.188)">
        <g id="Group_1447" data-name="Group 1447">
          <path id="Path_7300" data-name="Path 7300" d="M276.614,99.35c-7.971,1.67-13.147,9.327-7.9,19.317s-12.6,17.43-1.554,25.022,35.348,6.074,52.811-3.037-7.138-44.067-7.138-44.067Z" transform="translate(-250.398 -85.433)" fill="#263238"/>
          <path id="Path_7301" data-name="Path 7301" d="M304.914,405.165l12.833,3.572,16.176-35.64-17.838-7.723Z" transform="translate(-238.698 -2.827)" fill="#ffb573"/>
          <path id="Path_7302" data-name="Path 7302" d="M320.991,398.315l-13.038-7.574a1.006,1.006,0,0,0-1.3.131l-6.4,7.829a1.986,1.986,0,0,0,.878,2.82c4.582,2.574,6.9,3.621,12.634,6.952,3.526,2.049,8.579,4.7,13.586,7.284,4.9,2.522,7.359-1.453,5.463-2.9-8.5-6.508-8.387-8.861-10.225-12.809A3.977,3.977,0,0,0,320.991,398.315Z" transform="translate(-240.101 4.286)" fill="#263238"/>
          <path id="Path_7303" data-name="Path 7303" d="M319.79,400.564a5.755,5.755,0,0,0,3.155,1.034,1.336,1.336,0,0,0,1.132-.84.871.871,0,0,0-.118-.886c-1.05-1.484-6.8-2.179-7.453-2.253a.253.253,0,0,0-.28.154.3.3,0,0,0,.109.321A27.013,27.013,0,0,0,319.79,400.564Zm3.211-.822a1.5,1.5,0,0,1,.465.382.337.337,0,0,1,.041.358.867.867,0,0,1-.736.557c-1.007.126-2.97-.89-5.336-2.744A19.554,19.554,0,0,1,323,399.742Z" transform="translate(-235.508 6.277)" fill="#f49223"/>
          <path id="Path_7304" data-name="Path 7304" d="M316.386,398.716a.354.354,0,0,0,.124.045c1.68.277,5.608-.244,6.019-1.476.1-.291.06-.745-.664-1.253a2.612,2.612,0,0,0-1.748-.485c-2.036.177-3.792,2.653-3.865,2.758a.257.257,0,0,0,0,.276A.357.357,0,0,0,316.386,398.716Zm5-2.358c.055.032.108.065.162.1.478.333.415.522.395.583-.247.74-3.042,1.321-4.858,1.221.568-.687,1.847-2.043,3.183-2.157A1.835,1.835,0,0,1,321.389,396.358Z" transform="translate(-235.508 5.69)" fill="#f49223"/>
          <path id="Path_7305" data-name="Path 7305" d="M319.65,149.059c.849,3.415,1.779,7.093,2.808,10.6,1.013,3.542,2.1,7.05,3.269,10.5s2.46,6.818,3.878,10.034a49.25,49.25,0,0,0,4.824,8.714l.333.455c.082.114.032.04.042.062a.059.059,0,0,1-.021.008,2.342,2.342,0,0,0-.485-.264,2.7,2.7,0,0,0-.957-.186,1.206,1.206,0,0,0-.54.1c-.108.095.271-.017.7-.3a11,11,0,0,0,1.512-1.191,49.861,49.861,0,0,0,6.466-7.865c4.118-5.957,7.966-12.513,11.6-19.007l.049-.086a3.4,3.4,0,0,1,6.2,2.7,132.858,132.858,0,0,1-9.021,21.773c-.954,1.768-1.975,3.524-3.1,5.279a39.253,39.253,0,0,1-3.956,5.237,23.11,23.11,0,0,1-2.756,2.6,13.529,13.529,0,0,1-4.324,2.366,9.912,9.912,0,0,1-3.357.474,9.567,9.567,0,0,1-3.71-.869,10.748,10.748,0,0,1-2.82-1.89l-.509-.512c-.15-.155-.376-.392-.436-.469l-.562-.658a55.173,55.173,0,0,1-6.954-10.829,109.64,109.64,0,0,1-4.84-11.095c-1.409-3.724-2.646-7.477-3.751-11.258-1.084-3.816-2.1-7.511-2.931-11.531a6.833,6.833,0,0,1,13.32-3.042Z" transform="translate(-238.348 -70.795)" fill="#ffb573"/>
          <path id="Path_7306" data-name="Path 7306" d="M312.757,140.782c5.5,1.386,9.724,6.7,11.355,10.072-3.239,6.875-15.2,22.25-15.2,22.25S298.53,137.117,312.757,140.782Z" transform="translate(-238.601 -71.862)" fill="#263238"/>
          <path id="Path_7307" data-name="Path 7307" d="M304.187,417.405l12.336.424-1.185-42.953-17.057.243Z" transform="translate(-240.571 -0.144)" fill="#ffb573"/>
          <path id="Path_7308" data-name="Path 7308" d="M316.429,405.334l-13.81-.1a.784.784,0,0,0-.837.831l.3,10.9a2.45,2.45,0,0,0,2.347,2.2c4.8-.049,7.071-.314,13.144-.272,3.736.027,9.261.453,14.42.49,5.046.036,4.559-5.056,2.331-5.533-9.988-2.138-12-5-15.713-7.747A3.781,3.781,0,0,0,316.429,405.334Z" transform="translate(-239.582 8.428)" fill="#263238"/>
          <path id="Path_7309" data-name="Path 7309" d="M329.695,147.561c1.718,8.124,3.723,26.471,3.773,67.884l-49.341,4.364c-2.266-18.668-4.146-30.713-17.171-64.178a8.868,8.868,0,0,1,6.26-11.862c3.178-.732,6.848-1.467,10.59-1.982,8.238-1.137,15-2.007,22.405-1.981,5.469.018,11.412.428,15.583.786A8.836,8.836,0,0,1,329.695,147.561Z" transform="translate(-249.587 -71.92)" fill="#263238"/>
          <g id="Group_1439" data-name="Group 1439" transform="translate(27.91 68.484)" opacity="0.4">
            <path id="Path_7310" data-name="Path 7310" d="M309.616,202.457c-.29,5-.617,10.661-5.9,13.618-.226.126-.462.218-.694.327l1.58-.14c5.019-3.2,5.358-8.8,5.645-13.77.026-.431.05-.857.077-1.273a104.959,104.959,0,0,0-.33-18.13c-.486-4.742-2.192-9.35-3.842-13.806-.36-.976-.722-1.952-1.071-2.928a32.813,32.813,0,0,1-1.231-19.31,5.452,5.452,0,0,1,1.581-2.96c1.5-1.254,3.266-.619,4.42.391,2.671,2.339,3.72,5.547,4.564,8.633.3,1.1.58,2.2.859,3.3a73.181,73.181,0,0,0,2.5,8.41,47.1,47.1,0,0,0,4.61,8.74c-.023-.424-.046-.855-.069-1.27a44.934,44.934,0,0,1-3.953-7.7,72.8,72.8,0,0,1-2.475-8.337c-.28-1.105-.56-2.212-.862-3.314-.869-3.178-1.954-6.487-4.757-8.942-1.288-1.126-3.43-1.907-5.238-.4a6.018,6.018,0,0,0-1.788,3.283,33.448,33.448,0,0,0,1.248,19.683c.35.977.712,1.956,1.075,2.934,1.636,4.419,3.328,8.988,3.806,13.652a104.46,104.46,0,0,1,.327,18.021C309.666,201.6,309.641,202.024,309.616,202.457Z" transform="translate(-267.348 -139.565)" fill="#fff" opacity="0.2"/>
            <path id="Path_7311" data-name="Path 7311" d="M314.54,198.782a9.489,9.489,0,0,1-.065-6.041c.954-2.612,3.273-4.459,5.583-6.217q-.006-.394-.013-.784l-.028.023c-2.493,1.89-5.069,3.847-6.132,6.762a10.1,10.1,0,0,0,.053,6.443,21.355,21.355,0,0,0,1.645,3.912l.667-.059A20.777,20.777,0,0,1,314.54,198.782Z" transform="translate(-264.217 -127.432)" fill="#fff" opacity="0.2"/>
            <path id="Path_7312" data-name="Path 7312" d="M297.027,216.394c-1.866-1.3-2.5-3.424-1.926-6.5.532-2.878,1.2-5.989,2.04-9.514s1.77-7.105,2.667-10.564c.7-2.713,1.408-5.428,2.08-8.149,2.2-8.924,2.592-16.111,1.219-22.621-1.125-5.337-2.4-11.386-6.681-16.009-.775-.836-3.542-3.5-6.644-2.58a2.3,2.3,0,0,1-1.346-.124c-.424.044-.848.087-1.275.135a4.009,4.009,0,0,0,2.8.594c2.186-.644,4.534.817,6,2.4,4.164,4.495,5.419,10.454,6.527,15.711,1.353,6.413.967,13.511-1.213,22.338-.672,2.719-1.376,5.431-2.08,8.143-.9,3.461-1.826,7.041-2.67,10.577s-1.512,6.657-2.047,9.544c-.619,3.342.095,5.673,2.186,7.127a10.207,10.207,0,0,0,1.811.978l1.5-.133A9.68,9.68,0,0,1,297.027,216.394Z" transform="translate(-271.62 -140.27)" fill="#fff" opacity="0.2"/>
            <path id="Path_7313" data-name="Path 7313" d="M277.681,172.956a39.637,39.637,0,0,0-2.639,12.085q.292.987.563,1.941a38.884,38.884,0,0,1,2.663-13.8c.632-1.618,1.352-3.182,2.048-4.693,2.479-5.377,4.82-10.458,2.958-17.269-1.018-3.73-3.8-6.645-6.99-9.223-.276.053-.549.1-.821.155,3.278,2.6,6.186,5.508,7.2,9.232,1.8,6.593-.494,11.572-2.924,16.842C279.044,169.747,278.32,171.318,277.681,172.956Z" transform="translate(-275.042 -139.783)" fill="#fff" opacity="0.2"/>
            <path id="Path_7314" data-name="Path 7314" d="M287.665,190.367c2.6-8.312,5.541-17.732,6.428-27.161a34.47,34.47,0,0,0-.332-9.044l-.046-.272c-.6-3.492-1.159-6.793-5.718-11.913-.485-.545-.822-.944-1.089-1.267l-.733.092c.306.391.73.9,1.352,1.593,4.438,4.987,4.961,8.053,5.568,11.6l.046.272a33.818,33.818,0,0,1,.326,8.878c-.881,9.365-3.815,18.752-6.4,27.033a10.358,10.358,0,0,1-2.776,5.031,6.714,6.714,0,0,1-4.72,1.675,4.34,4.34,0,0,1-2.331-.8c.067.289.131.574.195.859a5.222,5.222,0,0,0,2.1.571,7.347,7.347,0,0,0,5.177-1.83A10.889,10.889,0,0,0,287.665,190.367Z" transform="translate(-274.423 -140.147)" fill="#fff" opacity="0.2"/>
          </g>
          <path id="Path_7315" data-name="Path 7315" d="M276.072,150.687c.223,6-1.026,14.953-3.727,18.775-.864-2.472-1.807-5.086-2.835-7.861Z" transform="translate(-248.694 -68.814)" opacity="0.2"/>
          <path id="Path_7316" data-name="Path 7316" d="M278.469,121.393c2.594,7.131,6.169,20.3,1.915,25.592,0,0,9.323,1.652,24.592,8.171C309.359,146.5,302.789,145,302.789,145c-8.353-1.222-9.124-7.244-8.642-13.006Z" transform="translate(-246.164 -78.429)" fill="#ffb573"/>
          <path id="Path_7317" data-name="Path 7317" d="M282.406,123.431l10.786,7.985a23.037,23.037,0,0,0-.04,4.064c-2.338.208-9.455-3.24-11.122-7.868C281.46,126.029,282.268,124.207,282.406,123.431Z" transform="translate(-245.216 -77.854)" opacity="0.2"/>
          <path id="Path_7318" data-name="Path 7318" d="M277.98,109.845c-1.139,12.131-1.88,17.241,3.226,24.356,7.679,10.7,22.828,9.447,27.568-2.1,4.266-10.393,5.411-28.485-5.6-35.1A16.617,16.617,0,0,0,277.98,109.845Z" transform="translate(-246.536 -86.009)" fill="#ffb573"/>
          <path id="Path_7319" data-name="Path 7319" d="M277.537,118.549c8.9,1.376,14.552-9.074,14.552-14.693,8.324,4.4,15.954,1.04,19.285,4.195,6.133,5.806,7.273,15.47.44,29.364-3.476,7.068,1.094,9.559,7.972,8.11,9.984-2.1,16.764-9.85,3.932-28.619-8.943-13.081-3.093-16.428-11.581-23.45-10.188-8.43-43.687-8.5-38.287,8.352C272.7,114.864,277.537,118.549,277.537,118.549Z" transform="translate(-247.634 -87.889)" fill="#263238"/>
          <path id="Path_7320" data-name="Path 7320" d="M276.485,111.256a15.571,15.571,0,0,0,1.721,2.5,6.879,6.879,0,0,1,6.718.356C282.956,109.793,278.934,109.959,276.485,111.256Z" transform="translate(-246.724 -81.519)" fill="#263238"/>
          <path id="Path_7321" data-name="Path 7321" d="M277.133,111.408a15.588,15.588,0,0,0,.5,2.992,6.881,6.881,0,0,1,5.935,3.17C283.614,112.826,279.9,111.271,277.133,111.408Z" transform="translate(-246.541 -81.251)" fill="#263238"/>
          <g id="Group_1440" data-name="Group 1440" transform="translate(43.357 148.929)">
            <path id="Path_7322" data-name="Path 7322" d="M327.157,198.79s38.493,96.182,39.109,124.016c.721,32.546-27.31,99.917-27.31,99.917l-19.762-8.764s14.028-54.146,20.777-82.791c-9.053-27.329-50.113-102.161-52.883-128.8Z" transform="translate(-287.088 -198.79)" fill="#e61e29"/>
            <path id="Path_7323" data-name="Path 7323" d="M327.157,198.79s38.493,96.182,39.109,124.016c.721,32.546-27.31,99.917-27.31,99.917l-19.762-8.764s14.028-54.146,20.777-82.791c-9.053-27.329-50.113-102.161-52.883-128.8Z" transform="translate(-287.088 -198.79)" opacity="0.3"/>
          </g>
          <path id="Path_7324" data-name="Path 7324" d="M310.151,369.411,333.7,378.68l3.587-4.712-26.147-11.04Z" transform="translate(-237.219 -3.518)" fill="#f49223"/>
          <path id="Path_7325" data-name="Path 7325" d="M312.783,237.391c-3.039-5.1-9.861-6.976-16.093-6.4,8.117,19.235,18.761,41.266,27.34,59.847C323.863,272.527,321.375,251.843,312.783,237.391Z" transform="translate(-241.02 -44.103)" fill="#263238" opacity="0.4"/>
          <g id="Group_1441" data-name="Group 1441" transform="translate(33.307 149.019)">
            <path id="Path_7326" data-name="Path 7326" d="M320.123,198.86s2.513,93.2,2.67,125.34c.185,38.157-1.145,101.38-1.145,101.38l-18.45-.763s-7.284-53.907-7.845-88.1c-5.267-45.38-20.51-105.042-14.869-133.587Z" transform="translate(-279.25 -198.86)" fill="#e9460a"/>
          </g>
          <path id="Path_7327" data-name="Path 7327" d="M320.123,198.86s2.513,93.2,2.67,125.34c.185,38.157-1.145,101.38-1.145,101.38l-18.45-.763s-7.284-53.907-7.845-88.1c-5.267-45.38-20.51-105.042-14.869-133.587Z" transform="translate(-245.944 -49.841)" opacity="0.3"/>
          <path id="Path_7328" data-name="Path 7328" d="M297.58,379.419l21-.594.785-6.629-23.9-.661Z" transform="translate(-241.365 -1.087)" fill="#f49223"/>
          <path id="Path_7329" data-name="Path 7329" d="M293.149,111.627c-.153.978.242,1.853.881,1.953s1.282-.613,1.435-1.591-.242-1.852-.881-1.952S293.3,110.65,293.149,111.627Z" transform="translate(-242.029 -81.638)" fill="#263238"/>
          <path id="Path_7330" data-name="Path 7330" d="M301.772,112.974c-.153.978.242,1.853.882,1.953s1.281-.613,1.434-1.591-.241-1.852-.881-1.952S301.926,112,301.772,112.974Z" transform="translate(-239.594 -81.258)" fill="#263238"/>
          <path id="Path_7331" data-name="Path 7331" d="M302.657,111.459l2.456-.312S303.62,112.795,302.657,111.459Z" transform="translate(-239.335 -81.322)" fill="#263238"/>
          <path id="Path_7332" data-name="Path 7332" d="M298.527,113.806a26.459,26.459,0,0,0,2.513,6.789c-1.48,1-3.591.109-3.591.109Z" transform="translate(-240.805 -80.571)" fill="#ed893e"/>
          <path id="Path_7333" data-name="Path 7333" d="M293.517,122.233a9.531,9.531,0,0,0,1.62.4.291.291,0,1,0,.089-.574,7.832,7.832,0,0,1-5.845-4.016.291.291,0,1,0-.531.239A8.122,8.122,0,0,0,293.517,122.233Z" transform="translate(-243.241 -79.424)" fill="#263238"/>
          <path id="Path_7334" data-name="Path 7334" d="M273.066,115.7a9.538,9.538,0,0,0,4.159,5.98c2.826,1.785,4.754.38,4.768-2.789.012-2.851-.969-7.126-4.225-8.615C274.845,108.939,272.433,112.672,273.066,115.7Z" transform="translate(-247.718 -81.647)" fill="#ffb573"/>
          <path id="Path_7335" data-name="Path 7335" d="M288.678,107.455a.578.578,0,0,0,.449-.09,4.633,4.633,0,0,1,4.146-.682.586.586,0,0,0,.758-.319.581.581,0,0,0-.318-.758,5.768,5.768,0,0,0-5.247.8.58.58,0,0,0,.213,1.046Z" transform="translate(-243.413 -82.972)" fill="#263238"/>
          <path id="Path_7336" data-name="Path 7336" d="M305.755,110.662a.576.576,0,0,0,.432-.022.583.583,0,0,0,.285-.772,5.771,5.771,0,0,0-4.112-3.356.582.582,0,0,0-.171,1.152,4.6,4.6,0,0,1,3.226,2.692A.577.577,0,0,0,305.755,110.662Z" transform="translate(-239.607 -82.632)" fill="#263238"/>
          <path id="Path_7337" data-name="Path 7337" d="M281.423,154.638c-1.645,3.007-3.406,6.294-4.976,9.51-1.588,3.243-3.133,6.5-4.534,9.78-1.421,3.275-2.684,6.582-3.775,9.865a55.022,55.022,0,0,0-2.32,9.656c-.109.76-.153,1.545-.2,2.213a4.675,4.675,0,0,0,.1,1.293,18,18,0,0,0,1.4,3.965,62.363,62.363,0,0,0,5.278,8.758c4.095,5.812,8.83,11.571,13.6,17.074l.074.085a3.4,3.4,0,0,1-4.607,4.942A121.1,121.1,0,0,1,264.232,216.2a62.584,62.584,0,0,1-7.367-9.786,28.192,28.192,0,0,1-2.88-6.4,17.523,17.523,0,0,1-.7-4.255c-.017-1.2-.01-2.293.064-3.4a60.29,60.29,0,0,1,2.194-12.322,108.4,108.4,0,0,1,3.81-11.283q2.164-5.472,4.734-10.691c1.744-3.5,3.457-6.858,5.546-10.346A6.833,6.833,0,0,1,281.5,154.5Z" transform="translate(-253.277 -70.472)" fill="#ffb573"/>
          <path id="Path_7338" data-name="Path 7338" d="M274.5,142.965a19.942,19.942,0,0,0-12.709,9.991c5.087,5.973,17.767,16.223,17.767,16.223S288.73,139.3,274.5,142.965Z" transform="translate(-250.873 -71.231)" fill="#263238"/>
          <path id="Path_7339" data-name="Path 7339" d="M319.9,406.938a1.552,1.552,0,0,0,.11-1.412,1.253,1.253,0,0,0-.719-.821c-1.54-.657-4.86,1.723-5.233,2a.25.25,0,0,0-.076.292.365.365,0,0,0,.259.233c1.655.389,4.579.882,5.553-.16A1.124,1.124,0,0,0,319.9,406.938ZM315,406.818c1.363-.908,3.338-1.931,4.148-1.585a.521.521,0,0,1,.306.369.993.993,0,0,1-.121,1.032C318.8,407.2,317.208,407.26,315,406.818Z" transform="translate(-236.142 8.246)" fill="#f49223"/>
          <path id="Path_7340" data-name="Path 7340" d="M315.79,406.481c.75-1.059,1.345-2.439,1.019-3.317a1.278,1.278,0,0,0-1.119-.818,1.311,1.311,0,0,0-1.166.38c-1.126,1.169-.542,4.706-.517,4.858a.366.366,0,0,0,.189.253.3.3,0,0,0,.29,0A5.207,5.207,0,0,0,315.79,406.481Zm-.913-3.187a1.1,1.1,0,0,1,.109-.131.812.812,0,0,1,.733-.241c.38.047.486.213.539.351.313.844-.739,2.824-1.747,3.747C314.383,405.911,314.318,404.085,314.877,403.294Z" transform="translate(-236.179 7.608)" fill="#f49223"/>
          <g id="Group_1442" data-name="Group 1442" transform="translate(32.771 141.128)">
            <path id="Path_7341" data-name="Path 7341" d="M279.388,201.043l-.537,4.557c-.117.36.346.676.917.626l50.781-4.492c.445-.04.778-.291.76-.576l-.28-4.484c-.019-.312-.448-.537-.934-.495l-49.964,4.42A.827.827,0,0,0,279.388,201.043Z" transform="translate(-278.833 -196.174)" fill="#fff"/>
          </g>
          <g id="Group_1443" data-name="Group 1443" transform="translate(38.801 144.608)">
            <path id="Path_7342" data-name="Path 7342" d="M285.687,205.315l-1.337.118c-.267.023-.492-.1-.5-.268l-.313-5.831c-.009-.171.2-.33.468-.354l1.338-.118c.267-.023.492.1.5.268l.313,5.831C286.164,205.132,285.954,205.291,285.687,205.315Z" transform="translate(-283.535 -198.86)" fill="#407bff"/>
            <path id="Path_7343" data-name="Path 7343" d="M285.687,205.315l-1.337.118c-.267.023-.492-.1-.5-.268l-.313-5.831c-.009-.171.2-.33.468-.354l1.338-.118c.267-.023.492.1.5.268l.313,5.831C286.164,205.132,285.954,205.291,285.687,205.315Z" transform="translate(-283.535 -198.86)" opacity="0.3"/>
          </g>
          <g id="Group_1444" data-name="Group 1444" transform="translate(78.652 141.026)">
            <path id="Path_7344" data-name="Path 7344" d="M316.765,202.566l-1.339.118c-.267.023-.492-.1-.5-.267l-.313-5.832c-.009-.171.2-.33.468-.353l1.339-.119c.267-.023.491.1.5.268l.312,5.831C317.242,202.383,317.031,202.542,316.765,202.566Z" transform="translate(-314.612 -196.111)" fill="#407bff"/>
            <path id="Path_7345" data-name="Path 7345" d="M316.765,202.566l-1.339.118c-.267.023-.492-.1-.5-.267l-.313-5.832c-.009-.171.2-.33.468-.353l1.339-.119c.267-.023.491.1.5.268l.312,5.831C317.242,202.383,317.031,202.542,316.765,202.566Z" transform="translate(-314.612 -196.111)" opacity="0.3"/>
          </g>
          <g id="Group_1445" data-name="Group 1445" transform="translate(58.727 142.818)">
            <path id="Path_7346" data-name="Path 7346" d="M301.226,203.94l-1.339.118c-.265.024-.491-.1-.5-.267l-.313-5.832c-.01-.171.2-.33.467-.353l1.339-.118c.267-.024.492.1.5.267l.313,5.832C301.7,203.758,301.493,203.917,301.226,203.94Z" transform="translate(-299.074 -197.486)" fill="#407bff"/>
            <path id="Path_7347" data-name="Path 7347" d="M301.226,203.94l-1.339.118c-.265.024-.491-.1-.5-.267l-.313-5.832c-.01-.171.2-.33.467-.353l1.339-.118c.267-.024.492.1.5.267l.313,5.832C301.7,203.758,301.493,203.917,301.226,203.94Z" transform="translate(-299.074 -197.486)" opacity="0.3"/>
          </g>
          <path id="Path_7348" data-name="Path 7348" d="M278.2,206.4l9.471,4.457a6.3,6.3,0,0,1,3.057,3.106l1.7,3.769a3.621,3.621,0,0,1-1.881,4.822l-3.721,1.586a3.622,3.622,0,0,1-4.325-1.171l-4.121-5.542s-6.037-4.613-5.093-9.765Z" transform="translate(-247.657 -51.897)" fill="#ffb573"/>
          <g id="Group_1446" data-name="Group 1446" transform="translate(108.907 61.853)">
            <path id="Path_7349" data-name="Path 7349" d="M350.739,162.912l-11.191-1.888a1.563,1.563,0,0,1-1.23-2.157l7.677-21.2a2.417,2.417,0,0,1,2.56-1.517l11.19,1.888a1.562,1.562,0,0,1,1.23,2.157L353.3,161.4A2.419,2.419,0,0,1,350.739,162.912Z" transform="translate(-338.205 -136.124)" fill="#e61e29"/>
            <path id="Path_7350" data-name="Path 7350" d="M350.739,162.912l-11.191-1.888a1.563,1.563,0,0,1-1.23-2.157l7.677-21.2a2.417,2.417,0,0,1,2.56-1.517l11.19,1.888a1.562,1.562,0,0,1,1.23,2.157L353.3,161.4A2.419,2.419,0,0,1,350.739,162.912Z" transform="translate(-338.205 -136.124)" opacity="0.2"/>
          </g>
          <path id="Path_7351" data-name="Path 7351" d="M350.446,162.863l-9.863-1.664a1.562,1.562,0,0,1-1.231-2.156l7.677-21.2a2.416,2.416,0,0,1,2.56-1.516l9.863,1.663a1.562,1.562,0,0,1,1.23,2.157l-7.676,21.2A2.419,2.419,0,0,1,350.446,162.863Z" transform="translate(-229.006 -74.221)" fill="#e9460a"/>
          <path id="Path_7352" data-name="Path 7352" d="M345.822,153.655l3.411-6.526a3.456,3.456,0,0,1,4.152-1.794l3.891,1.279a4.091,4.091,0,0,1,2.458,5.019l-1.273,4.465a6.273,6.273,0,0,1-2.479,3.5l-8.988,6.076-5.033-.782C340.391,159.4,345.822,153.655,345.822,153.655Z" transform="translate(-228.318 -70.486)" fill="#ffb573"/>
          <path id="Path_7353" data-name="Path 7353" d="M294.034,110.111l2.456-.31S295,111.448,294.034,110.111Z" transform="translate(-241.77 -81.702)" fill="#263238"/>
        </g>
      </g>
    </g>
    <g transform="matrix(1, 0, 0, 1, 996.27, 4015.53)" filter="url(#_شارك)">
      <text id="_شارك-2" data-name=" شارك" transform="translate(334.73 277.47)" fill="#fff" font-size="20" font-family="SegoeUI, Segoe UI"><tspan x="-50.566" y="0"> </tspan><tspan y="0">شارك</tspan></text>
    </g>
    <g transform="matrix(1, 0, 0, 1, 996.27, 4015.53)" filter="url(#ناقش)">
      <text id="ناقش-2" data-name="ناقش" transform="translate(281.73 277.47)" fill="#fff" font-size="20" font-family="SegoeUI, Segoe UI"><tspan x="-45.088" y="0">ناقش</tspan></text>
    </g>
    <g transform="matrix(1, 0, 0, 1, 996.27, 4015.53)" filter="url(#تفاعل)">
      <text id="تفاعل-2" data-name="تفاعل" transform="translate(229.73 277.47)" fill="#fff" font-size="20" font-family="SegoeUI, Segoe UI"><tspan x="-46.768" y="0">تفاعل</tspan></text>
    </g>
    <g id="Group_1560" data-name="Group 1560" transform="translate(-325 301.579)">
      <text id="أشعل_الحماس_" data-name="أشعل الحماس " transform="translate(1643.03 3941.421)" fill="#fff" font-size="20" font-family="SegoeUI-Bold, Segoe UI" font-weight="700"><tspan x="-121.25" y="0">أشعل الحماس</tspan><tspan y="0"> </tspan></text>
      <line id="Line_17" data-name="Line 17" x1="122" transform="translate(1520.53 3961.762)" fill="none" stroke="#fff" stroke-width="1"/>
    </g>
  </g>
</svg>
