<svg xmlns="http://www.w3.org/2000/svg" xmlns:xlink="http://www.w3.org/1999/xlink" width="128" height="128" viewBox="0 0 128 128">
  <defs>
    <filter id="Rectangle_418" x="0" y="0" width="128" height="128" filterUnits="userSpaceOnUse">
      <feOffset dy="3" input="SourceAlpha"/>
      <feGaussianBlur stdDeviation="3" result="blur"/>
      <feFlood flood-opacity="0.051"/>
      <feComposite operator="in" in2="blur"/>
      <feComposite in="SourceGraphic"/>
    </filter>
    <clipPath id="clip-path">
      <rect id="Rectangle_417" data-name="Rectangle 417" width="74" height="74" transform="translate(-0.627 -0.627)" fill="#09bbf7"/>
    </clipPath>
  </defs>
  <g id="Group_3331" data-name="Group 3331" transform="translate(-1177 -1897)">
    <g transform="matrix(1, 0, 0, 1, 1177, 1897)" filter="url(#Rectangle_418)">
      <rect id="Rectangle_418-2" data-name="Rectangle 418" width="110" height="110" rx="26" transform="translate(9 6)" fill="#fff"/>
    </g>
    <g id="svgexport-13" transform="translate(1204.627 1924.627)" clip-path="url(#clip-path)">
      <path id="Path_13076" data-name="Path 13076" d="M33.666,29.017A16.164,16.164,0,0,0,59.228,43.728l2.84,3.5-1.6,1.311a.953.953,0,0,0-.146,1.384l12.817,15.73a4.155,4.155,0,0,0,5.826.583,4.425,4.425,0,0,0,1.529-2.767,4.7,4.7,0,0,0-.874-3.059L66.729,44.747a.953.953,0,0,0-1.384-.146L63.67,45.985l-2.84-3.5a15.725,15.725,0,0,0,5.025-10.123,16.182,16.182,0,0,0-32.189-3.35ZM77.944,61.788a2.121,2.121,0,1,1-3.277,2.695l-12.235-15,3.35-2.695ZM63.816,32.148a14.131,14.131,0,1,1-12.6-15.512A14.186,14.186,0,0,1,63.816,32.148Z" transform="translate(-9.163 -4.005)" fill="#09bbf7" stroke="#ff4b64" stroke-width="0"/>
      <path id="Path_13077" data-name="Path 13077" d="M71.137,68.2h-.583a5.473,5.473,0,0,1-3.787-2.039L53.95,50.358a2.539,2.539,0,0,1,.364-3.568l.437-.364-1.02-1.238a18.086,18.086,0,0,1-11,2.476A17.628,17.628,0,0,1,27,28.292a17.747,17.747,0,0,1,6.409-11.871,17.429,17.429,0,0,1,12.963-3.86A17.747,17.747,0,0,1,58.247,18.97a17.429,17.429,0,0,1,3.86,12.963,17.237,17.237,0,0,1-4.515,10.05l1.02,1.311.51-.437a2.539,2.539,0,0,1,3.568.364l12.817,15.73A5.65,5.65,0,0,1,76.745,63.1a5.473,5.473,0,0,1-2.039,3.787A5.4,5.4,0,0,1,71.137,68.2ZM59.485,49.12,70.7,62.957a.62.62,0,0,0,.947-.8L60.432,48.319l-.947.8ZM44.556,17.513a12.2,12.2,0,0,0-7.938,2.84,12.631,12.631,0,1,0,9.249-2.767A7.915,7.915,0,0,0,44.556,17.513ZM28.534,28.437l.437.073Zm-8.156,4.151H15.863a1.177,1.177,0,0,0-1.165,1.02,1.111,1.111,0,0,0,1.092,1.238H20.3a1.048,1.048,0,0,0,1.02-1.384.9.9,0,0,0-.947-.874Z" transform="translate(-4.032 -3.425)" fill="#09bbf7" stroke="#ff4b64" stroke-width="0"/>
      <path id="Path_13078" data-name="Path 13078" d="M20.076,42.905H15.561A1.833,1.833,0,0,1,14.1,42.25a1.967,1.967,0,0,1-.51-1.529A2.051,2.051,0,0,1,15.634,38.9h4.515a1.946,1.946,0,0,1,1.893,1.457,2.163,2.163,0,0,1-.364,1.748,1.934,1.934,0,0,1-1.6.8Zm-4.442-2.185c-.146,0-.218.073-.291.218,0,.073,0,.146.073.146a.254.254,0,0,0,.146.073h4.515a.254.254,0,0,0,.146-.073.1.1,0,0,0,0-.146c0-.073-.073-.146-.218-.146h-4.37Zm6.7,5.68H15.561a1.177,1.177,0,0,0-1.165,1.02,1.111,1.111,0,0,0,1.092,1.238h6.773a1.1,1.1,0,0,0,1.02-1.529.877.877,0,0,0-.947-.728Z" transform="translate(-3.73 -10.611)" fill="#09bbf7" stroke="#ff4b64" stroke-width="0"/>
      <path id="Path_13079" data-name="Path 13079" d="M22.434,51.905H15.661A1.833,1.833,0,0,1,14.2,51.25a1.967,1.967,0,0,1-.51-1.529A2.051,2.051,0,0,1,15.734,47.9h6.773a1.92,1.92,0,0,1,1.821,1.165l-.947.437.8-.364a1.961,1.961,0,0,1-.146,1.893,1.827,1.827,0,0,1-1.6.874Zm-6.773-2.185c-.146,0-.218.073-.291.218,0,.073,0,.146.073.146a.254.254,0,0,0,.146.073h6.773c.073,0,.146,0,.146-.073s.073-.146,0-.218a.157.157,0,0,0-.146-.146Z" transform="translate(-3.757 -13.056)" fill="#09bbf7" stroke="#ff4b64" stroke-width="0"/>
      <g id="Group_2790" data-name="Group 2790" transform="translate(9.851 41.471)">
        <path id="Path_13080" data-name="Path 13080" d="M27.469,58.2H15.963A1.177,1.177,0,0,0,14.8,59.22a1.111,1.111,0,0,0,1.092,1.238H27.469a1.085,1.085,0,0,0,.728-1.893,1.159,1.159,0,0,0-.728-.364Z" transform="translate(-13.91 -57.326)" fill="#09bbf7" stroke="#ff4b64" stroke-width="0"/>
        <path id="Path_13081" data-name="Path 13081" d="M27.14,61.005H15.561A1.833,1.833,0,0,1,14.1,60.35a1.967,1.967,0,0,1-.51-1.529A2.051,2.051,0,0,1,15.634,57H27.14a1.869,1.869,0,0,1,1.311.51,1.907,1.907,0,0,1,.583,2.185A2.117,2.117,0,0,1,27.14,61.005ZM15.634,58.821c-.146,0-.218.073-.291.218,0,.073,0,.146.073.146a.254.254,0,0,0,.146.073H27.14c.073,0,.146-.073.218-.146.073-.146,0-.218-.073-.218-.073-.073-.073-.073-.146-.073H15.634Z" transform="translate(-13.581 -57)" fill="#09bbf7" stroke="#ff4b64" stroke-width="0"/>
      </g>
      <g id="Group_2791" data-name="Group 2791" transform="translate(-0.04 5.204)">
        <path id="Path_13082" data-name="Path 13082" d="M60.6,8.473,23.093,8.4a6.574,6.574,0,0,0-6.554,6.554v5.608H7.654A6.574,6.574,0,0,0,1.1,27.116V50.348a6.512,6.512,0,0,0,6.554,6.481h6.7v11a1.1,1.1,0,0,0,.728,1.02.792.792,0,0,0,.364.073,1.169,1.169,0,0,0,.8-.364L26.953,56.9l18.279-.073a6.559,6.559,0,0,0,6.554-6.481V50.2L56.3,55.154a19.459,19.459,0,0,1-.364-3.714l-4.151-4.515v-5.1A15.918,15.918,0,0,1,49.6,42.992v7.283a4.3,4.3,0,0,1-4.3,4.3l-18.789.073a1.169,1.169,0,0,0-.8.364l-9.1,9.977V55.737a1.12,1.12,0,0,0-1.092-1.092H7.727a4.3,4.3,0,0,1-4.3-4.3V27.116a4.3,4.3,0,0,1,4.3-4.3h19.59A6.94,6.94,0,0,1,28.7,20.635H18.8V15.027a4.3,4.3,0,0,1,4.3-4.3L60.6,10.8a4.3,4.3,0,0,1,4.3,4.3V38.331c0,2.039-3.568,5.535-5.462,6.045.073,0,.218.073.291.073a104082.839,104082.839,0,0,0,1.02.583.569.569,0,0,1,.291.291c.073,0,.146.073.218.073a1.589,1.589,0,0,1,.364.291c1.893-1.165,5.389-5.025,5.389-7.428V15.027A6.359,6.359,0,0,0,60.6,8.473Z" transform="translate(-0.299 -7.526)" fill="#09bbf7" stroke="#ff4b64" stroke-width="0"/>
        <path id="Path_13083" data-name="Path 13083" d="M15.148,69.539a2.588,2.588,0,0,1-.728-.146,1.984,1.984,0,0,1-1.238-1.821V57.45H7.428A7.459,7.459,0,0,1,0,50.021V26.79a7.459,7.459,0,0,1,7.428-7.428h8.011V14.628A7.459,7.459,0,0,1,22.867,7.2l37.505.073A7.459,7.459,0,0,1,67.8,14.7V37.932c0,2.913-3.787,6.991-5.826,8.229l-.728.437-.51-.655-.073-.073c-.073,0-.073-.073-.146-.073l-.218-.146-.146-.146-.146-.146a1.592,1.592,0,0,0-.364-.218l-.146-.073L59.426,45c-.073-.073-.146-.073-.218-.146-.073,0-.146-.073-.218-.073l-3.641-.8,3.641-.947c1.821-.437,4.734-3.86,4.734-5.171V14.628A3.419,3.419,0,0,0,60.3,11.205l-37.505-.073a3.419,3.419,0,0,0-3.423,3.423v4.734H30.514l-1.457,1.529a5.7,5.7,0,0,0-1.238,1.893l-.218.583-20.246.073A3.419,3.419,0,0,0,3.933,26.79V50.021a3.419,3.419,0,0,0,3.423,3.423h7.792a1.958,1.958,0,0,1,1.966,1.966V62.4l7.5-8.3a1.833,1.833,0,0,1,1.457-.655l18.789-.073a3.419,3.419,0,0,0,3.423-3.423V42.011l.583-.218A13.911,13.911,0,0,0,50.905,40.7l1.384-.947v6.409l4.151,4.515v.364a20.636,20.636,0,0,0,.364,3.5l.655,3.2L52,51.769A7.492,7.492,0,0,1,44.861,57.3l-17.915.073L16.677,68.883a2.1,2.1,0,0,1-1.529.655ZM22.794,9.021a5.61,5.61,0,0,0-5.608,5.608v6.554H7.428A5.61,5.61,0,0,0,1.821,26.79V50.021a5.61,5.61,0,0,0,5.608,5.608H15V67.5c0,.073.073.146.146.218a.268.268,0,0,0,.218-.073L26.29,55.629l18.643-.073a5.61,5.61,0,0,0,5.608-5.608v-2.4l4.151,4.588v-.655L50.541,46.89V43.03l-.437.218v6.7a5.268,5.268,0,0,1-5.243,5.243l-18.789.073c-.073,0-.146,0-.146.073L15.366,66.99V55.411a.193.193,0,0,0-.218-.218H7.428a5.116,5.116,0,0,1-5.243-5.171V26.79a5.268,5.268,0,0,1,5.243-5.243l19.007-.073.218-.437h-9.03V14.483a5.268,5.268,0,0,1,5.243-5.243l37.505.073a5.268,5.268,0,0,1,5.243,5.243V38.661H65.47c-.51,1.821-2.549,3.933-4.3,5.171.073.073.218.146.291.218a.071.071,0,0,1,.073.073c1.821-1.384,4.442-4.588,4.442-6.336V14.7a5.61,5.61,0,0,0-5.608-5.608L22.794,9.021Z" transform="translate(0 -7.2)" fill="#09bbf7" stroke="#ff4b64" stroke-width="0"/>
      </g>
      <g id="Group_2792" data-name="Group 2792" transform="translate(1.49 19.259)" opacity="0.4">
        <path id="Path_13084" data-name="Path 13084" d="M47.142,46.881c-3.714,3.35-10.123.8-13.546-1.821a11.469,11.469,0,0,1-4.005-5.9,18.435,18.435,0,0,1-1.6-11.871c0-.146.073-.218.073-.291l-15.876.583L4.9,27.437,2.5,30.423l.364,27.455a49.86,49.86,0,0,0,4.3,3.059c.218-.073,8.448-.146,8.448-.146l.364,12.016L27.406,60.791l21.7-.874,1.675-2.476.874-10.851-4.515.291Z" transform="translate(-2.209 -26.636)" fill="#09bbf7" stroke="#ff4b64" stroke-width="0"/>
        <path id="Path_13085" data-name="Path 13085" d="M15.5,73.618l-.291-12.6c-3.132,0-7.574.073-8.011.146-.218.073-.583,0-4.661-3.132l-.146-.146L2.1,30.141l2.549-3.2,7.5.146L28.609,26.5l-.218.583c0,.073-.073.146-.073.218a18.313,18.313,0,0,0,1.529,11.652v.073a11.217,11.217,0,0,0,3.86,5.68c3.2,2.4,9.54,5.025,13.109,1.821l.073-.073,5.025-.364-.874,11.361-1.893,2.695-21.7.874L15.5,73.618Zm.437-13.4.218,11.506L27.079,60.218h.146l21.484-.874,1.529-2.185.8-10.268-3.86.291c-1.748,1.529-4.224,1.966-7.137,1.311a18.382,18.382,0,0,1-6.846-3.2,11.4,11.4,0,0,1-4.078-6.045,19.145,19.145,0,0,1-1.6-11.943l-15.366.583-7.137-.146L2.828,30.433,3.192,57.6A32.071,32.071,0,0,0,7.2,60.437c.655-.073,3.5-.146,8.448-.146l.291-.073Zm-8.812.218ZM7.2,60.437Z" transform="translate(-2.1 -26.5)" fill="#09bbf7" stroke="#ff4b64" stroke-width="0"/>
      </g>
    </g>
  </g>
</svg>
