<svg xmlns="http://www.w3.org/2000/svg" width="23.813" height="20.646" viewBox="0 0 23.813 20.646">
  <g id="Group_1111" data-name="Group 1111" transform="translate(0 0)">
    <path id="Path_6939" data-name="Path 6939" d="M5.915,8.347H27.081a1.323,1.323,0,1,0,0-2.646H5.915a1.323,1.323,0,1,0,0,2.646" transform="translate(-4.592 -5.701)" fill="#fff"/>
    <path id="Path_6940" data-name="Path 6940" d="M5.55,8.347H20.874c.529,0,.958-.593.958-1.323S21.4,5.7,20.874,5.7H5.55c-.529,0-.958.593-.958,1.323s.429,1.323.958,1.323" transform="translate(1.981 3.299)" fill="#fff"/>
    <path id="Path_6941" data-name="Path 6941" d="M5.749,8.347H24.268a1.249,1.249,0,0,0,1.157-1.323A1.249,1.249,0,0,0,24.268,5.7H5.749A1.249,1.249,0,0,0,4.592,7.024,1.249,1.249,0,0,0,5.749,8.347" transform="translate(-1.613 12.299)" fill="#fff"/>
  </g>
</svg>
