<svg xmlns="http://www.w3.org/2000/svg" xmlns:xlink="http://www.w3.org/1999/xlink" width="573.431" height="546.84" viewBox="0 0 573.431 546.84">
  <defs>
    <linearGradient id="linear-gradient" x1="15.287" y1="0.5" x2="16.287" y2="0.5" gradientUnits="objectBoundingBox">
      <stop offset="0" stop-color="#1c2b6b"/>
      <stop offset="0.232" stop-color="#18255e"/>
      <stop offset="0.654" stop-color="#10183e"/>
      <stop offset="1" stop-color="#080c1f"/>
    </linearGradient>
    <linearGradient id="linear-gradient-2" x1="24.938" y1="0.5" x2="25.938" y2="0.5" xlink:href="#linear-gradient"/>
    <linearGradient id="linear-gradient-3" x1="9.656" y1="0.484" x2="8.656" y2="0.506" gradientUnits="objectBoundingBox">
      <stop offset="0" stop-color="#ffac00"/>
      <stop offset="1" stop-color="#ff5e00"/>
    </linearGradient>
    <linearGradient id="linear-gradient-4" x1="9.083" y1="0.5" x2="8.083" y2="0.5" gradientUnits="objectBoundingBox">
      <stop offset="0" stop-color="#ffac00"/>
      <stop offset="0.826" stop-color="#ff5e00"/>
    </linearGradient>
    <linearGradient id="linear-gradient-5" x1="7.297" y1="0.5" x2="6.297" y2="0.5" xlink:href="#linear-gradient-4"/>
    <linearGradient id="linear-gradient-6" x1="-0.633" y1="-26.244" x2="-0.326" y2="-34.94" gradientUnits="objectBoundingBox">
      <stop offset="0" stop-color="#26d8ef"/>
      <stop offset="1" stop-color="#005aff"/>
    </linearGradient>
    <linearGradient id="linear-gradient-7" x1="-0.214" y1="4.669" x2="0.426" y2="5.061" xlink:href="#linear-gradient-6"/>
    <linearGradient id="linear-gradient-8" x1="0.091" y1="-0.133" x2="1.051" y2="1.327" gradientUnits="objectBoundingBox">
      <stop offset="0" stop-color="#1c2b6b"/>
      <stop offset="1" stop-color="#080c1f"/>
    </linearGradient>
    <linearGradient id="linear-gradient-9" x1="0.611" y1="0.147" x2="0.173" y2="2.04" xlink:href="#linear-gradient-8"/>
    <linearGradient id="linear-gradient-10" x1="0.672" y1="0.103" x2="-0.275" y2="1.662" xlink:href="#linear-gradient-8"/>
    <linearGradient id="linear-gradient-11" y1="0.5" x2="1" y2="0.5" gradientUnits="objectBoundingBox">
      <stop offset="0" stop-color="#1c2b6b"/>
      <stop offset="0.411" stop-color="#080c55"/>
      <stop offset="0.809" stop-color="#1c2b6b"/>
    </linearGradient>
    <linearGradient id="linear-gradient-12" x1="1.059" y1="0.5" x2="0.059" y2="0.5" xlink:href="#linear-gradient-4"/>
    <linearGradient id="linear-gradient-13" x1="0.006" y1="0.5" x2="1.006" y2="0.5" gradientUnits="objectBoundingBox">
      <stop offset="0" stop-color="#ffac00"/>
      <stop offset="0.841" stop-color="#ff5e00"/>
    </linearGradient>
    <linearGradient id="linear-gradient-14" x1="0.177" y1="0.681" x2="0.982" y2="0.234" gradientUnits="objectBoundingBox">
      <stop offset="0.213" stop-color="#f2dad4"/>
      <stop offset="0.909" stop-color="#f2c9a5"/>
    </linearGradient>
    <linearGradient id="linear-gradient-15" x1="-0.019" y1="0.968" x2="1.202" y2="0.064" gradientUnits="objectBoundingBox">
      <stop offset="0.002" stop-color="#26d8ef"/>
      <stop offset="1" stop-color="#005aff"/>
    </linearGradient>
    <linearGradient id="linear-gradient-16" x1="0.44" y1="-0.744" x2="1.062" y2="9.931" xlink:href="#linear-gradient-15"/>
    <linearGradient id="linear-gradient-17" x1="-0.022" y1="0.639" x2="1.206" y2="0.312" xlink:href="#linear-gradient-15"/>
    <linearGradient id="linear-gradient-18" x1="0.712" y1="-0.218" x2="-0.15" y2="2.698" xlink:href="#linear-gradient-15"/>
  </defs>
  <g id="Group_1465" data-name="Group 1465" transform="translate(-237.825 -274.972)">
    <g id="Group_1456" data-name="Group 1456">
      <rect id="Rectangle_346" data-name="Rectangle 346" width="203" height="159" rx="8" transform="translate(237.825 383.393)" fill="#f0f2f5"/>
      <path id="Path_7356" data-name="Path 7356" d="M308.325,403.393h-52a4.5,4.5,0,0,1-4.5-4.5h0a4.5,4.5,0,0,1,4.5-4.5h52a4.5,4.5,0,0,1,4.5,4.5h0A4.5,4.5,0,0,1,308.325,403.393Z" fill="#d3d6db"/>
      <rect id="Rectangle_347" data-name="Rectangle 347" width="178" height="115.404" rx="6" transform="translate(251.825 414.393)" fill="#fff"/>
      <g id="Group_1455" data-name="Group 1455">
        <g id="Group_1454" data-name="Group 1454">
          <path id="Path_7357" data-name="Path 7357" d="M370.086,488.265l9.423,4.242a45.052,45.052,0,0,0-1.839-44.1l-8.536,5.825a34.668,34.668,0,0,1,.952,34.036Z" fill="#f0f2f5"/>
          <path id="Path_7358" data-name="Path 7358" d="M363.041,497.482a34.755,34.755,0,1,1-23.716-60.152V427.02a45.075,45.075,0,1,0,30.522,78.235Z" fill="#f0f2f5"/>
        </g>
        <path id="Path_7359" data-name="Path 7359" d="M353.726,486.09a20.08,20.08,0,1,1,2.944-3.866l9.447,4.254a30.487,30.487,0,1,0-5.662,7.469Z" fill="#f0f2f5"/>
      </g>
    </g>
    <g id="Group_1457" data-name="Group 1457">
      <path id="Path_7360" data-name="Path 7360" d="M635.49,769.586s-5.573,6.265-7.032,8.307S626.342,783.8,627,784.6a35.748,35.748,0,0,1,2.991,5.836c.656,1.677,1.127,9.848,1.127,12.984v7.806s-.106,1.167,1.426,1.167a1.567,1.567,0,0,0,1.568-1.568s1.044-8.936,1.379-10.614a10.246,10.246,0,0,1,1.284-3.137s3.866,7.149,4.45,9.119,1.24,11.161,4.012,12.036,16.2.438,18.31,0,4.669-2.115,3.793-5.4-6.258-10.663-10.825-14.669S635.49,769.586,635.49,769.586Z" fill="url(#linear-gradient)"/>
      <path id="Path_7361" data-name="Path 7361" d="M563.291,764.754s-5.121,1.029-6.489,5.728a157.648,157.648,0,0,0-3.271,15.82,42.713,42.713,0,0,1-3.628,11.359,9.473,9.473,0,0,0,0,9.1c1.427,2.379,8.564,7.613,10.229,8.862s7.851,3.45,8.862,3.152,1.071-1.725,1.844-2.5,3.949-5.332,2.54-12.687S563.291,764.754,563.291,764.754Z" fill="url(#linear-gradient-2)"/>
      <path id="Path_7362" data-name="Path 7362" d="M639.2,657.154s-.074,17.051,0,22.561-1.861,12.583-2.457,16.157a84.34,84.34,0,0,0-1.34,22.04c.819,10.5,1.34,28,1.415,34.846a90.333,90.333,0,0,1-1.266,15.71c-.372,1.638.785,4.911,1.149,7.661s.566,9.584,1.213,11.444,3.841,15.123,6.227,16.983,5.742,1.213,7.2,1.658,5.742,1.294,7.319.324,1.7-1.982,1.213-2.629-3.477-3.518-3.356-5.742a35.019,35.019,0,0,0-.97-9.26c-.809-3.194-1.66-17.776-1.036-23.336s4.823-31.429,5.22-33.5,4.662-23.758,4.544-38.214,1.659-26.425,2.844-29.624,3.436-9.125,3.436-10.9S639.2,657.154,639.2,657.154Z" fill="#f2dad4"/>
      <path id="Path_7363" data-name="Path 7363" d="M599.7,655.721s-.947,17.127-1.421,19.652-6.906,12.779-11.533,17.715-13.37,24.6-15.139,38.343-2.978,23.168-4,26.018-5.157,8.007-5.36,9.364a20.327,20.327,0,0,1-2.511,8.956c-2.375,4.139-6.039,12.417-5.089,19.135s13.164,10.313,15.4,10.313,3.325-1.085,3.325-1.628.407-9.5,1.425-12.078,5.5-15.945,5.835-21.1,2.171-18.185,9.364-27.888,21.78-36.03,23.138-39.49,8.457-13.563,10.179-15.792,5.116-7.193,5.977-11.55,2.837-12.36,3.394-13.981a13.539,13.539,0,0,0,.71-4.508C633.3,656.541,599.7,655.721,599.7,655.721Z" fill="#f2dad4"/>
      <path id="Path_7364" data-name="Path 7364" d="M612.028,524.594s-.247,6.464-.653,7.1-9.77,14.586-12.549,40.453-2.779,81.447,0,84.439,53.626,1.924,67.429,0,14-7.909,14.116-9.619,2.253-26.508,4.177-36.555,6.423-40.609,4.8-56.392c-1.416-13.77-14.223-31.49-14.223-31.49Z" fill="#1c2b6b"/>
      <path id="Path_7365" data-name="Path 7365" d="M729.9,485.931s7.567-5.852,8.7-7.274,2.926-4.222,5.936-4.139a28.093,28.093,0,0,1,7.525,1.338c1.672.544,6.856.251,8.069.544s3.01,1.421,2.968,2.926-1.756,1.63-1.547,2.258,8.149.725,11.078,1.759,5.5,2.153,6.094,3.669c0,0,3.922.495,3.955,2.406s-1.318,1.615-1.516,1.944a4.273,4.273,0,0,1-2.7,1.549c-1.451.2-4.812.429-4.779.923a2.709,2.709,0,0,1-2.479,2.26c-1.609-.039-15.016-1.056-18.832-2.025s-7.632-2.847-9.51-1.878-5.512,5.27-6.845,5.694S729.9,485.931,729.9,485.931Z" fill="#f2dad4"/>
      <path id="Path_7366" data-name="Path 7366" d="M630.064,352.065c-4.487,1.148-12.208-1.577-21.165,13.1-7.424,12.161-9.142,43.381-13.547,55.739s-10.228,50.3-8.64,67.769,10.412,26.294,29.294,25.058,45.366-85.277,44.84-91.588.035-20.709,1.155-28.224.479-26.221-7.675-34.376S634.85,350.842,630.064,352.065Z" fill="#1c2b6b"/>
      <path id="Path_7367" data-name="Path 7367" d="M729.931,485.2c1.927-.427,5.1,9.843,6.26,11.145s2.531,4.121,2.025,4.844-14.458,10.315-18.334,13.416-25.861,17.312-30.72,19.5-15.791-8.26-17.734-11.175-5.932-37.148-3.6-44.958,3.608-29.55,3.608-29.55,4.517,3.2,7.415,10.4,5.591,21.5,7.145,28.234,3.315,22.69,5.284,22.068S724.379,486.432,729.931,485.2Z" fill="url(#linear-gradient-3)"/>
      <path id="Path_7368" data-name="Path 7368" d="M637.806,423.225c-3.3-2.024-14.472-8.623-14.472-6.6s-.225,5.4-5.324,5.1-16.347-1.8-19.871.675-4.975,38.744-2.281,47.656,9.741,31.089,11.814,39.379,1.658,15.545,5.8,15.545,60.726.552,61.649-2.449-3.232-20.317-1.385-33.014,4.618-35.092-2.308-41.1-13.569-8.174-13.058-11.24,4.215-9.963,1.533-11.879S637.806,423.225,637.806,423.225Z" fill="url(#linear-gradient-4)"/>
      <path id="Path_7369" data-name="Path 7369" d="M641.031,358.638c-3.888,3.114-8.21,12.009-7.044,18.154,3.247,17.12-10.045,21.291-8.2,27.574,2.265,7.706-1.355,11.879-1.355,11.879s8.959,3.821,13.372,6.98a40.525,40.525,0,0,1,1.286,4.921c.317,1.986,7.48,12,10.275,17.3s3.785,7.8,4.483,7.8,3.494-11.355,3.436-13.451-5.939-2.154-6.522-7.453.233-19.041,1.4-19.1,8.1-.461,8.622-4.19,2.057-15.265,2.9-17.662-.24-9.229-2.7-13.664-3.057-8.81-7.432-13.485S645.113,355.369,641.031,358.638Z" fill="#f2dad4"/>
      <path id="Path_7370" data-name="Path 7370" d="M686.806,525.021a17.434,17.434,0,0,1,9.844-.345c5.4,1.4,12.575,5.145,14.036,5.653s6.714,3.915,5.5,6.008-5.594-.114-6.279-.495-4.262-2.777-4.947-2.549,10.883,8.523,12.519,9.893a90.032,90.032,0,0,1,7.04,6.735c.456.723.533,1.979-.267,2.436s-3.082-.952-3.805-.952-9.627-.038-12.595-.989-14.307-5.175-16.1-6.545-9.474-7.115-11.149-7.915S686.806,525.021,686.806,525.021Z" fill="#f2dad4"/>
      <path id="Path_7371" data-name="Path 7371" d="M685.974,532.687c-1.464,2.263-6.257,7.028-9.557,6.387s-38.825-17.98-44.645-21.375-18.55-10.912-26.188-27.4-14.186-30.553-14.065-40.737-.7-24.98,6.62-27.16a15.658,15.658,0,0,1,19.084,9.458c3.031,8.123,12.106,46.381,15.665,53.854s29.119,23.919,33.687,26.458,20.684,11,21.211,12.333S687.336,530.582,685.974,532.687Z" fill="url(#linear-gradient-5)"/>
    </g>
    <g id="Group_1460" data-name="Group 1460">
      <path id="Path_7372" data-name="Path 7372" d="M442.448,771.832a3.471,3.471,0,0,1-.711-.074,3.434,3.434,0,0,1-2.651-4.067l12.994-61.637a3.432,3.432,0,1,1,6.717,1.416L445.8,769.107A3.432,3.432,0,0,1,442.448,771.832Z" fill="#1c2b6b"/>
      <path id="Path_7373" data-name="Path 7373" d="M525.634,696.686l-143.756-1.865v9.249c-.065,2.849,32.063,5.894,71.76,6.8s71.931-.668,72-3.517C525.646,706.8,525.634,696.686,525.634,696.686Z" fill="url(#linear-gradient-6)"/>
      <path id="Path_7374" data-name="Path 7374" d="M525.634,698.1c-.065,2.849-32.3,4.424-72,3.517s-71.825-3.952-71.76-6.8,32.3-4.424,72-3.517S525.7,695.256,525.634,698.1Z" fill="url(#linear-gradient-7)"/>
      <path id="Path_7375" data-name="Path 7375" d="M504.851,771.94s-3.149,6.528-3.894,7.731-1.2,5.784.63,7.387,28.682,15.451,28.682,15.451L544.746,781.7l-16.739-16.173Z" fill="url(#linear-gradient-8)"/>
      <path id="Path_7376" data-name="Path 7376" d="M534.39,782.592s-4.123,2.749-5.574,6.719-2.672,11.734-3.131,13.2-2.978,6.656-.687,8.183,11.3,4.735,17.792,5.117,14.967,1.069,20.617,2.825,15.578,4.505,24.054,2.443,13.587-3.282,13.541-7.563-5.725-4.98-9.029-5.585-12.333-4.747-14.055-6.1-9.261-8.377-9.54-9.587a18.945,18.945,0,0,0-4.515-6.376C562.421,784.892,534.39,782.592,534.39,782.592Z" fill="url(#linear-gradient-9)"/>
      <path id="Path_7377" data-name="Path 7377" d="M493.957,586.1a17.519,17.519,0,0,1,4.284,5.253c1.224,2.754,2.907,7.906,4.437,8.161s9.362-1.2,11.051-.743-11.517,15.893-11.517,15.893-9.981.384-12.131.307-12.362-4.76-16.047-8.138-3.455-15.74,3.609-19.579S493.957,586.1,493.957,586.1Z" fill="#f2dad4"/>
      <path id="Path_7378" data-name="Path 7378" d="M477.612,626.829s7.284,15.629,23.433,15.629c6.688,0,61.936,10.636,69.77,15.968s14.47,12.838,13.382,21.651-8.374,40.848-11.636,52.267-7.937,38.451-7.52,42.756,4.491,9.094,1.945,10.214-10.084,5.806-18.233,5.6-16.147-2.75-16.68-3.667-6.375-28.113-5.167-39.6,20.548-56.206,15.714-63.861-53.006-18.862-59.429-22.563c-10.626-6.123-22.18-21.066-21.185-28.7C462.66,627.51,477.612,626.829,477.612,626.829Z" fill="url(#linear-gradient-10)"/>
      <path id="Path_7379" data-name="Path 7379" d="M391.246,645.9s1.289,41.1,19.072,45.223,47.651,4.292,53.686,4.861,36.895,7.288,40.539,7.4,10.362.569,9.907,1.594-9.855,62.683-10.121,66.143,6.491,6.763,12.047,6.013,17.419-6.007,18.17-8.56-3.435-9.232-.466-13.638,10.132-18.98,12.537-29.172,11.451-22.446,9.848-34.7-7.787-19.239-23.705-23.7-42.909-10.8-45.452-12.275c-5.543-3.2-10.973-12.394-9.7-28.257C478.368,617.435,391.246,645.9,391.246,645.9Z" fill="url(#linear-gradient-11)"/>
      <path id="Path_7380" data-name="Path 7380" d="M323.585,570.722s5.89-17.947,6.834-21.059,3.112-11.168,2.5-13.613-.667-7.057-.945-8.279.486-4.252.418-4.927-.286-3.95.634-4.828,2.574-2.364,2.574-3.681a3.666,3.666,0,0,1,3.714-3.41c2.431.034,6.8.481,7.1,0a14.094,14.094,0,0,0,.826-6.37c-.3-2.946-1.54-9.107,1.071-9.408a3.43,3.43,0,0,1,3.817,2.511,22.585,22.585,0,0,1,.971,6.094c.033,2.143-.3,7.1-.134,7.835s.67,8.136-.469,11.517-4.453,8.538-4.855,9.208-.2,2.511-1.071,3.248-1,8.671-1,9.709-2.116,9.594,1.362,13.556,11.543,14.906,7.38,20.932-9.2,14.241-17.966,11.5-11.83-5.588-12.762-8S323.585,570.722,323.585,570.722Z" fill="#f2dad4"/>
      <path id="Path_7381" data-name="Path 7381" d="M456.414,524.652s11.577,16.075,17,30.863,19.43,26.772,20.311,28.2,2.1,3.6,1.421,3.546-7.242-2.149-11.937,1.867-10.67,13.891-11.168,16.214Z" fill="url(#linear-gradient-12)"/>
      <path id="Path_7382" data-name="Path 7382" d="M413.406,500.057s-3.844-.3-5.726,2.251-4.436,11.36-6.049,11.36-21.038,8.4-29.983,16.394-16.067,18.064-17.023,20.5-8.337,6.774-8.077,8.251,8.339,19.491-.007,25.076-17.24,2.07-19.737.893c-3.219-1.516-2.123-15.413-3.128-15.078s-3.239,9.047-2.569,15.3,3.463,16.977,16.643,17.2,31.05-19.1,33.061-18.988,9.554,12.806,11.084,18.16,8.694,34.866,5.818,41.083,37.384,2.616,47.86,0,45.189-13.3,45.189-16.582-6.162-17.46-5.751-24.649-3.287-40.876-6.573-52.995-11.645-25.181-14.5-25.287-7.2,1.377-9.005-4.979a22.376,22.376,0,0,0-5.3-9.64Z" fill="url(#linear-gradient-13)"/>
      <path id="Path_7383" data-name="Path 7383" d="M413.912,495.966s-4.314-20.644-1.888-31.827,10.941-18.94,24.444-18.834a24.7,24.7,0,0,1,22.569,15.1c2.32,6.024,0,13.079-3.126,24.83C452.409,498.4,413.912,495.966,413.912,495.966Z" fill="#1c2b6b"/>
      <path id="Path_7384" data-name="Path 7384" d="M414.247,490.218s-.249,9.219-1.4,12-2.255,5.035-1.941,5.717,13.008,13.479,14.371,14.738,4.773,4.091,4.826,5.612-1,4.563-.63,4.668,14.476.1,13.27-3.042-3.776-5.14-3.566-6.5a66.176,66.176,0,0,1,3.881-10.07C443.894,511.972,419.612,489.866,414.247,490.218Z" fill="url(#linear-gradient-14)"/>
      <path id="Path_7385" data-name="Path 7385" d="M446.429,463.259c8.045.862,11.637,4.885,11.493,7.758s-2.176,20.085-2.336,23.688-7.447,21.7-14.493,21.139-19.779-6.806-22.181-14.573-4.4-10.758-5.448-12.2-3.988-9.36-2.6-11.631,3.378-3.545,4.6-1.994,3.251,5.691,3.341,8.278c.053,1.542,5.575-19.625,11-20.467C435.116,462.435,446.429,463.259,446.429,463.259Z" fill="#f2dad4"/>
      <line id="Line_24" data-name="Line 24" x1="19.501" y2="92.504" transform="translate(377.825 702.974)" fill="none"/>
      <path id="Path_7386" data-name="Path 7386" d="M478.4,818.787a3.433,3.433,0,0,1-3.385-2.892L445.552,631.358a3.432,3.432,0,1,1,6.779-1.083L481.8,814.813a3.433,3.433,0,0,1-2.848,3.93A3.383,3.383,0,0,1,478.4,818.787Z" fill="#1c2b6b"/>
      <path id="Path_7387" data-name="Path 7387" d="M516.717,659.893A3.433,3.433,0,0,1,513.332,657l-4.095-25.643a3.432,3.432,0,1,1,6.779-1.083l4.1,25.643a3.434,3.434,0,0,1-2.849,3.931A3.484,3.484,0,0,1,516.717,659.893Z" fill="#1c2b6b"/>
      <path id="Path_7388" data-name="Path 7388" d="M377.828,798.912a3.438,3.438,0,0,1-3.362-4.141l19.5-92.505a3.432,3.432,0,1,1,6.717,1.416l-19.5,92.505A3.434,3.434,0,0,1,377.828,798.912Z" fill="#1c2b6b"/>
      <g id="Group_1458" data-name="Group 1458">
        <path id="Path_7389" data-name="Path 7389" d="M504.476,634.248c-.047,0-.1,0-.144,0l-95.075-3.987a3.432,3.432,0,1,1,.288-6.858l94.791,3.975,47.255-5.854a3.432,3.432,0,1,1,.845,6.812L504.9,634.222A3.334,3.334,0,0,1,504.476,634.248Z" fill="#1c2b6b"/>
        <path id="Path_7390" data-name="Path 7390" d="M409.545,623.4l109.246-4.729,32.8,2.85-20.824,7.52-40.719,1.775L411.8,626.829Z" fill="#1c2b6b"/>
      </g>
      <g id="Group_1459" data-name="Group 1459">
        <path id="Path_7391" data-name="Path 7391" d="M441.036,619.266l57.809-6.03,57.809-1.847-5.108,2.925-51.23,4.358Z" fill="url(#linear-gradient-15)"/>
        <path id="Path_7392" data-name="Path 7392" d="M441.631,618.671h58.686v4.13H443.759a2.723,2.723,0,0,1-2.723-2.723v-.812A.6.6,0,0,1,441.631,618.671Z" fill="url(#linear-gradient-16)"/>
        <path id="Path_7393" data-name="Path 7393" d="M500.317,622.8l52.026-5.666a2.307,2.307,0,0,0,2.057-2.294v-2.274l-54.083,5.117Z" fill="url(#linear-gradient-17)"/>
        <path id="Path_7394" data-name="Path 7394" d="M541.132,561.289l49.966-3.078a1.966,1.966,0,0,1,1.714,3.113L555.3,613.26a1.964,1.964,0,0,1-1.388.8L501.208,619.6a1.966,1.966,0,0,1-1.786-3.124l40.251-54.4A1.965,1.965,0,0,1,541.132,561.289Z" fill="url(#linear-gradient-18)"/>
      </g>
    </g>
    <g id="Group_1461" data-name="Group 1461">
      <rect id="Rectangle_348" data-name="Rectangle 348" width="88.238" height="69.112" rx="8" transform="translate(723.018 325.191)" fill="#f0f2f5"/>
    </g>
    <g id="Group_1462" data-name="Group 1462">
      <rect id="Rectangle_349" data-name="Rectangle 349" width="44.119" height="34.556" rx="8" transform="translate(431.696 274.972)" fill="#f0f2f5"/>
    </g>
    <g id="Group_1463" data-name="Group 1463">
      <rect id="Rectangle_350" data-name="Rectangle 350" width="28.105" height="22.013" rx="8" transform="translate(756.986 557.45)" fill="#f0f2f5"/>
    </g>
    <g id="Group_1464" data-name="Group 1464">
      <rect id="Rectangle_351" data-name="Rectangle 351" width="28.105" height="22.013" rx="8" transform="translate(506.101 415.508)" fill="#f0f2f5"/>
    </g>
  </g>
</svg>
