<svg xmlns="http://www.w3.org/2000/svg" xmlns:xlink="http://www.w3.org/1999/xlink" width="115.077" height="115.544" viewBox="0 0 115.077 115.544">
  <defs>
    <clipPath id="clip-path">
      <path id="Path_7434" data-name="Path 7434" d="M94.42,93.828c35.881-35.881,19.975-52.357,0-72.357s-36.451-35.881-72.357,0-19.975,52.357,0,72.357S58.54,129.709,94.42,93.828Z" transform="translate(-0.698 -0.108)"/>
    </clipPath>
  </defs>
  <g id="imggd" transform="translate(0 0.462)">
    <g id="Group_1488" data-name="Group 1488" transform="translate(0 0)">
      <g id="Group_1487" data-name="Group 1487">
        <g id="Group_1484" data-name="Group 1484" clip-path="url(#clip-path)">
          <path id="Path_7433" data-name="Path 7433" d="M71.651,124.1c52.729,0,53.151-23.8,53.151-53.151S124.381,17.8,71.651,17.8,18.5,41.6,18.5,70.951,18.9,124.1,71.651,124.1Z" transform="translate(-14.083 -13.41)" fill="#5897d1" fill-rule="evenodd"/>
        </g>
        <g id="Group_1486" data-name="Group 1486" transform="translate(0 -0.462)" clip-path="url(#clip-path)">
          <path id="Path_7435" data-name="Path 7435" d="M102.648,48.221A60.107,60.107,0,0,1,97.958,71.6c-20.645,49.255,16.9,23.995-31.166,41.538-6.476,2.357-17.394-4.392-24.69-4.392-3.945,0-13.921,7.171-17.643,6.452a60.438,60.438,0,0,1-23.126-9.8A61.114,61.114,0,0,1-19.089,80.826c-3.474-7.643.695-23.672.695-32.605a59.144,59.144,0,0,1,.62-8.685A60.545,60.545,0,0,1,42.127-12.3,60.426,60.426,0,0,1,85.6,6.112c1.29,1.34,2.531,2.73,3.7,4.194l1.117,1.414a60.058,60.058,0,0,1,11.911,30.074C102.524,43.9,102.648,46.037,102.648,48.221Z" transform="translate(15.218 9.221)" fill="#5897d1"/>
          <path id="Path_7436" data-name="Path 7436" d="M153.578,94.3a39.47,39.47,0,0,1-3.077,15.36,39.868,39.868,0,0,1-44.293,23.7A39.4,39.4,0,0,1,91,126.907a40.02,40.02,0,0,1-13.449-16.154A39.8,39.8,0,1,1,153.578,94.3Z" transform="translate(-55.811 -41.003)" fill="#9fc5e6"/>
          <path id="Path_7437" data-name="Path 7437" d="M90.611,280.006c-5.658,2.06-20.943,3.251-27.345,3.251-21.414,0-39.429-13.226-47.767-31.489l22.01-28.759a7.559,7.559,0,0,1,12.109,0L59.1,235.614Z" transform="translate(-11.827 -165.418)" fill="#343a6e"/>
          <path id="Path_7438" data-name="Path 7438" d="M178.046,216.122c-.471,1.117-1.042,2.481-1.563,3.573-6,11.96-18.933,21.166-31.638,25.806-5.658,2.06-15.211-3.846-21.588-3.846-3.449,0-12.159,6.278-15.434,5.633-5.186-.993-4.764-9.355-9.28-11.762-1.935-1.017-9.156,4.442-10.943,3.176l46.3-61.042a9.076,9.076,0,0,1,14.491,0Z" transform="translate(-66.036 -130.888)" fill="#484b7f"/>
          <g id="Group_1485" data-name="Group 1485" transform="translate(21.564 43.149)">
            <path id="Path_7439" data-name="Path 7439" d="M141.123,174c-1.39,0-2.779,1.216-3.7,3.623l-29.6,69.628A52.857,52.857,0,0,1,87.6,238.69l46.3-61.042A8.954,8.954,0,0,1,141.123,174Z" transform="translate(-87.6 -174)" fill="#343a6e"/>
            <path id="Path_7440" data-name="Path 7440" d="M209.64,317.625c-6,11.96-18.933,21.166-31.638,25.806-5.658,2.06-15.211-3.846-21.588-3.846-3.449,0-12.159,6.278-15.434,5.633-5.186-.993-4.764-9.355-9.28-11.762L158.821,304.3c-4.194,10.868,7.419,16.179,19.727,11.638C189.864,311.794,196.985,314.573,209.64,317.625Z" transform="translate(-120.757 -271.968)" fill="#343a6e"/>
          </g>
          <path id="Path_7441" data-name="Path 7441" d="M114.5,235.639c-6.3.223-12.531,3.945-16.5,3.945-6.154,0-13.424-5.459-5.087-16.576a7.559,7.559,0,0,1,12.109,0Z" transform="translate(-67.207 -165.418)" fill="#484b7f"/>
        </g>
      </g>
    </g>
    <path id="Path_7443" data-name="Path 7443" d="M329.268,34.005V45a2.605,2.605,0,0,1-2.605,2.605H308.3V31.4h18.362A2.605,2.605,0,0,1,329.268,34.005Z" transform="translate(-231.972 -23.635)" fill="#ff668c"/>
    <path id="Path_7444" data-name="Path 7444" d="M326.761,37.479a2.044,2.044,0,0,1-2.035,2.035H317.68a2.033,2.033,0,0,0-2.035,2.035,2.028,2.028,0,0,0,2.035,2.035h2.432a2.033,2.033,0,0,1,2.035,2.035,2.044,2.044,0,0,1-2.035,2.035H308.3V31.4h11.538a2.033,2.033,0,0,1,2.035,2.035,2.044,2.044,0,0,0,2.035,2.035h.844A1.986,1.986,0,0,1,326.761,37.479Z" transform="translate(-231.972 -23.635)" fill="#ef487d"/>
    <path id="Path_7445" data-name="Path 7445" d="M297.887,20h0a1.779,1.779,0,0,0-1.787,1.787V66.576h3.573V21.762A1.774,1.774,0,0,0,297.887,20Z" transform="translate(-222.799 -15.064)" fill="#f9df73"/>
  </g>
</svg>
