<svg xmlns="http://www.w3.org/2000/svg" width="107.279" height="107.279" viewBox="0 0 107.279 107.279">
  <g id="imggf3" transform="translate(0 0.001)">
    <path id="Path_7549" data-name="Path 7549" d="M107.279,53.639A53.6,53.6,0,0,1,69.9,104.765a52.566,52.566,0,0,1-7.733,1.837.166.166,0,0,1-.035,0q-1.95.312-3.94.48-.425.036-.852.065c-.4.026-.8.05-1.209.068q-1.241.059-2.5.059-1.288,0-2.557-.061-.575-.026-1.15-.068c-.286-.02-.571-.039-.856-.063q-2.039-.171-4.034-.5c-.635-.1-1.268-.214-1.894-.34a52.981,52.981,0,0,1-7.908-2.213q-2.217-.808-4.34-1.8-.722-.339-1.436-.7-1.832-.926-3.579-1.988a53.641,53.641,0,1,1,81.394-45.9Zm0,0" transform="translate(0 0)" fill="#ffe152"/>
    <path id="Path_7550" data-name="Path 7550" d="M60.511,277.37v36.643A52.985,52.985,0,0,1,52.6,311.8q-2.217-.808-4.34-1.8-.722-.339-1.436-.7-1.832-.926-3.579-1.988a53.8,53.8,0,0,1-21.283-24.138v-5.8a14.539,14.539,0,0,1,10.769-14.043c.228-.061.455-.119.688-.166a14.039,14.039,0,0,1,1.891-.281c.392-.03.788-.048,1.188-.048h9.469a14.455,14.455,0,0,1,3.083.329c.056.011.114.024.17.037.167.038.336.079.5.123l.013,0A14.553,14.553,0,0,1,60.511,277.37Zm0,0" transform="translate(-17.363 -207.762)" fill="#2ba1cf"/>
    <path id="Path_7551" data-name="Path 7551" d="M84.049,277.37v36.643a52.978,52.978,0,0,1-7.908-2.213q-2.217-.808-4.34-1.8-.722-.339-1.436-.7-1.832-.926-3.579-1.988a53.922,53.922,0,0,1-15.044-13.567V277.37a14.539,14.539,0,0,1,10.769-14.043c.228-.061.456-.119.688-.166a14.077,14.077,0,0,1,1.892-.281c.392-.03.788-.048,1.189-.048h3.229a14.451,14.451,0,0,1,3.083.329c.056.011.114.024.17.037.167.038.336.079.5.123l.013,0A14.553,14.553,0,0,1,84.049,277.37Zm0,0" transform="translate(-40.901 -207.762)" fill="#66baed"/>
    <path id="Path_7552" data-name="Path 7552" d="M90.275,264.4l-.034.165-4.349,20.229a4.231,4.231,0,0,1-4.115,3.355H81.7a4.23,4.23,0,0,1-4.115-3.355l-4.349-20.227L73.2,264.4Zm0,0" transform="translate(-57.865 -208.999)" fill="#f2f0ec"/>
    <path id="Path_7553" data-name="Path 7553" d="M81.739,260.987l-6.545,3.637L73.2,255.363l4.067-2.395" transform="translate(-57.865 -199.965)" fill="#d8d5d0"/>
    <path id="Path_7554" data-name="Path 7554" d="M113.941,260.987l6.545,3.637,1.991-9.261-4.067-2.395" transform="translate(-90.067 -199.965)" fill="#d8d5d0"/>
    <path id="Path_7555" data-name="Path 7555" d="M20.676,89.66V67.735a19.544,19.544,0,1,1,39.087,0V89.66" transform="translate(-16.344 -38.094)" fill="#cc7a3b"/>
    <path id="Path_7556" data-name="Path 7556" d="M28.712,68.6c0,7.755,4.542,16.727,7.036,21.069H20.672V67.742A19.531,19.531,0,0,1,40.073,48.2c-6.008.15-11.361,9.79-11.361,20.4Zm0,0" transform="translate(-16.341 -38.101)" fill="#a35418"/>
    <path id="Path_7557" data-name="Path 7557" d="M99.569,236.1v6.366a5.187,5.187,0,0,1-10.373,0V236.1Zm0,0" transform="translate(-70.506 -186.634)" fill="#eab599"/>
    <path id="Path_7558" data-name="Path 7558" d="M111.3,264.563v.4a5.186,5.186,0,0,1-3.653,4.954,5.185,5.185,0,0,1-3.61-4.279q.519.032,1.044.032a17.917,17.917,0,0,0,6.219-1.111Zm0,0" transform="translate(-82.24 -209.13)" fill="#f6caae"/>
    <path id="Path_7559" data-name="Path 7559" d="M9.647,168.12A4.824,4.824,0,1,1,5.6,163.359a4.824,4.824,0,0,1,4.051,4.761Zm0,0" transform="translate(0 -129.082)" fill="#f6caae"/>
    <path id="Path_7560" data-name="Path 7560" d="M28.344,168.354a4.824,4.824,0,0,1-4.051,4.762,18.031,18.031,0,0,1,0-9.523A4.823,4.823,0,0,1,28.344,168.354Zm0,0" transform="translate(-18.697 -129.316)" fill="#eab599"/>
    <path id="Path_7561" data-name="Path 7561" d="M18.241,179.813a1.724,1.724,0,1,1-1.725-1.724A1.724,1.724,0,0,1,18.241,179.813Zm0,0" transform="translate(-11.694 -140.775)" fill="#eab599"/>
    <path id="Path_7562" data-name="Path 7562" d="M58.629,115.617V132.2a17.878,17.878,0,0,1-9.5,4.73l-.088.015a17.72,17.72,0,0,1-2.793.217A17.946,17.946,0,0,1,28.3,119.213v-6.834a18.085,18.085,0,0,1,.183-2.577,11.373,11.373,0,0,0,14.293-.919,10.164,10.164,0,0,0,2.7-4.214,11.843,11.843,0,0,0,3.7,7.393,13.245,13.245,0,0,0,9.454,3.555Zm0,0" transform="translate(-22.368 -82.738)" fill="#eab599"/>
    <path id="Path_7563" data-name="Path 7563" d="M79.712,115.617V132.2a17.878,17.878,0,0,1-9.5,4.73l-.088.015a17.949,17.949,0,0,1-15.15-17.729v-6.834q0-.273.01-.543a11.246,11.246,0,0,0,8.878-2.955,10.162,10.162,0,0,0,2.7-4.214,11.843,11.843,0,0,0,3.7,7.393A13.245,13.245,0,0,0,79.712,115.617Zm0,0" transform="translate(-43.452 -82.737)" fill="#f6caae"/>
    <path id="Path_7564" data-name="Path 7564" d="M137.458,155.606a2.981,2.981,0,1,0-5.962,0" transform="translate(-103.944 -120.646)" fill="#eab599"/>
    <path id="Path_7565" data-name="Path 7565" d="M73.922,155.606a2.98,2.98,0,1,0-5.961,0" transform="translate(-53.721 -120.646)" fill="#eab599"/>
    <path id="Path_7566" data-name="Path 7566" d="M76.541,165.227a2.036,2.036,0,1,1-2.036-2.036A2.036,2.036,0,0,1,76.541,165.227Zm0,0" transform="translate(-57.285 -128.998)" fill="#3d4159"/>
    <path id="Path_7567" data-name="Path 7567" d="M140.079,165.227a2.036,2.036,0,1,1-2.036-2.036A2.036,2.036,0,0,1,140.079,165.227Zm0,0" transform="translate(-107.511 -128.998)" fill="#3d4159"/>
    <path id="Path_7568" data-name="Path 7568" d="M105,190.745h-4.072a.878.878,0,0,1,0-1.756H105a.878.878,0,0,1,0,1.756Zm0,0" transform="translate(-79.084 -149.39)" fill="#eab599"/>
    <path id="Path_7569" data-name="Path 7569" d="M95.885,213.976a9.064,9.064,0,0,1-4.376-1.13.8.8,0,1,1,.769-1.4,7.448,7.448,0,0,0,7.212,0,.8.8,0,1,1,.769,1.4,9.065,9.065,0,0,1-4.376,1.13Zm0,0" transform="translate(-72.008 -167.065)" fill="#eab599"/>
    <path id="Path_7570" data-name="Path 7570" d="M83.339,167.9a.873.873,0,1,1-.873-.872A.873.873,0,0,1,83.339,167.9Zm0,0" transform="translate(-64.498 -132.03)" fill="#fff"/>
    <path id="Path_7571" data-name="Path 7571" d="M147.354,167.9a.872.872,0,1,1-.872-.872A.872.872,0,0,1,147.354,167.9Zm0,0" transform="translate(-115.1 -132.03)" fill="#fff"/>
    <path id="Path_7572" data-name="Path 7572" d="M155.381,188.138a2.236,2.236,0,1,1-2.236-2.236A2.236,2.236,0,0,1,155.381,188.138Zm0,0" transform="translate(-119.29 -146.951)" fill="#eab599"/>
    <path id="Path_7573" data-name="Path 7573" d="M60.123,188.138a2.235,2.235,0,1,1-2.235-2.236A2.235,2.235,0,0,1,60.123,188.138Zm0,0" transform="translate(-43.992 -146.951)" fill="#eab599"/>
    <path id="Path_7574" data-name="Path 7574" d="M336.879,272.734v6.715A53.852,53.852,0,0,1,310.79,305.8a53.531,53.531,0,0,1-14.2,4.365.163.163,0,0,1-.035,0v-37.44a15.207,15.207,0,0,1,13.966-15.157c.412-.035.825-.05,1.243-.05h9.905a15.186,15.186,0,0,1,15.214,15.207Zm0,0" transform="translate(-234.414 -203.567)" fill="#bfd5de"/>
    <path id="Path_7575" data-name="Path 7575" d="M366.185,272.734v6.715A53.852,53.852,0,0,1,340.1,305.8a53.083,53.083,0,0,1-6.472,2.528v-35.6a15.21,15.21,0,0,1,15.212-15.207h2.136a15.209,15.209,0,0,1,15.212,15.207Zm0,0" transform="translate(-263.72 -203.568)" fill="#dde8ed"/>
    <path id="Path_7576" data-name="Path 7576" d="M283.656,158.426a5.043,5.043,0,1,1-4.238-4.982A5.046,5.046,0,0,1,283.656,158.426Zm0,0" transform="translate(-216.243 -121.242)" fill="#d3a489"/>
    <path id="Path_7577" data-name="Path 7577" d="M381.463,283.711l-4.083,6.549-4.083-6.549" transform="translate(-295.08 -224.266)" fill="#f74f4f"/>
    <path id="Path_7578" data-name="Path 7578" d="M377.551,327.041l-5.494,6.932-5.494-6.932,5.5-20.2Zm0,0" transform="translate(-289.757 -242.546)" fill="#f74f4f"/>
    <path id="Path_7579" data-name="Path 7579" d="M303.22,158.67a5.046,5.046,0,0,1-4.238,4.982,18.871,18.871,0,0,1,0-9.964A5.048,5.048,0,0,1,303.22,158.67Zm0,0" transform="translate(-235.807 -121.486)" fill="#bf8e75"/>
    <path id="Path_7580" data-name="Path 7580" d="M292.65,170.663a1.8,1.8,0,1,1-1.8-1.8A1.8,1.8,0,0,1,292.65,170.663Zm0,0" transform="translate(-228.48 -133.479)" fill="#bf8e75"/>
    <path id="Path_7581" data-name="Path 7581" d="M359.086,255.585l-6.847,3.806-2.083-9.69,4.254-2.506" transform="translate(-276.788 -195.401)" fill="#bfd5de"/>
    <path id="Path_7582" data-name="Path 7582" d="M392.777,255.585l6.848,3.806,2.083-9.69-4.255-2.506" transform="translate(-310.479 -195.401)" fill="#bfd5de"/>
    <path id="Path_7583" data-name="Path 7583" d="M463.828,158.426a5.043,5.043,0,1,0,4.238-4.982A5.047,5.047,0,0,0,463.828,158.426Zm0,0" transform="translate(-366.642 -121.242)" fill="#d3a489"/>
    <g id="Group_1565" data-name="Group 1565" transform="translate(63.522 15.693)">
      <path id="Path_7584" data-name="Path 7584" d="M463.828,158.67a5.047,5.047,0,0,0,4.238,4.982,18.87,18.87,0,0,0,0-9.964A5.048,5.048,0,0,0,463.828,158.67Zm0,0" transform="translate(-430.165 -137.179)" fill="#bf8e75"/>
      <path id="Path_7585" data-name="Path 7585" d="M482.912,170.663a1.8,1.8,0,1,1-1.8-1.8A1.8,1.8,0,0,1,482.912,170.663Zm0,0" transform="translate(-442.398 -149.172)" fill="#bf8e75"/>
      <path id="Path_7586" data-name="Path 7586" d="M340.722,93.708a18.778,18.778,0,0,1-15.764,18.534,18.546,18.546,0,0,1-3.014.242,18.776,18.776,0,0,1-18.777-18.777c0-4.907,1.7-12.273,4.786-15.618,3.431-3.725,8.527-3.159,13.991-3.159a18.555,18.555,0,0,1,3.014.243,18.778,18.778,0,0,1,15.764,18.534Zm0,0" transform="translate(-303.168 -74.9)" fill="#bf8e75"/>
      <path id="Path_7587" data-name="Path 7587" d="M377.737,229.559v6.66a5.427,5.427,0,0,1-10.854,0v-6.66Zm0,0" transform="translate(-353.533 -197.153)" fill="#bf8e75"/>
    </g>
    <path id="Path_7588" data-name="Path 7588" d="M390.014,259.328v.422a3.924,3.924,0,1,1-7.6.706q.544.033,1.094.034a18.662,18.662,0,0,0,3.014-.242A18.459,18.459,0,0,0,390.014,259.328Zm0,0" transform="translate(-302.288 -204.992)" fill="#d3a489"/>
    <path id="Path_7589" data-name="Path 7589" d="M363.46,94.738A18.778,18.778,0,0,1,347.7,113.273a18.779,18.779,0,0,1,0-37.07,18.783,18.783,0,0,1,15.671,16.663q.092.924.092,1.873Zm0,0" transform="translate(-262.384 -60.237)" fill="#d3a489"/>
    <path id="Path_7590" data-name="Path 7590" d="M373.879,198.43a9.484,9.484,0,0,1-4.578-1.182.835.835,0,1,1,.8-1.463,7.8,7.8,0,0,0,7.546,0,.835.835,0,0,1,.8,1.463A9.489,9.489,0,0,1,373.879,198.43Zm0,0" transform="translate(-291.579 -154.68)" fill="#bf8e75"/>
    <path id="Path_7591" data-name="Path 7591" d="M357.627,151.412a2.13,2.13,0,1,1-2.131-2.131A2.13,2.13,0,0,1,357.627,151.412Zm0,0" transform="translate(-279.326 -118.003)" fill="#3d4159"/>
    <path id="Path_7592" data-name="Path 7592" d="M416.127,151.412a2.13,2.13,0,1,1-2.13-2.131A2.13,2.13,0,0,1,416.127,151.412Zm0,0" transform="translate(-325.569 -118.003)" fill="#3d4159"/>
    <path id="Path_7593" data-name="Path 7593" d="M364.739,154.209a.913.913,0,1,1-.913-.913A.913.913,0,0,1,364.739,154.209Zm0,0" transform="translate(-286.873 -121.177)" fill="#fff"/>
    <path id="Path_7594" data-name="Path 7594" d="M423.739,154.209a.913.913,0,1,1-.913-.913A.913.913,0,0,1,423.739,154.209Zm0,0" transform="translate(-333.511 -121.177)" fill="#fff"/>
    <path id="Path_7595" data-name="Path 7595" d="M383.41,178.111h-4.26a.919.919,0,1,1,0-1.837h4.26a.919.919,0,1,1,0,1.837Zm0,0" transform="translate(-298.98 -139.339)" fill="#bf8e75"/>
    <path id="Path_7596" data-name="Path 7596" d="M422.289,327.727h8.186v2.505h-8.186Zm0,0" transform="translate(-333.807 -259.059)" fill="#bfd5de"/>
    <path id="Path_7597" data-name="Path 7597" d="M387.539,49.338a11.38,11.38,0,0,1,10.544,10.785l.054,1.086h3.272l1.762,11.719,4.268-1.321-.573-11.483a11.381,11.381,0,0,0-11.409-10.815Zm0,0" transform="translate(-306.338 -38.977)" fill="#2a2f4f"/>
    <path id="Path_7598" data-name="Path 7598" d="M416.177,27.816a11.6,11.6,0,1,1-16.4,16.4Zm0,0" transform="translate(-316.01 -21.989)" fill="#3d4159"/>
    <path id="Path_7599" data-name="Path 7599" d="M323.317,61.205H309.082l-1.763,11.72L303.05,71.6l.572-11.484A11.382,11.382,0,0,1,315.033,49.3l20.559.078,2.718,4.892" transform="translate(-239.553 -38.974)" fill="#3d4159"/>
    <path id="Path_7600" data-name="Path 7600" d="M322.948,49.338A11.38,11.38,0,0,0,312.4,60.123l-.054,1.086h-3.272l-1.763,11.719-4.268-1.321.573-11.483a11.381,11.381,0,0,1,11.41-10.815Zm0,0" transform="translate(-239.55 -38.977)" fill="#2a2f4f"/>
    <path id="Path_7601" data-name="Path 7601" d="M192.952,404.035v4.022a53.78,53.78,0,0,1-45.475,0v-4.02a17.155,17.155,0,0,1,12.707-16.569c.268-.072.537-.138.81-.2a16.962,16.962,0,0,1,2.231-.328c.464-.038.931-.057,1.4-.057H175.8a17.193,17.193,0,0,1,3.639.386c.068.013.136.029.2.044.2.046.394.094.588.147l.016,0a17.169,17.169,0,0,1,12.709,16.572Zm0,0" transform="translate(-116.576 -305.82)" fill="#3d4159"/>
    <path id="Path_7602" data-name="Path 7602" d="M228.068,388.723l-.042.195-5.471,25.443q-.425.036-.852.065c-.4.026-.8.05-1.209.068q-1.241.059-2.5.059-1.288,0-2.557-.061-.575-.026-1.15-.068c-.286-.02-.571-.039-.856-.063l-5.469-25.441-.041-.2Zm0,0" transform="translate(-164.36 -307.275)" fill="#66baed"/>
    <path id="Path_7603" data-name="Path 7603" d="M243.228,416.422l-4.6,7.384-4.6-7.384" transform="translate(-184.986 -329.17)" fill="#3d4159"/>
    <path id="Path_7604" data-name="Path 7604" d="M245.72,456.93c-.4.026-.8.05-1.209.068q-1.241.059-2.5.059-1.288,0-2.557-.061-.575-.026-1.15-.068l3.707-14.435Zm0,0" transform="translate(-188.376 -349.778)" fill="#3d4159"/>
    <path id="Path_7605" data-name="Path 7605" d="M217.993,384.7l-7.722,4.291-2.349-10.926,4.8-2.826" transform="translate(-164.356 -296.619)" fill="#2ba1cf"/>
    <path id="Path_7606" data-name="Path 7606" d="M255.988,384.7l7.722,4.291,2.349-10.926-4.8-2.826" transform="translate(-202.351 -296.619)" fill="#2ba1cf"/>
    <path id="Path_7607" data-name="Path 7607" d="M275.775,403.469h2.45l-4.278,10.408a53.33,53.33,0,0,1-6.036.618l7.516-25.581.057-.191,5.283,1.725Zm0,0" transform="translate(-211.775 -307.275)" fill="#2a2f4f"/>
    <path id="Path_7608" data-name="Path 7608" d="M195.288,414.492a53.129,53.129,0,0,1-6.04-.626l-4.274-10.4h2.45l-4.993-13.02,5.285-1.725.057.191Zm0,0" transform="translate(-144.206 -307.274)" fill="#2a2f4f"/>
    <path id="Path_7609" data-name="Path 7609" d="M239.024,355.352v7.51a6.12,6.12,0,0,1-12.239,0v-7.51Zm0,0" transform="translate(-179.267 -280.896)" fill="#eab599"/>
    <path id="Path_7610" data-name="Path 7610" d="M252.867,388.922v.476a6.12,6.12,0,0,1-4.31,5.846,6.118,6.118,0,0,1-4.26-5.049q.614.038,1.233.038a21.1,21.1,0,0,0,7.338-1.31Zm0,0" transform="translate(-193.11 -307.432)" fill="#f6caae"/>
    <path id="Path_7611" data-name="Path 7611" d="M132.933,275.137a5.692,5.692,0,0,1-4.78,5.618,5.752,5.752,0,0,1-.911.073,5.691,5.691,0,1,1,5.691-5.691Zm0,0" transform="translate(-96.082 -212.989)" fill="#f6caae"/>
    <path id="Path_7612" data-name="Path 7612" d="M155,275.415a5.692,5.692,0,0,1-4.78,5.618,21.289,21.289,0,0,1,0-11.236A5.692,5.692,0,0,1,155,275.415Zm0,0" transform="translate(-118.145 -213.267)" fill="#eab599"/>
    <path id="Path_7613" data-name="Path 7613" d="M143.076,288.936a2.034,2.034,0,1,1-2.034-2.034A2.034,2.034,0,0,1,143.076,288.936Zm0,0" transform="translate(-109.882 -226.788)" fill="#eab599"/>
    <path id="Path_7614" data-name="Path 7614" d="M336.105,275.137a5.693,5.693,0,1,0,4.78-5.618A5.692,5.692,0,0,0,336.105,275.137Zm0,0" transform="translate(-265.681 -212.989)" fill="#f6caae"/>
    <path id="Path_7615" data-name="Path 7615" d="M336.105,275.415a5.692,5.692,0,0,0,4.78,5.618,21.289,21.289,0,0,0,0-11.236A5.692,5.692,0,0,0,336.105,275.415Zm0,0" transform="translate(-265.681 -213.267)" fill="#eab599"/>
    <path id="Path_7616" data-name="Path 7616" d="M197.289,163.811v8.063a21.174,21.174,0,0,1-17.776,20.9l-.1.017a20.8,20.8,0,0,1-3.3.256,21.172,21.172,0,0,1-21.172-21.172v-8.064a21.161,21.161,0,0,1,21.172-21.175h0a21.159,21.159,0,0,1,21.173,21.175Zm0,0" transform="translate(-122.477 -112.75)" fill="#eab599"/>
    <path id="Path_7617" data-name="Path 7617" d="M357.627,288.936a2.034,2.034,0,1,1-2.034-2.034A2.034,2.034,0,0,1,357.627,288.936Zm0,0" transform="translate(-279.478 -226.788)" fill="#eab599"/>
    <path id="Path_7618" data-name="Path 7618" d="M222.16,164.778v8.063a21.174,21.174,0,0,1-17.776,20.9l-.1.017a21.177,21.177,0,0,1-17.874-20.917v-8.063a21.178,21.178,0,0,1,17.878-20.919A21.177,21.177,0,0,1,222.16,164.778Zm0,0" transform="translate(-147.349 -113.717)" fill="#f6caae"/>
    <path id="Path_7619" data-name="Path 7619" d="M216.347,267.23a2.4,2.4,0,1,1-2.4-2.4A2.4,2.4,0,0,1,216.347,267.23Zm0,0" transform="translate(-167.219 -209.339)" fill="#3d4159"/>
    <path id="Path_7620" data-name="Path 7620" d="M282.316,267.23a2.4,2.4,0,1,1-2.4-2.4A2.4,2.4,0,0,1,282.316,267.23Zm0,0" transform="translate(-219.365 -209.339)" fill="#3d4159"/>
    <path id="Path_7621" data-name="Path 7621" d="M224.367,270.386a1.029,1.029,0,1,1-1.03-1.03A1.029,1.029,0,0,1,224.367,270.386Zm0,0" transform="translate(-175.729 -212.918)" fill="#fff"/>
    <path id="Path_7622" data-name="Path 7622" d="M290.9,270.386a1.029,1.029,0,1,1-1.029-1.03A1.029,1.029,0,0,1,290.9,270.386Zm0,0" transform="translate(-228.319 -212.918)" fill="#fff"/>
    <path id="Path_7623" data-name="Path 7623" d="M245.423,292.842h-4.8a1.036,1.036,0,0,1,0-2.072h4.8a1.036,1.036,0,0,1,0,2.072Zm0,0" transform="translate(-189.383 -229.845)" fill="#eab599"/>
    <path id="Path_7624" data-name="Path 7624" d="M234.674,320.247a10.7,10.7,0,0,1-5.162-1.333.942.942,0,0,1,.908-1.651,8.786,8.786,0,0,0,8.509,0,.942.942,0,0,1,.908,1.651A10.7,10.7,0,0,1,234.674,320.247Zm0,0" transform="translate(-181.037 -250.695)" fill="#eab599"/>
    <path id="Path_7625" data-name="Path 7625" d="M197.285,144.458v8.259h-3.941v-6.468L164.9,140.963l-6.019-1.119v12.873h-3.941v-8.26a17.046,17.046,0,0,1,17.046-17.047h8.257c.224,0,.449,0,.673.016a17.043,17.043,0,0,1,16.373,17.032Zm0,0" transform="translate(-122.473 -100.714)" fill="#2a2f4f"/>
    <path id="Path_7626" data-name="Path 7626" d="M234.86,144.516v8.259h-3.941v-6.468l-28.447-5.286a16.321,16.321,0,0,1,32.388,3.495Zm0,0" transform="translate(-160.049 -100.773)" fill="#3d4159"/>
  </g>
</svg>
