<svg xmlns="http://www.w3.org/2000/svg" width="506.766" height="519.46" viewBox="0 0 506.766 519.46">
  <g id="imgheaderf" transform="translate(-204.234 -202.421)">
    <g id="Group_498" data-name="Group 498" transform="translate(236.25 202.421)">
      <ellipse id="Ellipse_27" data-name="Ellipse 27" cx="225.669" cy="225.669" rx="225.669" ry="225.669" transform="translate(0 0)" fill="#fff"/>
      <path id="Path_2108" data-name="Path 2108" d="M49.509,0A49.509,49.509,0,1,0,99.018,49.509,49.509,49.509,0,0,0,49.509,0Z" transform="translate(335.049 19.573)" fill="#fccf03"/>
    </g>
    <g id="Group_637" data-name="Group 637" transform="translate(204.234 315.871)">
      <g id="Group_561" data-name="Group 561" transform="translate(20.919 7.715)">
        <g id="Group_560" data-name="Group 560">
          <g id="Group_558" data-name="Group 558" transform="translate(33.532 98.355)">
            <path id="Path_1958" data-name="Path 1958" d="M350.236,71.464c.111-1.945,3.149-1.957,3.039,0-.354,6.276-.629,13,3.563,18.167a50.374,50.374,0,0,0,11.311,9.911,46.355,46.355,0,0,1-2.031-19.652c.221-1.92,3.262-1.942,3.037,0a43.852,43.852,0,0,0,3.389,22.525c.027.035.033.076.055.111a43.313,43.313,0,0,0,13.015,16.82c.492.383.984.756,1.477,1.131-.164-2.977-.361-5.76,1.576-8.389,2.174-2.955,4.547-5.571,6.317-8.825,3.571-6.567,6.432-15.5,3.561-22.791-.717-1.82,2.219-2.608,2.93-.807,2.764,7.02.613,15.323-2.307,21.953a43.312,43.312,0,0,1-5.69,9.395c-1.211,1.535-2.9,2.967-3.373,4.93s.041,4.153.094,6.145a1.477,1.477,0,0,1-.127.66c4.239,3.248,8.243,6.588,11.079,11.388a45.778,45.778,0,0,1,3.92,8.278c3.625-12.907,6.663-22.357,8.7-38.28,1.02-7.977,1.4-14.544,1.561-18.732l12.712-3.959a127.966,127.966,0,0,1-2.453,42.538,126.656,126.656,0,0,1-7.471,22.523,67.719,67.719,0,0,1,17.5-12.71,79.7,79.7,0,0,1,9.065-3.78c.256-.629.479-1.238.639-1.682a28.845,28.845,0,0,0,1.221-4.758,63.816,63.816,0,0,0,.766-9.784,43.6,43.6,0,0,0-1-11.182,88.632,88.632,0,0,0-3.59-10.772c-.7-1.828,2.24-2.621,2.93-.807,1.776,4.668,3.559,9.378,4.28,14.345a63.514,63.514,0,0,1,.1,14.722,38.456,38.456,0,0,1-1.651,8.579c4.786-1.748,8.651-3.514,11.772-7.817a19.6,19.6,0,0,0,4.014-10.925c.225-10.048-9.028-17.484-7.137-19.626.914-1.035,3.92-.246,6.02,1.117,7.733,5.012,6.217,19.738,6.022,21.63-2.676,26-44.548,24.463-61.27,59.207-4.592,9.544-3.967,25.805-4.516,58.315-.1,5.862-.176,19.419,7.137,23.414,3.756,2.053,8.475,1.047,13.6,5.131a19.007,19.007,0,0,1,5.129,6.467H385.225l-12.265-3.793a6.77,6.77,0,0,1,1.785-4.012c3.815-3.791,11.886-.148,13.38-2.9.967-1.787-1.891-4.311-.447-7.137a4.7,4.7,0,0,1,1.629-1.754c6.079-4.258,4.17-46.636,4.17-46.638-.443-9.788,2.531-21.615,8.473-45.267.471-1.875.934-3.637,1.391-5.348-.387-6.772-4.727-14.228-8.991-18.585-5.241-5.354-12.075-8.741-17.052-14.425a46.074,46.074,0,0,1-7.307-11.458c-5.862-3.473-11.794-7.86-15.937-13.3C349.758,85.338,349.855,78.209,350.236,71.464Z" transform="translate(-350.067 -70.001)" fill="#93563b"/>
          </g>
          <g id="Group_559" data-name="Group 559">
            <path id="Path_1959" data-name="Path 1959" d="M390.3,32.936c-1.686,0-3.055-.842-3.055-1.883s1.369-1.885,3.055-1.885,3.057.844,3.057,1.885S391.988,32.936,390.3,32.936Z" transform="translate(-316.747 -14.481)" fill="#7fb74a"/>
            <path id="Path_1960" data-name="Path 1960" d="M394.792,33.579c-2.055,0-3.719-1.277-3.719-2.852s1.664-2.852,3.719-2.852,3.717,1.277,3.717,2.852S396.845,33.579,394.792,33.579Z" transform="translate(-329.746 -15.837)" fill="#7fb74a"/>
            <path id="Path_1961" data-name="Path 1961" d="M316.009,118.337c0,6.2,7.454,11.343,17.665,13.085,1.5.2,3.078.406,4.657.486a8.3,8.3,0,0,0-.121.973c0,11.141,21.957,20.175,49.019,20.175,3.242,0,6.4-.162,9.481-.406,9.034.932,18.716,1.621,29.006,1.824a363.091,363.091,0,0,0,42.132-1.459c7.21-.121,13.571-1.783,17.542-4.295.365,0,.688.041,1.053.041,7.372,0,13.733-1.742,17.257-4.293,6.118-.244,10.858-1.906,10.858-3.93,0-.891-.932-1.742-2.471-2.391,11.667-2.754,20.134-10.694,20.134-20.054,0-8.546-7.049-15.88-17.177-19.2,14.382-6,23.336-14.382,23.336-23.66,0-4.657-2.27-9.034-6.239-13a40.222,40.222,0,0,0-3.93-3.4,4.244,4.244,0,0,0,.729-2.106,3.667,3.667,0,0,0-.527-1.824,12.537,12.537,0,0,0,3.4.447c3.727,0,6.764-1.377,6.764-3.08s-3.037-3.08-6.764-3.08c-3.485,0-6.28,1.217-6.686,2.715a20.619,20.619,0,0,0-3-1.336,2.519,2.519,0,0,0,.123-.77c0-2.106-3.08-3.807-7.051-3.969C510.709,32.29,488.023,22,460.676,22c-27.062,0-49.586,10.087-54.406,23.416a161.587,161.587,0,0,0-18.191,2.551c-2.065-2.268-6.2-3.848-10.979-3.848-6.887,0-12.477,3.242-12.477,7.172a5.064,5.064,0,0,0,1.539,3.4A59.694,59.694,0,0,0,356.4,60.04c-.809-2.309-3.4-4.01-6.522-4.01-3.727,0-6.766,2.43-6.766,5.428,0,2.674,2.471,4.9,5.672,5.307-2.795,3.444-4.375,7.09-4.375,10.938a16.8,16.8,0,0,0,3.444,9.846c-9.075,3.2-15.153,8.872-15.153,15.353a12.517,12.517,0,0,0,.324,2.471C323.181,107.2,316.009,112.3,316.009,118.337Z" transform="translate(-316.009 -22)" fill="#7fb74a"/>
            <path id="Path_1962" data-name="Path 1962" d="M321.191,31.15c-1.266,0-2.293-.4-2.293-.891s1.026-.891,2.293-.891,2.293.4,2.293.891S322.457,31.15,321.191,31.15Z" transform="translate(-106.832 -14.272)" fill="#7fb74a"/>
            <ellipse id="Ellipse_40" data-name="Ellipse 40" cx="4.712" cy="2.038" rx="4.712" ry="2.038" transform="translate(209.061 20.851)" fill="#7fb74a"/>
            <ellipse id="Ellipse_41" data-name="Ellipse 41" cx="3.923" cy="1.91" rx="3.923" ry="1.91" transform="translate(199.432 10.255)" fill="#7fb74a"/>
            <ellipse id="Ellipse_42" data-name="Ellipse 42" cx="7.59" cy="2.824" rx="7.59" ry="2.824" transform="translate(164.333 131.04)" fill="#176937"/>
            <path id="Path_1963" data-name="Path 1963" d="M333.41,84.312c1.518,0,2.75.592,2.75,1.324s-1.232,1.324-2.75,1.324-2.752-.592-2.752-1.324S331.889,84.312,333.41,84.312Z" transform="translate(-143.605 43.367)" fill="#176937"/>
            <path id="Path_1964" data-name="Path 1964" d="M329.216,83.5c0-.732,1.619-1.324,3.617-1.324s3.617.592,3.617,1.324-1.619,1.324-3.617,1.324S329.216,84.229,329.216,83.5Z" transform="translate(-140.939 41.124)" fill="#176937"/>
            <path id="Path_1965" data-name="Path 1965" d="M326.671,81.8c2.082,0,3.77,1.25,3.77,2.793s-1.688,2.793-3.77,2.793-3.77-1.25-3.77-2.793S324.589,81.8,326.671,81.8Z" transform="translate(-121.992 40.727)" fill="#176937"/>
          </g>
          <path id="Path_1966" data-name="Path 1966" d="M320.764,111.4a8.3,8.3,0,0,0-.121.973c0,11.141,21.957,20.175,49.019,20.175,3.242,0,6.4-.162,9.481-.406,9.034.932,18.716,1.621,29.006,1.824a363.091,363.091,0,0,0,42.132-1.459c7.21-.121,13.571-1.783,17.542-4.295.365,0,.688.041,1.053.041,7.372,0,13.733-1.742,17.257-4.293,6.118-.244,10.858-1.906,10.858-3.93,0-.891-.932-1.742-2.471-2.391,11.667-2.754,20.134-10.694,20.134-20.054,0-8.546-7.049-15.88-17.177-19.2,14.382-6,23.336-14.382,23.336-23.66,0-4.657-2.27-9.034-6.239-13-2.147-.121-4.092-.162-5.713-.162-12.72-.162-21.431,4.172-32.45,9.034-7.17,3.119-14.907,6.643-14.745,10.694.324,6.2,18.837,7.01,19.4,13.694.406,4.416-7.252,8.751-19.04,15.394-6.4,3.606-9.6,5.43-13.411,6.36-11.182,2.795-20.943-2.186-29.412-6.036-19.2-8.71-52.017-20.9-56.188-15.03-2.959,4.174,9.8,15.394,6.684,19.73-4.133,5.752-27.75-12.761-42.173-4.7-6.036,3.4-10.046,11.3-11.423,20.216C317.6,111.114,319.185,111.317,320.764,111.4Z" transform="translate(-298.442 -1.49)" fill="#588645"/>
        </g>
      </g>
      <g id="Group_567" data-name="Group 567" transform="translate(85.746 229.755)">
        <g id="Group_562" data-name="Group 562" transform="translate(69.447)">
          <path id="Path_1967" data-name="Path 1967" d="M364.374,178.789c2.447-3.27,1.371-9.135-2.227-10.786-3.414-1.567-7.612,1.344-9.331,4.377-.432.764-2.045,3.887-.682,6.243C354.071,181.979,361.43,182.725,364.374,178.789Z" transform="translate(-350.316 -91.339)" fill="#c64d22"/>
          <path id="Path_1968" data-name="Path 1968" d="M359.749,206.621c1.5.4,6.8-8.569,8.52-19.353.75-4.7.18-11.665-.959-25.592-.678-8.3-1.08-10.778-1.354-12.311-1.147-6.407-3.358-18.767-6.838-19-3.623-.24-10.919,12.517-8.649,24.373,1.932,10.083,9.8,14.368,8.307,23.787a39.96,39.96,0,0,0-1.068,8.647c.029,3.584.627,4.6,1.18,9.751C359.644,203.966,358.995,206.418,359.749,206.621Z" transform="translate(-350.039 -130.363)" fill="#176937"/>
          <path id="Path_1969" data-name="Path 1969" d="M349.473,197.751c2.061.777,8.219-6.315,10.227-14.942,1.854-7.965-1.414-10.415-2.065-23.746-.574-11.763,1.531-18.849-.119-19.318-1.44-.41-4.487,4.563-6.182,9.4-2.944,8.393-.768,13.38-.451,24.242C351.336,188.942,347.4,196.97,349.473,197.751Z" transform="translate(-339.288 -120.547)" fill="#588645"/>
        </g>
        <g id="Group_563" data-name="Group 563" transform="translate(51.334 24.382)">
          <path id="Path_1970" data-name="Path 1970" d="M361.411,179.247c-2.291-3.569,1.625-11.485,6.62-11.559,2.572-.039,5.28,2,6.309,4.795.055.15,1.3,3.694-.693,6.45C370.82,182.843,363.446,182.423,361.411,179.247Z" transform="translate(-360.018 -115.591)" fill="#c64d22"/>
          <path id="Path_1971" data-name="Path 1971" d="M369.154,194.884c1.1-.006,1.9-4.276,2.9-9.776,1.324-7.288,2.274-12.526,2.037-20.093a49.708,49.708,0,0,0-5.325-20.525c-.553-1.027-1.283-2.262-2.174-2.227-2.375.094-4.393,9.126-4.537,16.747-.076,3.985.4,5.575,2.832,18.222C367.508,190.872,368.084,194.891,369.154,194.884Z" transform="translate(-362.046 -142.263)" fill="#588645"/>
          <path id="Path_1972" data-name="Path 1972" d="M361.362,195c.664.291,7.307-8.606,7.721-19.486.084-2.248-.168-2.682-1.752-11.509-2.9-16.165-3.266-21.476-4.45-21.49-1.533-.021-2.74,8.837-2.824,9.456-.363,2.746-.779,7.573.424,16.8,1.469,11.263,3.455,14.54,1.973,21.668C361.858,193.315,361.1,194.887,361.362,195Z" transform="translate(-352.173 -141.995)" fill="#176937"/>
        </g>
        <g id="Group_564" data-name="Group 564" transform="translate(27.73 1.563)">
          <path id="Path_1973" data-name="Path 1973" d="M370.468,179.3c-2.291-3.569,1.625-11.485,6.62-11.561,2.572-.039,5.28,2,6.309,4.795.055.152,1.3,3.7-.693,6.45C379.877,182.9,372.5,182.478,370.468,179.3Z" transform="translate(-364.029 -92.715)" fill="#c64d22"/>
          <path id="Path_1974" data-name="Path 1974" d="M386.117,198.221c1.475-1.664,4.907-8.042,1.42-21.416-3.188-12.229-7.069-10.774-7.741-19.376-.293-3.731.045-9-2.906-15.222-1.438-3.031-2.279-3.385-2.785-3.358-1.947.1-3.893,6.1-3.78,11.692.09,4.534,1.465,5.459,4.6,16.071,2.061,6.973,1.322,6.082,2.531,9.212,3.19,8.264,6.268,9.1,6.858,14.9.41,4.012-.623,7.962.461,8.3C385.275,199.172,385.9,198.467,386.117,198.221Z" transform="translate(-370.32 -123.027)" fill="#176937"/>
          <path id="Path_1975" data-name="Path 1975" d="M372.658,207.485c3.026.057,7.051-14.271,6.549-27.459-.328-8.659-2.285-8.3-3.41-18.038-2.057-17.8,3.158-30.405,1.608-30.85-1.149-.33-4.6,6.475-6.514,13.78-1.869,7.147-1.613,12.288-1.565,18.488.152,20.371-2.057,40.169,2.608,43.781A1.219,1.219,0,0,0,372.658,207.485Z" transform="translate(-357.679 -131.126)" fill="#588645"/>
        </g>
        <g id="Group_565" data-name="Group 565" transform="translate(8.413 26.772)">
          <path id="Path_1976" data-name="Path 1976" d="M379.916,179.255c-2.291-3.569,1.625-11.485,6.618-11.561,2.574-.039,5.28,2,6.309,4.795.055.152,1.3,3.7-.69,6.45C389.325,182.851,381.951,182.429,379.916,179.255Z" transform="translate(-373.52 -117.975)" fill="#c64d22"/>
          <path id="Path_1977" data-name="Path 1977" d="M387.632,193.265c3.746-7.385,3.3-17,3.3-17A102.09,102.09,0,0,0,387.8,154.2c-1.4-5.153-2.961-10.88-4.506-10.772-1.82.129-3.1,8.3-2.908,15.138.141,5.082.949,4.221,2.127,14.146.291,2.453.832,7.467,2.008,14.146.631,3.584,1.363,7.178,2.324,7.186C387.21,194.05,387.495,193.536,387.632,193.265Z" transform="translate(-373.492 -143.429)" fill="#176937"/>
          <path id="Path_1978" data-name="Path 1978" d="M395.111,188.936c2.535-6.893.6-14.894.6-14.894a75.5,75.5,0,0,0-6.51-17.962c-2.18-4.073-4.6-8.6-6.1-8.225-1.768.443-1.752,7.549-.5,13.255.928,4.246,1.588,3.373,4.289,11.5.668,2.008,1.977,6.122,4.172,11.52,1.178,2.9,2.457,5.782,3.4,5.61C394.818,189.674,395.018,189.188,395.111,188.936Z" transform="translate(-381.711 -138.809)" fill="#588645"/>
        </g>
        <g id="Group_566" data-name="Group 566" transform="translate(0 85.099)">
          <rect id="Rectangle_130" data-name="Rectangle 130" width="90.234" height="58.876" transform="matrix(-1, 0.006, -0.006, -1, 95.124, 58.875)" fill="#f4b78e"/>
          <rect id="Rectangle_131" data-name="Rectangle 131" width="98.993" height="6.939" transform="matrix(-1, 0.006, -0.006, -1, 99.034, 11.729)" fill="#ffc200"/>
          <rect id="Rectangle_132" data-name="Rectangle 132" width="98.993" height="6.939" transform="matrix(-1, 0.006, -0.006, -1, 99.096, 21.813)" fill="#ffc200"/>
          <rect id="Rectangle_133" data-name="Rectangle 133" width="98.993" height="6.939" transform="matrix(-1, 0.006, -0.006, -1, 99.163, 32.749)" fill="#ffc200"/>
          <rect id="Rectangle_134" data-name="Rectangle 134" width="98.993" height="6.939" transform="matrix(-1, 0.006, -0.006, -1, 99.225, 42.833)" fill="#ffc200"/>
          <rect id="Rectangle_135" data-name="Rectangle 135" width="98.993" height="6.939" transform="matrix(-1, 0.006, -0.006, -1, 99.294, 54.032)" fill="#ffc200"/>
        </g>
      </g>
      <path id="Path_1979" data-name="Path 1979" d="M187.521,254.657a33.34,33.34,0,0,1,1.994-11.538,36.337,36.337,0,0,1,28.434-23.758,31.574,31.574,0,0,1,6.313-5.487c2.707-16.23,14.575-29.774,30.762-36.055,5.174-8.284,15.333-13.769,26.82-13.468a33.822,33.822,0,0,1,9.067,1.551c9.02-8.284,19.511-13.089,30.713-13.089a38.671,38.671,0,0,1,7.88.871,50.6,50.6,0,0,1,5.7-2.039,63.98,63.98,0,0,1,5.936-5.821,54.587,54.587,0,0,1,98.781-43.859,48.485,48.485,0,0,1,18.12.518,66.233,66.233,0,0,1,81.525,24.551c1.672-.148,3.278-.344,4.951-.344,19.855,0,35.938,11.632,35.938,26.029a17.5,17.5,0,0,1-.99,5.668,16.89,16.89,0,0,1-.928,2.416,35.759,35.759,0,0,1,10.329,16.466C610.02,185.894,624,200.782,624,217.791a31.924,31.924,0,0,1-2.475,11.929,55.852,55.852,0,0,1,10.825,32.635,54.944,54.944,0,0,1-6.122,24.9c14.784,6.014,23.937,14.1,23.937,23.021,0,18.587-39.278,33.622-87.711,33.622-7.051,0-13.917-.346-20.474-.938-11.876,9.958-25.793,15.775-40.64,15.775-13.792,0-26.721-4.93-38.04-13.556a51.524,51.524,0,0,1-15.526,2.416,54.864,54.864,0,0,1-29.324-8.87c-2.887.145-5.825.227-8.817.227-5.411,0-10.682-.264-15.712-.719-9.114,7.643-19.8,12.108-31.188,12.108a44.808,44.808,0,0,1-16.2-3.084,86.43,86.43,0,0,1-24.945-5.467c-11.712-.012-22.664-5.3-31.959-14.3a64.7,64.7,0,0,1-40.919,14.224c-33.8,0-61.19-24.705-61.19-55.236a50.708,50.708,0,0,1,3.133-17.365A35.083,35.083,0,0,1,187.521,254.657Z" transform="translate(-143.399 42.729)" fill="#7fb74a"/>
      <path id="Path_1980" data-name="Path 1980" d="M264.905,232.73c72.781,8.549,107.879-2.756,205.632,4.649.639.061,147.227,14.251,189.1-17.333,1.318-.994,4.457-3.426,4.34-6.512-.377-10.081-35.237-20.066-67.3-19.587-23.529.352-21.683,5.981-49.148,6.254-19.7.195-26.861-3.057-49.058-.779-13.548,1.389-15.763,3.008-27.938,3.291-13.085.3-24.267-1.25-42.386-3.766-13.315-1.85-20.277-3.321-30.9-1.4-8.579,1.551-7.206,3.084-15.249,4.662a121.429,121.429,0,0,1-44.892.5c-56.694-9.624-96.234-15.89-120.671,1.729-8.079,5.825-8.006,9.575-7.885,10.667C208.9,218.188,212.612,226.587,264.905,232.73Z" transform="translate(-200.262 165.401)" fill="#93563b"/>
      <g id="Group_568" data-name="Group 568" transform="translate(305.301 265.882)">
        <path id="Path_1981" data-name="Path 1981" d="M297.385,234.4c1.027,0,5.217-17.894-.2-35.8-.975-3.225-4.516-10.046-11.6-23.689-8.9-17.15-10.354-18.57-11.3-18.349-2.5.584-2.6,12.966.586,24.377,3.385,12.112,8.014,14.308,11.22,20.875,1.285,2.629.648,2.34,2.494,7.79,3.578,10.555,6.163,12.813,8.008,21.4C297.129,233.485,297.151,234.405,297.385,234.4Z" transform="translate(-272.444 -139.029)" fill="#588645"/>
        <path id="Path_1982" data-name="Path 1982" d="M296.356,243.3c1.539.621,3.563-16.251,1.014-33.991-.477-3.311-2.36-10.7-6.127-25.471-2.9-11.395-3.516-15.128-6.116-20.332-4.3-8.61-11.1-16.5-12.86-15.4-1.373.857-.2,7.487,2.631,12.366,1.1,1.9,1.334,1.6,2.424,3.467,2.68,4.6,1.744,7.215,3.7,13.655,1.44,4.743,2.186,4.106,3.682,9.176,1.342,4.553.549,4.9,1.945,9.981,2.039,7.434,4.414,10.454,5.276,20.757a136.366,136.366,0,0,0,3.229,22.388C295.688,242.117,296.007,243.154,296.356,243.3Z" transform="translate(-269.589 -147.995)" fill="#176937"/>
        <path id="Path_1983" data-name="Path 1983" d="M269.516,204.836c1.1,2.26,2.555,3.01,4,4.334a11.685,11.685,0,0,1,2.588,3.51c1.535,3.211,1.387,5.743,2.442,5.854,1,.127,1.561-1.9,3.461-4.741a20.544,20.544,0,0,1,3.879-4.426c1.477-1.365,2.467-2.063,2.953-3.94,1.01-4.02-2.016-7.71-2.641-8.467a12.769,12.769,0,0,0-6.573-4.215c-1.4-.383-6.223-1.713-9.12,1C267.586,196.4,267.9,201.586,269.516,204.836Z" transform="translate(-253.096 -101.749)" fill="#c64d22"/>
        <path id="Path_1984" data-name="Path 1984" d="M273.358,207.765c1.535,3.211,1.387,5.743,2.442,5.854,1,.127,1.561-1.9,3.461-4.741a20.544,20.544,0,0,1,3.879-4.426c-.242-2.156-1.139-3.973-2.231-4.2-1.5-.287-2.8,2.424-3.965,1.967-1.51-.537-1.045-5.469-1.486-5.457-.348.113-.365,2.858-1.658,3.4s-2.957-1.67-3.692-1.18c-.639.4-.006,1.979.609,4.907a.773.773,0,0,1,.053.365A11.685,11.685,0,0,1,273.358,207.765Z" transform="translate(-250.354 -96.835)" fill="#efc9b6"/>
      </g>
      <g id="Group_569" data-name="Group 569" transform="translate(284.706 287.248)">
        <path id="Path_1985" data-name="Path 1985" d="M305,226.569c.809,0,4.115-14.112-.156-28.238-.768-2.543-3.563-7.924-9.149-18.681-7.02-13.526-8.165-14.646-8.909-14.472-1.973.461-2.053,10.227.461,19.226,2.67,9.551,6.321,11.284,8.85,16.462,1.012,2.074.51,1.846,1.967,6.143,2.821,8.325,4.86,10.106,6.313,16.874C304.8,225.843,304.812,226.569,305,226.569Z" transform="translate(-285.327 -151.352)" fill="#588645"/>
        <path id="Path_1986" data-name="Path 1986" d="M304.185,233.58c1.213.49,2.811-12.817.8-26.807-.375-2.608-1.86-8.436-4.832-20.087-2.291-8.985-2.772-11.929-4.823-16.036-3.391-6.788-8.751-13.013-10.141-12.147-1.084.676-.16,5.905,2.074,9.753.871,1.5,1.053,1.26,1.912,2.733,2.115,3.627,1.375,5.69,2.918,10.77,1.137,3.739,1.725,3.237,2.9,7.235,1.059,3.59.434,3.862,1.535,7.872,1.609,5.86,3.481,8.243,4.162,16.37a107.579,107.579,0,0,0,2.547,17.654C303.656,232.652,303.908,233.469,304.185,233.58Z" transform="translate(-283.075 -158.422)" fill="#176937"/>
        <path id="Path_1987" data-name="Path 1987" d="M283.017,203.249c.871,1.783,2.014,2.373,3.153,3.418a9.236,9.236,0,0,1,2.041,2.768c1.209,2.531,1.094,4.528,1.926,4.616.787.1,1.232-1.5,2.729-3.739a16.111,16.111,0,0,1,3.059-3.49c1.166-1.078,1.945-1.627,2.328-3.108.8-3.172-1.59-6.079-2.082-6.678a10.083,10.083,0,0,0-5.184-3.324c-1.1-.3-4.907-1.35-7.192.787C281.5,196.592,281.746,200.686,283.017,203.249Z" transform="translate(-270.069 -121.951)" fill="#c64d22"/>
        <path id="Path_1988" data-name="Path 1988" d="M286.049,205.56c1.209,2.531,1.094,4.528,1.926,4.616.787.1,1.232-1.5,2.729-3.739a16.111,16.111,0,0,1,3.059-3.49c-.191-1.7-.9-3.133-1.76-3.311-1.18-.227-2.207,1.912-3.127,1.551-1.19-.424-.824-4.313-1.172-4.3-.275.088-.287,2.254-1.307,2.68s-2.332-1.318-2.912-.93c-.5.311-.006,1.559.482,3.869a.617.617,0,0,1,.041.289A9.236,9.236,0,0,1,286.049,205.56Z" transform="translate(-267.906 -118.075)" fill="#efc9b6"/>
      </g>
      <g id="Group_571" data-name="Group 571" transform="translate(339.615 262.27)">
        <g id="Group_570" data-name="Group 570" transform="translate(3.036 93.651)">
          <path id="Path_1989" data-name="Path 1989" d="M258.708,204.694c1.1,2.26,2.555,3.01,4,4.334a11.67,11.67,0,0,1,2.588,3.512c1.535,3.209,1.387,5.741,2.443,5.852,1,.127,1.561-1.9,3.461-4.741a20.546,20.546,0,0,1,3.879-4.426c1.477-1.365,2.467-2.063,2.951-3.94,1.012-4.02-2.014-7.708-2.639-8.467a12.769,12.769,0,0,0-6.573-4.215c-1.4-.383-6.223-1.713-9.12,1C256.778,196.254,257.1,201.444,258.708,204.694Z" transform="translate(-257.494 -191.938)" fill="#c64d22"/>
          <path id="Path_1990" data-name="Path 1990" d="M262.55,207.624c1.535,3.209,1.387,5.741,2.443,5.852,1,.127,1.561-1.9,3.461-4.741a20.546,20.546,0,0,1,3.879-4.426c-.242-2.156-1.141-3.973-2.231-4.2-1.5-.289-2.8,2.422-3.965,1.965-1.51-.537-1.045-5.469-1.485-5.454-.348.111-.365,2.856-1.658,3.4s-2.957-1.67-3.692-1.18c-.639.4-.006,1.979.609,4.907a.774.774,0,0,1,.053.365A11.67,11.67,0,0,1,262.55,207.624Z" transform="translate(-254.75 -187.023)" fill="#efc9b6"/>
        </g>
        <path id="Path_1991" data-name="Path 1991" d="M254.82,243.335c.232-.088.566-.219.961-.391a28.187,28.187,0,0,0,12.583-11.02c3.907-6.827-1.213-10.489,0-22.07,1.293-12.364,7.549-12.192,8.151-23.074.123-2.217-2.635-10.118-8.151-25.832-3.076-8.76-4.741-13.263-8.778-14.421-2.481-.711-5.825-.154-7.4,1.881-2.067,2.668.059,6.4,2.508,15.925,1.629,6.342,2.444,9.512,2.633,13.167.445,8.592-2.86,9.78-4.639,21.7-.832,5.573-.764,9.9-.627,18.56.109,6.922.561,12.749,1,17.054Z" transform="translate(-240.16 -146.232)" fill="#176937"/>
        <path id="Path_1992" data-name="Path 1992" d="M272.787,234.539a123.969,123.969,0,0,0,5.141-18.56c1.869-9.63,2.934-15.112,1.5-22.07-.834-4.065-1.195-2.18-5.893-15.048-1.834-5.026-3.248-9.335-6.02-15.425-2.805-6.166-4.41-9.626-5.768-9.4-2.442.4-2.408,12.438-2.383,14.671.1,8.59,1.643,9.919,1.379,17.181-.289,7.993-2.192,7.278-2.131,13.794.043,4.674,1.785,9.846,5.266,20.189a51.005,51.005,0,0,0,4.139,9.53,47.884,47.884,0,0,0,3.762,5.643Z" transform="translate(-258.614 -138.062)" fill="#588645"/>
      </g>
      <path id="Path_1993" data-name="Path 1993" d="M495.879,224.638c26.449,2.065,32.575,5.241,42.784,6.282a84.584,84.584,0,0,0,14.247.113c24.767-1.338,49.476-2.674,50.355-8.946.4-2.846-4.352-5.008-3.514-6.639,1.483-2.891,15.511,5.655,26.588-.049,2.977-1.533,9.149-5.852,8.36-8.442-.018-.057-.039-.109-.08-.2-1.195-2.873-3.731-4.043-6.944-6.065-2.744-1.729-3.041-2.227-4.346-3.01-8.294-4.981-19.929.936-31.678,1.391a41.059,41.059,0,0,0-8.743,1.492c-4.7,1.449-4.3,2.555-9.03,3.637-7.422,1.7-11.284-.371-20.968.225-4.916.3-4.94.9-10.382,1.531-10.845,1.262-15.7-.518-32.168-.412-7.606.049-12.214.443-12.977,2.67-.793,2.32,2.926,5.635,2.383,6.143-.465.439-3.1-2.1-5.768-3.635-5.752-3.315-12-2.225-14.923-1.881-14.974,1.76-25.613-4.266-77.111-3.375-13.558.236-23.726.35-27.85.49-135.26,4.588-148.63,4.01-148.81,6.4-.557,7.364,126.24,19.357,128.234,9.042.277-1.43-1.647-4.311-.24-5.909,1.7-1.93,6.561-.049,9.284.807,16.88,5.313,33.055-3.209,34.356.322.666,1.805-3.721,3.473-3.387,5.393C394.647,228.269,440.914,220.346,495.879,224.638Z" transform="translate(-205.415 167.925)" fill="#68301a"/>
      <g id="Group_615" data-name="Group 615" transform="translate(146.149 0)">
        <path id="Path_1994" data-name="Path 1994" d="M281.584,59.535c-9.245-6.889-10.321-11.194-10.284-13.8.176-12.386,26.043-22.531,44.392-25.838,39.532-7.122,86.836,9.809,88.282,27.59.66,8.094-8.317,14.651-14.044,18.833C359.293,88.7,308.062,79.266,281.584,59.535Z" transform="translate(-215.056 -18.235)" fill="#e09500"/>
        <path id="Path_1995" data-name="Path 1995" d="M305.424,43.809a10.316,10.316,0,1,0,10.315-10.317A10.317,10.317,0,0,0,305.424,43.809Z" transform="translate(-207.026 -2.229)" fill="#68301a"/>
        <g id="Group_611" data-name="Group 611" transform="translate(0 10.779)">
          <path id="Path_1996" data-name="Path 1996" d="M286.527,126.583q-1.036-3.507-2.074-7.012a4.394,4.394,0,0,0,0-8.788l2.637-3.387c-3.789,1.057-4.758,2.084-4.827,2.885a2.8,2.8,0,0,1-.438,1.942,1.606,1.606,0,0,1-.6.4c-1.631.656-5.344-1.111-6.231-.338-1.2,1.043,1.346,7.9,7.083,11.977A18.623,18.623,0,0,0,286.527,126.583Z" transform="translate(-106.864 64.519)" fill="#ff9580"/>
          <path id="Path_1997" data-name="Path 1997" d="M315.267,129.916l-14.48-3.528a173.106,173.106,0,0,1-3.608-36.114c.031-5.588.334-10.862.818-15.79,1.506-8.919,7.956-13.577,11.679-12.628,3.3.844,6.151,6.532,5.325,13.509Q315.132,102.64,315.267,129.916Z" transform="translate(-179.334 16.619)" fill="#ff9580"/>
          <g id="Group_572" data-name="Group 572" transform="translate(37.182 65.716)">
            <path id="Path_1998" data-name="Path 1998" d="M340.689,112.186a162.446,162.446,0,0,1,10.665-56.254l-.957-.365a163.432,163.432,0,0,0-10.733,56.606Z" transform="translate(-339.664 -55.567)" fill="#b25944"/>
          </g>
          <g id="Group_595" data-name="Group 595">
            <path id="Path_1999" data-name="Path 1999" d="M329.653,232.951c2.43.607,4.922,1.277,7.352,1.883q8.84-16.858,19.5-34.749c2.43-4.01,4.86-7.958,7.229-11.845,2.612-4.131,5.164-8.141,7.715-12.089q7.383-11.3,14.763-21.689c-5.225-3.766-10.45-7.594-15.673-11.36-13,8.02-19.38,16.767-22.843,22.963a49.891,49.891,0,0,0-4.01,9.356A104.694,104.694,0,0,0,340.527,188c-1.336,6.319-2.916,14.276-5.649,25.455C332.874,221.894,330.93,228.638,329.653,232.951Z" transform="translate(-316.828 101.974)" fill="#ff9580"/>
            <path id="Path_2000" data-name="Path 2000" d="M381.836,219.433q-8.787-.461-17.572-.918l-19.154-13.909a13.354,13.354,0,0,1,2.942-6.665,12.2,12.2,0,0,1,1.733-1.647c1.772-1.447,4.248-4.09,7.135-9.356l7.4,1.924c-.055,16.945,3.326,21.963,6.592,23.256,2.736,1.084,7.125.24,9.54,3.33A7.108,7.108,0,0,1,381.836,219.433Z" transform="translate(-344.121 147.96)" fill="#ff9580"/>
            <path id="Path_2001" data-name="Path 2001" d="M306.972,179.278a53.6,53.6,0,0,0,1.58,11.786c1.76,7.532,4.737,16.585,8.079,31.287,1.883,8.5,3.16,15.429,3.887,19.865,2.492-.426,4.981-.85,7.534-1.277q.455-19.136,2.065-40.1c.363-4.373.727-8.686,1.215-12.94a6.543,6.543,0,0,1,.182-1.578c1.4-13.851,3.158-27.035,5.164-39.548-6.987,1.154-13.913,2.307-20.9,3.4-6.2,9.962-8.02,18.345-8.567,24.056A48.194,48.194,0,0,0,306.972,179.278Z" transform="translate(-220.821 105.831)" fill="#ff9580"/>
            <path id="Path_2002" data-name="Path 2002" d="M337.677,214.509H298.071a13.35,13.35,0,0,1,.234-7.282,12.348,12.348,0,0,1,.99-2.178c1.1-2,2.41-5.381,3.112-11.345l7.583-.984c9.575,14.605,14.991,17.531,18.2,17.318a10.279,10.279,0,0,1,6.711,1.3A8.5,8.5,0,0,1,337.677,214.509Z" transform="translate(-202.767 154.026)" fill="#ff9580"/>
            <path id="Path_2003" data-name="Path 2003" d="M296.769,212.3h44.14c-1.172-2.783-3.26-6.389-7.022-7.9-2.295-.922-3.817-.5-6.145-.877-2.942-.473-7.038-2.192-11.536-8.026a29.689,29.689,0,0,1-6.145,6.145,30.239,30.239,0,0,1-13.292,5.518Z" transform="translate(-204.145 156.936)" fill="#e09500"/>
            <path id="Path_2004" data-name="Path 2004" d="M344.489,199.668q9.866,7.459,19.734,14.919,9.623.04,19.251.082c-1.268-3.11-3.4-6.725-7.024-7.9-2.576-.834-4.176.121-6.143-.877-1.947-.988-3.932-3.727-4.1-11.415-3.789,5.94-5.809,6.713-6.94,6.42-2.6-.672-2.113-7.407-6.137-9.065a5.894,5.894,0,0,0-3.965,0,9.5,9.5,0,0,0-3.826,4.155A9.244,9.244,0,0,0,344.489,199.668Z" transform="translate(-344.489 152.725)" fill="#e09500"/>
            <path id="Path_2005" data-name="Path 2005" d="M334.035,169.688c-8.809-2.735-17.011-5.043-24.543-7.049a53.6,53.6,0,0,0,1.58,11.786c4.008-.182,7.35-.607,9.962-.912,4.981-.668,9.356-1.457,12.819-2.248A6.543,6.543,0,0,1,334.035,169.688Z" transform="translate(-223.341 122.47)" fill="#68301a"/>
            <path id="Path_2006" data-name="Path 2006" d="M336.858,171.952a38.429,38.429,0,0,1,15.493-1.7c3.1.3,4.373.85,7.715,1.945,2.612-4.131,5.164-8.141,7.715-12.089-12.513-2.006-21.748-2.248-27.762-.729A104.694,104.694,0,0,0,336.858,171.952Z" transform="translate(-313.159 118.018)" fill="#68301a"/>
            <path id="Path_2007" data-name="Path 2007" d="M350.254,153.481c-.465,5.817-5.7,10.173-11.225,10.329A12.082,12.082,0,0,1,328.5,157.8q.27-3.11.465-6.377.163-2.745.254-5.391c.467-.572,4.194-5.008,9.809-4.756C344.931,141.542,350.783,146.887,350.254,153.481Z" transform="translate(-278.544 100.052)" fill="#ff9580"/>
            <path id="Path_2008" data-name="Path 2008" d="M361.986,186.664l-19.935-2.225a178.411,178.411,0,0,1-13.907-52.162,176.269,176.269,0,0,1-.885-25.756l36.161,7.682a282.309,282.309,0,0,1,1.178,47.46C364.07,170.55,363.15,178.9,361.986,186.664Z" transform="translate(-290.537 63.6)" fill="#ff9580"/>
            <path id="Path_2009" data-name="Path 2009" d="M328.419,151.676c-.037,5.836-4.94,10.565-10.436,11.126a12.084,12.084,0,0,1-10.94-5.219q.04-3.123,0-6.393-.04-2.751-.143-5.4c.422-.607,3.815-5.3,9.432-5.465C322.233,140.16,328.462,145.059,328.419,151.676Z" transform="translate(-212.405 99.063)" fill="#ff9580"/>
            <path id="Path_2010" data-name="Path 2010" d="M347.257,183.85l-20.031-.707a178.491,178.491,0,0,1-17.7-51,176.463,176.463,0,0,1-2.774-25.621l36.628,5a281,281,0,0,1,4.661,47.246C348.162,167.659,347.851,176.041,347.257,183.85Z" transform="translate(-231.757 63.6)" fill="#ff9580"/>
            <path id="Path_2011" data-name="Path 2011" d="M309.048,128.493a76.283,76.283,0,0,0,39.245,12.452,75.581,75.581,0,0,0,35.659-7.9,91.472,91.472,0,0,0-2.125-16.585,104.445,104.445,0,0,0-6.137-18.953c-.668-1.459-.85-1.7-1.154-2.43a22.59,22.59,0,0,1-1.883-9.051H333.347a68.47,68.47,0,0,0-24.3,42.464Z" transform="translate(-272.348 42.104)" fill="#ff9580"/>
            <path id="Path_2012" data-name="Path 2012" d="M364.039,84.58c1.85-3.446,3.262-7.594,2.293-11.522-3.268-4.727-9.593-5.772-12.544-10.96a.811.811,0,0,1-.156-.26,57.96,57.96,0,0,0-10.321-4.3c-12.5-3.932-14.034.035-21.994-4.424-4.651-2.6-7.342-4.209-11.327-3.59-1.264.211-5.315.672-9.622,7.122a.447.447,0,0,0-.148.2q-1.005,12.469-1.537,25.717c-.553,14.515-.563,28.336-.221,41.446l36.108,14.577c1.9-4.541,4.858-9.112,8.034-14.708,6.967-12.386,13.786-28.305,19.779-36.5C362.939,86.494,363.517,85.548,364.039,84.58Z" transform="translate(-232.879 3.675)" fill="#ff9580"/>
            <path id="Path_2013" data-name="Path 2013" d="M320.511,80.971a10.18,10.18,0,1,1-5.629-13.251A10.179,10.179,0,0,1,320.511,80.971Z" transform="translate(-192.933 22.117)" fill="#ff9580"/>
            <g id="Group_574" data-name="Group 574" transform="translate(108.185 95.995)">
              <g id="Group_573" data-name="Group 573">
                <path id="Path_2014" data-name="Path 2014" d="M310.8,83.914a10.293,10.293,0,0,0,9.766-13.5.1.1,0,0,0-.129-.064.1.1,0,0,0-.066.129,10.078,10.078,0,1,1-19.324,5.7.107.107,0,0,0-.127-.074.1.1,0,0,0-.074.125,10.312,10.312,0,0,0,9.954,7.688Z" transform="translate(-300.84 -70.344)"/>
              </g>
            </g>
            <path id="Path_2015" data-name="Path 2015" d="M334.833,75.188A10.18,10.18,0,1,1,329.2,61.937,10.179,10.179,0,0,1,334.833,75.188Z" transform="translate(-236.601 16.052)" fill="#ff9580"/>
            <g id="Group_576" data-name="Group 576" transform="translate(78.594 88.644)">
              <g id="Group_575" data-name="Group 575">
                <path id="Path_2016" data-name="Path 2016" d="M326.16,75.824a10.29,10.29,0,0,0,8.622-4.662.1.1,0,0,0-.172-.113,10.081,10.081,0,0,1-18.437-4.2.1.1,0,0,0-.1-.088.1.1,0,0,0-.1.115,10.288,10.288,0,0,0,10.19,8.952Z" transform="translate(-315.969 -66.757)"/>
              </g>
            </g>
            <path id="Path_2017" data-name="Path 2017" d="M364.08,99.346l-2.94-1.291L297.454,70.108a17.107,17.107,0,0,1,8.458-7.395c7.083-2.584,12.149,2.334,18.6.885,4.063-.914,9.13-4.44,13.608-15.843q2.379-5.594,4.762-11.186a37.785,37.785,0,0,0,6.485,12.6,36.981,36.981,0,0,0,4.614,4.889,49.073,49.073,0,0,0-3.606,8.792c-1.754,6.116-.957,9.936.365,12.413.049.094.1.186.152.277,2.979,5.215,9.3,6.217,12.54,10.96a10.636,10.636,0,0,1,1.26,2.492C366.086,92.963,365.006,96.924,364.08,99.346Z" transform="translate(-229.998 -9.78)" fill="#ff9580"/>
            <path id="Path_2018" data-name="Path 2018" d="M309.306,56.4a8.709,8.709,0,0,1-1.215-.389c-3.99-1.613-6.063-5.795-4.631-9.344A6.682,6.682,0,0,1,308.3,42.72a36.981,36.981,0,0,0,4.614,4.889A49.073,49.073,0,0,0,309.306,56.4Z" transform="translate(-188.93 -3.328)" fill="#68301a"/>
            <path id="Path_2019" data-name="Path 2019" d="M293.462,58.74A30.5,30.5,0,0,0,303.73,72.47a10.5,10.5,0,0,0,2.307,1.215,13.172,13.172,0,0,0,2.613.547c3.889.3,9.477-4.254,9.964-4.678,2.61-2.127,4.678-3.828,5.952-6.864,1.094-2.371.791-3.586,2.369-7.473a33.711,33.711,0,0,1,1.885-3.889,5.549,5.549,0,0,0,.3-.607c.242-.486.486-1.033.789-1.639.244-.547.547-1.156.791-1.762,1.274-3.342,2.43-7.717.91-11.786a17.957,17.957,0,0,0-6.438-7.715,32.617,32.617,0,0,0-2.856-1.7,8.943,8.943,0,0,0-1.094-.545c-3.1-1.215-11-3.828-18.224-.305C291.215,31.039,290,48.718,293.462,58.74Z" transform="translate(-185.321 -23.495)" fill="#ff9580"/>
            <g id="Group_583" data-name="Group 583" transform="translate(103.218 13.986)">
              <path id="Path_2020" data-name="Path 2020" d="M309.3,34.317c-1.178,2.922-.387,6,1.768,6.866s4.86-.793,6.041-3.715.387-6-1.768-6.866S310.476,31.4,309.3,34.317Z" transform="translate(-308.652 -30.268)" fill="#ff9580"/>
              <g id="Group_580" data-name="Group 580" transform="translate(0)">
                <g id="Group_577" data-name="Group 577" transform="translate(0.014 7.171)">
                  <path id="Path_2021" data-name="Path 2021" d="M314.553,37.9a3.864,3.864,0,0,0,.787-.084.1.1,0,0,0,.078-.123.1.1,0,0,0-.123-.078,3.238,3.238,0,0,1-1.9-.143,3.956,3.956,0,0,1-2.231-3.553.093.093,0,0,0-.111-.094.1.1,0,0,0-.094.111,4.154,4.154,0,0,0,2.361,3.727A3.268,3.268,0,0,0,314.553,37.9Z" transform="translate(-310.955 -33.821)"/>
                </g>
                <g id="Group_578" data-name="Group 578" transform="translate(0 4.376)">
                  <path id="Path_2022" data-name="Path 2022" d="M312.957,34.68a.1.1,0,0,0,.1-.1,7.2,7.2,0,0,1,.377-1.99.1.1,0,0,0-.066-.129.1.1,0,0,0-.127.064,7.373,7.373,0,0,0-.389,2.047.1.1,0,0,0,.1.107Z" transform="translate(-312.854 -32.457)"/>
                </g>
                <g id="Group_579" data-name="Group 579" transform="translate(0.795)">
                  <path id="Path_2023" data-name="Path 2023" d="M309.352,33.911a.1.1,0,0,0,.092-.057c1.276-2.557,3.707-3.889,5.657-3.1a3.145,3.145,0,0,1,1.15.809.1.1,0,0,0,.143.008.1.1,0,0,0,.008-.145,3.325,3.325,0,0,0-1.225-.863c-2.041-.828-4.594.549-5.918,3.2a.1.1,0,0,0,.045.137A.122.122,0,0,0,309.352,33.911Z" transform="translate(-309.249 -30.321)"/>
                </g>
              </g>
              <g id="Group_581" data-name="Group 581" transform="translate(4.235 2.748)">
                <path id="Path_2024" data-name="Path 2024" d="M311.076,37.5a.1.1,0,0,0,.1-.1l0-5.633a.1.1,0,1,0-.2,0l0,5.633A.1.1,0,0,0,311.076,37.5Z" transform="translate(-310.974 -31.662)"/>
              </g>
              <g id="Group_582" data-name="Group 582" transform="translate(4.407 3.994)">
                <path id="Path_2025" data-name="Path 2025" d="M310.236,33.624c.059-.02,1.613-1.17,1.613-1.17a.1.1,0,0,0-.121-.164l-1.553,1.15a.1.1,0,0,0-.021.143A.1.1,0,0,0,310.236,33.624Z" transform="translate(-310.133 -32.27)"/>
              </g>
            </g>
            <path id="Path_2026" data-name="Path 2026" d="M299.01,40.375a2.31,2.31,0,0,1-2.713,1.672,2.178,2.178,0,0,1-2.043-2.346,2.307,2.307,0,0,1,2.713-1.672A2.178,2.178,0,0,1,299.01,40.375Z" transform="translate(-157.068 -8.279)" fill="#68301a"/>
            <g id="Group_584" data-name="Group 584" transform="translate(134.917 29.406)">
              <path id="Path_2027" data-name="Path 2027" d="M300.839,41.622c.6-.434,1.135-.846,1.672-1.258a.1.1,0,1,0-.125-.162q-.747.575-1.492,1.145a4.508,4.508,0,0,0-.5-1.068c-1.893-2.9-6.741-2.43-7.286-2.369a.1.1,0,0,0-.09.115.1.1,0,0,0,.115.088c.535-.061,5.266-.514,7.09,2.276a4.279,4.279,0,0,1,.518,1.156C300.816,41.62,300.829,41.622,300.839,41.622Z" transform="translate(-293.017 -37.847)"/>
            </g>
            <path id="Path_2028" data-name="Path 2028" d="M305.83,37.042a2.31,2.31,0,0,1-2.713,1.67,2.177,2.177,0,0,1-2.043-2.346,2.308,2.308,0,0,1,2.713-1.67A2.177,2.177,0,0,1,305.83,37.042Z" transform="translate(-177.862 -11.776)" fill="#68301a"/>
            <g id="Group_585" data-name="Group 585" transform="translate(120.943 22.571)">
              <path id="Path_2029" data-name="Path 2029" d="M307.659,38.289c.062-.02,1.672-1.256,1.672-1.256a.1.1,0,0,0-.125-.162l-1.49,1.143a4.422,4.422,0,0,0-.5-1.065c-1.844-2.826-6.393-2.467-7.284-2.371a.1.1,0,0,0-.09.115.1.1,0,0,0,.113.09c.535-.061,5.276-.5,7.09,2.276a4.154,4.154,0,0,1,.52,1.156C307.637,38.289,307.649,38.289,307.659,38.289Z" transform="translate(-299.837 -34.511)"/>
            </g>
            <g id="Group_586" data-name="Group 586" transform="translate(122.294 15.501)">
              <path id="Path_2030" data-name="Path 2030" d="M298.311,32.017a25.669,25.669,0,0,1,6.151,1.914,25.229,25.229,0,0,1,4.823,2.879,4.531,4.531,0,0,0,.279-1,4.98,4.98,0,0,0-.178-2.248c-1.641-.727-3.045-1.246-4.08-1.6a10.817,10.817,0,0,0-3.807-.9A6.378,6.378,0,0,0,298.311,32.017Z" transform="translate(-298.311 -31.06)" fill="#68301a"/>
              <path id="Path_2031" data-name="Path 2031" d="M298.564,32.612a5.345,5.345,0,0,1,0,1.32,3.4,3.4,0,0,1-.584,1.746,5.322,5.322,0,0,1,.094-1.475,5.926,5.926,0,0,0,.1-1.527c-.012-.156-.031-.283-.043-.365Z" transform="translate(-286.551 -29.748)" fill="#68301a"/>
            </g>
            <g id="Group_587" data-name="Group 587" transform="translate(139.936 24.649)">
              <path id="Path_2032" data-name="Path 2032" d="M292.949,38.237c.852.061,1.945.121,3.1.3a5.549,5.549,0,0,0,.3-.607c.242-.486.486-1.033.789-1.639-.668-.184-1.4-.426-2.186-.609a4.547,4.547,0,0,0-1.58,1.639C293.193,37.631,293.072,38,292.949,38.237Z" transform="translate(-292.486 -35.356)" fill="#68301a"/>
              <path id="Path_2033" data-name="Path 2033" d="M295.73,35.525a5.414,5.414,0,0,0-.832,1.029,3.391,3.391,0,0,0-.637,1.725c.1.047.68-.922.85-1.209a5.944,5.944,0,0,1,.877-1.254c.107-.113.2-.2.262-.256Z" transform="translate(-294.24 -35.525)" fill="#68301a"/>
            </g>
            <path id="Path_2034" data-name="Path 2034" d="M298.876,40.338a4.042,4.042,0,0,1,3.391,1.369,3.671,3.671,0,0,1-1.86-.279A3.716,3.716,0,0,1,298.876,40.338Z" transform="translate(-169.82 -5.855)" fill="#68301a"/>
            <g id="Group_588" data-name="Group 588" transform="translate(122.496 37.371)">
              <path id="Path_2035" data-name="Path 2035" d="M308.34,46.08c.141,0,.281,0,.42-.006a.1.1,0,0,0,0-.2,12.728,12.728,0,0,1-5.651-1.123,12.527,12.527,0,0,1-4.082-2.977.1.1,0,0,0-.148-.006.1.1,0,0,0-.006.143,12.728,12.728,0,0,0,4.151,3.024A12.861,12.861,0,0,0,308.34,46.08Z" transform="translate(-298.846 -41.734)"/>
            </g>
            <path id="Path_2036" data-name="Path 2036" d="M307.422,45.912c-.361.658-2.641.225-4.342-.469-2.176-.889-4.01-2.455-3.84-2.766.059-.109.309.035.879.057,1.844.074,2.75-1.295,3.633-.85a5.779,5.779,0,0,0,1.024.49c.2.064.4.111.4.111.758.184.842.066,1.1.225a.623.623,0,0,1,.09.066,4.951,4.951,0,0,1,.682,1.723C307.295,45.623,307.545,45.689,307.422,45.912Z" transform="translate(-175.731 -4.299)" fill="#ef4d4d"/>
            <g id="Group_589" data-name="Group 589" transform="translate(123.686 41.951)">
              <path id="Path_2037" data-name="Path 2037" d="M305.12,46.071a.1.1,0,0,0,.1-.084.1.1,0,0,0-.082-.119,7.37,7.37,0,0,1-1.258-.33A7.47,7.47,0,0,1,301.35,44,.1.1,0,0,0,301.2,44a.107.107,0,0,0,.006.145,7.782,7.782,0,0,0,2.6,1.582,7.567,7.567,0,0,0,1.291.34Z" transform="translate(-301.177 -43.969)"/>
            </g>
            <path id="Path_2038" data-name="Path 2038" d="M308.659,54.749a2.321,2.321,0,0,0,1.9,2.1,3.2,3.2,0,0,0,2.535-1.244Z" transform="translate(-200.69 9.291)" fill="#68301a"/>
            <path id="Path_2039" data-name="Path 2039" d="M302.385,57.1a8.176,8.176,0,0,0,.893,1.16,7.446,7.446,0,0,0,3.905,2.178c3.783.99,7.413,1.568,8.639,1.754l-7.9-2.723Z" transform="translate(-190.566 11.759)" fill="#68301a"/>
            <path id="Path_2040" data-name="Path 2040" d="M331.5,60.449a14.87,14.87,0,0,1-2.055-.029,16.781,16.781,0,0,1-6.459-2.008c-5.278-2.666-10.016-5.469-11.61-6.42l11.591,5.145Z" transform="translate(-224.662 6.399)" fill="#68301a"/>
            <path id="Path_2041" data-name="Path 2041" d="M389.2,99.284c14.974,26.994,31.842,66.356,37.118,115.745a295.31,295.31,0,0,1,1.506,41.132,42.849,42.849,0,0,1-19.312,2.59c-8.049-.859-10.608-3.684-18.058-6.352-20.992-7.522-26.561.768-44.142-2.676-11.854-2.324-15.556-5.821-20.966-6.286a20.994,20.994,0,0,0-4.448.266,179.637,179.637,0,0,1-27.086.334c.385-2.66,1.229-8.436,2.34-15.716,14.538-95.187,24.769-118.559,42.763-135.057a87.606,87.606,0,0,1,11.755-9.036Z" transform="translate(-285.166 40.215)" fill="#00933b"/>
            <path id="Path_2042" data-name="Path 2042" d="M364.163,77.838a14.678,14.678,0,0,1,1.5,4.512c1.053,6.752-3.18,12.356-10.868,22.236-6.979,8.971-12.218,15.6-14.821,18.884q-19.529-6.765-39.061-13.532l-.449-35.483,20.556-13.173c5.268,4.989,16.1,13.69,31.768,16.05A54.492,54.492,0,0,0,364.163,77.838Z" transform="translate(-236.632 16.144)" fill="#c64d22"/>
            <g id="Group_590" data-name="Group 590" transform="translate(83.463 52.912)">
              <path id="Path_2043" data-name="Path 2043" d="M319.954,75.684A87.307,87.307,0,0,0,323.5,63.374c.8-4.223,1.223-8.926-.025-13.1a.774.774,0,0,1,1.492-.412c1.24,4.149.916,8.745.2,12.96A82.856,82.856,0,0,1,321.445,76.1c-.324.934-1.82.533-1.492-.412Z" transform="translate(-319.907 -49.318)" fill="#c64d22"/>
            </g>
            <g id="Group_591" data-name="Group 591" transform="translate(125.194 69.897)">
              <path id="Path_2044" data-name="Path 2044" d="M302.266,82.7q.12-6.494.242-12.987c.068-3.617.645-7.866-1.588-10.985-.58-.811.76-1.584,1.336-.781,2.236,3.121,1.887,7.167,1.818,10.8q-.129,6.974-.26,13.948a.774.774,0,0,1-1.547,0Z" transform="translate(-300.777 -57.608)" fill="#c64d22"/>
            </g>
            <path id="Path_2045" data-name="Path 2045" d="M355.731,113.418a19.035,19.035,0,0,0,6.02-1.17c14.446-5.393,16.859-27.258,17.054-29.262a59.312,59.312,0,0,0-38.456-13.542c-.2,8.085-1.893,19-9.417,27.9a34.143,34.143,0,0,1-4.627,4.537c-7.313,6.049-17.79,36.536-33.106,126.238,19.439-7.854,33-6.79,41.8-4.348,9.122,2.531,14.61,6.948,26.752,7.022a51.029,51.029,0,0,0,21.736-4.682,48.014,48.014,0,0,0,10.366-6.688c-.066-25.455-4.754-62.989-29.426-95.638A133.642,133.642,0,0,0,355.731,113.418Z" transform="translate(-249.774 24.702)" fill="#ebf4df"/>
            <g id="Group_592" data-name="Group 592" transform="translate(90.537 51.105)">
              <path id="Path_2046" data-name="Path 2046" d="M314.833,92.067a133.237,133.237,0,0,1,3.535-20.462,106.747,106.747,0,0,0,3.473-22.1c.051-1.418,2.262-1.426,2.211,0a103.056,103.056,0,0,1-3.158,21.1,141.763,141.763,0,0,0-3.85,21.461c-.127,1.406-2.34,1.418-2.211,0Z" transform="translate(-314.828 -48.436)" fill="#ebf4df"/>
            </g>
            <g id="Group_593" data-name="Group 593" transform="translate(118.914 63.502)">
              <path id="Path_2047" data-name="Path 2047" d="M308.721,98.6c-1.651-7.1-3.3-14.208-4.647-21.375-.641-3.428-1.211-6.868-1.678-10.323-.482-3.567-.537-7.362-1.969-10.716-.553-1.295,1.352-2.422,1.91-1.117,1.266,2.967,1.555,6.061,1.936,9.231.465,3.86,1.08,7.7,1.783,11.526,1.369,7.444,3.084,14.819,4.8,22.187.322,1.385-1.809,1.975-2.133.588Z" transform="translate(-300.327 -54.487)" fill="#ebf4df"/>
            </g>
            <g id="Group_594" data-name="Group 594" transform="translate(63.585 125.41)">
              <path id="Path_2048" data-name="Path 2048" d="M339.581,88.794c-4.973.8-9.212-2.387-13.858-3.492-.385-.09-.221-.684.164-.592,4.5,1.068,8.723,4.268,13.53,3.492.387-.061.555.531.164.592Z" transform="translate(-325.504 -84.7)" fill="#9bc3c9"/>
            </g>
          </g>
          <path id="Path_2049" data-name="Path 2049" d="M322.848,84.714q-.968-7.389-1.932-14.78A173.205,173.205,0,0,1,353.3,53.545c5.223-1.983,10.251-3.6,15.023-4.93,8.86-1.813,15.532,2.524,15.989,6.34.406,3.385-3.873,8.094-10.68,9.837Z" transform="translate(-297.051 2.409)" fill="#ff9580"/>
          <g id="Group_603" data-name="Group 603" transform="translate(13.895 84.979)">
            <g id="Group_596" data-name="Group 596" transform="translate(0 13.619)">
              <path id="Path_2050" data-name="Path 2050" d="M317.7,112.082c9.919,12.028,30.215,17.132,47.23,14.944,23.043-2.975,40.9-19.378,38.456-38.575-.076,0-.076-.061-.152-.061A146.712,146.712,0,0,0,365.7,74.234c-12.056-2.733-19.458-2.733-23.73-2.551a79.747,79.747,0,0,0-15.794,2.492l-.459.363C311.064,84.744,307.86,100.175,317.7,112.082Z" transform="translate(-312.045 -71.613)" fill="#68301a"/>
              <path id="Path_2051" data-name="Path 2051" d="M312.221,74.525a76.02,76.02,0,0,0,7.594,4.375,123.354,123.354,0,0,0,14.155,6.075,14.48,14.48,0,0,0,1.518.486c3.645,1.338,7.411,2.492,11.177,3.463.365.123.668.182.973.3.606.123,1.154.244,1.76.365a.364.364,0,0,0,.244.061c.729.182,1.4.365,2.127.486.668.182,1.336.3,2,.426.85.182,1.762.3,2.613.486.668.121,1.336.182,1.944.3.668.061,1.336.182,1.942.244.547.059,1.094.121,1.58.182a.786.786,0,0,0,.365.059c.971.061,1.945.121,2.856.182a7.248,7.248,0,0,0,1.154.061,61.74,61.74,0,0,0,12.149-.668,37.986,37.986,0,0,0,11.362-3.039,156.142,156.142,0,0,0-29.16-12.028c-.852-.244-1.7-.486-2.553-.668-.668-.182-1.336-.365-1.942-.547-.609-.121-1.215-.3-1.762-.426-.729-.182-1.4-.3-2.065-.486a4.615,4.615,0,0,0-.729-.121c-.668-.182-1.277-.3-1.822-.426-.729-.121-1.4-.3-2.065-.363-.547-.123-1.033-.244-1.52-.305a72.871,72.871,0,0,0-33.473,1.156C312.524,74.283,312.342,74.4,312.221,74.525Z" transform="translate(-298.53 -71.615)" fill="#68301a"/>
            </g>
            <path id="Path_2052" data-name="Path 2052" d="M317.733,86.183a.786.786,0,0,0,.365.059c.971.061,1.945.121,2.856.182a7.248,7.248,0,0,0,1.154.061,61.74,61.74,0,0,0,12.149-.668,8.16,8.16,0,0,0-3.766-8.2c-3.766-1.945-8.321.729-10.448,3.342A9.869,9.869,0,0,0,317.733,86.183Z" transform="translate(-254.411 -52.4)" fill="#e09500"/>
            <g id="Group_602" data-name="Group 602" transform="translate(46.755)">
              <g id="Group_601" data-name="Group 601" transform="translate(0 9.133)">
                <path id="Path_2053" data-name="Path 2053" d="M325.638,91.22c.365.123.668.182.973.3.668.123,1.336.305,2,.426.729.182,1.4.365,2.127.486.668.182,1.336.3,2,.426.85.182,1.762.3,2.613.486.668.121,1.336.182,1.944.3.668.061,1.336.182,1.942.244.668.059,1.338.182,1.945.242.971.061,1.945.121,2.856.182-2.309-6.5-3.463-11.725-4.5-15.673-1.215-4.5-2.188-7.29-4.315-8.506a3.615,3.615,0,0,0-1.213-.547,1.72,1.72,0,0,0-.547-.059.459.459,0,0,0-.244-.061,3.626,3.626,0,0,0-1.154,0,6.142,6.142,0,0,0-1.518.3c-.123,0-.244,0-.305.123a6.489,6.489,0,0,0-1.457.668,9.371,9.371,0,0,1-1.033.607l-.547.547a1.352,1.352,0,0,0-.244.3,8.06,8.06,0,0,0-1.883,3.28c-.059.123-.059.182-.121.305C323.634,79.922,324.363,85.632,325.638,91.22Z" transform="translate(-324.258 -69.425)" fill="#7fb74a"/>
                <g id="Group_597" data-name="Group 597" transform="translate(8.973 0.046)">
                  <path id="Path_2054" data-name="Path 2054" d="M325.652,69.448c.061.182.061.3.121.486.609,2.492,1.215,4.983,1.7,7.473,1.274,5.528,2.369,11.057,4.19,16.464.668.059,1.338.182,1.945.242a131.458,131.458,0,0,1-4.192-16.159c-.547-2.613-1.092-5.225-1.762-7.838a3.615,3.615,0,0,0-1.213-.547,1.72,1.72,0,0,0-.547-.059A.459.459,0,0,0,325.652,69.448Z" transform="translate(-325.652 -69.448)" fill="#588645"/>
                </g>
                <g id="Group_598" data-name="Group 598" transform="translate(5.996 0.046)">
                  <path id="Path_2055" data-name="Path 2055" d="M327.549,69.874v.971a16.814,16.814,0,0,0,.365,2.977c.182.91.365,1.762.609,2.672.182.609.365,1.156.547,1.762,1.76,4.981,2.551,9.962,3.584,15.066.668.121,1.336.182,1.944.3a119.686,119.686,0,0,0-3.828-16.1c-.062-.182-.123-.365-.182-.547A23.115,23.115,0,0,1,329.373,70v-.547a6.142,6.142,0,0,0-1.518.3C327.731,69.751,327.61,69.751,327.549,69.874Z" transform="translate(-327.549 -69.448)" fill="#588645"/>
                </g>
                <g id="Group_599" data-name="Group 599" transform="translate(4.026 0.349)">
                  <path id="Path_2056" data-name="Path 2056" d="M329.8,79.56c-.244,4.434,1.154,8.5,2.43,12.7.668.182,1.336.3,2,.426-.789-2.795-1.945-5.528-2.43-8.444a32.247,32.247,0,0,1,.182-8.02c0-.3.062-.668.062-.971,0-.547.059-1.094.059-1.58a23.423,23.423,0,0,0-.059-3.586V69.6c-.123,0-.244,0-.305.123a6.489,6.489,0,0,0-1.457.668,1.689,1.689,0,0,1,0,.547,43.7,43.7,0,0,1-.121,4.858C330.043,77.069,329.86,78.284,329.8,79.56Z" transform="translate(-329.773 -69.596)" fill="#588645"/>
                </g>
                <g id="Group_600" data-name="Group 600" transform="translate(0.468 2.597)">
                  <path id="Path_2057" data-name="Path 2057" d="M331.789,78.1a51.176,51.176,0,0,0,1.885,12.089c.668.123,1.336.305,2,.426-.061-.244-.121-.426-.182-.668a49.212,49.212,0,0,1-1.822-15.491v-.182c.059-1.156.182-2.371.363-3.586a8.06,8.06,0,0,0-1.883,3.28c-.059.123-.059.182-.121.305A28.713,28.713,0,0,0,331.789,78.1Z" transform="translate(-331.789 -70.693)" fill="#588645"/>
                </g>
              </g>
              <path id="Path_2058" data-name="Path 2058" d="M330.744,69.435c-1.553,3.35-1.68,7.141-.906,7.405.381.129.611-.719,1.842-1.418,1.992-1.131,3.924-.348,4.19-.959.146-.336-.227-1.068-2.688-2.83,1.625-5.061,1.613-6.444,1.209-6.639C333.764,64.693,331.844,67.064,330.744,69.435Z" transform="translate(-326.594 -64.968)" fill="#588645"/>
            </g>
            <path id="Path_2059" data-name="Path 2059" d="M338.67,76.99a123.354,123.354,0,0,0,14.155,6.075,14.48,14.48,0,0,0,1.518.486,8.532,8.532,0,0,0-10.753-9.841c-1.639.3-3.887.668-4.678,2.43A1.4,1.4,0,0,0,338.67,76.99Z" transform="translate(-317.385 -56.086)" fill="#ffc200"/>
            <path id="Path_2060" data-name="Path 2060" d="M342.647,84.87c2-3.4-.1-7.885-.945-9.68-1.428-3.051-4.315-7.1-5.758-6.561-1.031.383-.117,2.649-.709,9.772-.27,3.248-.635,4.873.471,6.563.092.139,1.68,2.492,3.873,2.266C341.368,87.046,342.417,85.26,342.647,84.87Z" transform="translate(-298.856 -61.178)" fill="#ffc200"/>
            <path id="Path_2061" data-name="Path 2061" d="M331.611,81.432a127.874,127.874,0,0,0,12.7,3.948c.365.123.668.182.973.3.606.123,1.154.244,1.76.365a6.769,6.769,0,0,0,.609-2.916,8.105,8.105,0,0,0-16.038-1.7Z" transform="translate(-296.172 -54.453)" fill="#c64d22"/>
            <path id="Path_2062" data-name="Path 2062" d="M363.164,76.707a13.981,13.981,0,0,0-5.1,5.686c-2.727,5.887,1.445,9.524-.668,16.8-1.615,5.561-4.539,4.309-6.354,10.7-.732,2.576-1.186,6.024-4.1,8.61-1.352,1.2-1.93,1.057-2.09,1-1.561-.533-1.932-5.764.166-9.782.5-.955.6-.816,1.338-2.006,1.99-3.217,2.342-6.018,3.178-10.534.949-5.121.9-3.707,1.754-8.444,1.182-6.551,1.053-8.028,2.494-10.62.932-1.676,2.735-4.914,5.532-4.93,2.416-.012,4.143,2.387,4.514,2.926Z" transform="translate(-336.849 -56.338)" fill="#7fb74a"/>
            <path id="Path_2063" data-name="Path 2063" d="M353.216,73.886c.549.229.359,1.545.314,3.26-.2,7.422,2.576,11.6,1.129,12.54-1.2.781-3.219-2-4.578-1.318-2.971,1.5,2.346,16.966.125,17.87-.752.305-1.662-1.342-2.7-1-2.067.678-.371,7.9-2.07,8.465-1.24.412-4.207-2.764-4.076-6.02a5.784,5.784,0,0,1,.545-2.143c1.664-3.877,5.551-4.532,5.35-6.571-.057-.572-.354-.459-.69-1.506a7.453,7.453,0,0,1,0-3.887c.447-2.524-.434-3-.438-5.893a17.444,17.444,0,0,1,2.444-8.465C349.876,76.78,352.251,73.481,353.216,73.886Z" transform="translate(-323.578 -55.649)" fill="#7fb74a"/>
          </g>
          <path id="Path_2064" data-name="Path 2064" d="M362.617,128.85l-5.657.436A133.773,133.773,0,0,1,347.7,80.335a129.247,129.247,0,0,1,.758-13.491,11.673,11.673,0,0,1,7.784-8.042q3.559,4.076,7.12,8.149a77.6,77.6,0,0,1,1.307,10.442c.992,17.87-4.838,26.293-3.252,43.515A68.868,68.868,0,0,0,362.617,128.85Z" transform="translate(-332.377 13.542)" fill="#ff9580"/>
          <path id="Path_2065" data-name="Path 2065" d="M333.547,134.565q-1.761,2.222-3.524,4.444a133.776,133.776,0,0,1-42.2-26.477,129.58,129.58,0,0,1-9.38-9.725,11.68,11.68,0,0,1-.609-11.175q5.409.157,10.817.316a77.559,77.559,0,0,1,8.549,6.137c13.782,11.419,16,21.418,29.709,31.963A69.76,69.76,0,0,0,333.547,134.565Z" transform="translate(-155.65 47.982)" fill="#ff9580"/>
          <g id="Group_608" data-name="Group 608" transform="translate(22.754 134.192)">
            <g id="Group_604" data-name="Group 604">
              <path id="Path_2066" data-name="Path 2066" d="M356.255,92.576a52.14,52.14,0,0,1,6.293,4.09c3.231,2.451,7.008,5.909,6.641,6.424-.186.258-1.5-.119-6.829-3.252q6.851,3.639,6.573,4.3-.378.9-13.931-3.7c3.522,1.557,6.282,2.74,8.18,3.541,1.586.67,3.815,1.6,3.692,2.129-.049.213-.461.287-.625.316-2.295.406-11.208-2.365-12.909-2.9q8.637,4.454,8.362,5.1-.3.7-11.1-3.088a15.657,15.657,0,0,1-11.079-5.551,14.892,14.892,0,0,1-3.135-7.909l5.3-2.551Z" transform="translate(-336.392 -88.421)" fill="#ff9580"/>
              <path id="Path_2067" data-name="Path 2067" d="M355.694,91.518q1.856,1.564,1.582,2.186-.384.87-4.926-.094l-8.776-2.545-.891-.975c1.537-.592,6.178-2.143,10.7-.025A11.272,11.272,0,0,1,355.694,91.518Z" transform="translate(-337.38 -88.986)" fill="#ff9580"/>
            </g>
            <g id="Group_605" data-name="Group 605" transform="translate(25.752 10.91)">
              <path id="Path_2068" data-name="Path 2068" d="M342.025,97.231c.117-.094.1-.158.057-.189l-4.25-2.715a.1.1,0,0,0-.141.031.1.1,0,0,0,.031.141l4.248,2.715A.122.122,0,0,0,342.025,97.231Z" transform="translate(-337.675 -94.311)"/>
            </g>
            <g id="Group_606" data-name="Group 606" transform="translate(19.066 8.297)">
              <path id="Path_2069" data-name="Path 2069" d="M345.744,94.733a.1.1,0,0,0,.029-.2l-5.151-1.5a.1.1,0,0,0-.125.07.1.1,0,0,0,.07.127l5.149,1.494Z" transform="translate(-340.492 -93.035)"/>
            </g>
            <g id="Group_607" data-name="Group 607" transform="translate(10.866 1.772)">
              <path id="Path_2070" data-name="Path 2070" d="M351.332,92.269a.1.1,0,0,0,.1-.074.1.1,0,0,0-.072-.127l-8.249-2.213a.1.1,0,0,0-.123.072.1.1,0,0,0,.072.127l8.247,2.213Z" transform="translate(-342.982 -89.851)"/>
            </g>
          </g>
          <g id="Group_609" data-name="Group 609" transform="translate(55.588 46.421)">
            <path id="Path_2071" data-name="Path 2071" d="M312.907,55.934c.242-.061.424-.182.668-.244,3.826-1.457,7.594-2.733,11.239-3.826a.218.218,0,0,0,.18-.061c7.29-3.463,12.212-2.795,14.4-2.127,15.855,4.739,20.169,37.118,18.1,58.625a90.58,90.58,0,0,1-4.252,20.351l2.854.971a95.7,95.7,0,0,0,4.436-21.08c2-20.957-1.762-56.254-20.292-61.782C336.659,45.728,327.121,44.635,312.907,55.934Z" transform="translate(-312.907 -46.15)" fill="#68301a"/>
          </g>
          <g id="Group_610" data-name="Group 610" transform="translate(166.854 105.931)">
            <path id="Path_2072" data-name="Path 2072" d="M276.918,164.364c.979.311,10.413-15.46,10.7-34.17.051-3.369-1.248-10.944-3.846-26.094-3.266-19.044-4.217-20.841-5.184-20.916-2.559-.2-6.424,11.561-6.856,23.4-.457,12.567,3.285,16.066,4.342,23.3.424,2.9-.1,2.426.006,8.18.2,11.145,1.975,14.081,1.121,22.818C276.955,163.411,276.694,164.294,276.918,164.364Z" transform="translate(-266.334 -66.814)" fill="#588645"/>
            <path id="Path_2073" data-name="Path 2073" d="M269.438,173.226c1.279,1.061,8.337-14.4,11.3-32.071.553-3.3,1-10.909,1.91-26.129.7-11.737,1.25-15.48.357-21.23-1.477-9.507-5.553-19.095-7.567-18.583-1.568.4-2.467,7.071-1.254,12.581.473,2.145.785,1.926,1.254,4.039,1.158,5.2-.533,7.4-.627,14.134-.07,4.957.836,4.575.717,9.86-.1,4.746-.965,4.832-1.182,10.1-.318,7.7,1.027,11.3-1.285,21.38a136.41,136.41,0,0,0-3.733,22.308C269.159,171.9,269.149,172.986,269.438,173.226Z" transform="translate(-257.092 -75.193)" fill="#176937"/>
            <path id="Path_2074" data-name="Path 2074" d="M272.727,130.657c.365,2.492,1.518,3.645,2.49,5.346a11.653,11.653,0,0,1,1.4,4.131c.486,3.524-.424,5.893.547,6.319.912.424,2.065-1.338,4.739-3.463a20.547,20.547,0,0,1,5.041-3.039c1.824-.85,2.977-1.215,4.01-2.854,2.188-3.524.426-7.958.061-8.87a12.775,12.775,0,0,0-4.981-6.014c-1.215-.789-5.407-3.524-8.991-1.822C273.456,122.031,272.18,127.074,272.727,130.657Z" transform="translate(-272.605 -28.354)" fill="#c64d22"/>
            <path id="Path_2075" data-name="Path 2075" d="M276.394,134.784c.486,3.524-.424,5.893.547,6.319.912.424,2.065-1.338,4.739-3.463a20.547,20.547,0,0,1,5.041-3.039c.426-2.125.123-4.131-.85-4.678-1.336-.727-3.4,1.459-4.373.67-1.277-.973.668-5.528.242-5.651-.365,0-1.215,2.612-2.612,2.735s-2.307-2.492-3.158-2.25c-.729.182-.609,1.885-.912,4.86a.76.76,0,0,1-.061.365A11.653,11.653,0,0,1,276.394,134.784Z" transform="translate(-272.385 -23.005)" fill="#efc9b6"/>
          </g>
          <ellipse id="Ellipse_43" data-name="Ellipse 43" cx="4.863" cy="1.936" rx="4.863" ry="1.936" transform="translate(181.241 180.219)" fill="#ff9580"/>
          <path id="Path_2076" data-name="Path 2076" d="M270.351,115.493c.168,1.057,2.455,1.572,5.106,1.152s4.668-1.619,4.5-2.674-2.453-1.572-5.106-1.15S270.185,114.438,270.351,115.493Z" transform="translate(-89.051 70.055)" fill="#ff9580"/>
          <path id="Path_2077" data-name="Path 2077" d="M270.626,116.78c.168,1.055,2.453,1.57,5.106,1.15s4.666-1.619,4.5-2.674-2.455-1.572-5.106-1.15S270.458,115.723,270.626,116.78Z" transform="translate(-89.89 71.403)" fill="#ff9580"/>
          <path id="Path_2078" data-name="Path 2078" d="M270.626,117.912c.168,1.055,2.453,1.57,5.106,1.149s4.666-1.619,4.5-2.674-2.455-1.57-5.106-1.149S270.458,116.857,270.626,117.912Z" transform="translate(-89.89 72.591)" fill="#ff9580"/>
        </g>
        <path id="Path_2079" data-name="Path 2079" d="M330.7,32.4c-3.637,2.842-13.341,9.585-26.334,8.778-4.094-.252-9.216-.57-9.907-2.883-1.654-5.541,22.174-22.363,31.852-15.55C327.7,23.724,330.11,26.109,330.7,32.4Z" transform="translate(-189.034 -15.177)" fill="#68301a"/>
        <path id="Path_2080" data-name="Path 2080" d="M290.231,29.7a2.675,2.675,0,0,0-.379.566c-1.477,2.985,2.711,8.883,7.6,11.708,1.539.889,7.17,4.143,10.811,1.51,3.348-2.42,2.947-8.327,1.133-11.991a11.518,11.518,0,0,0-8.5-6.278,11.833,11.833,0,0,0-9.206,2.69Z" transform="translate(-159.223 -11.041)" fill="#68301a"/>
        <g id="Group_612" data-name="Group 612" transform="translate(28.285 93.034)">
          <path id="Path_2081" data-name="Path 2081" d="M350.923,66.467c.111-.066.115-.129.076-.172l-2.358-2.621a.1.1,0,0,0-.143-.008.1.1,0,0,0-.008.143l2.358,2.623A.1.1,0,0,0,350.923,66.467Z" transform="translate(-348.462 -63.639)"/>
        </g>
        <g id="Group_613" data-name="Group 613" transform="translate(66.462 74.716)">
          <path id="Path_2082" data-name="Path 2082" d="M330.915,62.27a.1.1,0,0,0,.1-.1l.342-7.366a.1.1,0,1,0-.2-.01l-.342,7.366a.1.1,0,0,0,.1.107Z" transform="translate(-330.812 -54.699)"/>
        </g>
        <g id="Group_614" data-name="Group 614" transform="translate(132.345 152.942)">
          <path id="Path_2083" data-name="Path 2083" d="M297.238,94.954c.049-.012,3.512-1.885,3.512-1.885a.1.1,0,0,0,.041-.139.1.1,0,0,0-.137-.041l-3.463,1.873a.1.1,0,0,0-.043.139A.1.1,0,0,0,297.238,94.954Z" transform="translate(-297.136 -92.876)"/>
        </g>
      </g>
      <path id="Path_2084" data-name="Path 2084" d="M256.559,203.717c-7.766,3.022-9.266,6.6-11.727,5.864-3.1-.932-1.221-6.774-5.7-11.565-3.256-3.483-6.116-2.4-11.565-5.377-.742-.406-9.094-5.1-11.727-12.7-3.291-9.5,2.623-22.709,13.355-28.342,12.247-6.43,25.2,1.24,29.483,3.746s17.581,10.28,17.591,23.781c.01,10.829-8.532,20.119-15.148,22.8C260.03,202.367,258.947,202.787,256.559,203.717Z" transform="translate(174.335 119.032)" fill="#588645"/>
      <path id="Path_2085" data-name="Path 2085" d="M214.041,221.081c-5.928-2.459-8.667-1.27-9.641-2.992-1.229-2.172,2.93-4.414,3-9.464.047-3.67-2.123-4.59-3.561-9.149-.2-.623-2.334-7.682.254-13.31,3.233-7.028,13.56-11.216,22.527-8.628,10.229,2.955,13.337,14.118,14.382,17.794s4.289,15.081-2.9,22.588c-5.766,6.022-15.462,6.631-20.57,4.6C216.689,222.181,215.863,221.837,214.041,221.081Z" transform="translate(232.78 148.068)" fill="#588645"/>
      <g id="Group_616" data-name="Group 616" transform="translate(415.436 270.343)">
        <path id="Path_2086" data-name="Path 2086" d="M234.584,150.324a32.064,32.064,0,0,1,3.811,20.13c-1.09,7.542-5.231,14.208-6.733,21.662a53.2,53.2,0,0,0-.785,12.349,12.977,12.977,0,0,1-.676,4.725c-.754,2.34-.26,4.3.1,6.618a27.249,27.249,0,0,1-3.934,18.554c-.209.334-.74.027-.531-.311a27.045,27.045,0,0,0,3.817-9.956c.66-3.987-.178-7.489-.527-11.419a8.187,8.187,0,0,1,.361-3.289,15.68,15.68,0,0,0,.754-5.4,50.335,50.335,0,0,1,.5-10.223c1.17-7.313,4.9-13.71,6.567-20.855a31.325,31.325,0,0,0-3.254-22.281c-.193-.346.338-.656.531-.309Z" transform="translate(-225.784 -150.172)" fill="#4b5041"/>
      </g>
      <g id="Group_617" data-name="Group 617" transform="translate(437.521 335.701)">
        <path id="Path_2087" data-name="Path 2087" d="M204.538,211.726c1.51-3.172,5.186-4.641,8.165-6.082,3.905-1.889,7.922-3.547,11.772-5.551a42.369,42.369,0,0,0,9.823-6.723,22.5,22.5,0,0,0,2.086-2.221,4.86,4.86,0,0,0,1.053-4.323,6.414,6.414,0,0,1-.16-1.711,14.17,14.17,0,0,1,.885-2.436c-.377-.121-.215-.715.162-.594.914.293.66.992.275,1.645a3.52,3.52,0,0,0-.57,2.932,11.887,11.887,0,0,1,.207,1.256,4.291,4.291,0,0,1-.363,2.016,14.429,14.429,0,0,1-3.752,4.44,37.655,37.655,0,0,1-4.961,3.739,96.907,96.907,0,0,1-12.175,6.211c-2.279,1.039-4.553,2.086-6.766,3.258-2.061,1.088-4.112,2.27-5.151,4.455-.17.357-.7.045-.531-.311Z" transform="translate(-204.505 -182.069)" fill="#4b5041"/>
      </g>
      <g id="Group_618" data-name="Group 618" transform="translate(395.168 323.929)">
        <path id="Path_2088" data-name="Path 2088" d="M253.876,216.475l3.9-9.342a45.055,45.055,0,0,0,3.18-8.954c.32-1.74.625-4.471-.512-6.03-1.188-1.625-3.881-.906-5.493-.768-1.713.143-3.676.307-4.383-1.617a9.588,9.588,0,0,1-.238-2.924,7.36,7.36,0,0,0-2.2-5c-2.272-2.295-5.635-3.274-8.7-3.975s-7.624-1.748-10.616-.387c-1.889.859-3.42,2.485-5.579,1.457-.359-.17-.047-.7.309-.531,2.074.988,3.629-.977,5.352-1.658a10.281,10.281,0,0,1,4.336-.363,36.4,36.4,0,0,1,9.489,1.75,13.508,13.508,0,0,1,6.477,3.973,7.9,7.9,0,0,1,1.516,2.9c.342,1.291,0,2.629.3,3.905.928,4.022,6.7.4,9.143,2.057,1.756,1.19,1.766,4.051,1.6,5.9-.285,3.153-1.588,6.106-2.793,9q-2.244,5.388-4.491,10.776c-.152.361-.746.2-.594-.162Z" transform="translate(-223.074 -176.324)" fill="#4b5041"/>
      </g>
      <g id="Group_619" data-name="Group 619" transform="translate(371.437 301.715)">
        <path id="Path_2089" data-name="Path 2089" d="M241.165,229.441c-5.678-3.5-3.557-10.643-2.039-15.806a32.746,32.746,0,0,0,1.2-13.2c-.436-3.713-.645-6.708,1.221-10.046a21.517,21.517,0,0,1,5.672-6.874,15.4,15.4,0,0,1,4.621-2.227c.77-.238,1.567-.369,2.338-.6a4.09,4.09,0,0,0,2.885-3.268c.6-2.156,1.119-3.3,3.408-3.813,4.438-.99,8.69-2.787,9.409-7.895.055-.391.647-.225.594.162a8.916,8.916,0,0,1-3.647,6.006,11.8,11.8,0,0,1-2.973,1.6c-1.776.656-4.756.623-5.676,2.438-1.043,2.057-.66,4.135-3.094,5.137-1.231.508-2.635.643-3.9,1.092a13.86,13.86,0,0,0-5.379,3.432c-2.678,2.77-5.258,6.643-5.295,10.6-.037,3.768.9,7.37.523,11.182-.637,6.375-6.924,17.013.438,21.556.336.207.029.74-.309.531Z" transform="translate(-237.447 -165.483)" fill="#4b5041"/>
      </g>
      <g id="Group_624" data-name="Group 624" transform="translate(375.973 315.563)">
        <g id="Group_623" data-name="Group 623" transform="translate(0 13.987)">
          <path id="Path_2090" data-name="Path 2090" d="M258.3,179.069c7.913.127,15.071,9.09,16.56,17.769a23.2,23.2,0,0,1-45.535,8.837c-2.268-9.7,1.344-21.818,7.633-23.949,2.332-.789,4.426,0,15.218-1.32.336-.041.615-.076.8-.1A11.863,11.863,0,0,1,258.3,179.069Z" transform="translate(-228.647 -179.067)" fill="#ffc200"/>
          <g id="Group_620" data-name="Group 620" transform="translate(28.564 4.584)">
            <path id="Path_2091" data-name="Path 2091" d="M237.408,215.711a.1.1,0,0,0,.09-.053c1.285-2.281,7.43-14.255,2.166-25.943a24.876,24.876,0,0,0-6.229-8.385.1.1,0,0,0-.135.154,24.63,24.63,0,0,1,6.176,8.315c5.225,11.6-.879,23.492-2.158,25.76a.106.106,0,0,0,.041.139A.109.109,0,0,0,237.408,215.711Z" transform="translate(-233.265 -181.304)"/>
          </g>
          <g id="Group_621" data-name="Group 621" transform="translate(7.175 3.642)">
            <path id="Path_2092" data-name="Path 2092" d="M255.077,219.545a.1.1,0,0,0,.1-.068.1.1,0,0,0-.061-.129c-1.762-.625-10.686-4.209-13.345-13.435-2.018-7,.889-13.13,1.844-15.142a25.066,25.066,0,0,1,8.292-9.739.1.1,0,0,0,.027-.141.1.1,0,0,0-.141-.027,25.265,25.265,0,0,0-8.362,9.819c-.963,2.031-3.9,8.21-1.856,15.286,2.686,9.323,11.694,12.942,13.472,13.571Z" transform="translate(-240.864 -180.845)"/>
          </g>
          <g id="Group_622" data-name="Group 622" transform="translate(21.823 3.849)">
            <path id="Path_2093" data-name="Path 2093" d="M241.321,217.7a.1.1,0,0,0,.1-.1c.055-5.358.006-10.786-.145-16.132-.193-6.78-.555-13.651-1.08-20.423a.1.1,0,0,0-.1-.094.1.1,0,0,0-.1.111c.527,6.768.887,13.634,1.08,20.41.152,5.344.2,10.77.148,16.124a.1.1,0,0,0,.1.1Z" transform="translate(-239.993 -180.946)"/>
          </g>
        </g>
        <path id="Path_2094" data-name="Path 2094" d="M238.837,180.607c0,.7,1.818,1.274,4.061,1.274s4.059-.57,4.059-1.274-1.817-1.275-4.059-1.275S238.837,179.9,238.837,180.607Z" transform="translate(-221.313 -164.802)" fill="#176937"/>
        <path id="Path_2095" data-name="Path 2095" d="M249.479,172.247a4.345,4.345,0,0,1-.588,3.071A4.294,4.294,0,0,1,246.8,177c-.234,0-3.375.076-4.909,2.518a6.129,6.129,0,0,0,1.635,7.772l-3.965.914c-.176-.24-3.711-5.221-1.543-9.946,1.408-3.065,4.461-4.381,5.76-4.94A13.465,13.465,0,0,1,249.479,172.247Z" transform="translate(-220.798 -172.241)" fill="#176937"/>
      </g>
      <g id="Group_626" data-name="Group 626" transform="translate(380.982 351.337)">
        <path id="Path_2096" data-name="Path 2096" d="M272.139,196.119c5.666,6.461,7.049,17.972,2.633,21.945-5.27,4.743-16.021-3.752-24.453,2.258-4.635,3.3-3.662,7.491-7.022,8.4-8.208,2.223-25.846-19.548-20.566-29.469.471-.883,1.932-3.192,10.534-5.643C242.877,190.874,262.607,185.253,272.139,196.119Z" transform="translate(-221.762 -189.7)" fill="#588645"/>
        <g id="Group_625" data-name="Group 625" transform="translate(8.019 0.929)">
          <path id="Path_2097" data-name="Path 2097" d="M245.28,228a134.927,134.927,0,0,1-9.169-14.876c-1.137-2.151-2.615-4.457-3.248-6.823a3.135,3.135,0,0,1,1.373-3.826c4.188-2.547,10.132-2.678,14.872-2.953.754-.045,1.963,0,2.426-.8a5.94,5.94,0,0,0,.279-1.744,8.794,8.794,0,0,1,.871-2.879c1.072-1.9,3.717-1.918,4.647-3.791.176-.354.7-.043.531.311-.775,1.555-2.494,1.711-3.739,2.742a5.547,5.547,0,0,0-1.672,3.51,7.3,7.3,0,0,1-.494,2.463c-.805,1.24-3.315.818-4.534.9a48.494,48.494,0,0,0-8.258,1.133,23.258,23.258,0,0,0-3.692,1.2,2.962,2.962,0,0,0-1.842,4.088,53.1,53.1,0,0,0,3.823,7.661,135.234,135.234,0,0,0,8.358,13.364c.229.324-.3.631-.531.311Z" transform="translate(-232.696 -190.154)" fill="#4b5041"/>
        </g>
      </g>
      <g id="Group_628" data-name="Group 628" transform="translate(39.548 306.709)">
        <path id="Path_2098" data-name="Path 2098" d="M419.624,196c-27.184,17.1-30.641,23.228-33.276,21.14-5.272-4.18,1.965-27.912,18.466-40.118,9.561-7.071,24.285-12.013,28.752-7.172,2.926,3.174.7,9.731.195,11.223C431.105,188.908,424.46,192.963,419.624,196Z" transform="translate(-371.752 -167.92)" fill="#176937"/>
        <g id="Group_627" data-name="Group 627" transform="translate(0 30.966)">
          <path id="Path_2099" data-name="Path 2099" d="M429.225,183.21q-7.788,10.441-15.874,20.65c-1.916,2.418-4.879,5.164-8.1,10.073-1.811,2.764-3.776,6.223-3.5,6.411s2.735-2.951,4.573-5.3c4.243-5.438,6.635-9.018,8.391-11.466,8.53-11.9,13.556-17.6,15.222-19.83A.446.446,0,0,0,429.225,183.21Z" transform="translate(-401.727 -183.033)" fill="#176937"/>
        </g>
      </g>
      <g id="Group_630" data-name="Group 630" transform="translate(57.768 317.649)">
        <path id="Path_2100" data-name="Path 2100" d="M386.966,215.454c-4.3-8.37-.313-22.459,8.458-31.774,7.155-7.6,17.468-11.993,19.425-9.882,1.688,1.822-2.91,8.395-1.865,9.085,1.377.91,8.747-10.968,13.122-9.5,2.143.721,2.99,4.459,3.014,7.024.078,7.8-7.335,13.841-16.577,21.375-9.932,8.094-13.138,7.788-16.337,13.6-.879,1.594-2.274,4.592-4.393,4.67C389.376,220.146,387.409,216.315,386.966,215.454Z" transform="translate(-385.226 -173.259)" fill="#588645"/>
        <g id="Group_629" data-name="Group 629" transform="translate(0.591 16.282)">
          <path id="Path_2101" data-name="Path 2101" d="M398.608,236.03c-.7-2.25-.156-4.854-.168-7.186-.012-2.465-.164-4.924-.246-7.385-.176-5.2.031-10.3,2.043-15.175,3.727-9.02,11.333-15.751,15.632-24.476.254-.516-.568-.865-.82-.35-4.709,9.553-13.569,16.88-16.624,27.275-1.322,4.5-1.26,9.186-1.08,13.823.113,2.912.287,5.823.172,8.739a14.471,14.471,0,0,0,.262,5.069c.17.549,1,.211.828-.334Z" transform="translate(-397.249 -181.206)" fill="#588645"/>
        </g>
      </g>
      <g id="Group_632" data-name="Group 632" transform="translate(39.284 251.444)">
        <path id="Path_2102" data-name="Path 2102" d="M402.192,223.9c-7.909-2.3-12.349-22.425-5.159-34.667,3.1-5.276,5.565-4.338,10.4-11.35,6.09-8.84,3.871-12.8,9.069-21.543,5.344-8.987,15.036-17.148,19.41-15.058,3.6,1.719,3.166,10.167,3.016,13.087-.264,5.2-1.643,5.9-3.272,14.769-1.369,7.452-.555,7.817-1.9,10.356-3.27,6.17-8.868,5.514-9.882,9.821-1.162,4.932,5.795,7.391,5.393,13.435-.26,3.948-3.586,6.639-10.227,11.86C410.251,221.513,405.86,224.965,402.192,223.9Z" transform="translate(-393.407 -140.949)" fill="#588645"/>
        <g id="Group_631" data-name="Group 631" transform="translate(7.59 44.457)">
          <path id="Path_2103" data-name="Path 2103" d="M407.1,246.341c-1.928-13.749-1.305-28.477.123-42.265,1.484-14.312,6.77-27.459,12.358-40.583a.618.618,0,0,0-1.137-.484c-5.631,13.226-10.958,26.484-12.444,40.9-1.43,13.866-2.065,28.748-.125,42.585a.618.618,0,0,0,1.225-.156Z" transform="translate(-404.656 -162.645)" fill="#588645"/>
        </g>
      </g>
      <g id="Group_634" data-name="Group 634" transform="translate(0 272.771)">
        <path id="Path_2104" data-name="Path 2104" d="M424.245,220.954c-6.426-4.922-7.751-17.452-2.6-25.086,1.408-2.086,1.756-1.52,2.8-3.344,4.317-7.544-2.99-14.86.611-20.7,2.256-3.658,5.67-1.664,9.2-5.905,4.795-5.754,1.338-12.827,4.455-14.314,3.035-1.449,9.889,3.557,12.3,9.866,1.652,4.317.957,8.534-.156,15.263-1.006,6.094-2.035,6.6-2.078,10.85-.074,7.01,2.694,8.008,1.522,11.632-1.873,5.791-9.346,4.524-11.868,10.88-1.781,4.489.885,7.79-1.963,10.813a8.552,8.552,0,0,1-5.7,2.336A10.109,10.109,0,0,1,424.245,220.954Z" transform="translate(-418.48 -151.357)" fill="#588645"/>
        <g id="Group_633" data-name="Group 633" transform="translate(9.705 33.424)">
          <path id="Path_2105" data-name="Path 2105" d="M444.18,232.447c-9.016-7.645-17.476-16.757-23.345-27.088-7.043-12.4-.879-24.646,2.229-37.161a.446.446,0,0,0-.871-.195c-2.887,11.618-9.012,23.818-3.305,35.587,5.5,11.35,15.173,21.447,24.695,29.52.436.371,1.037-.289.6-.664Z" transform="translate(-416.541 -167.669)" fill="#588645"/>
        </g>
      </g>
      <g id="Group_636" data-name="Group 636" transform="translate(21.304 292.427)">
        <path id="Path_2106" data-name="Path 2106" d="M419.2,214.862c-6.352-12.745-9.536-19.191-9.887-22.812-.658-6.833.666-15.857,4.764-17.22,1.889-.629,3.147.775,4.586-.141,3.383-2.154-1.016-11.542,1.9-13.419,1.906-1.227,6.1,1.293,8.462,3.869,2.756,3,1.977,4.938,4.889,9.358,2.85,4.325,4.526,3.877,5.848,6.5,2.041,4.053-.418,8.161-5.438,19.4-6.708,15.015-8.087,20.589-10.788,20.41C422.19,220.722,421.395,219.259,419.2,214.862Z" transform="translate(-409.155 -160.95)" fill="#176937"/>
        <g id="Group_635" data-name="Group 635" transform="translate(13.492 30.532)">
          <path id="Path_2107" data-name="Path 2107" d="M416.032,176.311,418.1,200.6c.674,7.928,1.408,15.9-.051,23.787a.447.447,0,0,0,.875.18c1.414-7.649.8-15.38.148-23.074l-2.145-25.246a.447.447,0,0,0-.891.059Z" transform="translate(-416.03 -175.85)" fill="#176937"/>
        </g>
      </g>
    </g>
  </g>
</svg>
