<svg xmlns="http://www.w3.org/2000/svg" width="487.428" height="456.551" viewBox="0 0 487.428 456.551">
  <g id="imhhgp" transform="translate(-6.286 -36.583)">
    <g id="Floor">
      <path id="Floor-2" data-name="Floor" d="M77.668,451.921c-95.176-54.95-95.176-144.042,0-198.991s249.488-54.95,344.664,0,95.176,144.041,0,198.991S172.845,506.872,77.668,451.921Z" fill="#fafafa"/>
    </g>
    <g id="Clouds">
      <path id="Cloud" d="M134.207,86.193c-.009-3.134-3.438-5.313-7.328-5.68-4.584-.432-7.835,1.611-7.944,5.221-3-1.23-6.158-.441-5.921,2.855-.78-.9-3.7-.874-4.744-.623a4.1,4.1,0,0,0-2.611,2.225,3.033,3.033,0,0,0-.272,1.687c-1.748-.573-5.722-.923-6.716.68-1.769,2.854,5.3,2.943,6.725,2.081.3,2.22,7.9,2.584,9.737.535,1.437,1.448,3.5,1.767,5.728,1.9,3.758.223,6.062-1.05,8.994-2.547,3.187,2.7,8.7,2.752,11.574-.34.733.692,2.751.906,4.368.52C146.859,94.453,147.1,94,147.1,94a9.31,9.31,0,0,0,1.95.586c2.084.436,5.961-.025,4.334-1.9a4.9,4.9,0,0,0-3.442-.846c-.909-1.788-4.557-3.482-6.651-1.97-.081-2.166-2.061-3.86-4.847-4.291C137.514,85.434,135.273,85.309,134.207,86.193Z" fill="#f5f5f5"/>
      <path id="Cloud-2" data-name="Cloud" d="M385.316,45.772c-.009-3.135-3.437-5.313-7.328-5.68-4.583-.432-7.835,1.611-7.944,5.221-3-1.231-6.158-.441-5.921,2.854-.78-.9-3.7-.873-4.744-.623a4.107,4.107,0,0,0-2.611,2.226,3.031,3.031,0,0,0-.272,1.686c-1.748-.572-5.722-.923-6.715.681-1.769,2.853,5.3,2.942,6.724,2.08.3,2.22,7.9,2.585,9.737.536,1.437,1.447,3.5,1.767,5.728,1.9,3.758.224,6.063-1.049,8.994-2.547,3.188,2.7,8.7,2.752,11.574-.339.733.691,2.751.905,4.368.519,1.062-.253,1.307-.706,1.307-.706a9.251,9.251,0,0,0,1.95.586c2.084.437,5.961-.024,4.334-1.9a4.892,4.892,0,0,0-3.442-.846c-.909-1.789-4.557-3.482-6.65-1.971-.081-2.165-2.062-3.86-4.848-4.29C388.623,45.013,386.382,44.887,385.316,45.772Z" fill="#f0f0f0"/>
      <path id="Cloud-3" data-name="Cloud" d="M110.111,66.55a8.613,8.613,0,0,0-2.877-.531c-.931-.074-1.226-.258-1.406-.46a6.867,6.867,0,0,0-8.244-2.436,5.267,5.267,0,0,0-6.216-3.514c.1-2.9-3.6-6.011-6.923-6.719-3.188-.678-5.968-.393-7.787,1.7-1.947-3.8-9.581-4.874-13.711-2.863-2.376,1.157-4.391,2.344-5.376,4.522a9.075,9.075,0,0,0-.9,4.327,7.62,7.62,0,0,0-6.983-.971c-2.319.9-2.495,2.644-2.609,4.422a8.091,8.091,0,0,0-4.22-.076c-1.461.433-2.3,1.579-2.1,2.506-1.156-.065-3.909.869-3.592,2.089.355,1.37,3.5,1.231,4.673,1.188a21.886,21.886,0,0,0,3.287-.516,5.069,5.069,0,0,0,1.71.325c2-.015,2.849-.873,3.171-1.617.977,2.057,4.454,3.624,6.912,4.253,4.628,1.185,11.177.463,14.028-3a5.145,5.145,0,0,0,1.378,1.68A8,8,0,0,0,76.612,72.6c1.9.178,7,.422,8.439-2.6,1.018,2.009,5.559,2.924,9.013,2.434a14.191,14.191,0,0,0,3.866-1.167,23.167,23.167,0,0,0,2.223-1.333,1.851,1.851,0,0,1,1.9-.13,11.291,11.291,0,0,0,7.54-.008C111.519,68.987,111.921,67.37,110.111,66.55Z" fill="#ebebeb"/>
    </g>
    <g id="Plants">
      <g id="Plants-2" data-name="Plants">
        <g id="Plants-3" data-name="Plants">
          <path id="Path_7715" data-name="Path 7715" d="M36.044,317.159a5.029,5.029,0,0,0,.2-5.364c-1.233-2.309-3.5-3.965-3.807-3.911s-1.1,2.732,0,5.594A5.884,5.884,0,0,0,36.044,317.159Z" fill="#2b9f5d"/>
          <path id="Path_7716" data-name="Path 7716" d="M34.752,323.531a5.034,5.034,0,0,0-2.266-4.867c-2.152-1.491-4.923-1.931-5.173-1.742s.271,2.932,2.556,4.976A5.887,5.887,0,0,0,34.752,323.531Z" fill="#2b9f5d"/>
          <path id="Path_7717" data-name="Path 7717" d="M38.954,328.1a5.032,5.032,0,0,0,4.4-3.074c1.1-2.378,1.209-4.941.98-5.154s-3.146.833-4.759,3.065A5.288,5.288,0,0,0,38.954,328.1Z" fill="#2b9f5d"/>
          <path id="Path_7718" data-name="Path 7718" d="M36.711,327.75a52.053,52.053,0,0,1-.4,6.121c.335.075.67.147,1.021.206l.1.017a51.37,51.37,0,0,0-.314-12.869,27.541,27.541,0,0,0-2.376-8.483c-.028-.055-.178-.016-.16.045a40.837,40.837,0,0,1,1.6,7.831A48.247,48.247,0,0,1,36.711,327.75Z" fill="#37474f"/>
          <path id="Path_7719" data-name="Path 7719" d="M37.68,329.8a15.6,15.6,0,0,0,2.362-2.563,8.819,8.819,0,0,0,1.549-2.942c.039-.151-.148-.007-.2.076a25.385,25.385,0,0,1-1.729,2.427,11.264,11.264,0,0,1-2.32,2.141.7.7,0,0,0-.26.761A.369.369,0,0,0,37.68,329.8Z" fill="#37474f"/>
          <path id="Path_7720" data-name="Path 7720" d="M37.578,327.548a12.993,12.993,0,0,0-2.5-4.266,14.734,14.734,0,0,0-1.538-1.67,8.929,8.929,0,0,0-2.2-1.544c-.034-.011-.255-.021-.2.02a23.969,23.969,0,0,1,1.937,1.781,13.578,13.578,0,0,1,1.538,1.837,21.4,21.4,0,0,1,2.376,4.142C37.122,328.154,37.664,327.823,37.578,327.548Z" fill="#37474f"/>
        </g>
      </g>
      <g id="Plants-4" data-name="Plants">
        <g id="Plants-5" data-name="Plants">
          <path id="Path_7721" data-name="Path 7721" d="M469.464,310.98a5.032,5.032,0,0,1-.2-5.365c1.234-2.308,3.5-3.965,3.807-3.91s1.1,2.731,0,5.594A5.886,5.886,0,0,1,469.464,310.98Z" fill="#2b9f5d"/>
          <path id="Path_7722" data-name="Path 7722" d="M470.756,317.351a5.029,5.029,0,0,1,2.266-4.866c2.152-1.491,4.923-1.931,5.173-1.742s-.271,2.931-2.557,4.975A5.882,5.882,0,0,1,470.756,317.351Z" fill="#2b9f5d"/>
          <path id="Path_7723" data-name="Path 7723" d="M466.553,321.918a5.03,5.03,0,0,1-4.4-3.074c-1.1-2.377-1.209-4.94-.979-5.154s3.146.834,4.759,3.066A5.285,5.285,0,0,1,466.553,321.918Z" fill="#2b9f5d"/>
          <path id="Path_7724" data-name="Path 7724" d="M468.8,321.57a52.524,52.524,0,0,0,.4,6.122c-.334.075-.669.146-1.02.206l-.1.017a51.378,51.378,0,0,1,.315-12.87,27.553,27.553,0,0,1,2.375-8.482c.029-.056.179-.016.16.045a41,41,0,0,0-1.595,7.83A48.257,48.257,0,0,0,468.8,321.57Z" fill="#37474f"/>
          <path id="Path_7725" data-name="Path 7725" d="M467.828,323.617a15.515,15.515,0,0,1-2.362-2.563,8.839,8.839,0,0,1-1.55-2.942c-.038-.15.149-.007.2.077a25.683,25.683,0,0,0,1.728,2.427,11.3,11.3,0,0,0,2.321,2.141.7.7,0,0,1,.26.76A.369.369,0,0,1,467.828,323.617Z" fill="#37474f"/>
          <path id="Path_7726" data-name="Path 7726" d="M467.93,321.369a12.98,12.98,0,0,1,2.5-4.267,14.646,14.646,0,0,1,1.538-1.67,8.956,8.956,0,0,1,2.2-1.544c.033-.011.254-.021.2.021a23.79,23.79,0,0,0-1.936,1.781,13.6,13.6,0,0,0-1.539,1.837,21.441,21.441,0,0,0-2.375,4.141C468.386,321.974,467.844,321.643,467.93,321.369Z" fill="#37474f"/>
        </g>
      </g>
      <g id="Plants-6" data-name="Plants">
        <g id="Plants-7" data-name="Plants">
          <path id="Path_7727" data-name="Path 7727" d="M172.034,416.042a6.461,6.461,0,0,1-.264-6.89c1.585-2.965,4.494-5.092,4.89-5.023s1.409,3.509-.005,7.185A7.56,7.56,0,0,1,172.034,416.042Z" fill="#2b9f5d"/>
          <path id="Path_7728" data-name="Path 7728" d="M173.693,424.224a6.46,6.46,0,0,1,2.91-6.25c2.764-1.915,6.322-2.48,6.643-2.237s-.347,3.765-3.283,6.39A7.556,7.556,0,0,1,173.693,424.224Z" fill="#2b9f5d"/>
          <path id="Path_7729" data-name="Path 7729" d="M168.3,430.09a6.462,6.462,0,0,1-5.653-3.948c-1.408-3.053-1.553-6.346-1.258-6.62s4.041,1.071,6.112,3.938C169.755,426.585,168.489,429.138,168.3,430.09Z" fill="#2b9f5d"/>
          <path id="Path_7730" data-name="Path 7730" d="M171.176,429.643a66.959,66.959,0,0,0,.52,7.862c-.43.1-.859.188-1.311.264l-.13.022a66.014,66.014,0,0,1,.4-16.528,35.366,35.366,0,0,1,3.051-10.894c.037-.072.229-.021.2.057a52.569,52.569,0,0,0-2.048,10.057A61.975,61.975,0,0,0,171.176,429.643Z" fill="#37474f"/>
          <path id="Path_7731" data-name="Path 7731" d="M169.932,432.272a19.979,19.979,0,0,1-3.033-3.292,11.308,11.308,0,0,1-1.99-3.778c-.05-.194.19-.009.256.1a32.707,32.707,0,0,0,2.22,3.117,14.467,14.467,0,0,0,2.98,2.749.9.9,0,0,1,.334.977A.474.474,0,0,1,169.932,432.272Z" fill="#37474f"/>
          <path id="Path_7732" data-name="Path 7732" d="M170.063,429.384a16.692,16.692,0,0,1,3.216-5.48,18.9,18.9,0,0,1,1.975-2.144,11.472,11.472,0,0,1,2.822-1.983c.043-.014.327-.028.258.026a30.687,30.687,0,0,0-2.486,2.288,17.436,17.436,0,0,0-1.976,2.359,27.449,27.449,0,0,0-3.051,5.319C170.649,430.162,169.953,429.737,170.063,429.384Z" fill="#37474f"/>
        </g>
      </g>
    </g>
    <g id="Shadows">
      <path id="Shadow" d="M311.093,456.611a84.051,84.051,0,0,0-21.686-9.193c-9.774-2.8-21.332-4.855-29.647-8.244-10.806-4.4-15.64-10.922-15.967-18.15-.185-4.094,1.557-8.921,10.286-13.248a32.594,32.594,0,0,1,8.057-2.784,34.266,34.266,0,0,1,11.842-.092c17.6,2.608,25.906,9.385,32.681,16.161s14.29,10.171,27.683,15.521c5.733,2.29,11.839,4.459,17.284,6.829l.132.058a65.633,65.633,0,0,1,7.975,3.661c3.561,2.235,6.757,4.61,8.332,7.391s1.471,6-1.458,9.438a9.3,9.3,0,0,1-3.614,2.624,26.7,26.7,0,0,1-5.532,1.535,50.774,50.774,0,0,1-11.294.763,53.285,53.285,0,0,1-8.894-1.216A75.731,75.731,0,0,1,311.093,456.611Z" fill="#f0f0f0"/>
      <path id="Shadow-2" data-name="Shadow" d="M196.5,303.548a80.52,80.52,0,0,0-20.524-9.368c-9.284-2.937-20.3-5.206-28.169-8.668-10.232-4.5-14.69-10.866-14.814-17.794-.071-3.925,1.723-8.5,10.195-12.416a31.158,31.158,0,0,1,7.786-2.455,32.8,32.8,0,0,1,11.34.221c16.781,2.957,24.56,9.663,30.869,16.327s13.416,10.112,26.1,15.584c5.429,2.342,11.218,4.578,16.37,6.99l.125.059a62.443,62.443,0,0,1,7.539,3.713c3.352,2.233,6.35,4.59,7.786,7.294s1.251,5.786-1.644,9a8.9,8.9,0,0,1-3.528,2.418,25.546,25.546,0,0,1-5.337,1.326,48.633,48.633,0,0,1-10.833.435,51.029,51.029,0,0,1-8.484-1.4A72.543,72.543,0,0,1,196.5,303.548Z" fill="#f0f0f0"/>
      <path id="Shadow-3" data-name="Shadow" d="M89.392,378.663a77.517,77.517,0,0,0-20-8.458c-9.012-2.574-19.669-4.459-27.337-7.576-9.966-4.052-14.428-10.057-14.735-16.72-.174-3.774,1.429-8.226,9.473-12.221a29.992,29.992,0,0,1,7.425-2.574,31.6,31.6,0,0,1,10.917-.094c16.225,2.391,23.891,8.632,30.142,14.873s13.181,9.366,25.533,14.288c5.287,2.106,10.917,4.1,15.939,6.282l.122.053a60.219,60.219,0,0,1,7.355,3.369c3.285,2.057,6.233,4.244,7.688,6.807s1.36,5.532-1.338,8.7a8.562,8.562,0,0,1-3.329,2.422,24.6,24.6,0,0,1-5.1,1.42,46.768,46.768,0,0,1-10.412.712,49.192,49.192,0,0,1-8.2-1.113A69.825,69.825,0,0,1,89.392,378.663Z" fill="#f0f0f0"/>
      <path id="Shadow-4" data-name="Shadow" d="M409.276,337.29a77.492,77.492,0,0,0-20-8.458c-9.012-2.575-19.669-4.459-27.337-7.576-9.966-4.052-14.428-10.057-14.735-16.72-.174-3.774,1.428-8.226,9.473-12.222a30.032,30.032,0,0,1,7.425-2.573,31.6,31.6,0,0,1,10.917-.094c16.225,2.391,23.891,8.632,30.142,14.873s13.181,9.366,25.533,14.287c5.286,2.107,10.917,4.1,15.939,6.282l.122.053a60.365,60.365,0,0,1,7.355,3.37c3.285,2.057,6.233,4.244,7.687,6.807s1.361,5.532-1.337,8.7a8.558,8.558,0,0,1-3.33,2.422,24.587,24.587,0,0,1-5.1,1.42,46.77,46.77,0,0,1-10.412.712,49.174,49.174,0,0,1-8.2-1.113A69.839,69.839,0,0,1,409.276,337.29Z" fill="#f0f0f0"/>
      <path id="Shadow-5" data-name="Shadow" d="M185.443,349.313a106.229,106.229,0,0,1,22.793,11.278c7.991,5.231,15.3,11.556,23.809,15.895,11.057,5.64,23.737,7.662,36.134,7.051,7.022-.346,14.654-1.864,19.127-7.288a8.021,8.021,0,0,0,2.073-4.873c.025-2.643-1.834-4.906-3.755-6.721-10.247-9.687-24.515-13.65-38.272-16.743s-22.015-6.979-35.535-13.981c-5.787-3-11.49-6.219-17.32-9.044l-.142-.068A90.264,90.264,0,0,0,185.5,320.7a68.748,68.748,0,0,0-15.319-3.909,31.4,31.4,0,0,0-15.564,1.866A6.954,6.954,0,0,0,151.345,321a5.651,5.651,0,0,0-.784,3.3A11.873,11.873,0,0,0,153,330.785a25.52,25.52,0,0,0,5,4.908C166.047,341.994,175.875,345.935,185.443,349.313Z" fill="#e0e0e0"/>
    </g>
    <g id="Character_5" data-name="Character 5">
      <g id="Character">
        <path id="Arm" d="M428.264,122.79c7.128.459,9.9.574,13.982,5.9s12.509,26.009,14.63,30.242,2.8,5.793,2.8,10.828c0,5.245-1.846,14.816-2.47,20.007-.288,2.4-.392,4.714-.513,7.151a55.17,55.17,0,0,1-1.382,7.45,6.828,6.828,0,0,1-1.647,3.163c-.516.574-1.291.727-1.781,1.268-.508.559-.52,1.364-1.234,1.845-.794.535-1.8.4-2.49.929a22.164,22.164,0,0,1-2.1,1.8,4.723,4.723,0,0,0-1.8,1.375c-.415.6-.731,1.847-1.617,1.874-.994.029-1.275-.9-1.432-1.713a7.558,7.558,0,0,1,.985-4.619,42.991,42.991,0,0,1,2.3-4.435,10.536,10.536,0,0,0,1.554-4.42c.177-1.053-.086-2.338-1.317-1.576-1.451.9-2.891,2.58-4.781,2.5-1.307-.053-1.508-1.052-.872-1.991a37.481,37.481,0,0,0,2.785-4.855c.828-1.715,1.465-3.5,2.339-5.189a22.656,22.656,0,0,1,1.6-2.545c1.6-2.283,1.165-5.057,1.042-7.671-.172-3.649-.443-7.294-.738-10.935a6.32,6.32,0,0,0-.167-2.008l-11.322-19.624Z" fill="#e0e0e0"/>
        <g id="Bottom">
          <g id="Group_1588" data-name="Group 1588">
            <g id="Group_1586" data-name="Group 1586">
              <path id="Path_7733" data-name="Path 7733" d="M360.485,300.672c-.532-.258-.847,1.511-.723,2.378.107.747,1.105,3.554,4.786,5.871s9.515,3.72,11.914,4.523,4.288,2.759,7.434,4.416c2.8,1.472,7.045,2.221,8.919,1.423a2.843,2.843,0,0,0,1.393-1.974c.533-1.535.505-1.9.319-1.952Z" fill="#e0e0e0"/>
            </g>
            <g id="Group_1587" data-name="Group 1587">
              <path id="Path_7734" data-name="Path 7734" d="M365.3,296.362c-2.041.292-4.738,1.659-5.157,4.481-.166,1.789,1.086,2.911,2.441,4.219a21.57,21.57,0,0,0,5.56,3.552,64.3,64.3,0,0,0,8.349,2.817,25.8,25.8,0,0,1,5.848,2.934c2.859,1.773,4.927,2.741,8.044,2.975,1.181.089,2.938.041,3.862-.9a13.911,13.911,0,0,0,1.628-4.477,25.791,25.791,0,0,1,.83-5.329h0c-.741.867-2.367,2.053-7.34,1.414a57.467,57.467,0,0,1-14.566-3.519c-4.263-1.814-4.973-5.859-2.9-7.046C369.785,296.887,367.452,296.054,365.3,296.362Z" fill="#e0e0e0"/>
              <path id="Path_7735" data-name="Path 7735" d="M365.3,296.362c-2.041.292-4.738,1.659-5.157,4.481-.166,1.789,1.086,2.911,2.441,4.219a21.57,21.57,0,0,0,5.56,3.552,64.3,64.3,0,0,0,8.349,2.817,25.8,25.8,0,0,1,5.848,2.934c2.859,1.773,4.927,2.741,8.044,2.975,1.181.089,2.938.041,3.862-.9a13.911,13.911,0,0,0,1.628-4.477,25.791,25.791,0,0,1,.83-5.329h0c-.741.867-2.367,2.053-7.34,1.414a57.467,57.467,0,0,1-14.566-3.519c-4.263-1.814-4.973-5.859-2.9-7.046C369.785,296.887,367.452,296.054,365.3,296.362Z" opacity="0.1"/>
            </g>
            <path id="Path_7736" data-name="Path 7736" d="M374.794,304.526a57.467,57.467,0,0,0,14.566,3.519c4.973.639,6.6-.547,7.34-1.414h0c.1-.288.2-.586.324-.9,1.2-3.085,3.458-9.88,3.458-9.88s-13.021-5.032-13.144-4.58c-.573,2.12-.7,7.165-4.757,7.873-1.694.3-8.076-.926-10.689-1.659C369.821,298.667,370.531,302.712,374.794,304.526Z" fill="#e0e0e0"/>
          </g>
          <g id="Group_1591" data-name="Group 1591">
            <path id="Path_7737" data-name="Path 7737" d="M431.3,331.221a4.61,4.61,0,0,1,2.168-2.429,6.641,6.641,0,0,1,1.082.2C433.933,329.6,431.718,330.459,431.3,331.221Z" opacity="0.1"/>
            <path id="Path_7738" data-name="Path 7738" d="M451.706,313.121c-.346-1.328-1.545-2.035-2.71-2.756-.865-.536-1.821-1.086-2.661-1.667v0s-3.9-.322-5.887,1.884-2.869,6.253-2.648,12.652-3.237,8.753-4.875,8.239,1.625-2.484,1.625-2.484a7.976,7.976,0,0,0-4.775.243.222.222,0,0,1-.056.029,7.379,7.379,0,0,0-1.172.537c-3.115,1.732-2.923,4.3-2.923,4.3s-.381,2.225,5.762,4.454a7.986,7.986,0,0,0,5.625.55c.2-.077.379-.144.557-.232,3.083-1.479,10.732-5.333,10.63-5.8a5.92,5.92,0,0,1,.054-1.443c.061-1.126.133-2.251.207-3.375a15.872,15.872,0,0,1,.259-3.215,16.417,16.417,0,0,0,.488-2.652c.267-2.257,1.5-3.92,1.764-6.177a8.044,8.044,0,0,0,.07-1.958C451.021,314.1,451.744,313.269,451.706,313.121Z" fill="#e0e0e0"/>
            <g id="Group_1589" data-name="Group 1589">
              <path id="Path_7739" data-name="Path 7739" d="M432.925,331.475c1.638.514,5.1-1.839,4.875-8.239s.662-10.445,2.648-12.652,5.887-1.884,5.887-1.884v0a7.18,7.18,0,0,1-1.843-1.676,52.456,52.456,0,0,1-2.52-4.756c-.695-1.464-3.472-1.795-8.37,1.706-5.12,3.66-4.269,6.493-3.276,7.611.891,1.289,2.187,3.025,3.364,4.913a11.745,11.745,0,0,1,1.35,5.341,31.866,31.866,0,0,1-.069,4.325,8.109,8.109,0,0,1-.421,2.829S431.287,330.96,432.925,331.475Z" fill="#e0e0e0"/>
            </g>
            <path id="Path_7740" data-name="Path 7740" d="M451.706,313.121c-.346-1.328-1.545-2.035-2.71-2.756-.865-.536-1.821-1.086-2.661-1.667v0s-3.9-.322-5.887,1.884-2.869,6.253-2.648,12.652-3.237,8.753-4.875,8.239,1.625-2.484,1.625-2.484a7.976,7.976,0,0,0-4.775.243.222.222,0,0,1-.056.029,7.379,7.379,0,0,0-1.172.537c-3.115,1.732-2.923,4.3-2.923,4.3s-.381,2.225,5.762,4.454a7.986,7.986,0,0,0,5.625.55c.2-.077.379-.144.557-.232,3.083-1.479,10.732-5.333,10.63-5.8a5.92,5.92,0,0,1,.054-1.443c.061-1.126.133-2.251.207-3.375a15.872,15.872,0,0,1,.259-3.215,16.417,16.417,0,0,0,.488-2.652c.267-2.257,1.5-3.92,1.764-6.177a8.044,8.044,0,0,0,.07-1.958C451.021,314.1,451.744,313.269,451.706,313.121Z" opacity="0.1"/>
            <g id="Group_1590" data-name="Group 1590">
              <path id="Path_7741" data-name="Path 7741" d="M452.447,314.434c1.368.577.235,2.792-1.414,6.093a12.826,12.826,0,0,0-1.637,8.216c.326,2.978-.375,4.436-1.664,5.472s-10.844,5.228-10.844,5.228a17.516,17.516,0,0,0,3.766-10.035c.525-6.552,1.149-10.76,4.41-13.616A7.832,7.832,0,0,1,452.447,314.434Z" fill="#e0e0e0"/>
              <path id="Path_7742" data-name="Path 7742" d="M452.447,314.434c1.368.577.235,2.792-1.414,6.093a12.826,12.826,0,0,0-1.637,8.216c.326,2.978-.375,4.436-1.664,5.472s-10.844,5.228-10.844,5.228a17.516,17.516,0,0,0,3.766-10.035c.525-6.552,1.149-10.76,4.41-13.616A7.832,7.832,0,0,1,452.447,314.434Z" opacity="0.18"/>
            </g>
            <path id="Path_7743" data-name="Path 7743" d="M425.621,334.1c.156,1.275,3.813,3.877,8.127,3.833,4.45-.046,4.688-.972,5.359-6.032s1.134-12.076,3.322-15.086,5.069-4.789,9.277-3.691c.48.234,1.787,1.535,1.3,2.754,0,0,.012-.962-1.715-1.462-1.481-.429-3.249-.385-5.719,1.746-2.882,2.487-3.527,8.324-3.856,13.34s-1.9,9.829-6.047,10.274a12.406,12.406,0,0,1-10-3.1A4.63,4.63,0,0,1,425.621,334.1Z" fill="#e0e0e0"/>
          </g>
          <g id="Group_1592" data-name="Group 1592">
            <path id="Path_7744" data-name="Path 7744" d="M410.261,186.877s-5.438,6.518-8.727,18.709a281.738,281.738,0,0,0-6.785,34.441c-.785,5.19-1.362,8.894-2.773,18.347-1.175,7.875-6.347,36.209-6.347,36.209a30.961,30.961,0,0,0,7.505,3.519c2.39.583,6.259.913,7.35.464,0,0,2.6-6.82,7.125-19.123a117.449,117.449,0,0,0,5.212-17.37c.593-3.044.449-8.46.391-11.193l21.936-38.132s5.412-3.751,7.374-9.12c3.013-8.246.187-16.751.187-16.751Z" fill="#f0f0f0"/>
            <path id="Path_7745" data-name="Path 7745" d="M434.206,197.429H404.325a64.323,64.323,0,0,0-2.791,8.157,265.207,265.207,0,0,0-6.375,31.711c.727,4.891,1.549,9.907,2.311,13.369,2.007,9.114,3.261,15.553,4.85,19.316a61.5,61.5,0,0,0,5.417,9.106,116.319,116.319,0,0,0,5.084-17.016c.593-3.043.449-8.459.391-11.192l17.771-30.891h0l1.273-4.862C436.771,207.768,436.27,202.249,434.206,197.429Z" fill="#e0e0e0"/>
          </g>
          <g id="Group_1593" data-name="Group 1593">
            <path id="Path_7746" data-name="Path 7746" d="M429.136,186.877a23.35,23.35,0,0,1,5.533,13.838,20.745,20.745,0,0,1-4.373,13.676c-1.136,16.649-4.426,48.714-4.426,48.714,4.4,4.53,5.538,7.452,8.085,15.572,1.546,4.929,7.352,20.778,8.8,25.191-7.708.942-11.9,8.6-11.9,8.6s-13.551-20.026-20.08-31.806c-4.826-8.709-5.934-10.4-7.244-15.59a192.123,192.123,0,0,1-3.821-20.831c-1.587-10.832-4.4-25.755-5.177-36.419s-.921-21.967-.921-21.967Z" fill="#f0f0f0"/>
          </g>
        </g>
        <g id="Top">
          <g id="Group_1597" data-name="Group 1597">
            <g id="Group_1594" data-name="Group 1594">
              <path id="Path_7747" data-name="Path 7747" d="M400.094,91.062a5.32,5.32,0,0,0,2.183-5.169,11.9,11.9,0,0,1-.593-3.187,3.787,3.787,0,0,1,3.018-2.99c1.511-.364,2.989.219,4.455-.032,1.152-.2,2.292-.6,3.473-.775a29.742,29.742,0,0,1,7.4-.186,17.747,17.747,0,0,1,12.527,6.568c.987,1.305-12.635,26.906-11.962,32.216-2.829-2.975-5.559-6.048-8.307-9.1-2.7-3-6.327-6.1-7.879-9.906-.382-.937-.72-2.649-1.7-3.149a3.177,3.177,0,0,0-1.764-.219,3.707,3.707,0,0,0-2.8,1.368,1.76,1.76,0,0,0,.765,2.636,5.6,5.6,0,0,1-2.6-2.217,3.309,3.309,0,0,1-.057-3.309C397.068,92.3,398.794,91.944,400.094,91.062Z" fill="#e0e0e0"/>
              <path id="Path_7748" data-name="Path 7748" d="M400.094,91.062a5.32,5.32,0,0,0,2.183-5.169,11.9,11.9,0,0,1-.593-3.187,3.787,3.787,0,0,1,3.018-2.99c1.511-.364,2.989.219,4.455-.032,1.152-.2,2.292-.6,3.473-.775a29.742,29.742,0,0,1,7.4-.186,17.747,17.747,0,0,1,12.527,6.568c.987,1.305-12.635,26.906-11.962,32.216-2.829-2.975-5.559-6.048-8.307-9.1-2.7-3-6.327-6.1-7.879-9.906-.382-.937-.72-2.649-1.7-3.149a3.177,3.177,0,0,0-1.764-.219,3.707,3.707,0,0,0-2.8,1.368,1.76,1.76,0,0,0,.765,2.636,5.6,5.6,0,0,1-2.6-2.217,3.309,3.309,0,0,1-.057-3.309C397.068,92.3,398.794,91.944,400.094,91.062Z" opacity="0.1"/>
            </g>
            <g id="Group_1595" data-name="Group 1595">
              <path id="Path_7749" data-name="Path 7749" d="M403.073,99.291s-3.73,6.1-3.317,6.594a19.178,19.178,0,0,0,2.763,1.827Z" fill="#e0e0e0"/>
              <path id="Path_7750" data-name="Path 7750" d="M403.073,99.291s-3.73,6.1-3.317,6.594a19.178,19.178,0,0,0,2.763,1.827Z" opacity="0.1"/>
              <path id="Path_7751" data-name="Path 7751" d="M407.708,88.18c-2.5,1.183-4.672,3.1-5.45,8.6-.2,1.436.917,3.4.408,5.309-2.179,8.177.407,15,2,16.5,1.074,1.015,6.69,1.466,9.636.646,3.687-1.028,11.7-4.644,15.516-10.407,4.493-6.78,5.544-15.9.54-19.556C423.315,84.117,410.379,86.918,407.708,88.18Z" fill="#e0e0e0"/>
              <path id="Path_7752" data-name="Path 7752" d="M426.864,112.689l1.46,10.1h0c2.252.483,2.467,3.15,1.347,5.172l.521,2.839-15.4,2.828-1.726-14.123Z" fill="#e0e0e0"/>
              <path id="Path_7753" data-name="Path 7753" d="M404.962,118.791c1.307.724,4.188,1.261,8.1.715l-.229-2a25.167,25.167,0,0,1-3.82,1.095A13.7,13.7,0,0,1,404.962,118.791Z" fill="#e0e0e0"/>
              <path id="Path_7754" data-name="Path 7754" d="M404.962,118.791c1.307.724,4.188,1.261,8.1.715l-.229-2a25.167,25.167,0,0,1-3.82,1.095A13.7,13.7,0,0,1,404.962,118.791Z" opacity="0.1"/>
            </g>
            <g id="Group_1596" data-name="Group 1596">
              <path id="Path_7755" data-name="Path 7755" d="M400.547,93.773c.086.7-.069,1.415,0,2.118.17,1.676,1.88,1.858,3.254,1.765,3.138-.212,2.748.577,3.234,3.038.357,1.806,1.043,3.284,2.82,3.881,1.087.366,1.407-.113,1.8-.971.552-1.219,1.243-3.089,3.861-2.729,3,.412,3.793,4.931,2.044,7.892a4.4,4.4,0,0,1-3.383,2.277,2.747,2.747,0,0,1-2.043-.964,6.113,6.113,0,0,1,.531,2.944,6.414,6.414,0,0,0,1.1,4.021c1.136,1.434,3.067,1.9,4.7,2.738,1.843.946,4.127,2.39,6.172,1.063a9.82,9.82,0,0,1,1.916-1.333c1.465-.51,2.964.73,4.515.775a3.019,3.019,0,0,0,2.4-1.108,18.36,18.36,0,0,1,1.094-1.587,5.583,5.583,0,0,1,2.863-1.1c1.012-.229,2.129-.728,2.4-1.73.261-.971-.4-2.023-.1-2.983a2.96,2.96,0,0,1,2.121-1.625,4.23,4.23,0,0,0,2.382-1.325,2.816,2.816,0,0,0,.4-1.541,5.492,5.492,0,0,0-.948-3.151,4.348,4.348,0,0,1-.847-1.484c-.312-1.538,1.5-3.556,1.992-4.982a5.674,5.674,0,0,0,.391-1.991,4.939,4.939,0,0,0-2.012-3.517c-1.988-1.623-4.99-2.221-5.153-5.231-.08-1.464.292-2.971-.118-4.379a4.153,4.153,0,0,0-2.941-2.815c-1.228-.3-2.569-.024-3.745-.486-1.295-.509-2.091-1.781-2.972-2.859a8.434,8.434,0,0,0-3.707-2.775,4.765,4.765,0,0,0-4.455.623c-.914.738-1.5,1.9-2.589,2.352-1.8.747-3.691-.863-5.632-1.056-2.684-.267-4.983,2.489-4.946,5.186a5.26,5.26,0,0,1-.1,1.881,2.978,2.978,0,0,1-2.655,1.61,18.844,18.844,0,0,0-3.265.226,4.144,4.144,0,0,0-2.551,5.508c.6,1.291,1.9,2.254,2.155,3.656C400.532,93.661,400.54,93.717,400.547,93.773Z" fill="#e0e0e0"/>
              <path id="Path_7756" data-name="Path 7756" d="M400.547,93.773c.086.7-.069,1.415,0,2.118.17,1.676,1.88,1.858,3.254,1.765,3.138-.212,2.748.577,3.234,3.038.357,1.806,1.043,3.284,2.82,3.881,1.087.366,1.407-.113,1.8-.971.552-1.219,1.243-3.089,3.861-2.729,3,.412,3.793,4.931,2.044,7.892a4.4,4.4,0,0,1-3.383,2.277,2.747,2.747,0,0,1-2.043-.964,6.113,6.113,0,0,1,.531,2.944,6.414,6.414,0,0,0,1.1,4.021c1.136,1.434,3.067,1.9,4.7,2.738,1.843.946,4.127,2.39,6.172,1.063a9.82,9.82,0,0,1,1.916-1.333c1.465-.51,2.964.73,4.515.775a3.019,3.019,0,0,0,2.4-1.108,18.36,18.36,0,0,1,1.094-1.587,5.583,5.583,0,0,1,2.863-1.1c1.012-.229,2.129-.728,2.4-1.73.261-.971-.4-2.023-.1-2.983a2.96,2.96,0,0,1,2.121-1.625,4.23,4.23,0,0,0,2.382-1.325,2.816,2.816,0,0,0,.4-1.541,5.492,5.492,0,0,0-.948-3.151,4.348,4.348,0,0,1-.847-1.484c-.312-1.538,1.5-3.556,1.992-4.982a5.674,5.674,0,0,0,.391-1.991,4.939,4.939,0,0,0-2.012-3.517c-1.988-1.623-4.99-2.221-5.153-5.231-.08-1.464.292-2.971-.118-4.379a4.153,4.153,0,0,0-2.941-2.815c-1.228-.3-2.569-.024-3.745-.486-1.295-.509-2.091-1.781-2.972-2.859a8.434,8.434,0,0,0-3.707-2.775,4.765,4.765,0,0,0-4.455.623c-.914.738-1.5,1.9-2.589,2.352-1.8.747-3.691-.863-5.632-1.056-2.684-.267-4.983,2.489-4.946,5.186a5.26,5.26,0,0,1-.1,1.881,2.978,2.978,0,0,1-2.655,1.61,18.844,18.844,0,0,0-3.265.226,4.144,4.144,0,0,0-2.551,5.508c.6,1.291,1.9,2.254,2.155,3.656C400.532,93.661,400.54,93.717,400.547,93.773Z" opacity="0.1"/>
            </g>
          </g>
          <g id="Group_1598" data-name="Group 1598">
            <path id="Path_7757" data-name="Path 7757" d="M440.437,131.047c-1.379-4.5-5.949-6.87-7.341-7.274s-4.772-.983-4.772-.983c.78,1.785-.541,2.957-2.848,3.494-2.979.694-7.505.772-10.586-1.277l-1.264-.781a102.313,102.313,0,0,0-9.946,3c-.67.311-4.377,1.561-10.217,14.659-2.5,5.6-1.749,11.294,2.832,15.331.259,3.553-1.669,11.241-1.669,11.241a91.979,91.979,0,0,0-1.148,20.491s2.76,7.254,24.464,7.178c16.81-.06,25.253-8.2,25.253-8.2-.2-4.137-6.663-18.538-6.024-23.376C438.175,157.452,444.648,144.778,440.437,131.047Z" fill="#fafafa"/>
          </g>
          <path id="Arm-2" data-name="Arm" d="M403.68,127.222c4.419,3.593,4.764,8.539,4.073,15.211s-7.363,27.513-8.726,32.047-3.336,6.12-6.788,9.784c-3.6,3.818-11.513,9.508-15.529,12.855-1.859,1.548-3.521,3.158-5.283,4.847a54.824,54.824,0,0,1-6.119,4.469,6.82,6.82,0,0,1-3.369,1.17c-.769.063-1.437-.357-2.165-.3-.753.058-1.315.635-2.164.494-.945-.156-1.583-.951-2.448-1.034a21.816,21.816,0,0,1-2.76-.135,4.728,4.728,0,0,0-2.251-.233c-.711.148-1.8.841-2.461.252-.744-.66-.311-1.528.134-2.228a7.56,7.56,0,0,1,3.887-2.683,42.873,42.873,0,0,1,4.72-1.643,10.544,10.544,0,0,0,4.163-2.148c.852-.644,1.543-1.759.125-2.051-1.672-.342-3.874-.108-5.2-1.461-.913-.936-.374-1.8.733-2.046a37.642,37.642,0,0,0,5.358-1.62c1.779-.679,3.469-1.542,5.263-2.168a22.8,22.8,0,0,1,2.907-.755c2.73-.562,4.319-2.877,6.023-4.863,2.38-2.771,6.472-7.98,9.262-11.733l4.2-20.343C391.922,139.81,392.9,130.554,403.68,127.222Z" fill="#e0e0e0"/>
        </g>
      </g>
    </g>
    <g id="Character_4" data-name="Character 4">
      <g id="Character-2" data-name="Character">
        <g id="Bottom-2" data-name="Bottom">
          <g id="Bottom-3" data-name="Bottom">
            <g id="Group_1604" data-name="Group 1604">
              <g id="Group_1603" data-name="Group 1603">
                <path id="Path_7758" data-name="Path 7758" d="M145.813,266.738c-.554-.241-1.015,1.151-.876,1.935.4,2.253,2.56,5.237,6.409,7.492s12.315,3.783,14.8,4.484,6.327,3.318,8.648,4.5c4.228,2.161,7.683,1.912,9.606.95a2.883,2.883,0,0,0,1.291-1.909c.5-1.709.467-2.1.274-2.147Z" fill="#e0e0e0"/>
                <g id="Group_1600" data-name="Group 1600">
                  <g id="Group_1599" data-name="Group 1599">
                    <path id="Path_7759" data-name="Path 7759" d="M187.082,276.946a22.106,22.106,0,0,1-1.584,6.242,4.869,4.869,0,0,1-3.754,1.357,17.98,17.98,0,0,1-9-2.851,24.708,24.708,0,0,0-6.1-2.769c-2.583-.681-8.364-1.92-10.922-2.71a18.209,18.209,0,0,1-6.5-3.573c-1.429-1.324-3.419-3.878-3.565-5.364.433-3.227,1.331-4.941,3.421-5.406,2.209-.491,4.93.15,8.685,1.058,1.124.272,2.529.656,3.136.781,2.3.472,4.425.976,6.143,1.413a10.068,10.068,0,0,0,4.439.435,2.929,2.929,0,0,0,1.794-.883c.6-.668.962-1.807,1.665-1.652,0,0,11.862,6.188,12.844,6.62C188.921,270.142,187.614,271.57,187.082,276.946Z" fill="#e0e0e0"/>
                  </g>
                </g>
                <g id="Group_1602" data-name="Group 1602" opacity="0.1">
                  <g id="Group_1601" data-name="Group 1601">
                    <path id="Path_7760" data-name="Path 7760" d="M187.082,276.946a22.106,22.106,0,0,1-1.584,6.242,4.869,4.869,0,0,1-3.754,1.357,17.98,17.98,0,0,1-9-2.851,24.708,24.708,0,0,0-6.1-2.769c-2.583-.681-8.364-1.92-10.922-2.71a18.209,18.209,0,0,1-6.5-3.573c-1.429-1.324-3.419-3.878-3.565-5.364.433-3.227,1.331-4.941,3.421-5.406,2.209-.491,4.93.15,8.685,1.058,1.124.272,2.529.656,3.136.781,2.3.472,4.425.976,6.143,1.413a10.068,10.068,0,0,0,4.439.435,2.929,2.929,0,0,0,1.794-.883c.6-.668.962-1.807,1.665-1.652,0,0,11.862,6.188,12.844,6.62C188.921,270.142,187.614,271.57,187.082,276.946Z"/>
                  </g>
                </g>
                <path id="Path_7761" data-name="Path 7761" d="M159.97,263.281a3.6,3.6,0,0,0-1.281.8,6.587,6.587,0,0,0-1.047,1.27c-.373.587.375.969.921.334a8.554,8.554,0,0,1,1.463-1.451,2.087,2.087,0,0,1,1.342-.426l.656.139C162.007,263.416,160.56,263.116,159.97,263.281Z" fill="#fafafa"/>
                <path id="Path_7762" data-name="Path 7762" d="M165.847,264.45a1.6,1.6,0,0,0-1.3-.022,3.119,3.119,0,0,0-1.317,1.038,12.4,12.4,0,0,0-1.117,1.731c-.179.4.794.7,1.045.281a17.023,17.023,0,0,1,1.052-1.566c.2-.25,1.053-1.168,1.756-1.061l.308.08c.048-.142-.111-.3-.235-.378A1.816,1.816,0,0,0,165.847,264.45Z" fill="#fafafa"/>
                <path id="Path_7763" data-name="Path 7763" d="M169.2,265.426a1.329,1.329,0,0,0-.873.188,3.6,3.6,0,0,0-.84.826,7.094,7.094,0,0,0-.949,1.934c-.185.526.825.7.973.354a5.5,5.5,0,0,1,1.495-2.46,2.688,2.688,0,0,1,1.115-.605c.005-.1-.134-.161-.233-.176A6.083,6.083,0,0,0,169.2,265.426Z" fill="#fafafa"/>
              </g>
              <path id="Path_7764" data-name="Path 7764" d="M192.484,256.476s-3.724,11.3-4.86,13.88c-.362.823-2.084.644-3.03.736a10.612,10.612,0,0,0-3.384.72c-2.787,1.414-4.535,1.391-4.619-2.69-.017-.836-.4-1.317-1.416-1.451a6.182,6.182,0,0,1-2.277-.4c-.088-.109.034-.259.145-.345a3.8,3.8,0,0,0,1.7-2.651c1.163-4.84,1.766-9.007,3.032-14.948Z" fill="#f0f0f0"/>
            </g>
            <g id="Group_1607" data-name="Group 1607">
              <path id="Path_7765" data-name="Path 7765" d="M237.408,274.283c-1.6-2.565-2.472-7.506-6-17.544L217.669,268l8.145,12.944a11.8,11.8,0,0,1,.591,2.05C228.153,285.509,237.408,274.283,237.408,274.283Z" fill="#f0f0f0"/>
              <g id="Group_1606" data-name="Group 1606">
                <path id="Path_7766" data-name="Path 7766" d="M242.257,279.756c-.02-.149.059-1.358.021-1.5-.34-1.3-1.145-1.663-2.179-2.391a16.1,16.1,0,0,1-2.852-2.439c-.346-.479-.413-.728-.95-.946a5.063,5.063,0,0,0-4.2.55c-2.969,1.56-3.876,3.439-3.705,5.475.131,1.552.26,3.617-1.109,4.54-.569.384-1.469-2.1-1.469-2.1-.844,1.415.341,3.372.96,6.238a11.808,11.808,0,0,1,.083,4.818c-.3,2.515-.649,2.505-1.984,2.68-1.15.151-4.413-.068-6.4,1.319a4.2,4.2,0,0,0-2,4.452c.354.967,3.329,5.658,14.2,3.906,3.152-.508,9.775-5.465,9.674-5.927a6.285,6.285,0,0,1,.025-1.424c.039-1.112.086-2.223.135-3.334a16.782,16.782,0,0,1,.185-3.175,17.321,17.321,0,0,0,.4-2.625l.624-6.694C241.776,280.537,242.344,280.39,242.257,279.756Z" fill="#e0e0e0"/>
                <path id="Path_7767" data-name="Path 7767" d="M242.257,279.756c-.02-.149.059-1.358.021-1.5-.34-1.3-1.145-1.663-2.179-2.391a16.1,16.1,0,0,1-2.852-2.439c-.346-.479-.413-.728-.95-.946a5.063,5.063,0,0,0-4.2.55c-2.969,1.56-3.876,3.439-3.705,5.475.131,1.552.26,3.617-1.109,4.54-.569.384-1.469-2.1-1.469-2.1-.844,1.415.341,3.372.96,6.238a11.808,11.808,0,0,1,.083,4.818c-.3,2.515-.649,2.505-1.984,2.68-1.15.151-4.413-.068-6.4,1.319a4.2,4.2,0,0,0-2,4.452c.354.967,3.329,5.658,14.2,3.906,3.152-.508,9.775-5.465,9.674-5.927a6.285,6.285,0,0,1,.025-1.424c.039-1.112.086-2.223.135-3.334a16.782,16.782,0,0,1,.185-3.175,17.321,17.321,0,0,0,.4-2.625l.624-6.694C241.776,280.537,242.344,280.39,242.257,279.756Z" opacity="0.1"/>
                <path id="Path_7768" data-name="Path 7768" d="M243.626,279.315c1.071,1.037.42,4.047-1.018,7.659-.637,1.6-1.825,4.361-1.477,7.293s.411,4.317-.345,5.691c-1.182,2.15-7.5,4.9-11.225,5.762a20.545,20.545,0,0,0,3.786-10.755c.375-6.472.869-10.644,3.828-13.514C240.917,277.822,243.626,279.315,243.626,279.315Z" fill="#e0e0e0"/>
                <path id="Path_7769" data-name="Path 7769" d="M243.626,279.315c1.071,1.037.42,4.047-1.018,7.659-.637,1.6-1.825,4.361-1.477,7.293s.411,4.317-.345,5.691c-1.182,2.15-7.5,4.9-11.225,5.762a20.545,20.545,0,0,0,3.786-10.755c.375-6.472.869-10.644,3.828-13.514C240.917,277.822,243.626,279.315,243.626,279.315Z" opacity="0.1"/>
                <path id="Path_7770" data-name="Path 7770" d="M216.471,300.452s2.18,4.084,10.589,3.951c3.309-.053,5.081-1.665,5.163-6.7.1-6.064.586-12.188,2.547-15.2s5.085-4.47,7.508-4.255a2.329,2.329,0,0,1,1.348,1.062s-2.426-.8-6.2,2.334c-2.785,2.312-3.538,7.14-3.5,13.137.018,2.58.175,5.506-.581,7.464a5.958,5.958,0,0,1-4.015,3.539c-4.572,1.284-10.828-.832-12.41-2.765A3,3,0,0,1,216.471,300.452Z" fill="#e0e0e0"/>
                <g id="Group_1605" data-name="Group 1605">
                  <path id="Path_7771" data-name="Path 7771" d="M226.572,293.58a1.727,1.727,0,0,0-.68,1,2.878,2.878,0,0,0,1.325,2.633c.506.316.948.2.144-.857A5.258,5.258,0,0,1,226.572,293.58Z" fill="#fafafa"/>
                  <path id="Path_7772" data-name="Path 7772" d="M227.025,290.441s-.267.173-.335,1.015a4.124,4.124,0,0,0,1.552,2.706c.885.434.406-.587.023-1.088A6.589,6.589,0,0,1,227.025,290.441Z" fill="#fafafa"/>
                  <path id="Path_7773" data-name="Path 7773" d="M226.727,286.974s-.288.08.019,1.24a3.7,3.7,0,0,0,1.833,1.608c.57.069.847-.217.147-.723C228.174,288.7,226.833,287.537,226.727,286.974Z" fill="#fafafa"/>
                </g>
              </g>
            </g>
            <g id="Group_1608" data-name="Group 1608">
              <path id="Path_7774" data-name="Path 7774" d="M201.451,144.675s-5.687,6.815-9.125,19.562a294.587,294.587,0,0,0-7.1,36.012c-.82,5.426-1.424,9.3-2.9,19.183-1.229,8.234-6.637,38.852-6.637,38.852s3.966,3.432,7.3,4.693c3.1,1.175,5.978,1.644,7.119,1.175,0,0,3.826-9.826,8.562-22.69a122.861,122.861,0,0,0,5.449-18.163c.62-3.182.469-8.845.409-11.7L229.974,172.3a27.081,27.081,0,0,0,4.75-8.2c3.346-8.4-.927-20.5-.927-20.5Z" fill="#e0e0e0"/>
              <path id="Path_7775" data-name="Path 7775" d="M226.488,155.707H195.244a67.158,67.158,0,0,0-2.918,8.53,277.428,277.428,0,0,0-6.667,33.156c.76,5.115,1.62,10.36,2.417,13.979,2.1,9.531,3.41,16.263,5.071,20.2a64.473,64.473,0,0,0,5.664,9.522,121.7,121.7,0,0,0,5.316-17.792c.62-3.182.469-8.845.409-11.7l18.476-28.541,1.437-8.842C229.17,166.519,228.645,160.748,226.488,155.707Z" fill="#e0e0e0"/>
              <path id="Path_7776" data-name="Path 7776" d="M226.488,155.707H195.244a67.158,67.158,0,0,0-2.918,8.53,277.428,277.428,0,0,0-6.667,33.156c.76,5.115,1.62,10.36,2.417,13.979,2.1,9.531,3.41,16.263,5.071,20.2a64.473,64.473,0,0,0,5.664,9.522,121.7,121.7,0,0,0,5.316-17.792c.62-3.182.469-8.845.409-11.7l18.476-28.541,1.437-8.842C229.17,166.519,228.645,160.748,226.488,155.707Z" opacity="0.1"/>
            </g>
            <g id="Group_1609" data-name="Group 1609">
              <path id="Path_7777" data-name="Path 7777" d="M221.186,144.675a24.408,24.408,0,0,1,5.785,14.468,21.685,21.685,0,0,1-4.572,14.3c-1.187,17.407-4.628,50.935-4.628,50.935,4.6,4.736,5.791,7.792,8.454,16.282,1.616,5.154,6.855,21.292,8.568,26.547-8.189,1.231-12.332,8.408-12.332,8.408s-13.647-20.563-20.474-32.881c-5.046-9.106-6.205-10.877-7.575-16.3s-2.337-10.453-3.995-21.78-4.6-26.93-5.413-38.08-.963-22.969-.963-22.969Z" fill="#e0e0e0"/>
            </g>
            <path id="Path_7778" data-name="Path 7778" d="M235.943,158.318a6.9,6.9,0,0,1-3.342-2.373,9.539,9.539,0,0,1-.864-2.464,26.026,26.026,0,0,0-1.4-4.184l-.86.385a24.8,24.8,0,0,1,1.353,4.041,10.121,10.121,0,0,0,.976,2.721,7.689,7.689,0,0,0,4.061,2.814Q235.912,158.789,235.943,158.318Z" opacity="0.18"/>
            <path id="Path_7779" data-name="Path 7779" d="M213.586,168.294a3.448,3.448,0,0,0,.6-.061c1.367-.3,2.429-1.22,4.545-3.926,1.61-2.061,1.445-3.541,1.174-5.993-.1-.9-1.049-5.713-1.109-6.981l-.9.5c.061,1.3.974,5.668,1.075,6.582.27,2.438.393,3.551-.98,5.309-1.957,2.5-2.892,3.34-4.005,3.585-1.079.244-5.856-.548-7.13-1.429-.735-.511-1.967-6.8-2.686-12.337l-.935.122c.363,2.8,1.661,12.006,3.085,12.99C207.583,167.532,211.687,168.343,213.586,168.294Z" opacity="0.18"/>
          </g>
        </g>
        <g id="Top-2" data-name="Top">
          <g id="Group_1611" data-name="Group 1611">
            <path id="Arm-3" data-name="Arm" d="M238.9,122.894,229.5,103.776c-4.534-9.875-12.414-16.57-1.667-23.739,4.752-.361,7.138,1.121,10.54,6.528s10.647,24.949,12.29,29.148A40.076,40.076,0,0,1,253.36,127.1c.558,4.964-.181,14.218-.223,19.2-.019,2.3.127,4.5.269,6.822a52.333,52.333,0,0,1-.52,7.2,6.5,6.5,0,0,1-1.225,3.168c-.427.6-1.144.825-1.551,1.388-.422.583-.348,1.346-.973,1.877-.695.59-1.666.564-2.259,1.142a20.778,20.778,0,0,1-1.8,1.922,4.5,4.5,0,0,0-1.555,1.492c-.33.608-.5,1.825-1.333,1.944-.937.133-1.3-.716-1.536-1.47a7.207,7.207,0,0,1,.444-4.476,41.052,41.052,0,0,1,1.712-4.441,10.034,10.034,0,0,0,1-4.348c.056-1.015-.329-2.2-1.414-1.353-1.278,1-2.463,2.748-4.26,2.874-1.243.088-1.539-.836-1.036-1.792a35.757,35.757,0,0,0,2.123-4.89c.6-1.711,1.016-3.47,1.665-5.159a21.781,21.781,0,0,1,1.242-2.577c1.273-2.33.569-4.91.176-7.371C241.763,134.814,239.907,127.232,238.9,122.894Z" fill="#f0f0f0"/>
            <g id="Group_1610" data-name="Group 1610">
              <path id="Path_7780" data-name="Path 7780" d="M226.187,79.53c4.025-.268,8.054.146,10.74,4.174s7.543,13.653,10.641,22.831c-2.841,5.011-13.947,8.161-13.947,8.161L227.3,101.68Z" fill="#f0f0f0"/>
              <path id="Path_7781" data-name="Path 7781" d="M226.187,79.53c4.025-.268,8.054.146,10.74,4.174s7.543,13.653,10.641,22.831c-2.841,5.011-13.947,8.161-13.947,8.161L227.3,101.68Z" opacity="0.15"/>
            </g>
          </g>
          <path id="Path_7782" data-name="Path 7782" d="M234.039,84.532c3.189,6.1,2.794,11.556,1.874,20.109-.849,7.888-1.444,12.773-2.171,22.53-.83,11.146.656,18.176.656,18.176s-.316,4.724-14.213,8.263c-24.423,6.22-36.144-.867-36.144-.867s-.589-13.755.357-31.748c1.061-20.155,1.413-23.105,2.971-27.9a12.465,12.465,0,0,1,6.248-6.363c2.424-1.1,8.23-3,11.677-4.33,8.02-3.1,17.29-2.9,17.29-2.9C229.539,79.031,232.383,81.367,234.039,84.532Z" fill="#fafafa"/>
          <g id="Group_1618" data-name="Group 1618">
            <path id="Path_7783" data-name="Path 7783" d="M204.692,76.161l.657,6.75c4.057.884,13.917.25,15.768-2.27l-.388-6.13Z" fill="#f0f0f0"/>
            <g id="Group_1614" data-name="Group 1614">
              <g id="Group_1612" data-name="Group 1612">
                <path id="Path_7784" data-name="Path 7784" d="M194.123,57.156s-1.883,1.424-3.311,6.347l2.79,2.046C194.52,62.092,195.511,58.57,194.123,57.156Z" fill="#e0e0e0"/>
              </g>
              <g id="Group_1613" data-name="Group 1613">
                <path id="Path_7785" data-name="Path 7785" d="M201.319,43.378c-5.206.347-8,5.008-7.055,15.884-2.432,11.215.926,15.653,2.372,17.122,3.265,1.749,6.583,2.038,11.093.862,3.436-.9,12.144-3.478,15.792-8.882,4.29-6.357,5.412-16.023.842-19.62C217.932,43.68,204.078,43.195,201.319,43.378Z" fill="#f0f0f0"/>
              </g>
              <path id="Path_7786" data-name="Path 7786" d="M196.636,76.384c.8.812,5.435,2.28,8.291,1.967l-.235-2.19A29.5,29.5,0,0,1,196.636,76.384Z" fill="#e0e0e0"/>
            </g>
            <g id="Group_1617" data-name="Group 1617">
              <g id="Group_1616" data-name="Group 1616">
                <g id="Group_1615" data-name="Group 1615">
                  <path id="Path_7787" data-name="Path 7787" d="M201.005,51.045a4.14,4.14,0,0,0,.672,2.47,5.1,5.1,0,0,0,2.877,2.069,9.908,9.908,0,0,0-1.146,4.495,2.452,2.452,0,0,0,.31,1.419.943.943,0,0,0,1.69-.018,11.912,11.912,0,0,1,1.409-2.346,4.545,4.545,0,0,1,2.846-1.532c4.179-.406,4.2,6.1,2.519,8.3-2.741,3.605-4.993,1.292-4.993,1.292s-1.41,5.559,2.619,7.968c0,0,6.546,2.246,10.975,0,3.893-4.156,7.708-8.938,9.079-13.086,2.983-9.023,1.2-14.79-2.792-16.308-.522-3.475-3.768-5.642-6.9-6.769-4.271-1.535-8.417-.189-12.783-.224a14.858,14.858,0,0,1-6.454-1.539c-.888-.44-1.976-.969-2.8-.427a1.955,1.955,0,0,0-.675.92,4.42,4.42,0,0,0,.334,3.939c-1.149-.818-3.175-.456-4.332.444-1.662,1.294-1.924,2.833-1.339,4.989C192.485,48.444,195.191,52.694,201.005,51.045Z" fill="#e0e0e0"/>
                </g>
              </g>
              <path id="Path_7788" data-name="Path 7788" d="M201.005,51.045a4.14,4.14,0,0,0,.672,2.47,5.1,5.1,0,0,0,2.877,2.069,9.908,9.908,0,0,0-1.146,4.495,2.452,2.452,0,0,0,.31,1.419.943.943,0,0,0,1.69-.018,11.912,11.912,0,0,1,1.409-2.346,4.545,4.545,0,0,1,2.846-1.532c4.179-.406,4.2,6.1,2.519,8.3-2.741,3.605-4.993,1.292-4.993,1.292s-1.41,5.559,2.619,7.968c0,0,6.546,2.246,10.975,0,3.893-4.156,7.708-8.938,9.079-13.086,2.983-9.023,1.2-14.79-2.792-16.308-.522-3.475-3.768-5.642-6.9-6.769-4.271-1.535-8.417-.189-12.783-.224a14.858,14.858,0,0,1-6.454-1.539c-.888-.44-1.976-.969-2.8-.427a1.955,1.955,0,0,0-.675.92,4.42,4.42,0,0,0,.334,3.939c-1.149-.818-3.175-.456-4.332.444-1.662,1.294-1.924,2.833-1.339,4.989C192.485,48.444,195.191,52.694,201.005,51.045Z" opacity="0.1"/>
            </g>
          </g>
          <g id="Group_1620" data-name="Group 1620">
            <path id="Arm-4" data-name="Arm" d="M174.15,131.19s2.5-12.523,4.318-21.3,1.116-18.924,14.937-22.4c2.285,3.486,3.776,8.83,3.005,15.493s-5.646,26.883-7.064,31.4c-1.722,5.008-3.322,6.726-7.058,11.293-3.322,4.06-9.652,10.932-12.961,14.981-1.53,1.873-2.857,3.769-4.266,5.761a54.9,54.9,0,0,1-5.16,5.549,6.838,6.838,0,0,1-3.086,1.788c-.743.208-1.479-.078-2.183.116-.728.2-1.17.873-2.031.9-.957.026-1.734-.634-2.6-.551a22,22,0,0,1-2.736.391,4.733,4.733,0,0,0-2.254.2c-.67.281-1.607,1.167-2.369.715-.855-.508-.6-1.442-.292-2.213a7.568,7.568,0,0,1,3.308-3.372,42.91,42.91,0,0,1,4.322-2.509,10.529,10.529,0,0,0,3.681-2.9c.714-.793,1.181-2.02-.267-2.036-1.706-.02-3.824.628-5.377-.45-1.075-.746-.71-1.7.331-2.148a37.566,37.566,0,0,0,4.953-2.607c1.619-1,3.114-2.172,4.756-3.127a22.781,22.781,0,0,1,2.712-1.293c2.573-1.07,3.694-3.645,4.991-5.917C167.571,143.777,172.123,135.4,174.15,131.19Z" fill="#f0f0f0"/>
            <g id="Group_1619" data-name="Group 1619">
              <path id="Path_7789" data-name="Path 7789" d="M193.972,86.577c-2.975.724-10.935,2.14-13.228,9.627s-4.789,23.608-4.789,23.608,1.847,3.238,7.9,4.587,9.025-.337,9.025-.337,3.612-15.784,4.234-19.764S198.1,89.967,193.972,86.577Z" fill="#f0f0f0"/>
              <path id="Path_7790" data-name="Path 7790" d="M193.972,86.577c-2.975.724-10.935,2.14-13.228,9.627s-4.789,23.608-4.789,23.608,1.847,3.238,7.9,4.587,9.025-.337,9.025-.337,3.612-15.784,4.234-19.764S198.1,89.967,193.972,86.577Z" opacity="0.15"/>
            </g>
          </g>
        </g>
      </g>
    </g>
    <g id="Character_3" data-name="Character 3">
      <g id="Character-3" data-name="Character">
        <g id="Bottom-4" data-name="Bottom">
          <g id="Group_1621" data-name="Group 1621">
            <path id="Path_7791" data-name="Path 7791" d="M173.844,284.534a4.939,4.939,0,0,0-3.831,2.212,22.774,22.774,0,0,0-.946,6.573,19.578,19.578,0,0,1-3.057,10.835c-2.176,3.342-4.674,10.687-2.649,15.263s4.62,8.272,9.227,8.959,8.74-4.3,9.974-7.527Z" fill="#37474f"/>
            <path id="Path_7792" data-name="Path 7792" d="M164.944,316.663a8.239,8.239,0,0,1-.341-2.56,15.259,15.259,0,0,1,1.5-6.735,43.8,43.8,0,0,0,3.5-6.547,30.754,30.754,0,0,0,1.782-7.564c.216-2.06.112-4.35.846-6.316,2.227-5.964,8.776-5.37,12.494-6.017l13.323-9.639,5,17.882s-7.223,2.65-9.323,3.76c-2.781,1.47-5.359,5.007-7.035,7.53-2.128,3.206-4.772,6.544-4.789,10.549a31,31,0,0,0,.945,6.44,5.969,5.969,0,0,1,.185,1.839c-.179,1.7-1.685,2.9-3.068,3.9-2.241,1.619-4.934,3.323-7.577,2.515a8.467,8.467,0,0,1-3.682-2.855A17.391,17.391,0,0,1,164.944,316.663Z" fill="#f28f8f"/>
            <path id="Path_7793" data-name="Path 7793" d="M182.562,312.341a15.333,15.333,0,0,1,1.806-7.081c1.317-2.281,4.224-6.906,5.518-8.161s2.472-1.632,2.051-2.053-7.95-2.255-10.473-2.3-2.846,1.5-4.192,2.636c0,0,2.082-2.872,2.082-5.637,0-2.044.847-7.541,4.3-8.449l1.1-.373s.1-.83-1.342-.493-6.322,1.367-8.045,2.376-3.742,2.229-4.246,5.929.042,4.878-.968,8.537a33.262,33.262,0,0,1-3.952,9.317,15.668,15.668,0,0,0-1.686,10.813Z" fill="#455a64"/>
            <path id="Path_7794" data-name="Path 7794" d="M258.833,213.121a185.807,185.807,0,0,1-5.683,41.962c-4.451,16.749-6.649,19.224-9.532,20.6-12.789,6.126-47.01,15.964-47.01,15.964s-7.318-7.347-5.634-15.58c10.106-7.26,26.61-19.756,34.553-19.251L210.448,208.8Z" fill="#37474f"/>
            <path id="Path_7795" data-name="Path 7795" d="M173.361,326.745c2.789,0,6.886-2.043,9.2-5.9,1.887-3.14.054-7.235,0-8.508-.252-.489-3.547-1.846-9.283-.955s-7.644,3.237-8.763,6.019C164.795,320.249,169.267,326.745,173.361,326.745Z" fill="#f0f0f0"/>
          </g>
          <g id="Group_1624" data-name="Group 1624">
            <path id="Path_7796" data-name="Path 7796" d="M267.932,344.239c-1.262.087-1.015-1.62-1.853-5.453s-3.5-20.391-3.5-20.391l-19.482,7.338s5.228,13.773,6.871,17.746c1.826,4.412,4.379,10.467,4.8,13.9s.608,13.02,4.917,14.739,8.307-.244,11.154-2.107,6.134-8.362,9.282-11.654,5.8-5.122,8.232-8.524,2.248-11.823-1.04-13.572-7.96.251-10.71,1.9S270.271,344.078,267.932,344.239Z" fill="#f28f8f"/>
            <path id="Path_7797" data-name="Path 7797" d="M210.448,208.8c-5.8,13.617-7.69,27.1-1.661,38.356s10.9,17.971,24.27,43.521c.032,5.736.15,11.448,4.344,22.208,5.215,13.376,10.923,27.75,10.923,27.75s5.281-8.641,16.991-7.182c-.619-6.591-4.557-37.967-6.479-47.24-2.394-11.544-11.691-51.043-11.691-51.043a27.119,27.119,0,0,0,10.9-22.22Z" fill="#455a64"/>
            <g id="Group_1623" data-name="Group 1623">
              <g id="Group_1622" data-name="Group 1622">
                <path id="Path_7798" data-name="Path 7798" d="M256.385,369.45a38.6,38.6,0,0,1-1.941-10.32c-.439-5.032-1.358-6.561-1.358-6.561s.517-3.328,5.652-7.4S267.1,343,267.1,343s1.174,2.032,4.429-1.7l6.019,7.7Z" fill="#455a64"/>
                <path id="Path_7799" data-name="Path 7799" d="M287.77,335.844c-1.921-1.828-4.979-1.8-9.038.225a23.866,23.866,0,0,0-7.208,5.234s-2.141,3.891,1.1,6.534S287.77,335.844,287.77,335.844Z" fill="#f0f0f0"/>
                <path id="Path_7800" data-name="Path 7800" d="M290.7,339.375a4.126,4.126,0,0,0-1.549-2.751c-.268-.174-1.2-.663-1.381-.78-2.387-1.55-6.67,1.784-10.279,5.057-4.2,3.812-8.092,11.466-11.493,16.649s-7.624,7.176-9.018,9.461a3.771,3.771,0,0,0,.4,4.639c.217.237,1.016.981,1.175,1.134,1.116,1.07,3.093,1.5,5.428,1.055,4.713-.906,8.1-2.4,12-7.953s5.955-8.425,10.5-11.988S291.672,343.844,290.7,339.375Z" fill="#37474f"/>
                <path id="Path_7801" data-name="Path 7801" d="M290.7,339.375c-1.361-6.264-7.159-1.921-11.828,2.313-4.2,3.812-8.091,11.466-11.492,16.649s-7.727,7.116-9.018,9.46c-2.349,4.264.911,6.948,5.624,6.042s8.1-2.4,12-7.953,5.954-8.425,10.5-11.988S291.672,343.844,290.7,339.375Z" fill="#263238"/>
              </g>
              <path id="Path_7802" data-name="Path 7802" d="M269.079,343.337h0c-1.422.633-1.984-.336-1.984-.336-4.474,4.531-4.96,7.437-4.96,7.437S266.5,345.086,269.079,343.337Z" fill="#37474f"/>
            </g>
            <path id="Path_7803" data-name="Path 7803" d="M241.767,236.786a182.348,182.348,0,0,1,7.757,22.058,232.244,232.244,0,0,1,5.6,22.736c1.238,7.691,2.455,15.386,3.577,23.1q1.717,11.559,3.116,23.163-2.355-11.453-4.392-22.945c-1.381-7.659-2.666-15.333-3.931-23.011-.621-3.824-1.532-7.594-2.41-11.379s-1.842-7.549-2.8-11.316c-.979-3.761-1.983-7.518-3.056-11.255Q243.667,242.31,241.767,236.786Z" fill="#37474f"/>
          </g>
        </g>
        <g id="Top-3" data-name="Top">
          <g id="Top-4" data-name="Top">
            <g id="Arm-5" data-name="Arm">
              <path id="Path_7804" data-name="Path 7804" d="M255.259,154.222c6.568,1.012,7.7,2.685,17.418,11.09a71.386,71.386,0,0,0,13.984,9.771s8.227,10,8.566,11.946,1.014,6.342-2.864,8.793c-2.47,1.562-5.344.133-6.87.279-3.192.307-5.15-2.284-6.478-3.075-8.986-5.35-18-10.23-18-10.23Z" fill="#455a64"/>
              <g id="Group_1629" data-name="Group 1629">
                <g id="Group_1625" data-name="Group 1625">
                  <path id="Path_7805" data-name="Path 7805" d="M316.329,148.646c-1.346-.8-1.589.446-2.05.612,0,0,1.384-1.592-.935-2.968-1.431-.849-2.128,1.147-2.158.882-.014-.118,1.726-4.191,3.139-7.651,1.341-3.286.181-4.22-.356-4.482-.483-.236-1.081-.041-2.322,2.35-1.223,2.357-4.9,9.544-5.727,11.03s-1.424,2.182-1.953.249c-.5-1.814-.947-3.53-2-4.636-1.761-1.851-3.136-1.039-2.858.379.391,2,.362,4.342.646,7.608.147,1.7.185,3.3.381,4.467.6,4.1-1.791,5.974-4.64,9.192-2.329,2.632-4.728,4.786-10.076,10.07-5.072,5.011-4.875,16.8.137,18.871,5.75,2.379,8.043-.648,12.212-7.014,3.534-5.4,8.407-15.226,9.727-17.5s1.808-3.669,3.64-4.787a13.35,13.35,0,0,0,4.985-5.551c.66-1.15,1.913-3.264,2.728-4.978.8-1.674.9-2.934-.077-3.668-1.334-1-1.723.483-1.859.326S318.246,149.781,316.329,148.646Z" fill="#ffa8a7"/>
                </g>
                <g id="Group_1628" data-name="Group 1628">
                  <g id="Group_1626" data-name="Group 1626">
                    <path id="Path_7806" data-name="Path 7806" d="M306.02,151.474c1.86,1.826,3.177,6.765,2.374,10.024C310.722,158.09,309.4,153.059,306.02,151.474Z" fill="#f28f8f"/>
                  </g>
                  <g id="Group_1627" data-name="Group 1627">
                    <path id="Path_7807" data-name="Path 7807" d="M310.756,148.245c-1.085,2.017-2.132,4.227-1.861,5.119s.931,1.357,1.667,1.163a2.7,2.7,0,0,0,1.164-.633,2.4,2.4,0,0,0-.272,1.564,1.675,1.675,0,0,0,1.9.853,2.268,2.268,0,0,0,1.1-.924s-.454,1.2,0,1.855a1.529,1.529,0,0,0,2.315-.2c-.542.94-1.318,1.475-2.287.971s-.737-1.241-.737-1.241a1.7,1.7,0,0,1-1.9-.039,1.74,1.74,0,0,1-1.008-1.829,1.61,1.61,0,0,1-2.521-.846c-.426-1.241.016-2.133.8-3.567A10.046,10.046,0,0,1,310.756,148.245Z" fill="#f28f8f"/>
                  </g>
                </g>
              </g>
            </g>
            <g id="Chest">
              <g id="Group_1635" data-name="Group 1635">
                <path id="Path_7808" data-name="Path 7808" d="M262.187,177.123c.55-16.827-4.8-21.984-7.657-23.377l-11.79-3.1c-3.668.181-19.467,3.893-23.808,4.691-2.794.513-4.8,5.972-6.728,14.711-1.565,7.1-2.559,13.1-3.846,23.045-1.078,8.336-2.328,17.831-1.566,29.767,18.527,6.907,36.475,10.762,51.148.857-.185-2.38,2.436-21.947,2.908-27.737S262.039,181.679,262.187,177.123Z" fill="#fafafa"/>
                <g id="Group_1631" data-name="Group 1631">
                  <g id="Group_1630" data-name="Group 1630">
                    <path id="Path_7809" data-name="Path 7809" d="M213.873,155.615l17.217-3.976s1.038,4.009,3.4,11.757,1.979,11.044.367,23.686-6.135,39.8-5.42,45.136c-5.667-.081-23.872-4.229-26.89-6.793,0,0,2.859-20.653,4.371-33.6S207.013,158.285,213.873,155.615Z" fill="#ba68c8"/>
                    <path id="Path_7810" data-name="Path 7810" d="M213.873,155.615l17.217-3.976s1.038,4.009,3.4,11.757,1.979,11.044.367,23.686-6.135,39.8-5.42,45.136c-5.667-.081-23.872-4.229-26.89-6.793,0,0,2.859-20.653,4.371-33.6S207.013,158.285,213.873,155.615Z" fill="#09bbf7" opacity="0.65"/>
                  </g>
                </g>
                <g id="Group_1634" data-name="Group 1634">
                  <g id="Group_1632" data-name="Group 1632">
                    <path id="Path_7811" data-name="Path 7811" d="M247.908,153.133c4.791,2.767,7.655,9,7.656,17.016s-1.258,24.15-1.322,30.189,1.258,27.408,1.258,27.408a8.677,8.677,0,0,0,5.568-6.543c-.7-3.793.792-20.572,1.051-25.574s.68-16.57.861-22.691-.817-13.911-5.678-18.363a59.047,59.047,0,0,0-9.129-2.791Z" fill="#ba68c8"/>
                    <path id="Path_7812" data-name="Path 7812" d="M247.908,153.133c4.791,2.767,7.655,9,7.656,17.016s-1.258,24.15-1.322,30.189,1.258,27.408,1.258,27.408a8.677,8.677,0,0,0,5.568-6.543c-.7-3.793.792-20.572,1.051-25.574s.68-16.57.861-22.691-.817-13.911-5.678-18.363a59.047,59.047,0,0,0-9.129-2.791Z" fill="#09bbf7" opacity="0.65"/>
                  </g>
                  <g id="Group_1633" data-name="Group 1633">
                    <path id="Path_7813" data-name="Path 7813" d="M255.417,174.752c.189-5.868-1.5-16.677-7.421-19.737a5.051,5.051,0,0,1-.088-1.882l.516-2.982a25.835,25.835,0,0,1,4.921,3.413c2.422,2.154,6.217,8.429,6.728,13.1C257.725,163.954,256.08,167.519,255.417,174.752Z" fill="#124f98"/>
                    <path id="Path_7814" data-name="Path 7814" d="M255.417,174.752c.189-5.868-1.5-16.677-7.421-19.737a5.051,5.051,0,0,1-.088-1.882l.516-2.982a25.835,25.835,0,0,1,4.921,3.413c2.422,2.154,6.217,8.429,6.728,13.1C257.725,163.954,256.08,167.519,255.417,174.752Z" fill="#124f98" opacity="0.45"/>
                  </g>
                </g>
              </g>
              <g id="Head">
                <path id="Path_7815" data-name="Path 7815" d="M232.8,144.9c-.454-4.11-4.257-8.594-5.875-12.249-1.56-3.525-2.453-6.241-2.066-9.446.228-1.9,1.58-4.412,3.024-4.871a8.864,8.864,0,0,1,7.145-10.663,30.266,30.266,0,0,0,3.968-.862c1.572-.552,1.99-1.767,3.288-2.745,2.236-1.685,5.825-1.517,7.033,1.3,1.524-1.751,3.444-1.592,5.633-.9a3.8,3.8,0,0,1,2.658,4.456c3.066-1.489,5.67.767,5.841,2.529.126,1.3-.211,2.371.565,3.574.874,1.356,2.67,1.438,3.276.419.2,1.848-.6,3.2-2.574,2.985a4.167,4.167,0,0,1,.314,3.523,3.8,3.8,0,0,1-3.581,2.417,5.807,5.807,0,0,1-3.506,4.71c-3.088,1.257-6.438,1.53-9.714,2.011l-3.888.572c-.226.034-1.39.037-1.54.227Z" fill="#263238"/>
                <g id="Group_1636" data-name="Group 1636">
                  <path id="Path_7816" data-name="Path 7816" d="M228.18,139.349a3.951,3.951,0,0,0,4.809.138l-.8,8.187-.983,6.614s6.7,9.791,17.638,10.946c.924-2.353.791-6.761-.635-9.129l.694-6.3a39.125,39.125,0,0,0,4.854.066,8.461,8.461,0,0,0,7.173-6.023,36.725,36.725,0,0,0,1.235-13.821,11.945,11.945,0,0,1,.022-3.362,15.759,15.759,0,0,0-.575-7.248c-3.348-3.034-13.249-4.2-21.091-.037,1.4,3.957.149,7.825-3.229,9.351.082,1.226.055,4.31-1.942,4.137-1.439-.125-1.43-1.939-2.816-3.617-1.415-1.714-4.816-2.308-6.289-.038A7.8,7.8,0,0,0,228.18,139.349Z" fill="#ffa8a7"/>
                  <path id="Path_7817" data-name="Path 7817" d="M248.906,149.8c-5.028-.892-8.843-1.667-11.266-5.489a31.687,31.687,0,0,1-2.7-6.179,24.744,24.744,0,0,0,1.733,7.648c1.137,2.415,4.153,4.549,12.05,5.7Z" fill="#f28f8f"/>
                </g>
                <g id="Group_1637" data-name="Group 1637">
                  <path id="Path_7818" data-name="Path 7818" d="M247.473,129.357a1.428,1.428,0,1,1-1.317-1.585A1.452,1.452,0,0,1,247.473,129.357Z" fill="#263238"/>
                  <path id="Path_7819" data-name="Path 7819" d="M246.646,125.046l-3.2,1.385a1.829,1.829,0,0,1,.94-2.351A1.7,1.7,0,0,1,246.646,125.046Z" fill="#263238"/>
                  <path id="Path_7820" data-name="Path 7820" d="M260,126.777l-3.328-1.126a1.686,1.686,0,0,1,2.168-1.136A1.846,1.846,0,0,1,260,126.777Z" fill="#263238"/>
                  <path id="Path_7821" data-name="Path 7821" d="M259.2,129.932a1.428,1.428,0,1,1-1.317-1.586A1.451,1.451,0,0,1,259.2,129.932Z" fill="#263238"/>
                  <path id="Path_7822" data-name="Path 7822" d="M257.778,135.273l-5.084,1.912-.964-9.808C253.609,126.826,255.72,131.43,257.778,135.273Z" fill="#f28f8f"/>
                </g>
                <g id="Group_1638" data-name="Group 1638">
                  <path id="Path_7823" data-name="Path 7823" d="M247.044,139.148l5.884,1.62A3,3,0,0,1,249.233,143,3.2,3.2,0,0,1,247.044,139.148Z" fill="#b16668"/>
                  <path id="Path_7824" data-name="Path 7824" d="M247.708,140.16a3.294,3.294,0,0,0-.739-.032A3.154,3.154,0,0,0,249.233,143a2.87,2.87,0,0,0,.974.086A2.8,2.8,0,0,0,247.708,140.16Z" fill="#f28f8f"/>
                </g>
              </g>
              <g id="Group_1639" data-name="Group 1639">
                <path id="Path_7825" data-name="Path 7825" d="M236.088,175.719c.344-11.522-4.3-12.836-5.97-9.288a23.26,23.26,0,0,1-2.139-14.208c1.421-1.771,2.55-3.27,3.036-3.945.642-.891,1.177-.6,1.177-.6l-.408,2.876a19.4,19.4,0,0,0,2.892,8.068C236.689,162.049,236.964,166.088,236.088,175.719Z" fill="#124f98"/>
                <path id="Path_7826" data-name="Path 7826" d="M236.088,175.719c.344-11.522-4.3-12.836-5.97-9.288a23.26,23.26,0,0,1-2.139-14.208c1.421-1.771,2.55-3.27,3.036-3.945.642-.891,1.177-.6,1.177-.6l-.408,2.876a19.4,19.4,0,0,0,2.892,8.068C236.689,162.049,236.964,166.088,236.088,175.719Z" fill="#124f98" opacity="0.45"/>
              </g>
            </g>
            <g id="Arm-6" data-name="Arm">
              <path id="Path_7827" data-name="Path 7827" d="M202.484,249.769c-.661-2.912-1.106-6.033-2.392-8.69-1.535-3.172-2.461-3.77-3.015-8.049-.8-6.2,1.834-26.386,1.834-26.386-5.067-3.546-10.985-4.428-17.55-3.287-.6,3.715-.081,8.044,2.762,29.658.527,4.006-.637,7.863-.548,11.837.084,3.785.418,7.737,2.328,11.094a4.346,4.346,0,0,0,.666.934c.2.206.442.377.661.568,1.407,1.225,2.15,3.322,3.934,3.867a4.538,4.538,0,0,0,2.6-.162,1.986,1.986,0,0,1,1.009-.174c.273.05.522.274.816.322,1.348.219,1.883-1.04,1.761-2.191-.219-2.059-1.482-4.752-2.022-7.646s-.16-6.481.379-6.557c1.835-.258,2.331,6.055,5.487,6.794C203.037,252.133,202.659,250.538,202.484,249.769Z" fill="#ffa8a7"/>
              <g id="Group_1640" data-name="Group 1640">
                <path id="Path_7828" data-name="Path 7828" d="M213.873,155.615c-4.739.836-7.569,1.441-10.828,3.929s-5.275,6.7-7.992,11.551-4.616,8.083-7.533,13.923a118.7,118.7,0,0,0-6.047,14.256,12.237,12.237,0,0,0-.735,4.6l18.663-.351s13.645-24.437,14.817-26.263S219.209,159.671,213.873,155.615Z" fill="#455a64"/>
              </g>
              <g id="Group_1641" data-name="Group 1641">
                <path id="Path_7829" data-name="Path 7829" d="M198.515,209.569c1.152-.608.717-1.838,1.276-2.367a4.242,4.242,0,0,0,.768-4.012c-.657-1.49-2.422-4.321-8.513-6.432a25.23,25.23,0,0,0-5.454-1.188c-1.546-.172-3.431-.4-4.859.364a2.947,2.947,0,0,0-1.523,2.475,2.86,2.86,0,0,1-.1,1.13,2.889,2.889,0,0,1-.508.648,1.787,1.787,0,0,0-.49,1.255c.048.687.618,1.2.971,1.794.435.728-.11,1.732-.051,2.578.088,1.258.665,1.459,1.129,1.548v-1.919s2.724-1.913,10.579-.609c5.223.866,6.95,3.671,6.95,3.671Z" fill="#37474f"/>
              </g>
            </g>
            <path id="Path_7830" data-name="Path 7830" d="M287.033,174.162c.378-.86-2-1.116-3.082-.586-3.915,3.266-6.021,10.733-5.479,15.091s2.932,7.77,5.669,7.892,2.494.611,4.619.611,5.439-1.676,6.616-6.067a6.542,6.542,0,0,1-6.055,2.158c-3.812-.684-4.691-8.014-4.5-11.142A25.783,25.783,0,0,1,287.033,174.162Z" fill="#37474f"/>
          </g>
        </g>
      </g>
    </g>
    <g id="Character_2" data-name="Character 2">
      <g id="Character-4" data-name="Character">
        <g id="Bottom-5" data-name="Bottom">
          <g id="Bottom-6" data-name="Bottom">
            <g id="Group_1647" data-name="Group 1647">
              <g id="Group_1646" data-name="Group 1646">
                <path id="Path_7831" data-name="Path 7831" d="M255.655,419.431c-.554-.241-1.014,1.151-.876,1.935.4,2.253,2.56,5.237,6.41,7.492s12.314,3.783,14.8,4.483,6.327,3.319,8.649,4.505c4.228,2.161,7.682,1.912,9.605.95a2.885,2.885,0,0,0,1.291-1.909c.505-1.71.468-2.1.274-2.148Z" fill="#e0e0e0"/>
                <g id="Group_1643" data-name="Group 1643">
                  <g id="Group_1642" data-name="Group 1642">
                    <path id="Path_7832" data-name="Path 7832" d="M296.924,429.639a22.115,22.115,0,0,1-1.583,6.242,4.873,4.873,0,0,1-3.755,1.357,17.983,17.983,0,0,1-9-2.851,24.733,24.733,0,0,0-6.1-2.769c-2.583-.681-8.364-1.92-10.921-2.71a18.224,18.224,0,0,1-6.5-3.573c-1.43-1.325-3.419-3.879-3.566-5.364.434-3.227,1.331-4.941,3.422-5.406,2.208-.492,4.93.15,8.685,1.057,1.124.272,2.529.656,3.136.781,2.3.473,4.425.977,6.142,1.414a10.072,10.072,0,0,0,4.44.434,2.928,2.928,0,0,0,1.794-.882c.6-.668.961-1.808,1.664-1.652,0,0,11.862,6.188,12.844,6.62C298.764,422.835,297.456,424.263,296.924,429.639Z" fill="#e0e0e0"/>
                  </g>
                </g>
                <g id="Group_1645" data-name="Group 1645" opacity="0.1">
                  <g id="Group_1644" data-name="Group 1644">
                    <path id="Path_7833" data-name="Path 7833" d="M296.924,429.639a22.115,22.115,0,0,1-1.583,6.242,4.873,4.873,0,0,1-3.755,1.357,17.983,17.983,0,0,1-9-2.851,24.733,24.733,0,0,0-6.1-2.769c-2.583-.681-8.364-1.92-10.921-2.71a18.224,18.224,0,0,1-6.5-3.573c-1.43-1.325-3.419-3.879-3.566-5.364.434-3.227,1.331-4.941,3.422-5.406,2.208-.492,4.93.15,8.685,1.057,1.124.272,2.529.656,3.136.781,2.3.473,4.425.977,6.142,1.414a10.072,10.072,0,0,0,4.44.434,2.928,2.928,0,0,0,1.794-.882c.6-.668.961-1.808,1.664-1.652,0,0,11.862,6.188,12.844,6.62C298.764,422.835,297.456,424.263,296.924,429.639Z"/>
                  </g>
                </g>
                <path id="Path_7834" data-name="Path 7834" d="M269.812,415.974a3.59,3.59,0,0,0-1.28.8,6.55,6.55,0,0,0-1.047,1.27c-.374.587.375.969.921.334a8.553,8.553,0,0,1,1.463-1.452,2.088,2.088,0,0,1,1.341-.425l.656.139C271.849,416.108,270.4,415.808,269.812,415.974Z" fill="#fafafa"/>
                <path id="Path_7835" data-name="Path 7835" d="M275.689,417.143a1.6,1.6,0,0,0-1.3-.022,3.123,3.123,0,0,0-1.317,1.037,12.344,12.344,0,0,0-1.116,1.732c-.179.4.794.7,1.044.281a17.087,17.087,0,0,1,1.052-1.566c.2-.25,1.053-1.168,1.756-1.061l.308.08c.049-.143-.111-.3-.234-.378A1.83,1.83,0,0,0,275.689,417.143Z" fill="#fafafa"/>
                <path id="Path_7836" data-name="Path 7836" d="M279.043,418.119a1.33,1.33,0,0,0-.874.188,3.6,3.6,0,0,0-.839.826,7.037,7.037,0,0,0-.949,1.934c-.186.525.825.7.972.354a5.478,5.478,0,0,1,1.5-2.46,2.681,2.681,0,0,1,1.115-.605c0-.1-.135-.161-.233-.176A5.864,5.864,0,0,0,279.043,418.119Z" fill="#fafafa"/>
              </g>
              <path id="Path_7837" data-name="Path 7837" d="M302.326,409.169s-3.724,11.3-4.859,13.879c-.363.824-2.084.645-3.031.737a10.632,10.632,0,0,0-3.383.719c-2.787,1.415-4.535,1.392-4.619-2.689-.017-.836-.4-1.317-1.416-1.451a6.208,6.208,0,0,1-2.278-.4c-.088-.109.035-.259.146-.345a3.806,3.806,0,0,0,1.7-2.651c1.162-4.84,1.765-9.008,3.031-14.949Z" fill="#f0f0f0"/>
            </g>
            <g id="Group_1650" data-name="Group 1650">
              <path id="Path_7838" data-name="Path 7838" d="M347.251,426.976c-1.605-2.566-2.472-7.506-6-17.544l-13.738,11.261,8.146,12.945a11.957,11.957,0,0,1,.591,2.05C337.995,438.2,347.251,426.976,347.251,426.976Z" fill="#f0f0f0"/>
              <g id="Group_1649" data-name="Group 1649">
                <path id="Path_7839" data-name="Path 7839" d="M352.1,432.448c-.021-.148.058-1.357.02-1.5-.34-1.3-1.145-1.662-2.179-2.39a16.185,16.185,0,0,1-2.852-2.439c-.346-.479-.413-.728-.95-.946a5.061,5.061,0,0,0-4.2.55c-2.97,1.56-3.876,3.439-3.705,5.474.13,1.553.259,3.617-1.109,4.54-.57.384-1.469-2.1-1.469-2.1-.844,1.414.341,3.372.96,6.237a11.809,11.809,0,0,1,.082,4.818c-.3,2.516-.648,2.506-1.983,2.681-1.15.151-4.414-.068-6.4,1.318a4.209,4.209,0,0,0-2,4.453c.354.967,3.329,5.658,14.2,3.906,3.153-.508,9.776-5.465,9.675-5.928a6.23,6.23,0,0,1,.025-1.424c.038-1.111.086-2.222.134-3.333a16.865,16.865,0,0,1,.185-3.175,17.34,17.34,0,0,0,.4-2.625l.624-6.694C351.619,433.23,352.186,433.082,352.1,432.448Z" fill="#e0e0e0"/>
                <path id="Path_7840" data-name="Path 7840" d="M352.1,432.448c-.021-.148.058-1.357.02-1.5-.34-1.3-1.145-1.662-2.179-2.39a16.185,16.185,0,0,1-2.852-2.439c-.346-.479-.413-.728-.95-.946a5.061,5.061,0,0,0-4.2.55c-2.97,1.56-3.876,3.439-3.705,5.474.13,1.553.259,3.617-1.109,4.54-.57.384-1.469-2.1-1.469-2.1-.844,1.414.341,3.372.96,6.237a11.809,11.809,0,0,1,.082,4.818c-.3,2.516-.648,2.506-1.983,2.681-1.15.151-4.414-.068-6.4,1.318a4.209,4.209,0,0,0-2,4.453c.354.967,3.329,5.658,14.2,3.906,3.153-.508,9.776-5.465,9.675-5.928a6.23,6.23,0,0,1,.025-1.424c.038-1.111.086-2.222.134-3.333a16.865,16.865,0,0,1,.185-3.175,17.34,17.34,0,0,0,.4-2.625l.624-6.694C351.619,433.23,352.186,433.082,352.1,432.448Z" opacity="0.1"/>
                <path id="Path_7841" data-name="Path 7841" d="M353.468,432.008c1.072,1.037.42,4.047-1.017,7.659-.638,1.6-1.826,4.361-1.477,7.292s.41,4.318-.345,5.692c-1.183,2.15-7.5,4.9-11.225,5.762a20.545,20.545,0,0,0,3.786-10.755c.374-6.473.868-10.644,3.828-13.514C350.76,430.515,353.468,432.008,353.468,432.008Z" fill="#e0e0e0"/>
                <path id="Path_7842" data-name="Path 7842" d="M353.468,432.008c1.072,1.037.42,4.047-1.017,7.659-.638,1.6-1.826,4.361-1.477,7.292s.41,4.318-.345,5.692c-1.183,2.15-7.5,4.9-11.225,5.762a20.545,20.545,0,0,0,3.786-10.755c.374-6.473.868-10.644,3.828-13.514C350.76,430.515,353.468,432.008,353.468,432.008Z" opacity="0.1"/>
                <path id="Path_7843" data-name="Path 7843" d="M326.313,453.145s2.18,4.084,10.589,3.951c3.31-.053,5.082-1.665,5.163-6.7.1-6.064.586-12.188,2.547-15.2s5.085-4.47,7.508-4.256a2.332,2.332,0,0,1,1.348,1.063s-2.425-.8-6.2,2.334c-2.786,2.312-3.539,7.14-3.5,13.136.019,2.581.176,5.507-.58,7.465a5.96,5.96,0,0,1-4.016,3.539c-4.572,1.283-10.827-.833-12.41-2.765A3,3,0,0,1,326.313,453.145Z" fill="#e0e0e0"/>
                <g id="Group_1648" data-name="Group 1648">
                  <path id="Path_7844" data-name="Path 7844" d="M336.415,446.273a1.727,1.727,0,0,0-.681,1,2.883,2.883,0,0,0,1.325,2.633c.507.316.948.205.144-.857A5.265,5.265,0,0,1,336.415,446.273Z" fill="#fafafa"/>
                  <path id="Path_7845" data-name="Path 7845" d="M336.867,443.134s-.267.172-.334,1.015a4.12,4.12,0,0,0,1.552,2.706c.884.433.406-.587.022-1.088A6.609,6.609,0,0,1,336.867,443.134Z" fill="#fafafa"/>
                  <path id="Path_7846" data-name="Path 7846" d="M336.569,439.667s-.287.079.019,1.24a3.7,3.7,0,0,0,1.833,1.608c.571.069.847-.217.147-.724C338.017,441.391,336.676,440.229,336.569,439.667Z" fill="#fafafa"/>
                </g>
              </g>
            </g>
            <g id="Group_1651" data-name="Group 1651">
              <path id="Path_7847" data-name="Path 7847" d="M311.293,297.368s-5.687,6.815-9.125,19.562a294.341,294.341,0,0,0-7.094,36.011c-.821,5.427-1.425,9.3-2.9,19.184-1.229,8.234-6.637,38.851-6.637,38.851s3.966,3.432,7.3,4.694c3.105,1.174,5.979,1.644,7.12,1.174,0,0,3.825-9.825,8.561-22.689a122.77,122.77,0,0,0,5.45-18.163c.619-3.182.469-8.845.408-11.7l25.438-39.3a27.065,27.065,0,0,0,4.75-8.2c3.347-8.4-.926-20.5-.926-20.5Z" fill="#e0e0e0"/>
              <path id="Path_7848" data-name="Path 7848" d="M311.293,297.368s-5.687,6.815-9.125,19.562a294.341,294.341,0,0,0-7.094,36.011c-.821,5.427-1.425,9.3-2.9,19.184-1.229,8.234-6.637,38.851-6.637,38.851s3.966,3.432,7.3,4.694c3.105,1.174,5.979,1.644,7.12,1.174,0,0,3.825-9.825,8.561-22.689a122.77,122.77,0,0,0,5.45-18.163c.619-3.182.469-8.845.408-11.7l25.438-39.3a27.065,27.065,0,0,0,4.75-8.2c3.347-8.4-.926-20.5-.926-20.5Z" opacity="0.15"/>
              <path id="Path_7849" data-name="Path 7849" d="M336.33,308.4H305.086a67.263,67.263,0,0,0-2.918,8.53,277.387,277.387,0,0,0-6.666,33.156c.76,5.115,1.619,10.36,2.416,13.979,2.1,9.53,3.41,16.263,5.071,20.2a64.352,64.352,0,0,0,5.665,9.522,121.731,121.731,0,0,0,5.316-17.792c.619-3.182.469-8.845.408-11.7l18.476-28.541,1.437-8.843C339.012,319.211,338.488,313.441,336.33,308.4Z" opacity="0.1"/>
            </g>
            <g id="Group_1652" data-name="Group 1652">
              <path id="Path_7850" data-name="Path 7850" d="M331.028,297.368a24.4,24.4,0,0,1,5.786,14.468,21.692,21.692,0,0,1-4.572,14.3c-1.188,17.408-4.629,50.936-4.629,50.936,4.6,4.736,5.791,7.792,8.454,16.282,1.617,5.154,6.856,21.291,8.569,26.547-8.189,1.231-12.333,8.407-12.333,8.407s-13.646-20.562-20.473-32.88c-5.047-9.106-6.2-10.878-7.575-16.3s-2.337-10.453-4-21.78-4.6-26.93-5.412-38.08-.964-22.969-.964-22.969Z" fill="#e0e0e0"/>
            </g>
            <g id="Group_1653" data-name="Group 1653" opacity="0.15">
              <path id="Path_7851" data-name="Path 7851" d="M331.028,297.368a24.4,24.4,0,0,1,5.786,14.468,21.692,21.692,0,0,1-4.572,14.3c-1.188,17.408-4.629,50.936-4.629,50.936,4.6,4.736,5.791,7.792,8.454,16.282,1.617,5.154,6.856,21.291,8.569,26.547-8.189,1.231-12.333,8.407-12.333,8.407s-13.646-20.562-20.473-32.88c-5.047-9.106-6.2-10.878-7.575-16.3s-2.337-10.453-4-21.78-4.6-26.93-5.412-38.08-.964-22.969-.964-22.969Z"/>
            </g>
            <path id="Path_7852" data-name="Path 7852" d="M345.786,311.011a6.9,6.9,0,0,1-3.343-2.373,9.63,9.63,0,0,1-.864-2.464,25.979,25.979,0,0,0-1.4-4.184l-.86.385a24.9,24.9,0,0,1,1.353,4.041,10.1,10.1,0,0,0,.976,2.721,7.676,7.676,0,0,0,4.06,2.813C345.737,311.638,345.765,311.325,345.786,311.011Z" opacity="0.18"/>
            <path id="Path_7853" data-name="Path 7853" d="M323.429,320.986a3.36,3.36,0,0,0,.6-.06c1.367-.3,2.429-1.22,4.545-3.926,1.611-2.062,1.446-3.541,1.174-5.994-.1-.9-1.048-5.712-1.108-6.981l-.9.5c.062,1.3.974,5.668,1.076,6.582.27,2.438.393,3.551-.981,5.308-1.956,2.5-2.891,3.341-4,3.586-1.079.244-5.857-.549-7.13-1.429-.735-.511-1.967-6.8-2.687-12.337l-.934.122c.363,2.8,1.66,12.006,3.084,12.99C317.426,320.225,321.53,321.036,323.429,320.986Z" opacity="0.18"/>
          </g>
        </g>
        <g id="Top-5" data-name="Top">
          <g id="Group_1655" data-name="Group 1655">
            <path id="Arm-7" data-name="Arm" d="M348.74,275.587l-9.394-19.118c-4.534-9.875-12.415-16.57-1.667-23.739,4.752-.362,7.137,1.121,10.54,6.528s10.646,24.948,12.289,29.148a40.035,40.035,0,0,1,2.694,11.387c.559,4.964-.181,14.219-.223,19.2-.019,2.3.127,4.5.27,6.823a52.332,52.332,0,0,1-.521,7.2,6.5,6.5,0,0,1-1.224,3.168c-.428.6-1.145.825-1.552,1.388-.421.583-.348,1.346-.973,1.877-.7.59-1.666.564-2.259,1.142a21.033,21.033,0,0,1-1.8,1.922A4.5,4.5,0,0,0,353.367,324c-.33.608-.5,1.825-1.332,1.944-.938.133-1.3-.716-1.537-1.47a7.2,7.2,0,0,1,.445-4.476,40.772,40.772,0,0,1,1.712-4.441,10.037,10.037,0,0,0,1-4.348c.057-1.015-.328-2.2-1.413-1.353-1.279,1-2.464,2.748-4.26,2.874-1.243.087-1.539-.836-1.036-1.792a35.837,35.837,0,0,0,2.123-4.891c.6-1.71,1.016-3.469,1.665-5.158a21.707,21.707,0,0,1,1.241-2.578c1.273-2.329.569-4.909.176-7.37C351.606,287.507,349.75,279.925,348.74,275.587Z" fill="#f0f0f0"/>
            <g id="Group_1654" data-name="Group 1654">
              <path id="Path_7854" data-name="Path 7854" d="M336.03,232.223c4.025-.268,8.054.145,10.74,4.174s7.542,13.653,10.64,22.831c-2.841,5.01-13.946,8.161-13.946,8.161l-6.317-13.016Z" fill="#f0f0f0"/>
              <path id="Path_7855" data-name="Path 7855" d="M336.03,232.223c4.025-.268,8.054.145,10.74,4.174s7.542,13.653,10.64,22.831c-2.841,5.01-13.946,8.161-13.946,8.161l-6.317-13.016Z" opacity="0.15"/>
            </g>
          </g>
          <path id="Path_7856" data-name="Path 7856" d="M343.881,237.225c3.189,6.1,2.794,11.556,1.874,20.109-.848,7.887-1.443,12.773-2.17,22.529-.831,11.147.655,18.177.655,18.177s-.316,4.723-14.213,8.263c-24.423,6.22-36.144-.867-36.144-.867s-.589-13.756.358-31.748c1.06-20.155,1.413-23.1,2.97-27.9a12.464,12.464,0,0,1,6.249-6.363c2.424-1.1,8.229-3,11.676-4.331,8.02-3.1,17.29-2.9,17.29-2.9C339.382,231.724,342.226,234.06,343.881,237.225Z" fill="#e0e0e0"/>
          <g id="Group_1662" data-name="Group 1662">
            <path id="Path_7857" data-name="Path 7857" d="M314.535,228.189l.656,7.415c4.057.884,13.918.25,15.769-2.271l-.389-6.794Z" fill="#f0f0f0"/>
            <g id="Group_1658" data-name="Group 1658">
              <g id="Group_1656" data-name="Group 1656">
                <path id="Path_7858" data-name="Path 7858" d="M303.966,209.184s-1.884,1.425-3.312,6.347l2.791,2.046C304.363,214.12,305.353,210.6,303.966,209.184Z" fill="#e0e0e0"/>
              </g>
              <g id="Group_1657" data-name="Group 1657">
                <path id="Path_7859" data-name="Path 7859" d="M311.162,195.407c-6.927.46-8.086,4.069-7.056,15.883-2.431,11.216.926,15.653,2.372,17.122,3.265,1.749,6.584,2.038,11.093.862,3.437-.9,12.144-3.478,15.792-8.882,4.291-6.356,5.412-16.023.842-19.62C327.775,195.708,313.92,195.223,311.162,195.407Z" fill="#f0f0f0"/>
              </g>
              <path id="Path_7860" data-name="Path 7860" d="M306.478,228.412c.8.812,5.435,2.28,8.292,1.967l-.235-2.19A29.5,29.5,0,0,1,306.478,228.412Z" fill="#e0e0e0"/>
            </g>
            <g id="Group_1661" data-name="Group 1661">
              <g id="Group_1660" data-name="Group 1660">
                <g id="Group_1659" data-name="Group 1659">
                  <path id="Path_7861" data-name="Path 7861" d="M311.46,203.265a8.773,8.773,0,0,0,.053.93,3.761,3.761,0,0,0,2.884,3.417,9.9,9.9,0,0,0-1.146,4.495,2.452,2.452,0,0,0,.31,1.419.942.942,0,0,0,1.689-.018,11.917,11.917,0,0,1,1.41-2.346,4.534,4.534,0,0,1,2.846-1.531c4.178-.407,4.195,6.1,2.519,8.3-2.742,3.6-4.993,1.292-4.993,1.292s-1.41,5.56,2.618,7.968c0,0,6.546,2.246,10.975,0,2.028-4.173,4.709-7.264,6.886-11.707,3.809-7.772,1.816-14.308-.779-15.712.415-1.611-2.386-6.471-7.081-8.686a23.556,23.556,0,0,0-13.446-1.43c-4.99,1.123-10.129,4.385-11.315,9.019a12.9,12.9,0,0,0,5.96,1.891.758.758,0,0,1,.586.441,1.038,1.038,0,0,1,.059.419C311.492,202.04,311.454,202.654,311.46,203.265Z" fill="#e0e0e0"/>
                </g>
              </g>
            </g>
          </g>
          <g id="Group_1664" data-name="Group 1664">
            <path id="Arm-8" data-name="Arm" d="M283.992,283.883s2.5-12.524,4.318-21.3,1.117-18.923,14.938-22.4c2.285,3.487,3.775,8.831,3.005,15.494s-5.647,26.883-7.064,31.4c-1.722,5.009-3.322,6.727-7.059,11.294-3.321,4.06-9.652,10.932-12.96,14.98-1.531,1.873-2.858,3.77-4.267,5.762a55,55,0,0,1-5.159,5.549,6.838,6.838,0,0,1-3.086,1.788c-.743.208-1.48-.078-2.183.116-.729.2-1.171.873-2.031.9-.957.026-1.735-.634-2.6-.551a21.956,21.956,0,0,1-2.735.391,4.737,4.737,0,0,0-2.255.2c-.67.281-1.606,1.167-2.369.715-.855-.508-.6-1.442-.291-2.214a7.561,7.561,0,0,1,3.308-3.371,42.7,42.7,0,0,1,4.322-2.509,10.517,10.517,0,0,0,3.68-2.9c.715-.794,1.181-2.02-.267-2.037-1.706-.019-3.823.629-5.377-.449-1.074-.746-.709-1.7.331-2.148a37.641,37.641,0,0,0,4.954-2.607c1.618-1,3.114-2.172,4.756-3.127a22.691,22.691,0,0,1,2.711-1.293c2.573-1.07,3.694-3.645,4.991-5.917C277.414,296.47,281.966,288.1,283.992,283.883Z" fill="#f0f0f0"/>
            <g id="Group_1663" data-name="Group 1663">
              <path id="Path_7862" data-name="Path 7862" d="M303.815,239.269c-2.976.724-10.935,2.141-13.229,9.628s-4.789,23.608-4.789,23.608,1.847,3.238,7.9,4.587,9.026-.337,9.026-.337,3.611-15.784,4.234-19.764S307.937,242.66,303.815,239.269Z" fill="#f0f0f0"/>
              <path id="Path_7863" data-name="Path 7863" d="M303.815,239.269c-2.976.724-10.935,2.141-13.229,9.628s-4.789,23.608-4.789,23.608,1.847,3.238,7.9,4.587,9.026-.337,9.026-.337,3.611-15.784,4.234-19.764S307.937,242.66,303.815,239.269Z" opacity="0.15"/>
            </g>
          </g>
        </g>
      </g>
    </g>
    <g id="Character_1" data-name="Character 1">
      <g id="Character-5" data-name="Character">
        <path id="Arm-9" data-name="Arm" d="M108.882,167.712c7.009,1.374,9.748,1.845,13.106,7.652s9.053,27.4,10.611,31.876,2.028,6.1,1.384,11.1c-.671,5.2-3.739,14.455-5.026,19.522-.6,2.345-1,4.624-1.431,7.025a54.851,54.851,0,0,1-2.331,7.21,6.829,6.829,0,0,1-2.04,2.925c-.586.5-1.374.555-1.93,1.028-.575.489-.691,1.286-1.461,1.67-.856.429-1.84.159-2.589.6a21.87,21.87,0,0,1-2.314,1.511,4.729,4.729,0,0,0-1.959,1.133c-.489.537-.962,1.736-1.845,1.649-.989-.1-1.148-1.056-1.2-1.883a7.559,7.559,0,0,1,1.572-4.454,43.047,43.047,0,0,1,2.856-4.1,10.53,10.53,0,0,0,2.11-4.183c.312-1.021.217-2.33-1.1-1.733-1.554.7-3.2,2.186-5.063,1.866-1.289-.222-1.36-1.237-.608-2.086a37.559,37.559,0,0,0,3.387-4.457c1.042-1.594,1.9-3.284,2.988-4.845a22.97,22.97,0,0,1,1.911-2.317c1.88-2.058,1.807-4.865,2.021-7.473.3-3.64.5-7.29.677-10.938a6.294,6.294,0,0,0,.093-2.014L112,193.074Z" fill="#f0f0f0"/>
        <g id="Bottom-7" data-name="Bottom">
          <g id="Group_1665" data-name="Group 1665">
            <path id="Path_7864" data-name="Path 7864" d="M61.526,330.149c2.409-.847,4.2-.932,4.171.263s-1.549,4.224-1.549,4.224l-1.914,2.635-.917,2.609s-1.122,1.4-1.191,1.5-.443-4.852-.443-4.852S58.325,330.767,61.526,330.149Z" fill="#e0e0e0"/>
            <path id="Path_7865" data-name="Path 7865" d="M61.526,330.149c2.409-.847,4.2-.932,4.171.263s-1.549,4.224-1.549,4.224l-1.914,2.635-.917,2.609s-1.122,1.4-1.191,1.5-.443-4.852-.443-4.852S59.454,330.9,61.526,330.149Z" opacity="0.2"/>
          </g>
          <g id="Group_1667" data-name="Group 1667">
            <path id="Path_7866" data-name="Path 7866" d="M87.416,228.44s-5.438,6.518-8.727,18.709A281.86,281.86,0,0,0,71.9,281.59c-.785,5.189-1.362,8.894-2.773,18.346-1.175,7.875-7.089,35.511-7.089,35.511s2.6,4.319,5.748,5.634c4.524,1.891,8.887,1.032,9.454-3.007,0,0,2.991-4.765,7.52-17.069a117.445,117.445,0,0,0,5.212-17.37c.593-3.043.449-8.459.391-11.193L112.3,254.311s5.412-3.752,7.374-9.121c3.013-8.245-1.371-19.28-1.371-19.28Z" fill="#e0e0e0"/>
            <g id="Group_1666" data-name="Group 1666">
              <path id="Path_7867" data-name="Path 7867" d="M64.816,349.289l-.983-.19c.073-.377,7.361-37.88,12.463-53.625s18.448-47.045,18.582-47.36l.92.393c-.134.314-13.464,31.58-18.551,47.276S64.888,348.913,64.816,349.289Z" fill="#f0f0f0"/>
            </g>
            <path id="Path_7868" data-name="Path 7868" d="M111.361,238.991H81.48a64.193,64.193,0,0,0-2.79,8.158,265.075,265.075,0,0,0-6.376,31.71c.727,4.892,1.549,9.908,2.311,13.369,2.007,9.115,3.261,15.553,4.85,19.316a61.62,61.62,0,0,0,5.417,9.107,116.351,116.351,0,0,0,5.084-17.016c.593-3.043.449-8.459.391-11.193l17.771-30.891h0l1.273-4.862C113.926,249.331,113.425,243.812,111.361,238.991Z" opacity="0.18"/>
          </g>
          <g id="Group_1668" data-name="Group 1668">
            <path id="Path_7869" data-name="Path 7869" d="M37.087,342.307c-.536-.248-1.186,1.851-1.241,2.6s1.384,3.819,5.106,6.07,10.162,3.522,12.575,4.282,4.337,2.681,7.512,4.281c2.821,1.422,7.083,2.094,8.942,1.263a2.842,2.842,0,0,0,1.358-2c.505-1.545.471-1.9.284-1.958Z" fill="#e0e0e0"/>
            <path id="Path_7870" data-name="Path 7870" d="M72.907,353.429a13.889,13.889,0,0,1-1.548,4.506c-.906.962-2.662,1.041-3.845.973-3.12-.177-5.205-1.109-8.1-2.83a25.871,25.871,0,0,0-5.9-2.829,64.246,64.246,0,0,1-8.4-2.666,21.537,21.537,0,0,1-5.623-3.452c-1.378-1.283-2.642-2.748-2.508-4.539a5.711,5.711,0,0,1,5.068-4.207c2.149-.347,4.5.444,6.616,1,2.625.687,3.53,1.184,6.343,1.4,1.48.115,3.22,1.34,4.374.064,1.361-1.506,1.9-5.07,2.822-6.836.149-.288.346-.6.662-.671.457-.107.844.322,1.129.694a13.516,13.516,0,0,0,5.006,3.891c5.3,2.615,7.746,1.239,7.746,1.239l.489-1.093s1.055.589-.281,3.051a38.215,38.215,0,0,0-2.848,6.34A22.835,22.835,0,0,0,72.907,353.429Z" fill="#e0e0e0"/>
            <path id="Path_7871" data-name="Path 7871" d="M72.907,353.429a13.889,13.889,0,0,1-1.548,4.506c-.906.962-2.662,1.041-3.845.973-3.12-.177-5.205-1.109-8.1-2.83a25.871,25.871,0,0,0-5.9-2.829,64.246,64.246,0,0,1-8.4-2.666,21.537,21.537,0,0,1-5.623-3.452c-1.378-1.283-2.642-2.748-2.508-4.539a5.711,5.711,0,0,1,5.068-4.207c2.149-.347,4.5.444,6.616,1,2.625.687,3.53,1.184,6.343,1.4,1.48.115,3.22,1.34,4.374.064,1.361-1.506,1.9-5.07,2.822-6.836.149-.288.346-.6.662-.671.457-.107.844.322,1.129.694a13.516,13.516,0,0,0,5.006,3.891c5.3,2.615,7.746,1.239,7.746,1.239l.489-1.093s1.055.589-.281,3.051a38.215,38.215,0,0,0-2.848,6.34A22.835,22.835,0,0,0,72.907,353.429Z" opacity="0.1"/>
            <path id="Path_7872" data-name="Path 7872" d="M49.656,339.652c-2.261.215-2.876,3.87-2.876,3.87a19.341,19.341,0,0,0,6.512,2.115c3.986.326,6.381-1.632,7.33-4.679s.073-7.327-.093-8.705a1.872,1.872,0,0,1,1.337-2.222c-2.125.563-2.618,1.654-2.539,3.289s.03,4.893-.694,5.971S54.475,340.855,49.656,339.652Z" fill="#e0e0e0"/>
            <path id="Path_7873" data-name="Path 7873" d="M49.656,339.652c-2.261.215-2.876,3.87-2.876,3.87a19.341,19.341,0,0,0,6.512,2.115c3.986.326,6.381-1.632,7.33-4.679s.073-7.327-.093-8.705a1.872,1.872,0,0,1,1.337-2.222c-2.125.563-2.618,1.654-2.539,3.289s.03,4.893-.694,5.971S54.475,340.855,49.656,339.652Z" opacity="0.1"/>
          </g>
          <g id="Group_1669" data-name="Group 1669">
            <path id="Path_7874" data-name="Path 7874" d="M106.291,228.44a23.346,23.346,0,0,1,5.533,13.837,20.741,20.741,0,0,1-4.373,13.677c-1.135,16.648-4.426,48.714-4.426,48.714,4.4,4.529,5.538,7.452,8.085,15.571,1.546,4.929,7.352,20.778,8.8,25.191-7.708.942-11.9,8.6-11.9,8.6S94.459,334,87.93,322.223c-4.827-8.709-5.935-10.4-7.245-15.59a192.092,192.092,0,0,1-3.821-20.83c-1.587-10.833-4.4-25.756-5.177-36.419s-.921-21.967-.921-21.967Z" fill="#e0e0e0"/>
          </g>
          <path id="Path_7875" data-name="Path 7875" d="M88.851,309.908c-3.987-10.171-8.762-65.489-8.524-84.61l-1-.013c-.079,6.39.4,16.816,1.228,28.258-3.257-1.64-5.346-4.66-5.346-19.807h-1c0,15.23,1.987,18.912,6.429,20.953,1.67,22.655,4.647,48.863,7.281,55.584,3.9,9.951,24.266,43.552,24.471,43.891l.855-.52C113.04,353.307,92.72,319.78,88.851,309.908Z" fill="#f0f0f0"/>
          <g id="Bottom-8" data-name="Bottom">
            <g id="Group_1672" data-name="Group 1672">
              <path id="Path_7876" data-name="Path 7876" d="M106.873,352.323c-1.222,1.731-2.6,2.957.871,5.249,2.673,1.767,2.837,3.2,3.669,5.079s.662,5.689.662,5.689,4.59-6.949,3.248-11.42S106.873,352.323,106.873,352.323Z" fill="#e0e0e0"/>
              <path id="Path_7877" data-name="Path 7877" d="M106.873,352.323c-1.222,1.731-2.6,2.957.871,5.249,2.673,1.767,2.837,3.2,3.669,5.079s.662,5.689.662,5.689,4.59-6.949,3.248-11.42S106.873,352.323,106.873,352.323Z" opacity="0.1"/>
              <path id="Path_7878" data-name="Path 7878" d="M121.647,348.355c.857,1.249,2.851,2.32,4.5,3.344,1.164.72,2.363,1.428,2.709,2.755.038.148-.685.977-.666,1.127a8.04,8.04,0,0,1-.07,1.958c-.267,2.257-1.5,3.92-1.764,6.178a16.458,16.458,0,0,1-.488,2.652,15.863,15.863,0,0,0-.259,3.214c-.073,1.125-.146,2.25-.207,3.376a5.912,5.912,0,0,0-.054,1.442c.1.472-7.547,4.325-10.63,5.8-.178.089-.356.156-.556.233a7.992,7.992,0,0,1-5.626-.551c-6.143-2.228-5.762-4.454-5.762-4.454s-.192-2.567,2.923-4.3a7.338,7.338,0,0,1,1.172-.537.255.255,0,0,0,.056-.03,7.971,7.971,0,0,1,4.775-.242,8.109,8.109,0,0,0,.421-2.829,31.876,31.876,0,0,0,.069-4.326,11.222,11.222,0,0,0-1.851-4.534c-1.3-1.8-2.716-4.08-3.607-5.369-.993-1.118-1.1-4.3,4.02-7.961,4.9-3.5,8.493-2.773,9.188-1.31A19.654,19.654,0,0,0,121.647,348.355Z" fill="#e0e0e0"/>
              <path id="Path_7879" data-name="Path 7879" d="M121.647,348.355c.857,1.249,2.851,2.32,4.5,3.344,1.164.72,2.363,1.428,2.709,2.755.038.148-.685.977-.666,1.127a8.04,8.04,0,0,1-.07,1.958c-.267,2.257-1.5,3.92-1.764,6.178a16.458,16.458,0,0,1-.488,2.652,15.863,15.863,0,0,0-.259,3.214c-.073,1.125-.146,2.25-.207,3.376a5.912,5.912,0,0,0-.054,1.442c.1.472-7.547,4.325-10.63,5.8-.178.089-.356.156-.556.233a7.992,7.992,0,0,1-5.626-.551c-6.143-2.228-5.762-4.454-5.762-4.454s-.192-2.567,2.923-4.3a7.338,7.338,0,0,1,1.172-.537.255.255,0,0,0,.056-.03,7.971,7.971,0,0,1,4.775-.242,8.109,8.109,0,0,0,.421-2.829,31.876,31.876,0,0,0,.069-4.326,11.222,11.222,0,0,0-1.851-4.534c-1.3-1.8-2.716-4.08-3.607-5.369-.993-1.118-1.1-4.3,4.02-7.961,4.9-3.5,8.493-2.773,9.188-1.31A19.654,19.654,0,0,0,121.647,348.355Z" opacity="0.1"/>
              <path id="Path_7880" data-name="Path 7880" d="M108.455,372.554a4.613,4.613,0,0,1,2.168-2.429,6.563,6.563,0,0,1,1.082.2C111.088,370.932,108.873,371.793,108.455,372.554Z" opacity="0.1"/>
              <g id="Group_1670" data-name="Group 1670">
                <path id="Path_7881" data-name="Path 7881" d="M129.6,355.767c1.368.577.235,2.793-1.414,6.094a12.822,12.822,0,0,0-1.637,8.215c.326,2.979-.375,4.436-1.664,5.472s-10.844,5.228-10.844,5.228a17.516,17.516,0,0,0,3.766-10.035c.525-6.552,1.149-10.76,4.41-13.616A7.835,7.835,0,0,1,129.6,355.767Z" fill="#e0e0e0"/>
              </g>
              <g id="Group_1671" data-name="Group 1671" opacity="0.18">
                <path id="Path_7882" data-name="Path 7882" d="M129.6,355.767c1.368.577.235,2.793-1.414,6.094a12.822,12.822,0,0,0-1.637,8.215c.326,2.979-.375,4.436-1.664,5.472s-10.844,5.228-10.844,5.228a17.516,17.516,0,0,0,3.766-10.035c.525-6.552,1.149-10.76,4.41-13.616A7.835,7.835,0,0,1,129.6,355.767Z"/>
              </g>
              <path id="Path_7883" data-name="Path 7883" d="M102.777,375.431c.155,1.274,3.812,3.877,8.126,3.832,4.45-.046,4.688-.971,5.359-6.032s1.134-12.076,3.322-15.085,5.069-4.789,9.277-3.692c.481.234,1.787,1.536,1.3,2.754,0,0,.012-.961-1.715-1.462-1.481-.429-3.249-.385-5.719,1.746-2.882,2.487-3.527,8.324-3.856,13.34s-1.9,9.83-6.047,10.274a12.4,12.4,0,0,1-10-3.1A4.619,4.619,0,0,1,102.777,375.431Z" fill="#e0e0e0"/>
            </g>
          </g>
        </g>
        <g id="Top-6" data-name="Top">
          <g id="Group_1675" data-name="Group 1675">
            <path id="Path_7884" data-name="Path 7884" d="M78.046,136.256a5.562,5.562,0,0,1-.553-5.508c.7-1.775,2.147-3.653,6.385-5.846,5.035-2.605,18.877-4.458,25.725,4.6.987,1.3-12.635,26.9-11.962,32.216C94.109,158,82.448,144.939,82.448,144.939c-2.763-1.175-4.433-2.174-5.016-4.78A6.405,6.405,0,0,1,78.046,136.256Z" fill="#e0e0e0"/>
            <g id="Group_1673" data-name="Group 1673">
              <path id="Path_7885" data-name="Path 7885" d="M80.12,143.5s-3.729,6.1-3.317,6.593a19.17,19.17,0,0,0,2.764,1.828Z" fill="#e0e0e0"/>
              <path id="Path_7886" data-name="Path 7886" d="M84.756,132.387c-2.5,1.182-4.673,3.1-5.451,8.6-.2,1.436.918,3.4.409,5.309-2.179,8.177.407,14.995,2,16.5,1.074,1.015,6.69,1.466,9.636.646,3.687-1.028,11.7-4.644,15.515-10.407,4.493-6.78,5.544-15.9.54-19.556C100.362,128.324,87.427,131.125,84.756,132.387Z" fill="#f0f0f0"/>
              <path id="Path_7887" data-name="Path 7887" d="M103.912,156.9l1.459,10.1h0c2.253.483,2.468,3.15,1.347,5.171l.522,2.84-15.4,2.828L90.11,163.712Z" fill="#f0f0f0"/>
              <path id="Path_7888" data-name="Path 7888" d="M82.01,163c1.306.724,4.187,1.26,8.1.714l-.23-2a25.132,25.132,0,0,1-3.819,1.1A13.738,13.738,0,0,1,82.01,163Z" fill="#e0e0e0"/>
            </g>
            <g id="Group_1674" data-name="Group 1674">
              <path id="Path_7889" data-name="Path 7889" d="M81.053,135.319c-.137,3.562,2.1,4.683,3.687,5.384a7.662,7.662,0,0,0-.654,4.2c.357,1.806,1.042,3.284,2.819,3.881,1.088.366,1.408-.114,1.8-.971.551-1.219,1.243-3.09,3.861-2.73,3,.413,3.793,4.932,2.043,7.893a4.4,4.4,0,0,1-3.383,2.277,2.747,2.747,0,0,1-2.043-.964s.2,3.947,5.271,6.283c0,0,5.119,2.881,10.368,1.331a100.126,100.126,0,0,0,6.677-8.22c5.538-8,6.641-22.643-2.793-25.269-.449-.125-8.991-1.318-13.156-.415C82.767,130.767,81.077,134.7,81.053,135.319Z" fill="#e0e0e0"/>
            </g>
            <path id="Path_7890" data-name="Path 7890" d="M104.222,127.417a5.432,5.432,0,0,0-2.181,3.4,3.955,3.955,0,0,0,1.354,3.71c2.764,2.149,7.016-.347,7.52-3.523C111.511,127.249,106.983,125.363,104.222,127.417Z" fill="#e0e0e0"/>
            <path id="Path_7891" data-name="Path 7891" d="M104.222,127.417a5.432,5.432,0,0,0-2.181,3.4,3.955,3.955,0,0,0,1.354,3.71c2.764,2.149,7.016-.347,7.52-3.523C111.511,127.249,106.983,125.363,104.222,127.417Z" opacity="0.1"/>
            <path id="Path_7892" data-name="Path 7892" d="M106.449,128.609c-2.808,1.72-4.558,5.783-3.06,8.715.409.8.984,1.513,1.323,2.345,1.087,2.672-.495,5.612-.834,8.477a12.527,12.527,0,0,0,1.14,6.639c.926,1.509,2.986,1.9,3.807,3.491.565,1.1.176,2.435.4,3.648.475,2.626,3.571,3.885,6.238,3.943,2.263.049,4.706-.525,6.166-2.255a30.34,30.34,0,0,1,2.007-2.765c1.586-1.491,4.156-1.411,5.865-2.76a5.645,5.645,0,0,0,1.882-4.627,14.609,14.609,0,0,0-1.316-4.982c-1.138-2.786-.226-4.5.35-7.282a6.739,6.739,0,0,0-4-7.392c-1.94-.764-4.3-.633-5.854-2.021a33.922,33.922,0,0,1-2.078-2.69C115.539,125.878,109.748,126.589,106.449,128.609Z" fill="#e0e0e0"/>
          </g>
          <g id="Group_1676" data-name="Group 1676">
            <path id="Path_7893" data-name="Path 7893" d="M117.484,175.254c-1.379-4.5-5.949-6.87-7.34-7.274s-4.773-.983-4.773-.983c.78,1.785-.54,2.957-2.847,3.494-2.979.694-7.505.772-10.587-1.277l-1.263-.781a102.313,102.313,0,0,0-9.947,3c-.669.31-4.376,1.561-10.216,14.659-2.5,5.6-1.749,11.294,2.831,15.331.259,3.553-2.032,11.536-2.032,11.536a76.3,76.3,0,0,0-.785,20.2s2.761,7.254,24.465,7.177c16.809-.059,25.252-8.2,25.252-8.2-.2-4.138-6.663-18.538-6.023-23.376C115.222,201.658,121.695,188.985,117.484,175.254Z" fill="#e0e0e0"/>
            <path id="Path_7894" data-name="Path 7894" d="M117.484,175.254c-1.379-4.5-5.949-6.87-7.34-7.274s-4.773-.983-4.773-.983c.78,1.785-.54,2.957-2.847,3.494-2.979.694-7.505.772-10.587-1.277l-1.263-.781a102.313,102.313,0,0,0-9.947,3c-.669.31-4.376,1.561-10.216,14.659-2.5,5.6-1.749,11.294,2.831,15.331.259,3.553-2.032,11.536-2.032,11.536a76.3,76.3,0,0,0-.785,20.2s2.761,7.254,24.465,7.177c16.809-.059,25.252-8.2,25.252-8.2-.2-4.138-6.663-18.538-6.023-23.376C115.222,201.658,121.695,188.985,117.484,175.254Z" opacity="0.15"/>
          </g>
          <path id="Arm-10" data-name="Arm" d="M80.727,171.429c4.42,3.593,4.765,8.538,4.074,15.211s-7.363,27.512-8.727,32.047-3.335,6.12-6.788,9.784c-3.6,3.818-11.512,9.508-15.529,12.855-1.858,1.548-3.521,3.158-5.282,4.847a55.137,55.137,0,0,1-6.119,4.469,6.837,6.837,0,0,1-3.369,1.17c-.769.063-1.438-.357-2.165-.3-.753.058-1.315.635-2.164.494-.945-.156-1.583-.951-2.448-1.034a21.987,21.987,0,0,1-2.76-.135A4.728,4.728,0,0,0,27.2,250.6c-.711.148-1.8.841-2.462.252-.743-.661-.31-1.529.134-2.228a7.562,7.562,0,0,1,3.888-2.683,42.938,42.938,0,0,1,4.719-1.644,10.515,10.515,0,0,0,4.164-2.148c.852-.643,1.543-1.759.124-2.05-1.671-.343-3.873-.108-5.194-1.462-.914-.936-.375-1.8.733-2.046a37.586,37.586,0,0,0,5.358-1.619c1.779-.679,3.469-1.542,5.263-2.168a22.632,22.632,0,0,1,2.907-.755c2.73-.562,4.319-2.878,6.023-4.863,2.38-2.772,6.472-7.98,9.261-11.733l4.2-20.343C68.97,184.017,69.946,174.761,80.727,171.429Z" fill="#f0f0f0"/>
        </g>
      </g>
    </g>
    <g id="Speech_Bubble" data-name="Speech Bubble">
      <g id="Speech_Bubble-2" data-name="Speech Bubble">
        <g id="Speech_Bubble-3" data-name="Speech Bubble">
          <path id="Path_7895" data-name="Path 7895" d="M337.9,67.817a33.824,33.824,0,1,0-.005,47.835A33.865,33.865,0,0,0,337.9,67.817Zm-45.688,45.689a30.785,30.785,0,1,1,43.531-.006A30.824,30.824,0,0,1,292.213,113.506Z" fill="#455a64"/>
          <path id="Path_7896" data-name="Path 7896" d="M335.744,113.5a30.785,30.785,0,1,1,.006-43.531A30.815,30.815,0,0,1,335.744,113.5Z" fill="#fff"/>
          <path id="Path_7897" data-name="Path 7897" d="M282.179,120.945l4.842-10.967,8.716,8.717-10.967,4.841A1.965,1.965,0,0,1,282.179,120.945Z" fill="#455a64"/>
        </g>
        <g id="Bulb">
          <g id="Group_1678" data-name="Group 1678">
            <g id="Group_1677" data-name="Group 1677">
              <path id="Path_7898" data-name="Path 7898" d="M319.152,106.035H308.8a.779.779,0,0,1,0-1.558h10.348a.779.779,0,0,1,0,1.558Z" fill="#455a64"/>
            </g>
          </g>
          <g id="Group_1680" data-name="Group 1680">
            <g id="Group_1679" data-name="Group 1679">
              <path id="Path_7899" data-name="Path 7899" d="M313.978,114.108a5.959,5.959,0,0,1-5.953-5.953.779.779,0,0,1,.779-.779h10.348a.779.779,0,0,1,.779.779A5.959,5.959,0,0,1,313.978,114.108Z" fill="#455a64"/>
            </g>
          </g>
          <g id="Group_1681" data-name="Group 1681">
            <path id="Path_7900" data-name="Path 7900" d="M325.034,73.931a15.913,15.913,0,0,0-11.834-4.4,16.223,16.223,0,0,0-15.235,15.741A16.026,16.026,0,0,0,305.836,99.3a4.237,4.237,0,0,1,2.13,3.659.742.742,0,0,0,.2.5.724.724,0,0,0,.5.2h10.631a.7.7,0,0,0,.7-.7,4.272,4.272,0,0,1,2.121-3.649A16.1,16.1,0,0,0,330,85.527,15.9,15.9,0,0,0,325.034,73.931Z" fill="#fccf03"/>
          </g>
          <g id="Group_1682" data-name="Group 1682" opacity="0.35">
            <path id="Path_7901" data-name="Path 7901" d="M325.034,73.931a15.913,15.913,0,0,0-11.834-4.4,16.223,16.223,0,0,0-15.235,15.741A16.026,16.026,0,0,0,305.836,99.3a4.237,4.237,0,0,1,2.13,3.659.742.742,0,0,0,.2.5.724.724,0,0,0,.5.2h10.631a.7.7,0,0,0,.7-.7,4.272,4.272,0,0,1,2.121-3.649A16.1,16.1,0,0,0,330,85.527,15.9,15.9,0,0,0,325.034,73.931Z" fill="#fff"/>
          </g>
          <g id="Group_1683" data-name="Group 1683">
            <path id="Path_7902" data-name="Path 7902" d="M322.847,88.822a1.552,1.552,0,0,0-1.547-1.1,3.839,3.839,0,0,0-2.847,1.853l-.124.172-.2-.067a7.967,7.967,0,0,1-2.36-1.261,8.527,8.527,0,0,1-1.1-.993l-.163-.163.134-.191a4.779,4.779,0,0,0,1.022-3.983,1.787,1.787,0,0,0-3.372,0,4.783,4.783,0,0,0,1.023,3.983l.133.191-.162.163a8.472,8.472,0,0,1-1.1.993,8.074,8.074,0,0,1-2.359,1.261l-.2.067-.125-.172a3.835,3.835,0,0,0-2.846-1.853,1.552,1.552,0,0,0-1.547,1.1,1.255,1.255,0,0,0,.563,1.471,3.739,3.739,0,0,0,2.13.544,7.11,7.11,0,0,0,1.242-.114l.2-.038.1.181a11.771,11.771,0,0,1,.888,2.083,28.134,28.134,0,0,1,.908,9.16c-.01.525-.019,1.041-.019,1.547h.821c0-.516,0-1.032.01-1.566A28.654,28.654,0,0,0,311,92.7a12.716,12.716,0,0,0-.793-1.948l-.143-.287.306-.115a8.968,8.968,0,0,0,2.311-1.28,9.635,9.635,0,0,0,1.089-.955l.2-.21.21.21a9.443,9.443,0,0,0,1.089.955,8.806,8.806,0,0,0,2.311,1.28l.306.115-.144.287a12.72,12.72,0,0,0-.792,1.948,28.416,28.416,0,0,0-.946,9.4c0,.525.01,1.041.01,1.557h.821c0-.506-.009-1.022-.019-1.6a27.95,27.95,0,0,1,.907-9.112,11.77,11.77,0,0,1,.889-2.083l.1-.181.2.038a7.016,7.016,0,0,0,1.242.114,3.762,3.762,0,0,0,2.13-.544A1.266,1.266,0,0,0,322.847,88.822ZM308.2,90.007c-.124.009-.248.009-.363.009a3.141,3.141,0,0,1-1.7-.392.513.513,0,0,1-.258-.544.752.752,0,0,1,.774-.535,2.648,2.648,0,0,1,1.738.984l.411.439Zm5.77-3.4-.239-.4a3.778,3.778,0,0,1-.669-2.856.969.969,0,0,1,1.815,0,3.726,3.726,0,0,1-.659,2.856Zm7.842,3.018a3.179,3.179,0,0,1-1.71.392c-.115,0-.229,0-.354-.009l-.6-.039.41-.439a2.652,2.652,0,0,1,1.739-.984.764.764,0,0,1,.774.525A.509.509,0,0,1,321.816,89.624Z" fill="#fafafa"/>
          </g>
        </g>
      </g>
    </g>
  </g>
</svg>
