<svg id="Layer_1-2" xmlns="http://www.w3.org/2000/svg" width="220.542" height="123.656" viewBox="0 0 220.542 123.656">
  <g id="Group_13" data-name="Group 13" transform="translate(152.464 0)">
    <g id="Group_10" data-name="Group 10" transform="translate(0 10.537)">
      <circle id="Ellipse_1" data-name="Ellipse 1" cx="5.371" cy="5.371" r="5.371" transform="translate(16.243 16.116)" fill="#fff"/>
      <circle id="Ellipse_2" data-name="Ellipse 2" cx="4.067" cy="4.067" r="4.067" transform="translate(9.552 9.555)" fill="#fff"/>
      <circle id="Ellipse_3" data-name="Ellipse 3" cx="2.877" cy="2.877" r="2.877" transform="translate(4.218 4.221)" fill="#fff"/>
      <circle id="Ellipse_4" data-name="Ellipse 4" cx="2.11" cy="2.11" r="2.11" fill="#fff"/>
    </g>
    <g id="Group_11" data-name="Group 11" transform="translate(29.993 10.666)">
      <circle id="Ellipse_5" data-name="Ellipse 5" cx="5.371" cy="5.371" r="5.371" transform="translate(0 16.243)" fill="#fff"/>
      <circle id="Ellipse_6" data-name="Ellipse 6" cx="4.067" cy="4.067" r="4.067" transform="translate(9.17 9.552)" fill="#fff"/>
      <circle id="Ellipse_7" data-name="Ellipse 7" cx="2.877" cy="2.877" r="2.877" transform="translate(16.885 4.218)" fill="#fff"/>
      <circle id="Ellipse_8" data-name="Ellipse 8" cx="2.11" cy="2.11" r="2.11" transform="translate(22.638)" fill="#fff"/>
    </g>
    <g id="Group_12" data-name="Group 12" transform="translate(29.738 40.595)">
      <circle id="Ellipse_9" data-name="Ellipse 9" cx="5.371" cy="5.371" r="5.371" fill="#fff"/>
      <circle id="Ellipse_10" data-name="Ellipse 10" cx="4.067" cy="4.067" r="4.067" transform="translate(9.299 9.17)" fill="#fff"/>
      <circle id="Ellipse_11" data-name="Ellipse 11" cx="2.877" cy="2.877" r="2.877" transform="translate(17.014 16.883)" fill="#fff"/>
      <circle id="Ellipse_12" data-name="Ellipse 12" cx="2.11" cy="2.11" r="2.11" transform="translate(22.767 22.636)" fill="#fff"/>
    </g>
    <circle id="Ellipse_13" data-name="Ellipse 13" cx="4.067" cy="4.067" r="4.067" transform="translate(45.624 35.067)" fill="#fff"/>
    <circle id="Ellipse_14" data-name="Ellipse 14" cx="2.877" cy="2.877" r="2.877" transform="translate(56.041 36.257)" fill="#fff"/>
    <circle id="Ellipse_15" data-name="Ellipse 15" cx="2.11" cy="2.11" r="2.11" transform="translate(63.858 37.024)" fill="#fff"/>
    <circle id="Ellipse_16" data-name="Ellipse 16" cx="4.067" cy="4.067" r="4.067" transform="translate(24.416 14.304)" fill="#fff"/>
    <circle id="Ellipse_17" data-name="Ellipse 17" cx="2.877" cy="2.877" r="2.877" transform="translate(25.185 6.279)" fill="#fff"/>
    <circle id="Ellipse_18" data-name="Ellipse 18" cx="2.11" cy="2.11" r="2.11" transform="translate(25.631)" fill="#fff"/>
  </g>
  <path id="Path_13" data-name="Path 13" d="M623.26,205.852l-11.581-.818-13.473-13.475v14.128H590.16V150.8h8.047v28.086l12.721-12.719,11.578-.821-19.873,19.876Z" transform="translate(-443.811 -113.404)" fill="#fff"/>
  <path id="Path_14" data-name="Path 14" d="M509.676,217.708s-15.429-2.294-18.956,13.8v25.128h7.273V231.944c.151-.583.58-9.014,11.682-6.834v-7.4" transform="translate(-369.031 -163.635)" fill="#fff"/>
  <path id="Path_15" data-name="Path 15" d="M341.592,207.012l-1.542,6.943c27.114,1.1,24.138,12.012,24.138,12.012s-12.235.221-17.416,0c-4.479-.191-6.237,4.315-6.633,5.54a1.883,1.883,0,0,0-.089.575v9.27a5.526,5.526,0,0,0,1.121,3.373,12.44,12.44,0,0,0,3.219,2.787,7.626,7.626,0,0,0,4.067,1.161h14.829a4.549,4.549,0,0,0,2.371-.645,12.4,12.4,0,0,0,4.456-5.632,8.411,8.411,0,0,0,.689-3.36V222.219c-1.1-13.887-29.207-15.209-29.207-15.209Zm22.6,31.742c.069,3.043-1.356,4.25-3.638,4.407H350.6a3.647,3.647,0,0,1-.593-.042,5.527,5.527,0,0,1-3.95-2.889,4.425,4.425,0,0,1-.546-2.222,6.045,6.045,0,0,1,1.483-4.037,4.525,4.525,0,0,1,3.39-1.5h13.805Z" transform="translate(-255.724 -155.675)" fill="#fff"/>
  <path id="Path_16" data-name="Path 16" d="M173.749,210.56a19.729,19.729,0,0,0-19.729,19.729,19.259,19.259,0,0,0,.136,2.314h-.136v30.378l6.725.925v-18.78a19.729,19.729,0,1,0,13-34.566Zm0,32.734a13,13,0,1,1,13-13A13,13,0,0,1,173.749,243.294Z" transform="translate(-115.826 -158.345)" fill="#fff"/>
  <path id="Path_17" data-name="Path 17" d="M31.975,204.034,31.7,197.47c-1.044.662-29.544.627-31.7,18.576v7.164H20.7a4.014,4.014,0,0,1,3.343,1.763,5.8,5.8,0,0,1,1.076,4.642,4.959,4.959,0,0,1-4.86,3.735H1.225v6.061H22.413a6.028,6.028,0,0,0,3.988-1.493c9.842-8.659,6.658-15.963.737-20.88a8.118,8.118,0,0,0-5.19-1.875H7.618c2.031-7.484,10.361-11.682,24.357-11.132Z" transform="translate(0 -148.501)" fill="#fff"/>
  <g id="Group_14" data-name="Group 14" transform="translate(83.575 114.379)">
    <path id="Path_18" data-name="Path 18" d="M339.207,476.548a2.975,2.975,0,0,1-1.161-.208,1.645,1.645,0,0,1-.759-.613,1.88,1.88,0,0,1,0-1.934,1.682,1.682,0,0,1,.759-.61,3,3,0,0,1,1.168-.208h1.778v.737h-1.778a1.635,1.635,0,0,0-1.039.268.963.963,0,0,0-.33.791.92.92,0,0,0,.33.774,1.621,1.621,0,0,0,1.032.268c.149,0,.327-.01.538-.027s.469-.047.779-.089l.124.674c-.278.052-.536.1-.769.129A4.931,4.931,0,0,1,339.207,476.548Zm-.853-2.9a2.86,2.86,0,0,1-.719-.925,2.47,2.47,0,0,1-.248-1.094,2.436,2.436,0,0,1,.181-.95,2.329,2.329,0,0,1,.5-.756,2.237,2.237,0,0,1,.751-.493,2.452,2.452,0,0,1,.93-.174,3.243,3.243,0,0,1,.555.052,3.377,3.377,0,0,1,.565.151l-.268.7a2.492,2.492,0,0,0-.427-.119,2.152,2.152,0,0,0-.409-.04,1.539,1.539,0,0,0-.808.208,1.479,1.479,0,0,0-.546.573,1.728,1.728,0,0,0-.2.836,1.886,1.886,0,0,0,.181.813,2.151,2.151,0,0,0,.511.672Z" transform="translate(-337.02 -467.271)" fill="#fff"/>
    <path id="Path_19" data-name="Path 19" d="M358.93,467.976V461.63h.826v6.346Z" transform="translate(-353.497 -461.533)" fill="#fff"/>
    <path id="Path_20" data-name="Path 20" d="M367.06,473.721v-.737h3.288l-.63.56v-1.823a2.9,2.9,0,0,0-.146-1.022.93.93,0,0,0-.476-.528,2.1,2.1,0,0,0-.888-.156h-.719v-.746h.719a3.083,3.083,0,0,1,1.262.236,1.639,1.639,0,0,1,.8.774,3.2,3.2,0,0,1,.275,1.443v2h-3.484Zm3.484,0v-.737h.96v.737Zm.96,0v-.737a.136.136,0,0,1,.141.1.778.778,0,0,1,.035.268.873.873,0,0,1-.035.27A.138.138,0,0,1,371.5,473.721Z" transform="translate(-359.611 -467.279)" fill="#fff"/>
    <path id="Path_21" data-name="Path 21" d="M384.439,484.987a.137.137,0,0,1-.146-.1.98.98,0,0,1-.032-.27.876.876,0,0,1,.032-.268.136.136,0,0,1,.146-.1Zm0,0v-.737h2.222v.737Zm2.222,0v-.737a.136.136,0,0,1,.146.1.936.936,0,0,1,.032.268.882.882,0,0,1-.032.27A.135.135,0,0,1,386.66,484.987Z" transform="translate(-372.545 -478.544)" fill="#fff"/>
    <path id="Path_22" data-name="Path 22" d="M393.4,484.987a.137.137,0,0,1-.146-.1.979.979,0,0,1-.032-.27.875.875,0,0,1,.032-.268.136.136,0,0,1,.146-.1Zm0,0v-.737h2.222v.737Zm2.222,0v-.737a.136.136,0,0,1,.146.1.936.936,0,0,1,.032.268.883.883,0,0,1-.032.27A.135.135,0,0,1,395.62,484.987Z" transform="translate(-379.283 -478.544)" fill="#fff"/>
    <path id="Path_23" data-name="Path 23" d="M402.359,473.721a.137.137,0,0,1-.146-.1.98.98,0,0,1-.032-.27.876.876,0,0,1,.032-.268.136.136,0,0,1,.146-.1Zm0,0v-.737h1.379l-.427.337V469.27h.836v4.454h-1.785Zm.95,1.679v-.863h.836v.863Z" transform="translate(-386.022 -467.279)" fill="#fff"/>
    <path id="Path_24" data-name="Path 24" d="M414.322,467.976v-.737h4.389l-.436.444V461.63h.826v6.346H414.32Zm1.369-.737v-4.354h.826v4.354Z" transform="translate(-395.151 -461.533)" fill="#fff"/>
    <path id="Path_25" data-name="Path 25" d="M439.82,467.976V461.63h.826v6.346Z" transform="translate(-414.328 -461.533)" fill="#fff"/>
    <path id="Path_26" data-name="Path 26" d="M457.533,475.75a4.966,4.966,0,0,1-.672-.05c-.233-.032-.491-.079-.769-.139l.124-.667c.315.035.575.062.781.079s.384.027.533.027a1.628,1.628,0,0,0,1.037-.268.948.948,0,0,0,.325-.774v-4.176l.337.223h-1.4a1.947,1.947,0,0,0-.737.112.669.669,0,0,0-.374.436,3.18,3.18,0,0,0-.107.947,3.031,3.031,0,0,0,.107.93.677.677,0,0,0,.369.431,1.889,1.889,0,0,0,.741.117h1.056v.737h-1.056a2.629,2.629,0,0,1-1.218-.236,1.336,1.336,0,0,1-.635-.729,3.512,3.512,0,0,1-.191-1.25,3.6,3.6,0,0,1,.191-1.262,1.366,1.366,0,0,1,.635-.739,2.592,2.592,0,0,1,1.218-.241h1.885v4.692a1.714,1.714,0,0,1-.268.972,1.664,1.664,0,0,1-.756.613,2.953,2.953,0,0,1-1.163.208Z" transform="translate(-426.337 -467.271)" fill="#fff"/>
    <path id="Path_27" data-name="Path 27" d="M481.208,475.757c-.077,0-.159,0-.246-.012s-.174-.017-.263-.022l.072-.737c.089,0,.171.012.245.017s.134.01.181.01a.79.79,0,0,0,.645-.3,1.306,1.306,0,0,0,.245-.846v-4.6h.836v4.6a2.1,2.1,0,0,1-.223.987,1.7,1.7,0,0,1-.605.667,1.625,1.625,0,0,1-.888.241Z" transform="translate(-445.07 -467.279)" fill="#fff"/>
    <path id="Path_28" data-name="Path 28" d="M495.51,467.976V461.63h.826v6.346Zm.826,0v-.737H497.4v.737Zm1.066,0v-.737a.135.135,0,0,1,.141.1.777.777,0,0,1,.035.268.871.871,0,0,1-.035.27A.138.138,0,0,1,497.4,467.976Z" transform="translate(-456.207 -461.533)" fill="#fff"/>
    <path id="Path_29" data-name="Path 29" d="M502.6,484.987a.137.137,0,0,1-.146-.1.98.98,0,0,1-.032-.27.875.875,0,0,1,.032-.268.136.136,0,0,1,.146-.1Zm0,0v-.737h2.222v.737Zm2.222,0v-.737a.136.136,0,0,1,.146.1.934.934,0,0,1,.032.268.882.882,0,0,1-.032.27A.135.135,0,0,1,504.82,484.987Z" transform="translate(-461.404 -478.544)" fill="#fff"/>
    <path id="Path_30" data-name="Path 30" d="M511.559,467.683a.137.137,0,0,1-.146-.1.981.981,0,0,1-.032-.27.875.875,0,0,1,.032-.268.136.136,0,0,1,.146-.1Zm0,0v-.736H516l-.285.248v-1.485a2.179,2.179,0,0,0-.119-.779.893.893,0,0,0-.36-.454,1.109,1.109,0,0,0-.6-.146H512.7l-.568-.843.409-.774c.064-.119.134-.246.208-.377s.166-.288.275-.461.25-.387.422-.635l.694.4c-.166.255-.3.466-.4.63s-.191.31-.263.431-.139.241-.2.36l-.417.8-.179-.268h1.974a2.039,2.039,0,0,1,.932.191,1.506,1.506,0,0,1,.583.5,2.155,2.155,0,0,1,.3.689,3.075,3.075,0,0,1,.094.734v1.974h-4.994Zm4.994,0v-.736h.95v.736Zm.95,0v-.736a.136.136,0,0,1,.146.1.936.936,0,0,1,.032.268.884.884,0,0,1-.032.27A.135.135,0,0,1,517.5,467.683Z" transform="translate(-468.142 -461.24)" fill="#fff"/>
    <path id="Path_31" data-name="Path 31" d="M535.539,468.916a.137.137,0,0,1-.146-.1.978.978,0,0,1-.032-.27.875.875,0,0,1,.032-.268.136.136,0,0,1,.146-.1Zm0,0v-.737h1.51l-.427.337v-4.052h.826v4.454h-1.912Zm.355-5.173v-.863h.836v.863Zm1.218,0v-.863h.836v.863Zm.337,5.173v-.737h1v.737Zm1,0v-.737a.136.136,0,0,1,.146.1.935.935,0,0,1,.032.268.882.882,0,0,1-.032.27A.135.135,0,0,1,538.452,468.916Z" transform="translate(-486.175 -462.473)" fill="#fff"/>
    <path id="Path_32" data-name="Path 32" d="M547.289,473.721a.137.137,0,0,1-.146-.1.98.98,0,0,1-.032-.27.877.877,0,0,1,.032-.268.136.136,0,0,1,.146-.1Zm0,0v-.737h1.379l-.427.337V469.27h.836v4.454h-1.785Zm.95,1.679v-.863h.836v.863Z" transform="translate(-495.012 -467.279)" fill="#fff"/>
    <path id="Path_33" data-name="Path 33" d="M559.263,467.976v-.737h4.389l-.436.444V461.63h.826v6.346H559.26Zm.853,2.48v-.516h1.857v.516Zm.489-.017a1.673,1.673,0,0,1-.231-.36.9.9,0,0,1,.06-.848,1.015,1.015,0,0,1,.848-.461,1.065,1.065,0,0,1,.3.045,1.055,1.055,0,0,1,.268.117l-.248.436a.378.378,0,0,0-.141-.057.679.679,0,0,0-.141-.012.439.439,0,0,0-.33.117.411.411,0,0,0-.117.3.547.547,0,0,0,.045.218,1.1,1.1,0,0,0,.141.226l-.454.285Zm.027-3.2v-4.354h.826v4.354Zm3.412.737v-.737h.95v.737Zm.95,0v-.737a.136.136,0,0,1,.146.1.936.936,0,0,1,.032.268.881.881,0,0,1-.032.27A.135.135,0,0,1,564.993,467.976Z" transform="translate(-504.149 -461.533)" fill="#fff"/>
    <path id="Path_34" data-name="Path 34" d="M581.839,467.976a.137.137,0,0,1-.146-.1.977.977,0,0,1-.032-.27.875.875,0,0,1,.032-.268.136.136,0,0,1,.146-.1Zm0,0v-.737h1.056v.737Zm1.056,0V461.63h.826v6.346Z" transform="translate(-520.994 -461.533)" fill="#fff"/>
    <path id="Path_35" data-name="Path 35" d="M604.67,467.961a3.508,3.508,0,0,1-2.036-.488,1.71,1.71,0,0,1-.684-1.493,3.4,3.4,0,0,1,.032-.459c.02-.164.045-.322.072-.476s.052-.288.074-.4.042-.193.052-.241l.808.151c-.017.094-.042.223-.074.382s-.064.332-.094.516a3.292,3.292,0,0,0-.045.523,1.239,1.239,0,0,0,.191.719,1.073,1.073,0,0,0,.61.4,4.06,4.06,0,0,0,1.111.124h2.968l-.427.337V461.61h.836v6.346H604.67Zm-.6-3.137v-.516h1.857v.516Zm.488-.017a1.675,1.675,0,0,1-.231-.36.9.9,0,0,1,.06-.848,1.015,1.015,0,0,1,.848-.461,1.066,1.066,0,0,1,.3.045,1.054,1.054,0,0,1,.268.117l-.248.436a.378.378,0,0,0-.141-.057.681.681,0,0,0-.141-.012.449.449,0,0,0-.33.117.411.411,0,0,0-.117.3.546.546,0,0,0,.045.218,1.034,1.034,0,0,0,.141.226l-.454.285Z" transform="translate(-536.252 -461.518)" fill="#fff"/>
    <path id="Path_36" data-name="Path 36" d="M628.3,475.757c-.077,0-.159,0-.245-.012s-.174-.017-.263-.022l.072-.737c.089,0,.171.012.246.017s.134.01.181.01a.79.79,0,0,0,.645-.3,1.306,1.306,0,0,0,.246-.846v-4.6h.836v4.6a2.1,2.1,0,0,1-.223.987,1.7,1.7,0,0,1-.6.667,1.625,1.625,0,0,1-.888.241Z" transform="translate(-555.684 -467.279)" fill="#fff"/>
    <path id="Path_37" data-name="Path 37" d="M642.59,467.976V461.63h.826v6.346Zm.826,0v-.737h1.066v.737Zm1.066,0v-.737a.136.136,0,0,1,.141.1.779.779,0,0,1,.035.268.873.873,0,0,1-.035.27A.138.138,0,0,1,644.482,467.976Z" transform="translate(-566.814 -461.533)" fill="#fff"/>
    <path id="Path_38" data-name="Path 38" d="M649.688,473.721a.137.137,0,0,1-.146-.1.98.98,0,0,1-.032-.27.875.875,0,0,1,.032-.268.136.136,0,0,1,.146-.1Zm0,0v-.737h1.379l-.427.337V469.27h.836v4.454h-1.785Zm.95,1.679v-.863h.836v.863Zm.836-1.679v-.737h.95v.737Zm.95,0v-.737a.136.136,0,0,1,.146.1.938.938,0,0,1,.032.268.884.884,0,0,1-.032.27A.135.135,0,0,1,652.424,473.721Z" transform="translate(-572.018 -467.279)" fill="#fff"/>
    <path id="Path_39" data-name="Path 39" d="M660.729,484.987a.137.137,0,0,1-.146-.1.983.983,0,0,1-.032-.27.875.875,0,0,1,.032-.268.136.136,0,0,1,.146-.1Zm0,0v-.737h2.222v.737Zm2.222,0v-.737a.136.136,0,0,1,.146.1.936.936,0,0,1,.032.268.882.882,0,0,1-.032.27A.135.135,0,0,1,662.95,484.987Z" transform="translate(-580.321 -478.544)" fill="#fff"/>
    <path id="Path_40" data-name="Path 40" d="M669.688,484.987a.137.137,0,0,1-.146-.1.983.983,0,0,1-.032-.27.875.875,0,0,1,.032-.268.136.136,0,0,1,.146-.1Zm0,0v-.737h2.222v.737Zm2.222,0v-.737a.136.136,0,0,1,.146.1.933.933,0,0,1,.032.268.882.882,0,0,1-.032.27A.135.135,0,0,1,671.91,484.987Z" transform="translate(-587.059 -478.544)" fill="#fff"/>
    <path id="Path_41" data-name="Path 41" d="M678.648,484.987a.137.137,0,0,1-.146-.1.98.98,0,0,1-.032-.27.877.877,0,0,1,.032-.268.136.136,0,0,1,.146-.1Zm0,0v-.737h2.222v.737Zm2.222,0v-.737a.136.136,0,0,1,.146.1.938.938,0,0,1,.032.268.882.882,0,0,1-.032.27A.135.135,0,0,1,680.87,484.987Z" transform="translate(-593.797 -478.544)" fill="#fff"/>
    <path id="Path_42" data-name="Path 42" d="M687.608,473.714a.137.137,0,0,1-.146-.1.98.98,0,0,1-.032-.27.873.873,0,0,1,.032-.268.136.136,0,0,1,.146-.1Zm0,0v-.737h1.3l-.2.2v-3.023h.826v3.556Zm1.919,0v-.737h.925a.917.917,0,0,0,.454-.089.527.527,0,0,0,.213-.355,3.641,3.641,0,0,0,.062-.781v-2.036h.836v2.036a3.352,3.352,0,0,1-.164,1.156,1.136,1.136,0,0,1-.5.622,1.859,1.859,0,0,1-.9.186h-.925Zm2.906,0a1.728,1.728,0,0,1-.627-.119,1.843,1.843,0,0,1-.583-.377l.523-.551a1.779,1.779,0,0,0,.355.236.771.771,0,0,0,.33.074h1.609l-.365.355v-2.081c0-.107-.01-.255-.03-.449s-.05-.412-.089-.657-.084-.5-.139-.751l.808-.134c.042.213.082.446.124.7s.077.5.107.729a4.562,4.562,0,0,1,.045.56v2.462h-2.071Z" transform="translate(-600.535 -467.271)" fill="#fff"/>
  </g>
  <g id="Group_15" data-name="Group 15" transform="translate(84.19 103.44)">
    <path id="Path_43" data-name="Path 43" d="M339.5,417.572a.072.072,0,0,1,.082-.082h3.492a.072.072,0,0,1,.082.082v.712a.072.072,0,0,1-.082.082h-2.559a.045.045,0,0,0-.05.05v1.411a.045.045,0,0,0,.05.05h2.157a.072.072,0,0,1,.082.082v.712a.072.072,0,0,1-.082.082h-2.157a.045.045,0,0,0-.05.05v2.19a.072.072,0,0,1-.082.082h-.8a.072.072,0,0,1-.082-.082v-5.418Z" transform="translate(-339.5 -417.401)" fill="#fff"/>
    <path id="Path_44" data-name="Path 44" d="M357.7,427.816a1.805,1.805,0,0,1-1.037-.288,1.462,1.462,0,0,1-.6-.8,2.869,2.869,0,0,1-.1-.431,4.634,4.634,0,0,1,0-1.091,3.013,3.013,0,0,1,.1-.431,1.462,1.462,0,0,1,.6-.8,1.83,1.83,0,0,1,1.037-.288,1.805,1.805,0,0,1,1.029.288,1.462,1.462,0,0,1,.6.8,2.86,2.86,0,0,1,.1.431,4.634,4.634,0,0,1,0,1.091,3.005,3.005,0,0,1-.1.431,1.462,1.462,0,0,1-.6.8A1.816,1.816,0,0,1,357.7,427.816Zm0-.821a.756.756,0,0,0,.464-.136.8.8,0,0,0,.275-.382,1.545,1.545,0,0,0,.064-.315c.01-.107.017-.246.017-.414a3.651,3.651,0,0,0-.017-.409,1.7,1.7,0,0,0-.064-.32.8.8,0,0,0-.275-.382.773.773,0,0,0-.464-.136.763.763,0,0,0-.466.136.777.777,0,0,0-.278.382,1.7,1.7,0,0,0-.064.32c-.01.1-.017.241-.017.409a3.782,3.782,0,0,0,.017.414,1.545,1.545,0,0,0,.064.315.8.8,0,0,0,.278.382A.791.791,0,0,0,357.7,427Z" transform="translate(-351.863 -422.056)" fill="#fff"/>
    <path id="Path_45" data-name="Path 45" d="M374.172,427.75a.072.072,0,0,1-.082-.082v-3.787a.072.072,0,0,1,.082-.082h.754a.072.072,0,0,1,.082.082v.337h.007a1.014,1.014,0,0,1,.394-.37,1.311,1.311,0,0,1,.632-.139,1.221,1.221,0,0,1,.454.087,1.064,1.064,0,0,1,.372.243.081.081,0,0,1,.017.114l-.434.548a.072.072,0,0,1-.114.017,1.382,1.382,0,0,0-.278-.139.921.921,0,0,0-.3-.05.636.636,0,0,0-.57.263,1.329,1.329,0,0,0-.176.739v2.14a.072.072,0,0,1-.082.082h-.754Z" transform="translate(-365.512 -422.078)" fill="#fff"/>
    <path id="Path_46" data-name="Path 46" d="M395.95,417.6a.072.072,0,0,1,.082-.082h.8a.072.072,0,0,1,.082.082v5.411a.072.072,0,0,1-.082.082h-.8a.072.072,0,0,1-.082-.082Z" transform="translate(-381.951 -417.423)" fill="#fff"/>
    <path id="Path_47" data-name="Path 47" d="M407.25,427.75a.072.072,0,0,1-.082-.082v-2.279a.965.965,0,0,0-.188-.622.773.773,0,0,0-1.116,0,.945.945,0,0,0-.2.622v2.279a.072.072,0,0,1-.082.082h-.754a.072.072,0,0,1-.082-.082v-3.787a.072.072,0,0,1,.082-.082h.754a.072.072,0,0,1,.082.082v.288h.007a1.074,1.074,0,0,1,.389-.325,1.406,1.406,0,0,1,.652-.134,1.385,1.385,0,0,1,.57.112,1.307,1.307,0,0,1,.432.308,1.379,1.379,0,0,1,.275.464,1.766,1.766,0,0,1,.094.585v2.492a.072.072,0,0,1-.082.082h-.754Z" transform="translate(-388.569 -422.078)" fill="#fff"/>
    <path id="Path_48" data-name="Path 48" d="M425.37,427.75a.072.072,0,0,1-.082-.082v-2.279a.965.965,0,0,0-.188-.622.773.773,0,0,0-1.116,0,.945.945,0,0,0-.2.622v2.279a.072.072,0,0,1-.082.082h-.754a.072.072,0,0,1-.082-.082v-3.787a.072.072,0,0,1,.082-.082h.754a.072.072,0,0,1,.082.082v.288h.007a1.073,1.073,0,0,1,.389-.325,1.406,1.406,0,0,1,.652-.134,1.386,1.386,0,0,1,.57.112,1.307,1.307,0,0,1,.431.308,1.379,1.379,0,0,1,.275.464,1.766,1.766,0,0,1,.094.585v2.492a.072.072,0,0,1-.082.082h-.754Z" transform="translate(-402.196 -422.078)" fill="#fff"/>
    <path id="Path_49" data-name="Path 49" d="M441.883,427.816a1.805,1.805,0,0,1-1.037-.288,1.462,1.462,0,0,1-.6-.8,2.861,2.861,0,0,1-.1-.431,4.638,4.638,0,0,1,0-1.091,3.005,3.005,0,0,1,.1-.431,1.462,1.462,0,0,1,.6-.8,1.83,1.83,0,0,1,1.037-.288,1.805,1.805,0,0,1,1.029.288,1.462,1.462,0,0,1,.6.8,2.864,2.864,0,0,1,.1.431,4.634,4.634,0,0,1,0,1.091,3.009,3.009,0,0,1-.1.431,1.462,1.462,0,0,1-.6.8A1.816,1.816,0,0,1,441.883,427.816Zm0-.821a.756.756,0,0,0,.464-.136.8.8,0,0,0,.275-.382,1.545,1.545,0,0,0,.064-.315c.01-.107.017-.246.017-.414a3.651,3.651,0,0,0-.017-.409,1.7,1.7,0,0,0-.064-.32.8.8,0,0,0-.275-.382.772.772,0,0,0-.464-.136.763.763,0,0,0-.466.136.777.777,0,0,0-.278.382,1.7,1.7,0,0,0-.065.32c-.01.1-.017.241-.017.409a3.782,3.782,0,0,0,.017.414,1.547,1.547,0,0,0,.065.315.8.8,0,0,0,.278.382A.791.791,0,0,0,441.883,427Z" transform="translate(-415.168 -422.056)" fill="#fff"/>
    <path id="Path_50" data-name="Path 50" d="M458,428.02a.1.1,0,0,1-.107-.082l-1.394-3.787c-.017-.055,0-.082.064-.082h.8a.1.1,0,0,1,.1.082l.868,2.567h.017l.853-2.567a.1.1,0,0,1,.1-.082h.786c.06,0,.082.027.064.082l-1.394,3.787a.1.1,0,0,1-.107.082H458Z" transform="translate(-427.484 -422.349)" fill="#fff"/>
    <path id="Path_51" data-name="Path 51" d="M476.114,427.735a.072.072,0,0,1-.082-.082v-.288h-.007a.991.991,0,0,1-.419.332,1.691,1.691,0,0,1-.7.126,1.735,1.735,0,0,1-.513-.074,1.2,1.2,0,0,1-.422-.221,1.05,1.05,0,0,1-.288-.372,1.222,1.222,0,0,1-.107-.536,1.086,1.086,0,0,1,.422-.947,1.961,1.961,0,0,1,1.161-.3h.8a.045.045,0,0,0,.05-.05v-.191a.625.625,0,0,0-.188-.506,1.117,1.117,0,0,0-.689-.156,1.642,1.642,0,0,0-.55.077,1.184,1.184,0,0,0-.352.193c-.05.04-.087.032-.114-.017l-.3-.541a.069.069,0,0,1,.017-.107,1.987,1.987,0,0,1,.573-.278,2.825,2.825,0,0,1,.828-.107,1.939,1.939,0,0,1,1.275.327,1.33,1.33,0,0,1,.372,1.049v2.581a.072.072,0,0,1-.082.082h-.689Zm-.975-.657a1.1,1.1,0,0,0,.652-.164.583.583,0,0,0,.226-.508v-.3a.045.045,0,0,0-.05-.05h-.657a1.271,1.271,0,0,0-.647.126.444.444,0,0,0-.206.407c0,.327.226.491.679.491Z" transform="translate(-440.331 -422.063)" fill="#fff"/>
    <path id="Path_52" data-name="Path 52" d="M491.733,424.393a1.077,1.077,0,0,1-.848-.288,1.3,1.3,0,0,1-.25-.868v-2.083a.044.044,0,0,0-.05-.05h-.263a.072.072,0,0,1-.082-.082v-.548a.072.072,0,0,1,.082-.082h.263a.045.045,0,0,0,.05-.05v-1.081a.072.072,0,0,1,.082-.082h.754a.072.072,0,0,1,.082.082v1.081a.045.045,0,0,0,.05.05h.526a.072.072,0,0,1,.082.082v.548a.072.072,0,0,1-.082.082H491.6a.044.044,0,0,0-.05.05V423.2a.376.376,0,0,0,.089.29.417.417,0,0,0,.278.077h.206a.072.072,0,0,1,.082.082v.657a.072.072,0,0,1-.082.082h-.394Z" transform="translate(-452.859 -418.672)" fill="#fff"/>
    <path id="Path_53" data-name="Path 53" d="M502.292,418.4a.072.072,0,0,1-.082-.082V417.6a.072.072,0,0,1,.082-.082h.754a.072.072,0,0,1,.082.082v.714a.072.072,0,0,1-.082.082Zm0,4.7a.072.072,0,0,1-.082-.082v-3.787a.072.072,0,0,1,.082-.082h.754a.072.072,0,0,1,.082.082v3.787a.072.072,0,0,1-.082.082Z" transform="translate(-461.861 -417.423)" fill="#fff"/>
    <path id="Path_54" data-name="Path 54" d="M511.643,427.816a1.805,1.805,0,0,1-1.037-.288,1.462,1.462,0,0,1-.6-.8,2.865,2.865,0,0,1-.1-.431,4.63,4.63,0,0,1,0-1.091,3.009,3.009,0,0,1,.1-.431,1.462,1.462,0,0,1,.6-.8,1.83,1.83,0,0,1,1.037-.288,1.805,1.805,0,0,1,1.029.288,1.462,1.462,0,0,1,.6.8,2.875,2.875,0,0,1,.1.431,4.634,4.634,0,0,1,0,1.091,3.013,3.013,0,0,1-.1.431,1.462,1.462,0,0,1-.6.8A1.816,1.816,0,0,1,511.643,427.816Zm0-.821a.756.756,0,0,0,.464-.136.8.8,0,0,0,.275-.382,1.543,1.543,0,0,0,.065-.315c.01-.107.017-.246.017-.414a3.65,3.65,0,0,0-.017-.409,1.7,1.7,0,0,0-.065-.32.8.8,0,0,0-.275-.382.773.773,0,0,0-.464-.136.763.763,0,0,0-.466.136.777.777,0,0,0-.278.382,1.7,1.7,0,0,0-.064.32c-.01.1-.017.241-.017.409a3.781,3.781,0,0,0,.017.414,1.541,1.541,0,0,0,.064.315.8.8,0,0,0,.278.382A.791.791,0,0,0,511.643,427Z" transform="translate(-467.629 -422.056)" fill="#fff"/>
    <path id="Path_55" data-name="Path 55" d="M530.54,427.75a.072.072,0,0,1-.082-.082v-2.279a.965.965,0,0,0-.188-.622.773.773,0,0,0-1.116,0,.945.945,0,0,0-.2.622v2.279a.072.072,0,0,1-.082.082h-.754a.072.072,0,0,1-.082-.082v-3.787a.072.072,0,0,1,.082-.082h.754a.072.072,0,0,1,.082.082v.288h.007a1.073,1.073,0,0,1,.389-.325,1.407,1.407,0,0,1,.652-.134,1.386,1.386,0,0,1,.57.112,1.307,1.307,0,0,1,.431.308,1.38,1.38,0,0,1,.275.464,1.766,1.766,0,0,1,.094.585v2.492a.072.072,0,0,1-.082.082h-.754Z" transform="translate(-481.286 -422.078)" fill="#fff"/>
    <path id="Path_56" data-name="Path 56" d="M553.62,421.415a1.654,1.654,0,0,1,.233-.846,3.254,3.254,0,0,1,.823-.861c-.114-.146-.211-.278-.29-.389a2.587,2.587,0,0,1-.193-.315,1.386,1.386,0,0,1-.107-.283,1.2,1.2,0,0,1-.032-.29,1.212,1.212,0,0,1,.107-.513,1.26,1.26,0,0,1,.3-.407,1.378,1.378,0,0,1,.444-.268,1.558,1.558,0,0,1,.541-.094,1.508,1.508,0,0,1,.558.1,1.369,1.369,0,0,1,.432.275,1.261,1.261,0,0,1,.275.4,1.223,1.223,0,0,1,.1.476,1.284,1.284,0,0,1-.05.357,1.209,1.209,0,0,1-.164.337,2.412,2.412,0,0,1-.3.35,4.661,4.661,0,0,1-.456.384l.868,1.116.558-.665a.074.074,0,0,1,.114-.007l.451.384a.072.072,0,0,1,.017.114l-.657.8.2.246a.472.472,0,0,0,.156.139.4.4,0,0,0,.181.042h.124a.072.072,0,0,1,.082.082v.655a.072.072,0,0,1-.082.082h-.27a1.4,1.4,0,0,1-.246-.02.634.634,0,0,1-.2-.069,1,1,0,0,1-.181-.131,1.534,1.534,0,0,1-.188-.213l-.139-.171a2.489,2.489,0,0,1-.689.533,1.716,1.716,0,0,1-.761.164,1.879,1.879,0,0,1-.677-.112,1.315,1.315,0,0,1-.484-.312,1.3,1.3,0,0,1-.29-.476,1.784,1.784,0,0,1-.1-.6Zm.853-.05a.74.74,0,0,0,.2.541.749.749,0,0,0,.56.206.874.874,0,0,0,.431-.112,2.13,2.13,0,0,0,.479-.407l-.984-1.262a2.2,2.2,0,0,0-.546.558.933.933,0,0,0-.144.476Zm.878-2.157a3.416,3.416,0,0,0,.315-.263,1.411,1.411,0,0,0,.184-.206.517.517,0,0,0,.089-.171.559.559,0,0,0,.025-.171.471.471,0,0,0-.149-.35.566.566,0,0,0-.754,0,.477.477,0,0,0-.146.357.5.5,0,0,0,.017.139.651.651,0,0,0,.062.151,2.019,2.019,0,0,0,.131.208c.057.082.131.184.226.3Z" transform="translate(-500.522 -417.145)" fill="#fff"/>
    <path id="Path_57" data-name="Path 57" d="M582.676,421.522c-.027-.087-.05-.174-.069-.258a2.136,2.136,0,0,1-.045-.3c-.01-.112-.02-.243-.025-.394s-.007-.337-.007-.563,0-.4.007-.558.012-.285.025-.4a2.136,2.136,0,0,1,.045-.3c.02-.084.042-.171.069-.258a1.861,1.861,0,0,1,.717-1.032,2.117,2.117,0,0,1,1.218-.34,2.048,2.048,0,0,1,1.161.322,1.944,1.944,0,0,1,.727.883.069.069,0,0,1-.042.1l-.7.337c-.05.027-.084.012-.107-.042a1.578,1.578,0,0,0-.382-.508,1.142,1.142,0,0,0-1.3-.017,1.141,1.141,0,0,0-.357.541c-.017.06-.032.119-.045.181a1.513,1.513,0,0,0-.032.233c-.007.094-.015.211-.017.347s-.005.305-.005.508,0,.377.005.511.007.248.017.345.02.174.032.238.03.121.045.176a1.153,1.153,0,0,0,.357.541,1.142,1.142,0,0,0,1.3-.017,1.578,1.578,0,0,0,.382-.508c.022-.055.057-.069.107-.042l.7.337c.045.017.057.05.042.1a1.942,1.942,0,0,1-.727.883,2.048,2.048,0,0,1-1.161.322,2.136,2.136,0,0,1-1.218-.34,1.841,1.841,0,0,1-.717-1.032Z" transform="translate(-522.263 -417.13)" fill="#fff"/>
    <path id="Path_58" data-name="Path 58" d="M602.212,427.75a.072.072,0,0,1-.082-.082v-3.787a.072.072,0,0,1,.082-.082h.754a.072.072,0,0,1,.082.082v.337h.007a1.015,1.015,0,0,1,.394-.37,1.312,1.312,0,0,1,.632-.139,1.22,1.22,0,0,1,.454.087,1.064,1.064,0,0,1,.372.243.081.081,0,0,1,.017.114l-.434.548a.072.072,0,0,1-.114.017,1.383,1.383,0,0,0-.278-.139.921.921,0,0,0-.3-.05.636.636,0,0,0-.57.263,1.329,1.329,0,0,0-.176.739v2.14a.072.072,0,0,1-.082.082h-.754Z" transform="translate(-537.003 -422.078)" fill="#fff"/>
    <path id="Path_59" data-name="Path 59" d="M617.038,427.824a1.814,1.814,0,0,1-1.054-.29,1.478,1.478,0,0,1-.585-.808,2.683,2.683,0,0,1-.1-.422,3.492,3.492,0,0,1-.037-.546,4.009,4.009,0,0,1,.032-.55,2.408,2.408,0,0,1,.1-.427,1.466,1.466,0,0,1,.59-.8A1.787,1.787,0,0,1,617,423.69a1.823,1.823,0,0,1,1.037.29,1.507,1.507,0,0,1,.585.8c.022.072.042.141.057.213a2.488,2.488,0,0,1,.042.245c.01.094.02.2.025.315s.007.255.007.414q0,.082-.089.082h-2.435a.044.044,0,0,0-.05.05.68.68,0,0,0,.017.164.761.761,0,0,0,.042.139.843.843,0,0,0,.885.6,1.28,1.28,0,0,0,.558-.107,1.187,1.187,0,0,0,.369-.27c.045-.045.084-.05.124-.017l.484.427a.074.074,0,0,1,.007.114,1.936,1.936,0,0,1-.665.484,2.262,2.262,0,0,1-.96.188Zm.786-2.5a1.1,1.1,0,0,0-.05-.34.729.729,0,0,0-.288-.377.845.845,0,0,0-.484-.136.869.869,0,0,0-.491.136.719.719,0,0,0-.288.377,1.1,1.1,0,0,0-.05.34.045.045,0,0,0,.05.05h1.55A.045.045,0,0,0,617.824,425.322Z" transform="translate(-546.877 -422.063)" fill="#fff"/>
    <path id="Path_60" data-name="Path 60" d="M635.144,427.735a.072.072,0,0,1-.082-.082v-.288h-.007a.991.991,0,0,1-.419.332,1.691,1.691,0,0,1-.7.126,1.736,1.736,0,0,1-.513-.074,1.2,1.2,0,0,1-.422-.221,1.049,1.049,0,0,1-.288-.372,1.221,1.221,0,0,1-.107-.536,1.086,1.086,0,0,1,.422-.947,1.961,1.961,0,0,1,1.161-.3h.8a.045.045,0,0,0,.05-.05v-.191a.625.625,0,0,0-.188-.506,1.117,1.117,0,0,0-.689-.156,1.643,1.643,0,0,0-.55.077,1.185,1.185,0,0,0-.352.193c-.05.04-.087.032-.114-.017l-.3-.541a.069.069,0,0,1,.017-.107,1.988,1.988,0,0,1,.573-.278,2.824,2.824,0,0,1,.828-.107,1.939,1.939,0,0,1,1.275.327,1.33,1.33,0,0,1,.372,1.049v2.581a.072.072,0,0,1-.082.082h-.689Zm-.975-.657a1.1,1.1,0,0,0,.652-.164.583.583,0,0,0,.226-.508v-.3a.044.044,0,0,0-.05-.05h-.657a1.271,1.271,0,0,0-.647.126.444.444,0,0,0-.206.407c0,.327.226.491.679.491Z" transform="translate(-559.924 -422.063)" fill="#fff"/>
    <path id="Path_61" data-name="Path 61" d="M650.763,424.393a1.076,1.076,0,0,1-.848-.288,1.3,1.3,0,0,1-.25-.868v-2.083a.044.044,0,0,0-.05-.05h-.263a.072.072,0,0,1-.082-.082v-.548a.072.072,0,0,1,.082-.082h.263a.044.044,0,0,0,.05-.05v-1.081a.072.072,0,0,1,.082-.082h.754a.072.072,0,0,1,.082.082v1.081a.044.044,0,0,0,.05.05h.526a.072.072,0,0,1,.082.082v.548a.072.072,0,0,1-.082.082h-.526a.044.044,0,0,0-.05.05V423.2a.376.376,0,0,0,.089.29.417.417,0,0,0,.278.077h.206a.072.072,0,0,1,.082.082v.657a.072.072,0,0,1-.082.082h-.394Z" transform="translate(-572.453 -418.672)" fill="#fff"/>
    <path id="Path_62" data-name="Path 62" d="M661.332,418.4a.072.072,0,0,1-.082-.082V417.6a.072.072,0,0,1,.082-.082h.754a.072.072,0,0,1,.082.082v.714a.072.072,0,0,1-.082.082Zm0,4.7a.072.072,0,0,1-.082-.082v-3.787a.072.072,0,0,1,.082-.082h.754a.072.072,0,0,1,.082.082v3.787a.072.072,0,0,1-.082.082Z" transform="translate(-581.462 -417.423)" fill="#fff"/>
    <path id="Path_63" data-name="Path 63" d="M669.5,428.02a.1.1,0,0,1-.107-.082L668,424.152c-.017-.055,0-.082.065-.082h.8a.1.1,0,0,1,.1.082l.868,2.567h.017l.853-2.567a.1.1,0,0,1,.1-.082h.786c.06,0,.082.027.064.082l-1.394,3.787a.1.1,0,0,1-.107.082H669.5Z" transform="translate(-586.536 -422.349)" fill="#fff"/>
    <path id="Path_64" data-name="Path 64" d="M685.922,418.4a.072.072,0,0,1-.082-.082V417.6a.072.072,0,0,1,.082-.082h.754a.072.072,0,0,1,.082.082v.714a.072.072,0,0,1-.082.082Zm0,4.7a.072.072,0,0,1-.082-.082v-3.787a.072.072,0,0,1,.082-.082h.754a.072.072,0,0,1,.082.082v3.787a.072.072,0,0,1-.082.082Z" transform="translate(-599.954 -417.423)" fill="#fff"/>
    <path id="Path_65" data-name="Path 65" d="M694.513,424.393a1.077,1.077,0,0,1-.848-.288,1.3,1.3,0,0,1-.25-.868v-2.083a.045.045,0,0,0-.05-.05H693.1a.072.072,0,0,1-.082-.082v-.548a.072.072,0,0,1,.082-.082h.263a.045.045,0,0,0,.05-.05v-1.081a.072.072,0,0,1,.082-.082h.754a.072.072,0,0,1,.082.082v1.081a.045.045,0,0,0,.05.05h.526a.072.072,0,0,1,.082.082v.548a.072.072,0,0,1-.082.082h-.526a.045.045,0,0,0-.05.05V423.2a.376.376,0,0,0,.089.29.418.418,0,0,0,.278.077h.206a.072.072,0,0,1,.082.082v.657a.072.072,0,0,1-.082.082h-.394Z" transform="translate(-605.354 -418.672)" fill="#fff"/>
    <path id="Path_66" data-name="Path 66" d="M703.743,429.481a.072.072,0,0,1-.082-.082v-.657a.072.072,0,0,1,.082-.082h.149a.557.557,0,0,0,.37-.112.842.842,0,0,0,.221-.357l.114-.337-1.443-3.722c-.017-.055.005-.082.064-.082h.811a.1.1,0,0,1,.1.082l.893,2.584h.017l.853-2.584a.1.1,0,0,1,.1-.082h.779c.06,0,.082.027.064.082l-1.508,4.116a4.072,4.072,0,0,1-.263.585,1.464,1.464,0,0,1-.288.377.967.967,0,0,1-.345.206,1.368,1.368,0,0,1-.434.062h-.253Z" transform="translate(-612.969 -422.334)" fill="#fff"/>
  </g>
</svg>
