<svg xmlns="http://www.w3.org/2000/svg" width="85.771" height="82.282" viewBox="0 0 85.771 82.282">
  <g id="logoshortt" transform="translate(-1555.658 -5952.708)">
    <path id="Path_39503" data-name="Path 39503" d="M2273.1,39.409A42.886,42.886,0,1,1,2213.266,0a31.259,31.259,0,1,0,33.888,0A42.894,42.894,0,0,1,2273.1,39.409" transform="translate(-631.666 5952.707)" fill="#fff"/>
    <path id="Path_39504" data-name="Path 39504" d="M2302.413,720.717a1.928,1.928,0,0,1-.641-.192,2.7,2.7,0,0,1-.182-.913,5.176,5.176,0,0,1-.034-1.014c-.233-.057-.35-.087-.583-.149-.206-.055-.617-.137-1.233-.268a3.184,3.184,0,0,0,.015,1.059,5.571,5.571,0,0,0,.219,1.092c.463.1.885.2,1.269.311a16.7,16.7,0,0,0,.371,2.1,2.15,2.15,0,0,0,.912.2,8.632,8.632,0,0,0,.993.066c-.161-.848-.232-1.273-.355-2.119-.059-.022-.313-.08-.754-.174" transform="translate(-735.351 5290.091)" fill="#0e204d"/>
    <path id="Path_39505" data-name="Path 39505" d="M2302.309,721.816a9.36,9.36,0,0,1-.944-.067c-.876-.1-.946-.191-.98-.236a14.531,14.531,0,0,1-.381-2.086c-.347-.094-.745-.194-1.2-.293l-.055-.011-.017-.052a5.8,5.8,0,0,1-.223-1.111,3.219,3.219,0,0,1-.013-1.092l.025-.086.387.083c.461.1.766.16.938.206.233.062.35.09.583.149l.084.021-.013.086a4.825,4.825,0,0,0,.034.993,2.354,2.354,0,0,0,.167.867,3.361,3.361,0,0,0,.579.153c.6.126.725.161.768.177l.055.021.007.056c.125.854.2,1.269.356,2.116l.021.111h-.177m-1.767-.417a2.718,2.718,0,0,0,.843.158c.365.039.656.062.868.064-.143-.754-.212-1.169-.327-1.949-.1-.027-.334-.077-.687-.153-.631-.135-.669-.191-.7-.232s-.122-.177-.2-.957a6.372,6.372,0,0,1-.042-.95c-.184-.046-.3-.076-.5-.129-.168-.043-.488-.111-.929-.2l-.2-.049a3.856,3.856,0,0,0,.038.931,5.9,5.9,0,0,0,.2,1.021c.465.1.865.2,1.221.3l.062.018.008.063a20.787,20.787,0,0,0,.357,2.06" transform="translate(-734.197 5291.382)" fill="#0e204d"/>
    <path id="Path_39506" data-name="Path 39506" d="M2516.95,759.5a3.449,3.449,0,0,0,1.068,0,4.433,4.433,0,0,0,1.024-.135,15.768,15.768,0,0,0-.439-2.185,6.115,6.115,0,0,0-2.033.234c-.087.118-.086.47.025,1.056a2.155,2.155,0,0,0,.356,1.031" transform="translate(-935.381 5254.119)" fill="#0e204d"/>
    <path id="Path_39507" data-name="Path 39507" d="M2516.133,758.153c-.317,0-.36-.036-.383-.056a2.169,2.169,0,0,1-.389-1.087c-.172-.911-.048-1.076-.007-1.132l.022-.029.038-.007c1.565-.285,1.979-.327,2.112-.216l.025.022.007.032q.127.585.223,1.014c.233,1.036.26,1.171.2,1.25-.029.036-.073.09-1.092.17-.35.028-.589.038-.754.038m-.266-.21a4.172,4.172,0,0,0,1-.02,7.565,7.565,0,0,0,.944-.108c-.01-.136-.1-.558-.22-1.078l-.216-.969a11.082,11.082,0,0,0-1.887.257,2.086,2.086,0,0,0,.056.95c.14.74.271.925.317.968" transform="translate(-934.24 5255.594)" fill="#0e204d"/>
    <path id="Path_39508" data-name="Path 39508" d="M2275.5,593.384a1.141,1.141,0,0,1-.158-.643,2.028,2.028,0,0,1,.276-.615c-.189-.1-1.012.352-2.552,1.268a4.8,4.8,0,0,0,.269.794c-.258.707-.509,1.419-.76,2.116a12.61,12.61,0,0,1-.894,2.036c-.086.146-.149.213-.186.2-.479-.254-.823-.44-1.176-.642-.164-.091-.317-.179-.465-.265l-.486-.287c-1.05-.618-1.792-1.108-2.979-1.948q.348.063.683.154a7.112,7.112,0,0,1,1.944.825,12.643,12.643,0,0,0,1.788-.95c-.179-.107-.269-.161-.447-.269a9.16,9.16,0,0,1-1.751-1.3,22.917,22.917,0,0,1-1.381-1.834,9.066,9.066,0,0,0-1.4-1.7,2.111,2.111,0,0,0-2.025-.483,10.093,10.093,0,0,0-1.97.969,1.664,1.664,0,0,1,1.084.121,3.285,3.285,0,0,1,.986.572,9.8,9.8,0,0,1,.888,1.137,7.932,7.932,0,0,1,.766,1.148,2.591,2.591,0,0,1-.958-.07,2.158,2.158,0,0,1-.883-.359c-.976-.805-1.547-1.3-2.315-2.039-.108-.1-.212-.2-.308-.3s-.2-.193-.307-.3c-.507-.5-.9-.894-1.378-1.411-.111-.118-.213-.229-.314-.338s-.2-.22-.308-.341c-.467-.513-.837-.944-1.28-1.49-.188-.229-.29-.355-.464-.572l-.038-.048a1.243,1.243,0,0,1-.272-.827.7.7,0,0,1,.373-.655,12.209,12.209,0,0,0,1.749-1.136c.028-.022.063-.064.1-.1a1,1,0,0,1,.1-.076l.118-.1c-.052-.011-.424-.029-1.119-.08s-1.061-.082-1.093-.07a7.427,7.427,0,0,1-1.545.906c-.635-.9-1.043-1.51-1.49-2.248h.006c-.265-.429-.4-.647-.649-1.081l-.006-.01a2.5,2.5,0,0,1-.158-2.044,18.8,18.8,0,0,1,.858-1.887c-.847-.111-1.559-.2-2.139-.255-.4,1.221-.7,1.92-.938,2.058a1.043,1.043,0,0,1-.944-.121,9.978,9.978,0,0,1-1.174-.669,6.2,6.2,0,0,1-1.638-1.3,5.139,5.139,0,0,1-.826-1.313,4.545,4.545,0,0,1-.264-1.646c.006-.615.008-.948-.008-1-.255.174-.418,1.064-.384,2.681a9.47,9.47,0,0,0,.4,3.029,3.279,3.279,0,0,0,2.153,1.672,6.137,6.137,0,0,0,2.576.29,2.161,2.161,0,0,0,.282,1.125c.229.405.4.7.574.993.546.928.932,1.526,1.627,2.54.651-.024.976-.039,1.624-.082a2.586,2.586,0,0,0-.464,1.057,1.591,1.591,0,0,0,.384,1.153c.275.359.456.589.68.867.714.894,1.2,1.454,1.962,2.284.75.826,1.265,1.356,2.081,2.132.774.752,1.272,1.2,2.185,1.977a1.32,1.32,0,0,0,.742.317c.05-.006.321-.008.795-.036.6-.035.959-.068,1.063-.064a1.758,1.758,0,0,1,1.026.25q-.368.429-.527.631a4.822,4.822,0,0,0-.562.913,43.872,43.872,0,0,0,4.433,2.914c.616.361,1.073.611,1.834,1.011a.788.788,0,0,0,1.115-.027l.031-.035c.338-.342.505-.513.84-.86a4.72,4.72,0,0,0,.677-.848c.561-1.391.938-2.229,1.105-2.53.984-.377,1.468-.578,2.42-1a5.68,5.68,0,0,1-1.216-1.846" transform="translate(-685.485 5424.158)" fill="#0e204d"/>
    <path id="Path_39509" data-name="Path 39509" d="M2269.99,599.069a1.015,1.015,0,0,1-.618-.236c-.777-.407-1.224-.652-1.825-1.005a43.81,43.81,0,0,1-4.441-2.919l-.063-.048.035-.071a4.986,4.986,0,0,1,.574-.932c.1-.121.246-.3.458-.55a1.879,1.879,0,0,0-.882-.174c-.059,0-.212.008-.425.022q-.25.019-.632.042c-.313.018-.539.025-.669.029l-.121.006a1.428,1.428,0,0,1-.813-.338c-.939-.794-1.43-1.243-2.193-1.986-.809-.774-1.338-1.313-2.086-2.136-.768-.83-1.245-1.39-1.965-2.284-.219-.269-.4-.5-.68-.868a1.662,1.662,0,0,1-.405-1.223,2.445,2.445,0,0,1,.379-.932c-.533.034-.848.049-1.437.07h-.052l-.031-.043c-.715-1.046-1.093-1.641-1.629-2.545-.174-.29-.334-.568-.575-.993a2.769,2.769,0,0,1-.308-1.068,6.269,6.269,0,0,1-2.5-.307,3.376,3.376,0,0,1-2.211-1.725,9.54,9.54,0,0,1-.405-3.065c-.027-1.111.029-2.492.426-2.76l.107-.071.038.122a6.985,6.985,0,0,1,.013,1.031,4.5,4.5,0,0,0,.258,1.611,4.863,4.863,0,0,0,.812,1.285,6.069,6.069,0,0,0,1.6,1.278,10.092,10.092,0,0,0,1.167.666.973.973,0,0,0,.854.122,5.692,5.692,0,0,0,.894-2l.022-.074.077.007c.572.053,1.278.143,2.141.257l.135.017-.06.122a18.8,18.8,0,0,0-.851,1.873,2.41,2.41,0,0,0,.147,1.969c.258.442.391.663.656,1.086l.048.08c.4.656.781,1.224,1.4,2.108a9.228,9.228,0,0,0,1.453-.875l.021-.011a3.369,3.369,0,0,1,.739.035l.4.029c.3.022.538.038.718.05.287.02.379.025.415.034l.2.043-.3.24a.575.575,0,0,0-.062.05.474.474,0,0,0-.048.048.739.739,0,0,1-.063.059,12.156,12.156,0,0,1-1.772,1.148.606.606,0,0,0-.322.574,1.156,1.156,0,0,0,.253.766l.036.048c.174.218.275.342.463.571l.06.072c.4.488.74.886,1.154,1.343l.069.071.307.341.313.336.072.076c.418.45.784.825,1.228,1.257l.077.072.307.3c.028.027.056.055.084.08l.537-.31a9.835,9.835,0,0,1,1.994-.979,2.2,2.2,0,0,1,2.113.5,9.114,9.114,0,0,1,1.415,1.721,21.807,21.807,0,0,0,1.37,1.829,8.612,8.612,0,0,0,1.729,1.28c.178.108.266.163.446.268l.125.076-.115.086a13.038,13.038,0,0,1-1.807.959l-.048.022-.045-.028a6.962,6.962,0,0,0-1.918-.812l-.219-.057c.982.687,1.645,1.115,2.509,1.627l.084.046.486.287c.147.084.3.172.464.264l.086.05c.3.17.613.341,1.049.571a.993.993,0,0,0,.1-.142,12.6,12.6,0,0,0,.882-2.019l.275-.767q.234-.656.472-1.314a5.25,5.25,0,0,1-.26-.775l-.018-.07.063-.038c1.887-1.122,2.433-1.383,2.647-1.272l.09.048-.052.087a1.892,1.892,0,0,0-.262.581,1.04,1.04,0,0,0,.146.586,5.624,5.624,0,0,0,1.175,1.8l.2.089-.2.087c-.95.421-1.428.618-2.391.987-.193.353-.6,1.276-1.085,2.483a4.718,4.718,0,0,1-.7.881c-.335.346-.5.518-.841.861a.932.932,0,0,1-.655.306m-6.706-4.27a43.545,43.545,0,0,0,4.36,2.859c.6.352,1.043.6,1.83,1.01a.7.7,0,0,0,.994,0c.013-.013.026-.027.039-.042.338-.342.505-.513.841-.858a4.563,4.563,0,0,0,.661-.83c.51-1.262.916-2.185,1.105-2.53l.017-.029.035-.013c.931-.359,1.4-.551,2.266-.932a8.261,8.261,0,0,1-1.123-1.771,1.219,1.219,0,0,1-.17-.7,1.682,1.682,0,0,1,.207-.508,16.658,16.658,0,0,0-2.275,1.221,4.6,4.6,0,0,0,.246.708l.015.036-.014.038c-.164.449-.325.9-.485,1.349-.094.258-.184.513-.275.768a12.671,12.671,0,0,1-.894,2.053c-.083.14-.181.285-.3.239-.511-.269-.854-.456-1.192-.648l-.086-.049-.377-.216-.417-.246-.076-.039c-1.019-.6-1.744-1.074-2.987-1.953l-.353-.25.425.076c.233.042.465.1.7.157a7.168,7.168,0,0,1,1.927.806,14.218,14.218,0,0,0,1.6-.834c-.1-.062-.188-.112-.315-.192a9.275,9.275,0,0,1-1.774-1.314,22.748,22.748,0,0,1-1.385-1.85,9,9,0,0,0-1.4-1.686,2.019,2.019,0,0,0-1.937-.463,7.929,7.929,0,0,0-1.562.74,2.507,2.507,0,0,1,.68.17,3.4,3.4,0,0,1,1.015.589,9.224,9.224,0,0,1,.9,1.154,7.481,7.481,0,0,1,.78,1.175l.034.105-.108.02a2.688,2.688,0,0,1-.993-.073,2.219,2.219,0,0,1-.924-.379c-1.011-.833-1.575-1.331-2.321-2.043l-.069-.066c-.06-.059-.116-.114-.175-.168l-.123.041.1-.059a.573.573,0,0,0-.045-.043l-.243-.237-.059-.067c-.507-.5-.907-.9-1.381-1.414l-.063-.068c-.089-.093-.171-.182-.251-.268l-.255-.283-.056-.056c-.467-.513-.839-.945-1.285-1.49l-.062-.076c-.15-.185-.248-.3-.4-.5l-.039-.049a1.338,1.338,0,0,1-.3-.889.794.794,0,0,1,.424-.739,12.056,12.056,0,0,0,1.735-1.129q.023-.02.045-.043l.052-.055.027-.022-.154-.01c-.181-.013-.419-.028-.719-.05l-.4-.029c-.336-.025-.588-.046-.656-.043a5.907,5.907,0,0,1-1.566.907l-.059.008-.034-.048c-.67-.955-1.064-1.544-1.5-2.254l-.048-.079c-.23-.375-.363-.6-.6-1a2.588,2.588,0,0,1-.174-2.13,18.423,18.423,0,0,1,.805-1.788c-.766-.1-1.4-.181-1.927-.23-.432,1.324-.7,1.9-.958,2.039a1.129,1.129,0,0,1-1.032-.118,10.334,10.334,0,0,1-1.192-.677,6.18,6.18,0,0,1-1.639-1.316,5.222,5.222,0,0,1-.843-1.339,4.677,4.677,0,0,1-.271-1.681c0-.264.006-.519.006-.7a7.223,7.223,0,0,0-.2,2.383,9.644,9.644,0,0,0,.387,2.993,3.212,3.212,0,0,0,2.1,1.618,6.013,6.013,0,0,0,2.537.286l.13-.014-.027.129a1.978,1.978,0,0,0,.28,1.07c.234.415.4.7.567.982.523.889.9,1.477,1.589,2.492.618-.022.937-.039,1.568-.08l.2-.013-.108.163a2.459,2.459,0,0,0-.449,1.015,1.477,1.477,0,0,0,.364,1.082c.285.37.463.6.68.864.715.894,1.192,1.45,1.956,2.276.745.82,1.268,1.357,2.077,2.127.76.738,1.25,1.181,2.185,1.975a1.233,1.233,0,0,0,.689.3.738.738,0,0,1,.114-.006c.13-.006.354-.013.666-.031l.629-.041c.236-.017.377-.027.444-.024a1.829,1.829,0,0,1,1.08.268l.083.063-.068.079c-.248.289-.419.5-.523.627a4.723,4.723,0,0,0-.519.823m-2.843-5.244c.7.672,1.261,1.161,2.234,1.962a2.067,2.067,0,0,0,.843.341,3,3,0,0,0,.795.084c-.118-.207-.4-.6-.7-1.012a9.937,9.937,0,0,0-.872-1.121,3.218,3.218,0,0,0-.958-.555,1.6,1.6,0,0,0-1.019-.119l-.564.186.17.16.076.073Z" transform="translate(-684.384 5425.923)" fill="#0e204d"/>
    <path id="Path_39510" data-name="Path 39510" d="M2631.575,856.023c-.226.121-.661.424-1.324.894a6.161,6.161,0,0,0-1.155.918q-1.015,3.125-1.954,6.27a4.989,4.989,0,0,0,2.675-2.682,23.258,23.258,0,0,0,.857-2.272,17.277,17.277,0,0,0,.894-3.13" transform="translate(-1037.457 5162.916)" fill="#0e204d"/>
    <path id="Path_39511" data-name="Path 39511" d="M2625.307,863.029l.059-.2c.622-2.086,1.278-4.2,1.949-6.272a4.976,4.976,0,0,1,1.192-.966c.7-.491,1.107-.78,1.335-.9l.034-.018.041.017c.139.052.185.07-.837,3.25a23.079,23.079,0,0,1-.861,2.284,5.1,5.1,0,0,1-2.725,2.729Zm4.469-8.078c-.241.15-.627.418-1.165.8a8.481,8.481,0,0,0-1.125.882c-.645,1.991-1.279,4.03-1.882,6.052a4.924,4.924,0,0,0,2.433-2.544,22.863,22.863,0,0,0,.854-2.262c.264-.822.781-2.43.885-2.929" transform="translate(-1035.763 5164.159)" fill="#0e204d"/>
    <path id="Path_39512" data-name="Path 39512" d="M2512.937,110.161l-5.616-5.616h-7.945V96.6l-5.616-5.616,5.616-5.616V77.422h7.945l5.616-5.613,5.616,5.616h7.945V85.37l5.616,5.616L2526.5,96.6v7.945h-7.945Zm-12.99-6.182h7.607l5.383,5.382,5.383-5.382h7.612V96.367l5.382-5.382L2525.93,85.6V77.991h-7.61l-5.383-5.382-5.383,5.382h-7.607V85.6l-5.382,5.382,5.382,5.383Z" transform="translate(-914.393 5886.454)" fill="#fff"/>
    <path id="Path_39513" data-name="Path 39513" d="M2557.479,128.73l4.808-4.808-4.808-4.808v-6.8h-6.8l-4.807-4.808-4.809,4.808h-6.8v6.8l-4.808,4.808,4.808,4.809v6.8h6.8l4.808,4.807,4.807-4.807h6.8Z" transform="translate(-947.328 5853.518)" fill="#fff"/>
    <path id="Path_39514" data-name="Path 39514" d="M2570.082,141.82l4.479-4.48-4.479-4.479v-6.334h-6.334l-4.479-4.476-4.479,4.479h-6.334v6.334l-4.479,4.479,4.479,4.48v6.334h6.334l4.479,4.479,4.479-4.479h6.334Zm-10.813-2.211-.664-.663h-.94v-.94l-.666-.665.666-.663v-.941h.942l.664-.663.663.663h.94v.941l.665.663-.665.665v.94h-.94Z" transform="translate(-960.725 5840.1)" fill="#fff"/>
    <path id="Path_39515" data-name="Path 39515" d="M2582.672,154.779l4.149-4.149-4.149-4.151v-5.869H2576.8l-4.149-4.155L2568.5,140.6h-5.872v5.869l-4.149,4.151,4.149,4.149v5.87h5.871l4.149,4.149,4.149-4.149h5.87Zm-10.021.387-1.329-1.333h-1.879v-1.875l-1.329-1.329,1.329-1.329v-1.88h1.879l1.329-1.334,1.329,1.329h1.879v1.879l1.329,1.329-1.329,1.329v1.881h-1.879Z" transform="translate(-974.107 5826.812)" fill="#fff"/>
    <path id="Path_39516" data-name="Path 39516" d="M2595.261,167.894l3.821-3.822-3.821-3.826v-5.4h-5.4l-3.823-3.822-3.822,3.822h-5.406v5.4l-3.821,3.822,3.821,3.826V173.3h5.406l3.822,3.822,3.822-3.822h5.406Zm-9.227,2.979-1.993-1.986h-2.819v-2.822l-1.994-1.994,1.994-1.993V159.26h2.82l1.992-1.992,1.993,1.994h2.82v2.82l1.994,1.993-1.994,1.994v2.819h-2.82Z" transform="translate(-987.49 5813.368)" fill="#fff"/>
    <path id="Path_39517" data-name="Path 39517" d="M2607.849,180.923l3.493-3.493-3.493-3.494V169h-4.94l-3.493-3.493L2595.924,169h-4.94v4.94l-3.493,3.495,3.493,3.493v4.94h4.94l3.493,3.493,3.493-3.493h4.94Zm-8.433,5.581-2.658-2.659H2593v-3.764l-2.657-2.652,2.657-2.659v-3.759h3.76l2.658-2.659,2.659,2.659h3.76v3.76l2.656,2.659-2.657,2.651v3.764h-3.759Z" transform="translate(-1000.873 5800.009)" fill="#fff"/>
    <path id="Path_39518" data-name="Path 39518" d="M2598.718,192.035h4.475l3.165,3.164,3.165-3.164H2614V187.56l3.164-3.165L2614,181.229v-4.474h-4.476l-3.165-3.164-3.165,3.164h-4.474v4.475l-3.164,3.165,3.164,3.165Zm7.64,3.7-3.322-3.322h-4.7v-4.7l-3.322-3.322,3.322-3.322v-4.7h4.7l3.322-3.322,3.322,3.322h4.7v4.7l3.322,3.322-3.322,3.322v4.7h-4.7Z" transform="translate(-1007.813 5793.045)" fill="#fff"/>
    <path id="Path_39519" data-name="Path 39519" d="M2722.535,927.8a4.637,4.637,0,0,1-1.744.98,9.037,9.037,0,0,1-2.136.539,6.671,6.671,0,0,1-2.807-.264,4.271,4.271,0,0,1-2.284-1.655,3.107,3.107,0,0,1-.043-3.51c.269-.481.485-.735.652-.752a4.4,4.4,0,0,0-.4,1.437,2.564,2.564,0,0,0,.477,1.628,3.248,3.248,0,0,0,1.833,1.147,5.314,5.314,0,0,0,2.167.233,8.621,8.621,0,0,0,2.37-.6c.36-.154.756-.346,1.179-.55a3.675,3.675,0,0,0-2.44-.389c-.659.056-.993.079-1.656.112a6.464,6.464,0,0,1,.147-1.915,38.192,38.192,0,0,0,4.908-1.057l1.229,1.843c-.421.116-.632.171-1.056.278a9.707,9.707,0,0,1,0,1.311,2,2,0,0,1-.4,1.175" transform="translate(-1116.67 5100.986)" fill="#0e204d"/>
    <path id="Path_39520" data-name="Path 39520" d="M2716.994,928.4a6.439,6.439,0,0,1-2.016-.311,4.326,4.326,0,0,1-2.321-1.683,3.185,3.185,0,0,1-.046-3.584c.29-.52.515-.771.708-.795l.122-.011-.049.112a4.331,4.331,0,0,0-.4,1.412,2.469,2.469,0,0,0,.465,1.589,3.156,3.156,0,0,0,1.792,1.116,5.22,5.22,0,0,0,2.136.232,8.547,8.547,0,0,0,2.35-.589c.328-.142.7-.321,1.046-.488a3.585,3.585,0,0,0-2.265-.313c-.672.057-.993.079-1.666.114h-.055l-.018-.052a6.209,6.209,0,0,1,.143-1.951l.008-.053.053-.008a37.829,37.829,0,0,0,4.9-1.056l.05-.014,1.321,1.97-.1.027c-.405.111-.613.165-1,.262a9.386,9.386,0,0,1,0,1.262,2.086,2.086,0,0,1-.415,1.217,4.737,4.737,0,0,1-1.773,1.006,9.215,9.215,0,0,1-2.154.543,7.875,7.875,0,0,1-.82.045m-3.811-6.14a2.588,2.588,0,0,0-.446.632,3.017,3.017,0,0,0,.042,3.433,4.172,4.172,0,0,0,2.245,1.625,6.606,6.606,0,0,0,2.781.261,9.063,9.063,0,0,0,2.118-.536,4.685,4.685,0,0,0,1.715-.959,1.928,1.928,0,0,0,.38-1.132,10.088,10.088,0,0,0,0-1.3v-.06l.059-.015c.39-.1.6-.15.957-.248l-1.153-1.719a37.635,37.635,0,0,1-4.813,1.038,7.807,7.807,0,0,0-.156,1.777c.626-.034.951-.056,1.6-.109a3.71,3.71,0,0,1,2.483.4l.123.069-.128.063c-.379.184-.808.39-1.181.551a8.712,8.712,0,0,1-2.394.6,5.413,5.413,0,0,1-2.2-.236,3.308,3.308,0,0,1-1.876-1.176,2.641,2.641,0,0,1-.488-1.673,4.054,4.054,0,0,1,.328-1.276" transform="translate(-1115.823 5102.028)" fill="#0e204d"/>
    <path id="Path_39521" data-name="Path 39521" d="M2803.3,836.089a61.724,61.724,0,0,1-7.984,2.855c-.5-.749-.739-1.123-1.231-1.873.726-.185,1.086-.285,1.8-.5a1.87,1.87,0,0,1-.3-.7,6.433,6.433,0,0,1,.121-.753,6.257,6.257,0,0,1,.809-1.808,3.45,3.45,0,0,1,1.49-1.435,1.344,1.344,0,0,1,1.28.243,3.3,3.3,0,0,1,.937.925,1.363,1.363,0,0,1,.278.684c-.006.478-.01.717-.018,1.192.632-.265.945-.4,1.566-.7l1.243,1.864m-12.136-4.662c-.059-.089.041-.4.3-.958s.426-.854.527-.886a9.145,9.145,0,0,1,1.345.328,8.945,8.945,0,0,1,1.291.4c.067.1-.042.412-.333.924s-.511.782-.653.826a4.653,4.653,0,0,1-1.278-.236,4.522,4.522,0,0,1-1.192-.4m7.49,4.2c.465-.172.733-.411.809-.707a1.719,1.719,0,0,0-.7-.607,1.159,1.159,0,0,0-.937-.069,2.268,2.268,0,0,0-.7.533c-.308.311-.422.526-.336.656.109.164.405.262.883.287a2.549,2.549,0,0,0,.98-.1" transform="translate(-1188.764 5187.301)" fill="#0e204d"/>
    <path id="Path_39522" data-name="Path 39522" d="M2794.427,838.177l-1.319-2,.1-.025c.7-.178,1.047-.275,1.711-.472a1.73,1.73,0,0,1-.257-.652,6,6,0,0,1,.121-.771,6.409,6.409,0,0,1,.819-1.834,3.526,3.526,0,0,1,1.527-1.463,1.421,1.421,0,0,1,1.349.25,3.371,3.371,0,0,1,.955.945,1.4,1.4,0,0,1,.29.724c-.006.44-.008.677-.015,1.081.564-.237.869-.373,1.46-.648l.057-.027,1.326,1.986-.08.035a61.845,61.845,0,0,1-7.993,2.858Zm-1.083-1.914,1.146,1.744a61.645,61.645,0,0,0,7.846-2.8l-1.161-1.735c-.59.273-.894.41-1.512.668l-.1.043v-.115c.008-.475.013-.712.018-1.192a1.292,1.292,0,0,0-.265-.643,3.248,3.248,0,0,0-.916-.906,1.291,1.291,0,0,0-1.213-.236,3.387,3.387,0,0,0-1.458,1.405,5.191,5.191,0,0,0-.918,2.524,1.846,1.846,0,0,0,.282.662l.048.08-.088.027c-.7.207-1.045.306-1.705.475m3.717-1.3c-.079,0-.163,0-.25-.007-.506-.027-.813-.13-.94-.32-.143-.216.129-.53.346-.749a2.3,2.3,0,0,1,.724-.551,1.234,1.234,0,0,1,.993.072,1.815,1.815,0,0,1,.732.632l.018.028-.008.032a1.215,1.215,0,0,1-.854.757,2.269,2.269,0,0,1-.76.105m.282-1.554a.992.992,0,0,0-.352.066,2.163,2.163,0,0,0-.672.516c-.366.368-.363.512-.327.565.067.1.264.225.825.254a2.47,2.47,0,0,0,.951-.09l.027.07-.027-.07a1.113,1.113,0,0,0,.756-.625,1.668,1.668,0,0,0-.655-.554,1.217,1.217,0,0,0-.527-.132m-4.636-2.113a6.223,6.223,0,0,1-1.231-.246c-1.153-.3-1.213-.384-1.238-.422-.063-.1-.041-.31.289-1.029.347-.766.481-.894.572-.927a5.5,5.5,0,0,1,1.39.328c1.23.341,1.3.377,1.332.425.056.083.083.278-.331,1-.3.526-.527.806-.7.86a.269.269,0,0,1-.086.01m-2.349-.752a4.653,4.653,0,0,0,1.153.363,4.14,4.14,0,0,0,1.238.239c.059-.018.233-.132.611-.794.363-.635.352-.8.341-.84-.114-.059-.91-.278-1.254-.373-.364-.1-1.211-.331-1.311-.327-.02.007-.135.093-.477.844-.322.708-.314.855-.3.886" transform="translate(-1187.91 5188.154)" fill="#0e204d"/>
    <path id="Path_39523" data-name="Path 39523" d="M2921.864,785.6a.688.688,0,0,1-.417.6c-.336.158-.506.236-.846.387-.5-.74-.742-1.111-1.234-1.851.516-.23.772-.349,1.28-.6.228-.108.2-.375-.079-.794-.006-.666-.007-1.054,0-1.158a2.185,2.185,0,0,1,.182-1.068,10.059,10.059,0,0,1,.9,2.524c.861-.442,1.285-.673,2.12-1.16.2-.116.193-.324-.006-.618-.028-.042-.071-.086-.105-.13a.739.739,0,0,1-.06-.087,5.772,5.772,0,0,1,.273-2.326q.112.169.329.529t.329.527a6.484,6.484,0,0,1,.572,1.3c.488-.307.729-.464,1.207-.785q.119-.08-.129-.45c-.031-.046-.071-.111-.121-.182s-.093-.125-.125-.172c-.054-1.224.008-1.913.2-2.047l.993,1.252a1.2,1.2,0,0,0,.5.317.543.543,0,0,0,.533-.029c.219-.164.329-.247.546-.414l1.229,1.844c-.523.4-.789.6-1.326.986l-.561-.332c0,.3-.006.442-.011.735-.882.611-1.332.9-2.249,1.463-.289-.112-.482-.14-.576-.084a.626.626,0,0,0-.1.272c-.038.167-.083.262-.13.292-1,.581-1.509.857-2.542,1.374-.3-.119-.49-.158-.576-.116m-.349-7.759c.077-.046.154-.265.239-.648a3.511,3.511,0,0,1,.221-.761c.872-.07,1.3-.112,2.158-.21-.073,1.192-.2,1.827-.364,1.938a8.6,8.6,0,0,1-1.01.123c-.648.062-1.026.083-1.122.082-.1.342-.151.511-.255.848a2.54,2.54,0,0,0-.1.414,6.374,6.374,0,0,1-1.118.133,3.856,3.856,0,0,1-1.1-.042,13.574,13.574,0,0,1,.479-1.8,5.062,5.062,0,0,0,1.042.042,2.64,2.64,0,0,0,.934-.123m-2.2-.664a2.167,2.167,0,0,1,.157-.794,2.213,2.213,0,0,1,.3-.785,3.9,3.9,0,0,1,.894.089,4.151,4.151,0,0,1,.855.161c.048.07-.011.334-.181.78a1.923,1.923,0,0,1-.383.743,5.222,5.222,0,0,1-1.638-.19" transform="translate(-1306.789 5237.12)" fill="#0e204d"/>
    <path id="Path_39524" data-name="Path 39524" d="M2919.557,785.6l-1.317-1.973.077-.035c.519-.23.768-.346,1.28-.6a.175.175,0,0,0,.1-.114c.022-.083,0-.25-.213-.575l-.011-.018v-.022c-.006-.715-.006-1.063,0-1.162.022-.812.123-1.024.2-1.111l.063-.074.052.081a9.815,9.815,0,0,1,.889,2.457c.808-.415,1.224-.643,2.037-1.116a.2.2,0,0,0,.105-.128.546.546,0,0,0-.136-.384c-.015-.024-.038-.049-.059-.075s-.029-.035-.043-.052a.575.575,0,0,1-.06-.087l-.01-.017-.006-.028a5.781,5.781,0,0,1,.28-2.363l.059-.107.067.1c.075.111.184.286.332.532s.251.412.327.525a6.268,6.268,0,0,1,.551,1.229c.438-.275.673-.429,1.128-.735,0,0,.045-.057-.15-.349l-.031-.048c-.025-.038-.054-.083-.088-.133l-.059-.081c-.018-.025-.049-.065-.066-.091l-.011-.018v-.02c-.075-1.673.08-2.007.225-2.111l.057-.041,1.039,1.307a1.108,1.108,0,0,0,.467.3.47.47,0,0,0,.465-.02c.22-.164.328-.246.544-.414l.063-.048,1.312,1.968-.055.042c-.527.408-.789.6-1.328.987l-.039.028-.041-.024c-.105-.062-.257-.15-.454-.268,0,.219-.006.361-.008.61v.038l-.031.021c-.888.615-1.331.9-2.252,1.465l-.031.018-.034-.013c-.35-.136-.471-.115-.512-.09a2.274,2.274,0,0,0-.064.226.526.526,0,0,1-.165.339c-1.007.585-1.507.855-2.545,1.375l-.026.015-.031-.013a1.227,1.227,0,0,0-.484-.128.754.754,0,0,1-.453.607c-.336.16-.505.237-.847.389Zm-1.1-1.911,1.153,1.728c.3-.135.471-.213.789-.361a.619.619,0,0,0,.375-.54v-.041l.036-.018c.105-.052.292-.02.606.1,1.015-.509,1.514-.78,2.509-1.357.006,0,.049-.035.1-.244.052-.233.088-.3.13-.32.114-.067.307-.046.607.067.888-.541,1.328-.829,2.185-1.421,0-.268.007-.415.011-.7v-.126l.108.066c.224.133.4.236.52.307.5-.353.754-.546,1.233-.916l-1.148-1.722c-.179.137-.287.219-.485.367a.609.609,0,0,1-.6.039,1.248,1.248,0,0,1-.53-.338l-.943-1.186a4.543,4.543,0,0,0-.121,1.91c.015.022.032.046.052.07l.06.082c.036.052.069.1.093.139l.031.046c.077.118.286.431.109.55-.482.324-.719.478-1.21.786l-.077.049-.029-.086a6.441,6.441,0,0,0-.565-1.282c-.077-.115-.188-.3-.331-.532-.1-.174-.189-.311-.255-.415a6.724,6.724,0,0,0-.212,2.154.474.474,0,0,0,.043.064l.041.048q.036.042.069.087a.665.665,0,0,1,.157.5.343.343,0,0,1-.175.222c-.841.491-1.259.718-2.123,1.161l-.08.042-.024-.087a11.467,11.467,0,0,0-.827-2.4,3.221,3.221,0,0,0-.112.925v1.135a.909.909,0,0,1,.219.675.322.322,0,0,1-.181.209c-.486.233-.738.352-1.2.56m.2-4.918a2.438,2.438,0,0,1-.639-.062l-.065-.02.014-.066a13.572,13.572,0,0,1,.484-1.806l.021-.062.064.015a4.7,4.7,0,0,0,1.024.039,2.382,2.382,0,0,0,.894-.112c.02-.013.091-.089.206-.6a3.78,3.78,0,0,1,.23-.786l.02-.029h.036c.868-.07,1.291-.111,2.155-.21l.086-.01-.006.087c-.1,1.617-.272,1.911-.4,1.993a6.449,6.449,0,0,1-1.043.135c-.551.053-.918.078-1.074.083-.091.308-.143.478-.241.794a2.471,2.471,0,0,0-.1.39v.057l-.056.017a6.568,6.568,0,0,1-1.132.136c-.181.01-.345.015-.488.015m-.533-.185a4.325,4.325,0,0,0,1.012.024,6.816,6.816,0,0,0,1.056-.121c.011-.059.038-.164.1-.375.1-.338.154-.506.255-.848l.015-.053h.056c.1,0,.49-.024,1.114-.082a9.876,9.876,0,0,0,.986-.118c.059-.039.22-.3.315-1.788-.794.088-1.219.13-2.035.2a4.8,4.8,0,0,0-.2.707c-.119.54-.2.652-.272.7a2.6,2.6,0,0,1-.969.133,5.985,5.985,0,0,1-.993-.031,14,14,0,0,0-.442,1.659m1.632-2.2a5.949,5.949,0,0,1-.677-.055c-.781-.1-.82-.153-.846-.191-.036-.056-.05-.158.147-.858s.275-.794.332-.826c.039-.024.078-.048.939.079s.878.153.9.193c.048.07.063.225-.172.846s-.349.74-.414.78a.4.4,0,0,1-.214.032m-1.4-.329a3.555,3.555,0,0,0,.74.129,2.315,2.315,0,0,0,.794.042c.025-.014.126-.111.352-.7a1.908,1.908,0,0,0,.191-.7,7.254,7.254,0,0,0-.806-.14,4.891,4.891,0,0,0-.853-.1,3.005,3.005,0,0,0-.257.738,3.251,3.251,0,0,0-.164.733" transform="translate(-1305.771 5238.193)" fill="#0e204d"/>
    <path id="Path_39525" data-name="Path 39525" d="M2998.081,713.077a38.2,38.2,0,0,0,3.005-2.432,8.425,8.425,0,0,0-.848-1.61c-.011-.036.01-.428.059-1.181s.073-1.162.084-1.221l.083.126a1.153,1.153,0,0,0,.066.1c.034.042.071.079.091.108a13.675,13.675,0,0,1,1.015,1.857.6.6,0,0,0,.582.389.962.962,0,0,0,.721-.3c.217-.212.324-.32.536-.536l1.226,1.839c-.41.418-.618.624-1.039,1.028a1.185,1.185,0,0,1-.98.4,2.207,2.207,0,0,1-.937-.478c.059.679.087,1.018.142,1.688-1,.861-1.517,1.275-2.575,2.061-.5-.738-.738-1.107-1.23-1.844m-1.013-7.691a2.323,2.323,0,0,0,.163-.686,7.369,7.369,0,0,1,.165-.806c.768-.177,1.147-.269,1.894-.468a5.49,5.49,0,0,1-.218,2.04,4.862,4.862,0,0,1-.878.258,8.165,8.165,0,0,1-1.005.21q-.119.642-.233,1.346a5,5,0,0,1-.979.255,3.626,3.626,0,0,1-1,.1c.114-.782.22-1.426.327-1.928a3.928,3.928,0,0,0,.938-.077,2.12,2.12,0,0,0,.827-.239" transform="translate(-1376.83 5303.71)" fill="#0e204d"/>
    <path id="Path_39526" data-name="Path 39526" d="M2998.286,713.9l-1.31-1.966.056-.042a38.094,38.094,0,0,0,2.968-2.4,9.779,9.779,0,0,0-.83-1.547l-.007-.015a9.14,9.14,0,0,1,.055-1.207c.053-.844.076-1.169.086-1.229l.034-.175.2.3c.013.021.028.045.045.068l.042.048a.613.613,0,0,1,.053.066,13.732,13.732,0,0,1,1.021,1.868.532.532,0,0,0,.516.346.886.886,0,0,0,.669-.275c.216-.213.322-.321.534-.536l.063-.066,1.307,1.966-.042.042c-.412.422-.618.624-1.042,1.029a1.249,1.249,0,0,1-1.04.418,2.065,2.065,0,0,1-.84-.4c.05.578.078.914.128,1.533v.036l-.028.025c-1.005.867-1.512,1.272-2.582,2.065Zm-1.112-1.932,1.149,1.724c1.014-.754,1.518-1.158,2.483-1.986-.053-.65-.081-.993-.139-1.656l-.014-.164.13.1a2.169,2.169,0,0,0,.9.464,1.113,1.113,0,0,0,.92-.377c.408-.391.611-.6.993-.984l-1.143-1.715c-.174.177-.28.283-.474.474a1.049,1.049,0,0,1-.775.318.674.674,0,0,1-.647-.432,13.57,13.57,0,0,0-1.008-1.847.477.477,0,0,0-.041-.049l-.048-.055c-.014-.018-.027-.036-.039-.056-.015.216-.039.583-.065,1.01-.024.369-.066,1.046-.062,1.15a8.067,8.067,0,0,1,.85,1.625l.007.039-.031.027a37.752,37.752,0,0,1-2.954,2.394m-3.058-5.387a1.079,1.079,0,0,1-.158-.01l-.07-.011.01-.073c.119-.818.227-1.45.329-1.934l.014-.066.066.008a3.577,3.577,0,0,0,.917-.076,1.971,1.971,0,0,0,.794-.22,4.154,4.154,0,0,0,.14-.645,7.275,7.275,0,0,1,.17-.82l.013-.036.039-.01c.768-.175,1.139-.266,1.887-.468l.1-.025v.1c-.036,1.9-.185,2.042-.241,2.093-.018.017-.077.07-.909.276-.453.111-.795.185-.962.206-.074.4-.149.832-.223,1.291l-.007.039-.036.015a4.933,4.933,0,0,1-.993.261,5.18,5.18,0,0,1-.868.107m-.063-.147a4.493,4.493,0,0,0,.906-.1,5.226,5.226,0,0,0,.927-.236c.076-.465.151-.9.225-1.307l.011-.057h.057a8.1,8.1,0,0,0,.993-.207,5.585,5.585,0,0,0,.85-.244c.032-.032.153-.268.188-1.887-.68.181-1.053.272-1.763.435-.025.093-.081.339-.151.757-.1.574-.135.684-.186.729a2.083,2.083,0,0,1-.864.255,4.657,4.657,0,0,1-.894.084c-.1.456-.2,1.042-.3,1.788" transform="translate(-1375.824 5304.835)" fill="#0e204d"/>
    <path id="Path_39527" data-name="Path 39527" d="M3100.508,663.336a1.048,1.048,0,0,1-.275.794c-.261.268-.391.4-.656.662-.5-.735-.736-1.1-1.228-1.839.4-.4.6-.6.993-1.01q.262-.276-.156-.9c-.08-.771-.128-1.218-.135-1.34a3.65,3.65,0,0,1,.024-1.279,12.7,12.7,0,0,1,1.032,2.7c.655-.721.972-1.093,1.589-1.848.147-.181.116-.418-.08-.71-.028-.041-.07-.083-.1-.125a.507.507,0,0,1-.058-.087,9.859,9.859,0,0,1-.081-2.737q.112.169.332.532c.146.24.257.418.332.53a7.862,7.862,0,0,1,.628,1.361c.353-.465.525-.7.864-1.178.056-.079,0-.24-.163-.486-.031-.046-.071-.109-.121-.181s-.09-.122-.121-.168a6.02,6.02,0,0,1-.121-2.383c.383.484.575.725.958,1.209a.8.8,0,0,0,.437.25.352.352,0,0,0,.415-.151c.15-.236.226-.356.37-.6l1.223,1.832c-.354.576-.534.86-.909,1.421-.107-.055-.271-.139-.489-.253.036.338.054.506.09.843-.62.9-.942,1.339-1.608,2.2q-.371-.092-.475.039a.983.983,0,0,0-.045.336.8.8,0,0,1-.071.367c-.736.906-1.118,1.346-1.908,2.2-.258-.064-.421-.063-.486.007" transform="translate(-1472.207 5349.639)" fill="#0e204d"/>
    <path id="Path_39528" data-name="Path 39528" d="M3098.437,663.359l-1.308-1.964.042-.042c.405-.4.6-.6.993-1.008.147-.154.091-.428-.164-.811l-.01-.015V659.5c-.082-.778-.128-1.223-.135-1.343a3.657,3.657,0,0,1,.028-1.312l.052-.125.075.112a12.133,12.133,0,0,1,1,2.593c.6-.662.911-1.025,1.5-1.749.123-.153.1-.357-.084-.624a.822.822,0,0,0-.059-.073c-.014-.015-.027-.031-.039-.046a.548.548,0,0,1-.059-.087l-.015-.038a9.8,9.8,0,0,1-.074-2.762l.039-.164.094.14c.075.112.185.287.333.533s.255.418.329.527a7.354,7.354,0,0,1,.586,1.251c.3-.4.471-.632.783-1.073.008-.013.043-.093-.164-.4l-.032-.05c-.025-.038-.054-.082-.087-.129l-.055-.076c-.027-.036-.05-.069-.068-.1l-.011-.029c-.279-1.887-.2-2.294-.108-2.439l.056-.083,1.018,1.291a.723.723,0,0,0,.4.223.278.278,0,0,0,.338-.119c.15-.236.224-.355.371-.6l.059-.1,1.311,1.965-.025.041c-.355.579-.533.858-.909,1.423l-.043.056-.059-.029c-.086-.043-.209-.107-.368-.191.027.254.045.419.075.708v.028l-.015.021c-.622.906-.938,1.338-1.611,2.2l-.029.038-.046-.011c-.209-.053-.353-.049-.4.013a1.544,1.544,0,0,0-.029.3c-.014.286-.055.368-.086.408-.74.911-1.115,1.343-1.911,2.2l-.029.032-.043-.01a.674.674,0,0,0-.4-.029,1.1,1.1,0,0,1-.3.812c-.26.269-.391.4-.656.663Zm-1.121-1.945,1.144,1.716c.226-.223.355-.355.6-.6a.979.979,0,0,0,.254-.745v-.031l.021-.021c.083-.087.246-.1.516-.038.772-.837,1.147-1.269,1.875-2.165.007-.008.042-.063.054-.324.015-.3.038-.349.062-.379.083-.105.248-.13.5-.073.645-.829.959-1.259,1.561-2.133-.034-.32-.052-.488-.086-.816l-.015-.136.121.064.431.224c.343-.516.52-.795.847-1.326l-1.137-1.7c-.109.179-.184.3-.311.5a.426.426,0,0,1-.5.185.879.879,0,0,1-.477-.275l-.878-1.108a8.434,8.434,0,0,0,.167,2.214l.055.076.056.076c.036.049.065.1.091.135l.031.048c.189.285.24.46.161.568-.339.481-.51.711-.864,1.181l-.079.1-.048-.122a7.986,7.986,0,0,0-.618-1.345c-.076-.112-.185-.287-.334-.533q-.135-.223-.23-.373a11.82,11.82,0,0,0,.105,2.52.6.6,0,0,0,.046.066l.036.043c.025.029.049.059.069.086.219.324.244.6.077.794-.618.76-.931,1.122-1.589,1.85l-.086.1-.035-.126a15.6,15.6,0,0,0-.933-2.528,5.973,5.973,0,0,0,.02,1.084c.007.119.052.557.133,1.321.289.44.336.77.137.976-.377.4-.572.6-.951.969" transform="translate(-1471.081 5351.191)" fill="#0e204d"/>
    <path id="Path_39529" data-name="Path 39529" d="M3180.682,569.424a3.433,3.433,0,0,1,.248-.794c.105-.219.207-.308.3-.264.391.3.975.756,1.743,1.36a2.586,2.586,0,0,1,.551.628,7.7,7.7,0,0,1,.338,1.441,8.186,8.186,0,0,1,.2,1.375,30.115,30.115,0,0,1-2.284,2.077,2.525,2.525,0,0,0,.132,1.035,1.808,1.808,0,0,1,0,1.244c-.192.313-.289.468-.488.777l-1.223-1.836c.3-.456.437-.687.718-1.153-.135-.546-.273-1.1-.415-1.671a11.925,11.925,0,0,1,.184-4.217m.738,1.911a3.557,3.557,0,0,0-.286,1.28c.46-.359.684-.543,1.125-.916q-.7-.646-.839-.365" transform="translate(-1547.721 5428.325)" fill="#0e204d"/>
    <path id="Path_39530" data-name="Path 39530" d="M3180.363,577.545l-1.311-1.965.027-.041c.289-.449.429-.675.7-1.126l-.408-1.641a12.012,12.012,0,0,1,.182-4.249,3.548,3.548,0,0,1,.254-.812c.126-.261.261-.362.4-.3l.014.008c.4.311,1.007.781,1.744,1.36a2.671,2.671,0,0,1,.565.645,5.369,5.369,0,0,1,.343,1.47c.24,1.319.209,1.384.193,1.418l-.015.021a29.672,29.672,0,0,1-2.273,2.068,2.8,2.8,0,0,0,.144.972,1.841,1.841,0,0,1-.013,1.3c-.192.314-.289.47-.488.778Zm-1.136-1.966,1.133,1.7c.16-.248.255-.4.426-.682a1.768,1.768,0,0,0-.007-1.192c-.189-.819-.168-1.01-.124-1.087l.017-.02a30.1,30.1,0,0,0,2.262-2.056,11.037,11.037,0,0,0-.2-1.325,6.832,6.832,0,0,0-.321-1.414,2.553,2.553,0,0,0-.534-.61c-.732-.575-1.332-1.043-1.735-1.354-.053-.015-.125.073-.2.232a3.364,3.364,0,0,0-.241.778,11.821,11.821,0,0,0-.182,4.191c.139.562.278,1.119.414,1.664l.007.029-.015.027c-.275.456-.415.682-.7,1.115m.763-3.689.014-.165a3.586,3.586,0,0,1,.3-1.308.217.217,0,0,1,.16-.121c.17-.029.421.118.794.465l.06.056-.062.055c-.446.376-.667.557-1.129.918Zm.513-1.453h-.02a.072.072,0,0,0-.056.045,3.2,3.2,0,0,0-.262,1.086c.353-.278.568-.453.927-.757-.35-.317-.515-.375-.589-.375" transform="translate(-1546.666 5429.211)" fill="#0e204d"/>
  </g>
</svg>
