<svg xmlns="http://www.w3.org/2000/svg" width="96.968" height="102.217" viewBox="0 0 96.968 102.217">
  <g id="logocardp3" transform="translate(-931.387 -918.488)">
    <g id="Group_646" data-name="Group 646" transform="translate(931.387 1005.44)">
      <path id="Path_2124" data-name="Path 2124" d="M940.947,2826.4l-9.561,15.265h96.968l-9.56-15.265Z" transform="translate(-931.387 -2826.396)" fill="#00933b"/>
      <path id="Path_2125" data-name="Path 2125" d="M1782.018,2993.865l-1.937,4.653h19.611l-1.937-4.653Z" transform="translate(-1741.402 -2986.233)" fill="#fff"/>
    </g>
    <g id="Group_647" data-name="Group 647" transform="translate(939.791 947.168)">
      <path id="Path_2126" data-name="Path 2126" d="M1186.124,1547.788h-3.365v4.986h1.6c4.482,0,5.889.473,5.889,5.271v35.266c0,4.8-1.406,5.271-5.889,5.271h-57.282c-4.482,0-5.608-.474-5.608-5.271v-35.266c0-4.8,1.125-5.271,5.608-5.271h2.3v-4.986H1125.3c-6.72,0-9.516,2.107-9.516,9.166V1594.4c0,7.063,2.8,9.166,9.516,9.166h60.822c6.725,0,9.823-2.1,9.823-9.166v-37.443C1195.947,1549.9,1192.849,1547.788,1186.124,1547.788Z" transform="translate(-1115.786 -1547.788)" fill="#fff"/>
    </g>
    <g id="Group_649" data-name="Group 649" transform="translate(948.518 920.653)">
      <g id="Group_648" data-name="Group 648" transform="translate(0 0)">
        <path id="Path_2127" data-name="Path 2127" d="M1354.823,2192.873h-47.542v18.541l63.117.246v-18.787h-15.575Zm-27.414,3.422h1.989c.389,0,.7.455.7,1.007s-.316,1-.7,1h-1.989c-.4,0-.71-.451-.71-1S1327.014,2196.295,1327.409,2196.295Zm-15.816,1.007c0-.552.315-1.007.7-1.007h10.5c.382,0,.706.455.706,1.007s-.324,1-.706,1h-10.5C1311.908,2198.305,1311.593,2197.854,1311.593,2197.3Zm6.479,5.717c0-.556.315-1.007.705-1.007h26.6c.39,0,.7.451.7,1.007s-.315,1.008-.7,1.008h-26.6C1318.388,2204.027,1318.073,2203.576,1318.073,2203.02Zm14.051,6.729h-7.7c-.385,0-.709-.45-.709-1.007s.324-1.012.709-1.012h7.7c.394,0,.71.446.71,1.012S1332.517,2209.749,1332.123,2209.749Zm4.68,0h-.854c-.39,0-.706-.45-.706-1.007s.316-1.012.706-1.012h.854c.39,0,.705.446.705,1.012S1337.193,2209.749,1336.8,2209.749Zm17.464,0h-13.4c-.386,0-.71-.45-.71-1.007s.324-1.012.71-1.012h13.4c.39,0,.7.446.7,1.012S1354.657,2209.749,1354.267,2209.749Zm5.5-5.722H1349.7c-.394,0-.709-.451-.709-1.008s.315-1.007.709-1.007h10.069c.386,0,.7.451.7,1.007S1360.156,2204.027,1359.77,2204.027Zm6.936-6.725c0,.552-.32,1-.714,1h-32.278c-.39,0-.7-.451-.7-1s.315-1.007.7-1.007h32.278C1366.385,2196.295,1366.706,2196.75,1366.706,2197.3Z" transform="translate(-1307.281 -2136.958)" fill="#fff"/>
        <g id="Group_653" data-name="Group 653">
          <path id="Path_2128" data-name="Path 2128" d="M2247.1,1613.928v21.52h5.271v-21.481l-2.659-2.73Z" transform="translate(-2204.269 -1581.83)" fill="#fccf03"/>
          <path id="Path_2129" data-name="Path 2129" d="M1474.309,1384.528c0,.631-.359,1.144-.8,1.144s-.806-.512-.806-1.144v-11.505l-2.848,2.926v32.142h7.3v-32.142l-2.848-2.926Zm0,14.125c0,.631-.359,1.139-.8,1.139s-.806-.508-.806-1.139v-9c0-.636.359-1.144.806-1.144s.8.508.8,1.144Z" transform="translate(-1462.449 -1354.472)" fill="#fccf03"/>
          <path id="Path_2130" data-name="Path 2130" d="M1939.975,1326.52c0,.64-.36,1.144-.8,1.144s-.806-.5-.806-1.144V1290.8l-8.324,9.508v29.241h12.807v-22.66l.035-.035V1293.9l-2.909-3.168Z" transform="translate(-1901.66 -1275.933)" fill="#fccf03"/>
          <path id="Path_2131" data-name="Path 2131" d="M2401.867,1397.818c0,.631-.363,1.139-.8,1.139s-.806-.508-.806-1.139l0-21.906-2.423,2.764v32.172h6.454v-32.172l-2.423-2.764Z" transform="translate(-2348.134 -1357.23)" fill="#fccf03"/>
          <path id="Path_2132" data-name="Path 2132" d="M1671.238,1007.311c0,.631-.359,1.139-.8,1.139s-.8-.508-.8-1.139V965.994l-4.433,4.557V1019.6h10.466V970.551l-4.434-4.565Zm0,8.438c0,.639-.359,1.152-.8,1.152s-.8-.512-.8-1.152V1012.3c0-.631.36-1.147.8-1.147s.8.517.8,1.147Z" transform="translate(-1648.894 -965.986)" fill="#fccf03"/>
        </g>
      </g>
    </g>
    <path id="Path_2133" data-name="Path 2133" d="M2283.8,925.686a7.2,7.2,0,1,1-7.2-7.2A7.2,7.2,0,0,1,2283.8,925.686Z" transform="translate(-1277.038 0)" fill="#f5b03c"/>
  </g>
</svg>
