<svg xmlns="http://www.w3.org/2000/svg" width="123.928" height="83.84" viewBox="0 0 123.928 83.84">
  <g id="logocardpr1" transform="translate(-82.941 -85.715)">
    <path id="Path_2114" data-name="Path 2114" d="M166.541,123.142h-9.058a33.063,33.063,0,1,1-12.841-21.81,32.706,32.706,0,0,1,8.483-4.628,42.243,42.243,0,0,0-8.483-6.025,41.884,41.884,0,1,0,21.9,41.456,42.308,42.308,0,0,0,0-8.993Z" transform="translate(0 0)" fill="#2b9f5d"/>
    <g id="Group_641" data-name="Group 641" transform="translate(122.496 85.715)">
      <path id="Path_2115" data-name="Path 2115" d="M275.313,165.8a41.227,41.227,0,0,0-2.434-8.837,25.935,25.935,0,0,0-6.025,15.5A32.933,32.933,0,0,1,205.181,188.5a10.272,10.272,0,0,0-8.972-5.211h-2.774a41.918,41.918,0,0,0,82.373-12.642A41.038,41.038,0,0,0,275.313,165.8Z" transform="translate(-192.006 -130.534)" fill="#237d4a"/>
      <path id="Path_2116" data-name="Path 2116" d="M198.584,128.105c0-.156-.008-.311-.008-.467A32.913,32.913,0,0,1,254.815,104.4a33.144,33.144,0,0,1,4.636,5.837c1.53,2.449,5.8-7.5,4.708-8.862a41.874,41.874,0,0,0-52.43-10.7,42.085,42.085,0,0,0-21.906,32.463,42.858,42.858,0,0,0-.24,4.5c0,.157.011.311.013.467Z" transform="translate(-189.583 -85.715)" fill="#237d4a"/>
    </g>
    <path id="Path_2117" data-name="Path 2117" d="M223.762,191.116a42.949,42.949,0,0,1-.24,4.5h-41.3a8.219,8.219,0,0,1-7.945-6.115l-.762-2.878h50A42.859,42.859,0,0,1,223.762,191.116Z" transform="translate(-56.981 -63.477)" fill="#237d4a"/>
    <path id="Path_2118" data-name="Path 2118" d="M330.3,139.494a28.978,28.978,0,0,1-28.944,28.944c-.246,0-.491-.006-.737-.012a26.3,26.3,0,0,0,25.533-26.264c0-.743-.03-1.475-.09-2.2a22.026,22.026,0,0,0-2.26-7.338c-4.4-8.507-2.614-12.428.863-16.367,2.032-2.29,4.526-4.214,6.475-6.235a10.182,10.182,0,0,0,3.141-5.461C341.46,120.987,330.3,125.681,330.3,139.494Z" transform="translate(-136.94 -11.856)" fill="#95e1c0"/>
    <path id="Path_2119" data-name="Path 2119" d="M399.841,160.693h-.006l-8.459,6.66a25.935,25.935,0,0,1,6.025-15.5,15.219,15.219,0,0,1,3.5-3.009C399.775,151.1,399.242,156.91,399.841,160.693Z" transform="translate(-194.033 -39.716)" fill="#237d4a"/>
    <path id="Path_2120" data-name="Path 2120" d="M360.968,139.961a22.026,22.026,0,0,0-2.26-7.338c-4.4-8.507-2.614-12.428.863-16.367,2.032-2.29,4.526-4.214,6.475-6.235a10.182,10.182,0,0,0,3.141-5.461C370.447,116.089,360.968,114.854,360.968,139.961Z" transform="translate(-171.844 -11.856)" fill="#008e50"/>
    <path id="Path_2121" data-name="Path 2121" d="M325.974,155.237c-3.489-2.8-17.3,0-15.059-15.377C318.325,146.323,323.883,143.061,325.974,155.237Z" transform="translate(-143.262 -34.062)" fill="#95e1c0"/>
    <path id="Path_2122" data-name="Path 2122" d="M326.387,155.237c-2.158-6.229-13.243-7.146-15.059-15.377C318.738,146.323,324.3,143.061,326.387,155.237Z" transform="translate(-143.675 -34.062)" fill="#008e50"/>
  </g>
</svg>
