<svg xmlns="http://www.w3.org/2000/svg" xmlns:xlink="http://www.w3.org/1999/xlink" width="1481" height="918" viewBox="0 0 1481 918">
  <defs>
    <clipPath id="clip-path">
      <rect id="Rectangle_678" data-name="Rectangle 678" width="1481" height="918" fill="none"/>
    </clipPath>
  </defs>
  <g id="Mask_Group_71" data-name="Mask Group 71" clip-path="url(#clip-path)">
    <g id="_404-image-1" data-name="404-image-1" transform="translate(-460.881 1023.425)">
      <g id="Group_1695" data-name="Group 1695" transform="translate(-311.024 -1702.012)">
        <g id="Group_1694" data-name="Group 1694" transform="translate(0 0)">
          <path id="Path_7914" data-name="Path 7914" d="M-226.844-1482.441s235.553-285.94,438.566-205.208c133.6,53.146,101.731,103.927,215.849,104.1s166.024-89.684,308.8-76.059c151.668,14.469,340.831-71.781,532.7-21.619s34.623,24.771,489.91,465.195c362.337,350.515-140.015,673.781-572.331,693.091C794.13-505.436,529.864-245.281,426.613-200.8c-103.2,44.476-218.551-55.454-557.355-539.284S-226.844-1482.441-226.844-1482.441Z" transform="translate(311.024 1702.012)" fill="#0c315d"/>
        </g>
      </g>
      <path id="Path_7915" data-name="Path 7915" d="M1248.144,773.807c-21.562-10.866-22.519-44.645-2.139-57.65,20.549-13.118,43.181,1.464,45.208,24.659,1.8,20.662-19.085,42.168-40.028,34.342Q1249.579,774.483,1248.144,773.807Z" transform="translate(-674.029 -1054.613)" fill="#f5b03c"/>
    </g>
  </g>
</svg>
