<svg xmlns="http://www.w3.org/2000/svg" xmlns:xlink="http://www.w3.org/1999/xlink" width="1809" height="2080" viewBox="0 0 1809 2080">
  <defs>
    <clipPath id="clip-path">
      <rect id="Rectangle_675" data-name="Rectangle 675" width="1809" height="2080" transform="translate(-118)" fill="none"/>
    </clipPath>
  </defs>
  <g id="Mask_Group_69" data-name="Mask Group 69" transform="translate(118)" clip-path="url(#clip-path)">
    <g id="_404-bg2" data-name="404-bg2" transform="translate(440.157 568.147)">
      <g id="Group_3336" data-name="Group 3336">
        <g id="Group_3335" data-name="Group 3335">
          <path id="Path_13837" data-name="Path 13837" d="M-1202.9,1851.9s-477.5-452.7-309.4-802.5c110.7-230.2,196.7-167.4,211.1-369.6s-138.4-305.3-96.6-556.6c44.4-267-85-612.8,27.6-946.6s48.2-58.3,884.9-810.6C180.6-2232.6,691.3-1302.5,672.1-534.1,654.6,163.6,1082.9,664,1148.9,852.5c66,188.4-125.3,380.4-1024.5,920.9S-1202.9,1851.9-1202.9,1851.9Z" fill="#0c315d"/>
        </g>
      </g>
      <path id="Path_13838" data-name="Path 13838" d="M1034.4,579.2c-19.3,38.3-79.3,40-102.4,3.8-23.3-36.5,2.6-76.7,43.8-80.3,36.7-3.2,74.9,33.9,61,71.1Q1035.6,576.65,1034.4,579.2Z" fill="#ffca2a"/>
    </g>
  </g>
</svg>
