<svg xmlns="http://www.w3.org/2000/svg" width="291.908" height="321.059" viewBox="0 0 291.908 321.059">
  <g id="sadocardp3" transform="translate(-7.409)" opacity="0.17">
    <path id="Path_2137" data-name="Path 2137" d="M2247.1,1627.35v128.86h31.562V1627.582l-15.924-16.345Z" transform="translate(-2027.587 -1435.152)" fill="#fff"/>
    <path id="Path_2138" data-name="Path 2138" d="M1496.509,1441.913c0,3.781-2.148,6.85-4.771,6.85-2.68,0-4.828-3.068-4.828-6.85v-68.89l-17.052,17.521V1583h43.7V1390.544l-17.052-17.521Zm0,84.581c0,3.776-2.148,6.819-4.771,6.819-2.68,0-4.828-3.043-4.828-6.819v-53.909c0-3.809,2.148-6.852,4.828-6.852,2.623,0,4.771,3.043,4.771,6.852Z" transform="translate(-1462.448 -1261.945)" fill="#fff"/>
    <path id="Path_2139" data-name="Path 2139" d="M1989.518,1505.016c0,3.832-2.154,6.85-4.8,6.85-2.674,0-4.829-3.018-4.829-6.85V1291.152l-49.845,56.93V1523.17h76.684V1387.483l.212-.207V1309.7l-17.42-18.968Z" transform="translate(-1797.053 -1202.111)" fill="#fff"/>
    <path id="Path_2140" data-name="Path 2140" d="M2421.948,1507.083c0,3.777-2.173,6.82-4.8,6.82-2.649,0-4.828-3.043-4.828-6.82l.025-131.171-14.507,16.55V1585.1h38.643V1392.462l-14.506-16.55Z" transform="translate(-2137.165 -1264.047)" fill="#fff"/>
    <path id="Path_2141" data-name="Path 2141" d="M1701.324,1213.432c0,3.776-2.147,6.821-4.771,6.821-2.65,0-4.8-3.044-4.8-6.821v-247.4l-26.544,27.285v293.722h62.67V993.321l-26.552-27.335Zm0,50.528c0,3.827-2.147,6.9-4.771,6.9-2.65,0-4.8-3.068-4.8-6.9v-20.676c0-3.777,2.153-6.871,4.8-6.871,2.623,0,4.771,3.094,4.771,6.871Z" transform="translate(-1604.489 -965.986)" fill="#fff"/>
  </g>
</svg>
