<svg xmlns="http://www.w3.org/2000/svg" width="60.555" height="61.09" viewBox="0 0 60.555 61.09">
  <g id="svgexport-6_22_" data-name="svgexport-6 (22)" transform="translate(-2.102)">
    <g id="Group_513" data-name="Group 513" transform="translate(2.102 11.186)">
      <g id="Group_512" data-name="Group 512" transform="translate(0)">
        <path id="Path_79" data-name="Path 79" d="M44.33,125.58H35.166v-8.145a5.091,5.091,0,0,0-5.091-5.091H23.966v-5.59l13.827-9.876a1.009,1.009,0,0,0,.224-1.436L34.962,91.37a1.018,1.018,0,0,0-1.395-.224L23.131,98.365a7.127,7.127,0,1,0-11.271,1.761H10.73a1.018,1.018,0,0,0-.753.336L3.4,107.773a5.091,5.091,0,0,0,.2,7l5.386,5.417a1.024,1.024,0,0,0,1.558-.132l1.2-1.7V136.78a1.018,1.018,0,0,0,1.018,1.018h6.109a1.018,1.018,0,0,0,1.018-1.018V120.49h7.127v5.091H23.966a1.018,1.018,0,0,0-1.018,1.018V136.78a1.018,1.018,0,0,0,1.018,1.018H44.33a1.018,1.018,0,0,0,1.018-1.018V126.6A1.018,1.018,0,0,0,44.33,125.58ZM11.748,95.036a5.091,5.091,0,1,1,5.091,5.091A5.091,5.091,0,0,1,11.748,95.036Zm7.514,7.127-1.405,2.81-1.405-2.81Zm-7.514,10.9-1.629-1.741,1.629-1.629Zm7.127,5.386a1.018,1.018,0,0,0-1.018,1.018v16.291H13.785V107.254a1.025,1.025,0,0,0-1.741-.723L7.971,110.6a1.018,1.018,0,0,0,0,1.425L11.3,115.5,9.58,117.9l-4.561-4.541a3.055,3.055,0,0,1-.112-4.225l6.282-6.974h2.983l2.78,5.549a1.018,1.018,0,0,0,1.812,0l2.942-5.875,12.218-8.461,1.843,2.454-13.409,9.581a1.018,1.018,0,0,0-.428.825v7.127a1.018,1.018,0,0,0,1.018,1.018h7.127a3.054,3.054,0,0,1,3.054,3.054v8.145H29.057v-6.109a1.018,1.018,0,0,0-1.018-1.018Zm24.436,17.309H24.984v-8.145H43.311Z" transform="translate(-2.102 -87.895)" fill="#fff"/>
      </g>
    </g>
    <g id="Group_515" data-name="Group 515" transform="translate(44.33)">
      <g id="Group_514" data-name="Group 514">
        <path id="Path_80" data-name="Path 80" d="M351.206,8.145a7.127,7.127,0,0,1-7.127-7.127,1.018,1.018,0,0,0-2.036,0,7.127,7.127,0,0,1-7.127,7.127,1.018,1.018,0,0,0,0,2.036,7.127,7.127,0,0,1,7.127,7.127,1.018,1.018,0,0,0,2.036,0,7.127,7.127,0,0,1,7.127-7.127,1.018,1.018,0,0,0,0-2.036Zm-8.145,4.969a9.244,9.244,0,0,0-3.95-3.95,9.245,9.245,0,0,0,3.95-3.95,9.245,9.245,0,0,0,3.95,3.95A9.245,9.245,0,0,0,343.06,13.114Z" transform="translate(-333.897)" fill="#fff"/>
      </g>
    </g>
    <g id="Group_517" data-name="Group 517" transform="translate(33.545 25.649)">
      <g id="Group_516" data-name="Group 516" transform="translate(0 0)">
        <rect id="Rectangle_42" data-name="Rectangle 42" width="3.441" height="2.036" transform="translate(0 2.035) rotate(-36.251)" fill="#fff"/>
      </g>
    </g>
    <g id="Group_519" data-name="Group 519" transform="translate(38.643 16.486)">
      <g id="Group_518" data-name="Group 518" transform="translate(0 0)">
        <rect id="Rectangle_43" data-name="Rectangle 43" width="12.625" height="2.036" transform="translate(0 7.469) rotate(-36.272)" fill="#fff"/>
      </g>
    </g>
    <g id="Group_521" data-name="Group 521" transform="translate(38.67 11.369)">
      <g id="Group_520" data-name="Group 520" transform="translate(0 0)">
        <rect id="Rectangle_44" data-name="Rectangle 44" width="7.341" height="2.036" transform="translate(0 4.072) rotate(-33.692)" fill="#fff"/>
      </g>
    </g>
  </g>
</svg>
