<svg xmlns="http://www.w3.org/2000/svg" width="60.554" height="60.558" viewBox="0 0 60.554 60.558">
  <g id="svgexport-6_23_" data-name="svgexport-6 (23)" transform="translate(-0.016)">
    <g id="Group_523" data-name="Group 523" transform="translate(11.703 12.904)">
      <g id="Group_522" data-name="Group 522">
        <path id="Path_81" data-name="Path 81" d="M112.128,109.846a1.182,1.182,0,0,0-1.534-.666,18.594,18.594,0,0,0-11.767,17.3,1.183,1.183,0,1,0,2.365,0,16.139,16.139,0,0,1,10.27-15.1A1.183,1.183,0,0,0,112.128,109.846Z" transform="translate(-98.827 -109.097)" fill="#fff"/>
      </g>
    </g>
    <g id="Group_525" data-name="Group 525" transform="translate(21.29 21.305)">
      <g id="Group_524" data-name="Group 524">
        <path id="Path_82" data-name="Path 82" d="M196.672,187.938a1.183,1.183,0,0,0-1.183,1.183,6.623,6.623,0,1,1-6.623-6.623,1.183,1.183,0,0,0,0-2.365,8.988,8.988,0,1,0,8.988,8.988A1.183,1.183,0,0,0,196.672,187.938Z" transform="translate(-179.878 -180.132)" fill="#fff"/>
      </g>
    </g>
    <g id="Group_527" data-name="Group 527" transform="translate(41.285 29.067)">
      <g id="Group_526" data-name="Group 526">
        <path id="Path_83" data-name="Path 83" d="M350.121,245.75a1.183,1.183,0,0,0-1.183,1.183v.045a1.183,1.183,0,1,0,2.365,0v-.045A1.183,1.183,0,0,0,350.121,245.75Z" transform="translate(-348.938 -245.75)" fill="#fff"/>
      </g>
    </g>
    <g id="Group_529" data-name="Group 529" transform="translate(35.663 39.506)">
      <g id="Group_528" data-name="Group 528">
        <path id="Path_84" data-name="Path 84" d="M303.424,334.362a1.182,1.182,0,1,0,.347.836A1.186,1.186,0,0,0,303.424,334.362Z" transform="translate(-301.405 -334.015)" fill="#fff"/>
      </g>
    </g>
    <g id="Group_531" data-name="Group 531" transform="translate(40.525 39.506)">
      <g id="Group_530" data-name="Group 530">
        <path id="Path_85" data-name="Path 85" d="M358.529,337.389a4,4,0,0,0-1.881.469l-3.5-3.5a1.183,1.183,0,0,0-.836-.346h-8.624a1.183,1.183,0,1,0,0,2.365h8.134l3.154,3.154a4.02,4.02,0,1,0,3.554-2.142Zm0,5.677a1.656,1.656,0,1,1,1.656-1.656A1.658,1.658,0,0,1,358.529,343.066Z" transform="translate(-342.505 -334.011)" fill="#fff"/>
      </g>
    </g>
    <g id="Group_533" data-name="Group 533" transform="translate(0.016)">
      <g id="Group_532" data-name="Group 532" transform="translate(0)">
        <path id="Path_86" data-name="Path 86" d="M56.549,9.636A4.019,4.019,0,0,0,53,15.536L49.842,18.69H36.9a13.368,13.368,0,0,0-5.426-1.713V14.84H43.945a1.183,1.183,0,0,0,1.036-.611l3.594-6.513a4.028,4.028,0,1,0-1.83-1.579l-3.5,6.338H31.474V1.188A1.183,1.183,0,0,0,30.291,0h-5.3a1.183,1.183,0,0,0-1.183,1.183v3.66a25.986,25.986,0,0,0-6.938,2.875L14.289,5.145a1.183,1.183,0,0,0-1.673,0L5.14,12.626a1.183,1.183,0,0,0,0,1.672l2.575,2.575A25.99,25.99,0,0,0,4.84,23.812H1.2A1.183,1.183,0,0,0,.016,24.995V35.571A1.183,1.183,0,0,0,1.2,36.753H4.841a25.98,25.98,0,0,0,2.875,6.938L5.141,46.267a1.183,1.183,0,0,0,0,1.672l7.475,7.481a1.183,1.183,0,0,0,.836.347h0a1.183,1.183,0,0,0,.836-.346l2.578-2.578a26,26,0,0,0,6.938,2.875v3.654a1.183,1.183,0,0,0,1.182,1.183h5.3a1.178,1.178,0,0,0,1.183-1.18V48.034H43.245l3.5,6.386a4.019,4.019,0,1,0,1.832-1.579l-3.6-6.559a1.183,1.183,0,0,0-1.037-.614H31.473V42.484A1.183,1.183,0,0,0,30.291,41.3a11.018,11.018,0,0,1-.22-22.034,1.182,1.182,0,0,0,.207.019A11.057,11.057,0,0,1,40.6,26.456a1.183,1.183,0,1,0,2.217-.825,13.285,13.285,0,0,0-2.881-4.575h10.4a1.183,1.183,0,0,0,.836-.346l3.5-3.5a4.021,4.021,0,1,0,1.881-7.574Zm-6.386-7.27a1.656,1.656,0,1,1-1.656,1.656A1.658,1.658,0,0,1,50.163,2.365Zm0,52.516a1.656,1.656,0,1,1-1.656,1.656A1.658,1.658,0,0,1,50.163,54.881ZM29.108,16.951a13.384,13.384,0,0,0,0,26.664V58.192l-2.938,0v-3.41a1.183,1.183,0,0,0-.934-1.156,23.664,23.664,0,0,1-7.9-3.274,1.183,1.183,0,0,0-1.478.157l-2.4,2.4L7.649,47.1l2.4-2.4a1.183,1.183,0,0,0,.157-1.478,23.66,23.66,0,0,1-3.274-7.9,1.183,1.183,0,0,0-1.156-.934h-3.4V26.178h3.4a1.183,1.183,0,0,0,1.156-.934,23.662,23.662,0,0,1,3.274-7.9,1.183,1.183,0,0,0-.157-1.478l-2.4-2.4,5.8-5.808,2.4,2.4a1.183,1.183,0,0,0,1.478.157,23.664,23.664,0,0,1,7.9-3.274,1.183,1.183,0,0,0,.934-1.156V2.37h2.938v14.58Zm27.441-1.638A1.656,1.656,0,1,1,58.2,13.657,1.658,1.658,0,0,1,56.549,15.313Z" transform="translate(-0.016 0)" fill="#fff"/>
      </g>
    </g>
    <g id="Group_535" data-name="Group 535" transform="translate(48.034 26.276)">
      <g id="Group_534" data-name="Group 534">
        <path id="Path_87" data-name="Path 87" d="M414.506,222.16A4.028,4.028,0,0,0,410.663,225h-3.489a1.183,1.183,0,1,0,0,2.365h3.489a4.021,4.021,0,1,0,3.844-5.2Zm0,5.677a1.656,1.656,0,1,1,1.656-1.656A1.658,1.658,0,0,1,414.506,227.837Z" transform="translate(-405.991 -222.16)" fill="#fff"/>
      </g>
    </g>
  </g>
</svg>
