<svg xmlns="http://www.w3.org/2000/svg" width="62.562" height="62" viewBox="0 0 62.562 62">
  <g id="svgexport-7" transform="translate(-0.719 -1)">
    <g id="Group_511" data-name="Group 511">
      <path id="Path_71" data-name="Path 71" d="M9,17A7.981,7.981,0,0,0,16.182,5.5,5.9,5.9,0,0,1,26.8,7.831a6.442,6.442,0,0,0-.554.342A7.856,7.856,0,0,0,22.171,7H22V9h.171a5.858,5.858,0,0,1,2.58.615c-.083.109-.171.211-.248.326l-.336.5,1.664,1.109.336-.5A4.6,4.6,0,0,1,30,9a2,2,0,0,1,0,4H23a2,2,0,0,1-2-2H19a4,4,0,0,0,4,4H48a4,4,0,0,0,0-8,6.6,6.6,0,0,0-1.387.157,8.855,8.855,0,0,0-16.574-.788l-.277.646a6.66,6.66,0,0,0-1.05.123,7.9,7.9,0,0,0-13.69-3.387A8,8,0,1,0,9,17ZM38.183,3a6.843,6.843,0,0,1,6.541,4.877c-.163.093-.325.188-.479.3A7.867,7.867,0,0,0,40.171,7H40V9h.171a5.862,5.862,0,0,1,2.58.615c-.083.109-.171.211-.248.326l-.336.5,1.664,1.109.336-.5A4.6,4.6,0,0,1,48,9a2,2,0,0,1,0,4H33.444a3.942,3.942,0,0,0-1.682-5.573l.116-.27A6.852,6.852,0,0,1,38.183,3ZM9,3A6,6,0,1,1,3,9,6.006,6.006,0,0,1,9,3Z" fill="#fff"/>
      <path id="Path_72" data-name="Path 72" d="M57,37V32.5l4-3V27H59v1.5L57,30V25H55v7l-2-1.5V29H51v2.5l4,3V37H45V30.5l4-3V25H47v1.5L45,28V23.414l1.707-1.707-1.414-1.414L43,22.586V30l-2-1.5V27H39v2.5l4,3V37H29V35.721l.5-.165a8.049,8.049,0,0,0,3.147-13.327L28,17.586l-3.825,3.825a8.061,8.061,0,0,0-1.532-2.183L18,14.586l-4.643,4.643A8.048,8.048,0,0,0,16.5,32.555l.5.165V37H.719l.49,1.959a31.739,31.739,0,0,0,61.582,0L63.281,37ZM29.636,43.258l1.145,1.717A1.3,1.3,0,0,1,29.7,47H14.3a1.3,1.3,0,0,1-1.084-2.026l1.146-1.718A3.771,3.771,0,0,0,14.319,39H29.681a3.772,3.772,0,0,0-.045,4.258ZM28,20.414l3.229,3.229A6.04,6.04,0,0,1,29,33.6V32.415l2.707-2.707-1.414-1.414L29,29.586V27.414l1.707-1.707-1.414-1.414L27,26.586V33.6a6.039,6.039,0,0,1-2.229-9.957ZM13,24.92a6.011,6.011,0,0,1,1.771-4.277L18,17.414l3.229,3.229a6.032,6.032,0,0,1,1.449,2.371A7.975,7.975,0,0,0,21,27.92a8.1,8.1,0,0,0,.122,1.364A6.036,6.036,0,0,1,19,30.6V24.3l1.832-2.748-1.664-1.109-1.323,1.985-1.138-1.138-1.414,1.414L17,24.414v2.172l-1.293-1.293-1.414,1.414L17,29.414V30.6a6.032,6.032,0,0,1-4-5.68Zm6,7.8.5-.165a8.042,8.042,0,0,0,2.281-1.216A8.023,8.023,0,0,0,26.5,35.555l.5.165V37H19ZM11.586,39l.89.89a1.791,1.791,0,0,1,.224,2.258l-1.145,1.717A3.3,3.3,0,0,0,14.3,49H29.7a3.3,3.3,0,0,0,2.747-5.135L31.3,42.149a1.794,1.794,0,0,1,.224-2.26l.89-.89H39.25a3.244,3.244,0,0,0,2.209,4.4l4.22,1.055a1.744,1.744,0,0,1,.225,3.311l-6.275,2.511a4.181,4.181,0,0,0-.522,7.512l2.715,1.551a29.757,29.757,0,0,1-9.537,1.653L27.2,57.6a.446.446,0,0,1,.175-.811l3.435-.572A2.625,2.625,0,0,0,30.376,51H9.771A29.657,29.657,0,0,1,3.285,39Zm14.5,20.262,2.23,1.487A29.657,29.657,0,0,1,11.712,53H30.376a.624.624,0,0,1,.1,1.24l-3.434.572a2.447,2.447,0,0,0-.956,4.45Zm18.1-.875L40.1,56.048a2.181,2.181,0,0,1,.273-3.919l6.275-2.511a3.743,3.743,0,0,0-.482-7.107l-4.22-1.055a1.247,1.247,0,0,1,.3-2.456H60.714A29.681,29.681,0,0,1,44.192,58.387Z" fill="#fff"/>
      <path id="Path_73" data-name="Path 73" d="M37,17h2v2H37Z" fill="#fff"/>
      <path id="Path_74" data-name="Path 74" d="M39,21h2v2H39Z" fill="#fff"/>
      <path id="Path_75" data-name="Path 75" d="M43,17h2v2H43Z" fill="#fff"/>
      <path id="Path_76" data-name="Path 76" d="M47,19h2v2H47Z" fill="#fff"/>
      <path id="Path_77" data-name="Path 77" d="M51,23h2v2H51Z" fill="#fff"/>
      <path id="Path_78" data-name="Path 78" d="M51,17h2v2H51Z" fill="#fff"/>
    </g>
  </g>
</svg>
