<svg xmlns="http://www.w3.org/2000/svg" width="24" height="24" viewBox="0 0 24 24">
  <g id="vuesax_outline_user" data-name="vuesax/outline/user" transform="translate(-108 -188)">
    <g id="user">
      <path id="Vector" d="M5.75,11.5A5.75,5.75,0,1,1,11.5,5.75,5.757,5.757,0,0,1,5.75,11.5Zm0-10A4.25,4.25,0,1,0,10,5.75,4.259,4.259,0,0,0,5.75,1.5Z" transform="translate(114.25 189.25)" fill="#fff"/>
      <path id="Vector-2" data-name="Vector" d="M17.93,8.5a.755.755,0,0,1-.75-.75c0-3.45-3.52-6.25-7.84-6.25S1.5,4.3,1.5,7.75a.755.755,0,0,1-.75.75A.755.755,0,0,1,0,7.75C0,3.48,4.19,0,9.34,0s9.34,3.48,9.34,7.75A.755.755,0,0,1,17.93,8.5Z" transform="translate(110.66 202.25)" fill="#fff"/>
      <path id="Vector-3" data-name="Vector" d="M0,0H24V24H0Z" transform="translate(108 188)" fill="none" opacity="0"/>
    </g>
  </g>
</svg>
