<svg xmlns="http://www.w3.org/2000/svg" width="70.653" height="70.653" viewBox="0 0 70.653 70.653">
  <g id="vuesax_broken_data" data-name="vuesax/broken/data" transform="translate(-620 -186)">
    <g id="data" transform="translate(620 186)">
      <path id="Vector" d="M11.776,5.888A5.888,5.888,0,1,1,5.888,0,5.888,5.888,0,0,1,11.776,5.888Z" transform="translate(52.99 29.439)" fill="none" stroke="#fff" stroke-linecap="round" stroke-linejoin="round" stroke-width="1.5"/>
      <path id="Vector-2" data-name="Vector" d="M11.776,5.888A5.888,5.888,0,1,1,5.888,0,5.888,5.888,0,0,1,11.776,5.888Z" transform="translate(52.99 5.888)" fill="none" stroke="#fff" stroke-linecap="round" stroke-linejoin="round" stroke-width="1.5"/>
      <path id="Vector-3" data-name="Vector" d="M11.776,5.888A5.888,5.888,0,1,1,5.888,0,5.888,5.888,0,0,1,11.776,5.888Z" transform="translate(52.99 52.99)" fill="none" stroke="#fff" stroke-linecap="round" stroke-linejoin="round" stroke-width="1.5"/>
      <path id="Vector-4" data-name="Vector" d="M11.776,5.888A5.888,5.888,0,1,1,5.888,0,5.888,5.888,0,0,1,11.776,5.888Z" transform="translate(5.888 29.439)" fill="none" stroke="#fff" stroke-linecap="round" stroke-linejoin="round" stroke-width="1.5"/>
      <path id="Vector-5" data-name="Vector" d="M0,0H35.327" transform="translate(17.663 35.327)" fill="none" stroke="#fff" stroke-linecap="round" stroke-linejoin="round" stroke-width="1.5"/>
      <path id="Vector-6" data-name="Vector" d="M0,0V14.719q0,8.832,8.832,8.832H20.607" transform="translate(32.383 35.327)" fill="none" stroke="#fff" stroke-linecap="round" stroke-linejoin="round" stroke-width="1.5"/>
      <path id="Vector-7" data-name="Vector" d="M20.607,0H8.832Q0,0,0,8.832v2.885" transform="translate(32.383 11.776)" fill="none" stroke="#fff" stroke-linecap="round" stroke-linejoin="round" stroke-width="1.5"/>
      <path id="Vector-8" data-name="Vector" d="M0,0H70.653V70.653H0Z" fill="none" opacity="0"/>
    </g>
  </g>
</svg>
