<svg xmlns="http://www.w3.org/2000/svg" width="68.589" height="68.589" viewBox="0 0 68.589 68.589">
  <g id="vuesax_broken_monitor-recorder" data-name="vuesax/broken/monitor-recorder" transform="translate(-492 -188)">
    <path id="Vector" d="M0,12.689C0,2.543,2.543,0,12.689,0h4.458" transform="translate(497.716 193.716)" fill="none" stroke="#fff" stroke-linecap="round" stroke-linejoin="round" stroke-width="1.5"/>
    <path id="Vector-2" data-name="Vector" d="M57.157,3.144V5.687c0,10.174-2.544,12.689-12.689,12.689H12.689C2.543,18.376,0,15.833,0,5.687V0" transform="translate(497.716 218.836)" fill="none" stroke="#fff" stroke-linecap="round" stroke-linejoin="round" stroke-width="1.5"/>
    <path id="Vector-3" data-name="Vector" d="M0,0V13.661" transform="translate(526.294 237.212)" fill="none" stroke="#fff" stroke-linecap="round" stroke-linejoin="round" stroke-width="1.5"/>
    <path id="Vector-4" data-name="Vector" d="M0,0H57.157" transform="translate(497.716 225.152)" fill="none" stroke="#fff" stroke-linecap="round" stroke-linejoin="round" stroke-width="1.5"/>
    <path id="Vector-5" data-name="Vector" d="M0,0H25.721" transform="translate(513.434 250.873)" fill="none" stroke="#fff" stroke-linecap="round" stroke-linejoin="round" stroke-width="1.5"/>
    <path id="Vector-6" data-name="Vector" d="M18.862,21.034H5.258C1.315,21.034,0,18.4,0,15.775V5.716A5.733,5.733,0,0,1,5.716,0H18.862A5.245,5.245,0,0,1,24.12,5.258V15.775A5.245,5.245,0,0,1,18.862,21.034Z" transform="translate(524.18 193.744)" fill="none" stroke="#fff" stroke-linecap="round" stroke-linejoin="round" stroke-width="1.5"/>
    <path id="Vector-7" data-name="Vector" d="M3.458,13.308,0,10.879V2.992L3.458.562C5.173-.609,6.573.105,6.573,2.191v9.517C6.573,13.794,5.173,14.509,3.458,13.308Z" transform="translate(548.3 197.326)" fill="none" stroke="#fff" stroke-linecap="round" stroke-linejoin="round" stroke-width="1.5"/>
    <path id="Vector-8" data-name="Vector" d="M0,0H68.589V68.589H0Z" transform="translate(492 188)" fill="none" opacity="0"/>
  </g>
</svg>
