<svg xmlns="http://www.w3.org/2000/svg" width="24" height="24" viewBox="0 0 24 24">
  <g id="vuesax_outline_wallet-minus" data-name="vuesax/outline/wallet-minus" transform="translate(-748 -508)">
    <g id="wallet-minus">
      <path id="Vector" d="M5.75,1.5h-5A.755.755,0,0,1,0,.75.755.755,0,0,1,.75,0h5A.755.755,0,0,1,6.5.75.755.755,0,0,1,5.75,1.5Z" transform="translate(756.75 523.25)" fill="#124f98"/>
      <path id="Vector-2" data-name="Vector" d="M.749,9.21a.786.786,0,0,1-.53-.22.753.753,0,0,1-.16-.82l1.86-4.44a2.157,2.157,0,0,1,.09-.2C3.489.12,5.379-.71,8.719.57a.736.736,0,0,1,.42.41.755.755,0,0,1,0,.59l-2.93,6.8a.758.758,0,0,1-.69.45H2.669a4.13,4.13,0,0,0-1.63.33A.717.717,0,0,1,.749,9.21ZM6.159,1.5c-1.24,0-2,.81-2.79,2.65-.01.03-.03.06-.04.09L2.019,7.35c.22-.02.43-.03.65-.03h2.35l2.41-5.6A4.188,4.188,0,0,0,6.159,1.5Z" transform="translate(752.451 509.25)" fill="#124f98"/>
      <path id="Vector-3" data-name="Vector" d="M9.07,8.491a.833.833,0,0,1-.22-.03,4.244,4.244,0,0,0-1.2-.17H.75a.765.765,0,0,1-.63-.34.776.776,0,0,1-.06-.71L2.96.511a.821.821,0,0,1,.96-.48c.12.04.23.09.35.14l2.36.99a7.237,7.237,0,0,1,2.9,1.89,3.194,3.194,0,0,1,.31.44,2.677,2.677,0,0,1,.28.59,1.941,1.941,0,0,1,.11.34,5.555,5.555,0,0,1-.46,3.61A.765.765,0,0,1,9.07,8.491Zm-7.18-1.7H7.66a5.864,5.864,0,0,1,.94.08,3.563,3.563,0,0,0,.18-2.08c-.02-.09-.04-.13-.05-.17a1.783,1.783,0,0,0-.15-.33A2.115,2.115,0,0,0,8.38,4a5.857,5.857,0,0,0-2.32-1.46l-1.98-.83Z" transform="translate(757.22 509.779)" fill="#124f98"/>
      <path id="Vector-4" data-name="Vector" d="M14.4,14.18H6.6a6.871,6.871,0,0,1-.8-.05C2.29,13.89.29,11.89.05,8.34A5.815,5.815,0,0,1,0,7.58V5.63A5.612,5.612,0,0,1,5.63,0h9.76a5.447,5.447,0,0,1,1.63.24,5.675,5.675,0,0,1,4,5.39V7.58c0,.22-.01.43-.02.63C20.78,12.12,18.5,14.18,14.4,14.18ZM5.62,1.5A4.115,4.115,0,0,0,1.49,5.63V7.58c0,.21.02.42.04.62.19,2.85,1.59,4.25,4.4,4.44a5.423,5.423,0,0,0,.66.05h7.8c3.3,0,4.92-1.45,5.08-4.55.01-.18.02-.36.02-.56V5.63a4.175,4.175,0,0,0-2.93-3.96,4.244,4.244,0,0,0-1.2-.17Z" transform="translate(749.5 516.57)" fill="#124f98"/>
      <path id="Vector-5" data-name="Vector" d="M.75,10.163A.755.755,0,0,1,0,9.413V6.483A6.59,6.59,0,0,1,5.31.013a.779.779,0,0,1,.73.26.748.748,0,0,1,.11.76L4.4,5.213a.8.8,0,0,1-.39.4,4.142,4.142,0,0,0-2.5,3.8A.764.764,0,0,1,.75,10.163Zm3.36-8.13a5.106,5.106,0,0,0-2.5,3.45,5.459,5.459,0,0,1,1.53-1.11Z" transform="translate(749.49 512.787)" fill="#124f98"/>
      <path id="Vector-6" data-name="Vector" d="M4.214,9.606a.755.755,0,0,1-.75-.75A4.175,4.175,0,0,0,.534,4.9a.743.743,0,0,1-.48-.99,4.235,4.235,0,0,0,.4-2.68c-.02-.09-.04-.13-.05-.17a.752.752,0,0,1,.17-.85.743.743,0,0,1,.86-.12,6.569,6.569,0,0,1,3.53,5.84v2.93A.755.755,0,0,1,4.214,9.606ZM1.7,3.746a5.485,5.485,0,0,1,1.66,1.19,5.011,5.011,0,0,0-1.35-2.57A7.422,7.422,0,0,1,1.7,3.746Z" transform="translate(765.546 513.344)" fill="#124f98"/>
      <path id="Vector-7" data-name="Vector" d="M0,0H24V24H0Z" transform="translate(748 508)" fill="none" opacity="0"/>
    </g>
  </g>
</svg>
