<svg xmlns="http://www.w3.org/2000/svg" xmlns:xlink="http://www.w3.org/1999/xlink" width="115.077" height="115.093" viewBox="0 0 115.077 115.093">
  <defs>
    <clipPath id="clip-path">
      <path id="Path_7397" data-name="Path 7397" d="M94.32,94.128c35.881-35.881,19.975-52.357,0-72.357s-36.451-35.881-72.357,0-19.975,52.357,0,72.357S58.415,130.033,94.32,94.128Z" transform="translate(-0.598 -0.408)"/>
    </clipPath>
  </defs>
  <g id="رؤيتنا_minidil" data-name="رؤيتنا minidil" transform="translate(0 0)">
    <g id="Group_1480" data-name="Group 1480" transform="translate(0 0)">
      <g id="Group_1479" data-name="Group 1479">
        <g id="Group_1478" data-name="Group 1478">
          <g id="Group_1468" data-name="Group 1468" clip-path="url(#clip-path)">
            <path id="Path_7396" data-name="Path 7396" d="M71.451,124.478c52.729,0,53.151-23.8,53.151-53.151S124.181,18.2,71.451,18.2,18.3,42,18.3,71.326,18.722,124.478,71.451,124.478Z" transform="translate(-13.908 -13.785)" fill="#5897d1" fill-rule="evenodd"/>
          </g>
          <g id="Group_1477" data-name="Group 1477" clip-path="url(#clip-path)">
            <path id="Path_7398" data-name="Path 7398" d="M102.373,48.521A60.107,60.107,0,0,1,97.683,71.9c-20.645,49.255,16.9,23.995-31.166,41.538-6.476,2.357-17.394-4.392-24.69-4.392-3.945,0-13.921,7.171-17.643,6.452A60.621,60.621,0,0,1-19.389,81.151c-3.474-7.643.695-23.672.695-32.605a59.144,59.144,0,0,1,.62-8.685A60.589,60.589,0,0,1,41.852-12,60.426,60.426,0,0,1,85.326,6.412c1.29,1.34,2.531,2.73,3.7,4.194L90.14,12.02A60.058,60.058,0,0,1,102.05,42.094,61.242,61.242,0,0,1,102.373,48.521Z" transform="translate(15.468 8.921)" fill="#343a6e"/>
            <path id="Path_7399" data-name="Path 7399" d="M153.3,94.526a39.47,39.47,0,0,1-3.077,15.36,39.868,39.868,0,0,1-44.293,23.7,39.4,39.4,0,0,1-15.211-6.452A39.8,39.8,0,1,1,153.3,94.526Z" transform="translate(-55.561 -41.228)" fill="#484b7f"/>
            <g id="Group_1476" data-name="Group 1476" transform="translate(29.554 5.507)">
              <g id="Group_1475" data-name="Group 1475">
                <path id="Path_7400" data-name="Path 7400" d="M174.836,241.048c-7.891,4.566-17.692,6.154-27.469,6.154-4.218,0-8.486.3-12.432-.62h0c-5.186-1.216-10.769-2.233-15.236-4.839l1.042-7.519L123.1,212.91l2.357-21.315,1.911-17.394h39.876l.62,5.682.05.571,2.159,19.479,2.208,20.05Z" transform="translate(-119.7 -136.582)" fill="#f4d4bd"/>
                <path id="Path_7401" data-name="Path 7401" d="M172.554,146.9H122.232a2.436,2.436,0,0,0-2.432,2.432V153a2.436,2.436,0,0,0,2.432,2.432h50.322A2.436,2.436,0,0,0,174.986,153v-3.672A2.42,2.42,0,0,0,172.554,146.9Z" transform="translate(-119.775 -116.056)" fill="#ff668c"/>
                <path id="Path_7402" data-name="Path 7402" d="M129.95,153v-3.672a2.436,2.436,0,0,1,2.432-2.432h-10.05a2.436,2.436,0,0,0-2.432,2.432V153a2.436,2.436,0,0,0,2.432,2.432h10.05A2.452,2.452,0,0,1,129.95,153Z" transform="translate(-119.85 -116.056)" fill="#ef487d"/>
                <path id="Path_7403" data-name="Path 7403" d="M195.286,65.218v7H160.1v-7a17.752,17.752,0,0,1,1.911-8.015,17.566,17.566,0,0,1,15.682-9.6,17.626,17.626,0,0,1,15.682,9.6A17.436,17.436,0,0,1,195.286,65.218Z" transform="translate(-150.075 -41.397)" fill="#f4d4bd"/>
                <g id="Group_1469" data-name="Group 1469" transform="translate(19.231)">
                  <path id="Path_7404" data-name="Path 7404" d="M224.834,67.323v7H199.4v-7A17.557,17.557,0,0,1,212.1,50.4,17.6,17.6,0,0,1,222.9,59.308,17.149,17.149,0,0,1,224.834,67.323Z" transform="translate(-198.854 -43.502)" fill="#fff9ee"/>
                  <path id="Path_7405" data-name="Path 7405" d="M213.974,30.987v3.35H197.2v-3.35a8.273,8.273,0,0,1,.918-3.821,8.392,8.392,0,0,1,14.938,0A8.273,8.273,0,0,1,213.974,30.987Z" transform="translate(-197.2 -22.6)" fill="#fff9ee"/>
                </g>
                <path id="Path_7406" data-name="Path 7406" d="M203.081,27.166a8.455,8.455,0,0,1,4.988-4.194,8.231,8.231,0,0,0-2.481-.372,8.4,8.4,0,0,0-7.469,4.566,8.2,8.2,0,0,0-.918,3.821v3.35h4.963v-3.35A8.273,8.273,0,0,1,203.081,27.166Z" transform="translate(-177.969 -22.6)" fill="#e8dbc4"/>
                <g id="Group_1470" data-name="Group 1470" transform="translate(10 15.831)">
                  <path id="Path_7407" data-name="Path 7407" d="M167.444,89.527v5.062a3.129,3.129,0,0,1-3.127,3.127H160v-3.3a17.752,17.752,0,0,1,1.911-8.015h2.382A3.119,3.119,0,0,1,167.444,89.527Z" transform="translate(-160 -86.4)" fill="#f9df73"/>
                  <path id="Path_7408" data-name="Path 7408" d="M279.344,94.39v3.325h-4.318a3.129,3.129,0,0,1-3.127-3.127V89.527a3.129,3.129,0,0,1,3.127-3.127h2.382A16.976,16.976,0,0,1,279.344,94.39Z" transform="translate(-244.133 -86.4)" fill="#f9df73"/>
                  <path id="Path_7409" data-name="Path 7409" d="M216.389,86.4h-5.062a3.129,3.129,0,0,0-3.127,3.127v5.062a3.129,3.129,0,0,0,3.127,3.127h5.062a3.129,3.129,0,0,0,3.127-3.127V89.527A3.114,3.114,0,0,0,216.389,86.4Z" transform="translate(-196.24 -86.4)" fill="#f9df73"/>
                </g>
                <path id="Path_7410" data-name="Path 7410" d="M193.287,47.7H164.354a2.764,2.764,0,0,0-2.754,2.754h0a2.764,2.764,0,0,0,2.754,2.754h28.958a2.764,2.764,0,0,0,2.754-2.754h0A2.785,2.785,0,0,0,193.287,47.7Z" transform="translate(-151.203 -41.472)" fill="#ff668c"/>
                <path id="Path_7411" data-name="Path 7411" d="M167.431,50.454a2.764,2.764,0,0,1,2.754-2.754h-5.831a2.754,2.754,0,1,0,0,5.509h5.831A2.78,2.78,0,0,1,167.431,50.454Z" transform="translate(-151.203 -41.472)" fill="#ef487d"/>
                <path id="Path_7412" data-name="Path 7412" d="M221,259.92c-7.891,4.566-17.692,6.154-27.469,6.154-4.218,0-8.486.3-12.432-.62l.074-2.754.4-13.672,1.39-45.012a4.858,4.858,0,0,1,4.863-4.715H214.1l2.159,19.479,2.208,20.05Z" transform="translate(-165.864 -155.454)" fill="#fff9ee"/>
                <g id="Group_1471" data-name="Group 1471" transform="translate(0 43.325)">
                  <path id="Path_7413" data-name="Path 7413" d="M180.4,217.25l-34.045,9.38L133.4,230.2l2.357-21.315,11.241-3.1,29.156-8.04,2.035-.546.074.546Z" transform="translate(-130.001 -197.2)" fill="#ef487d"/>
                  <path id="Path_7414" data-name="Path 7414" d="M174.836,379.842c-7.891,4.566-17.692,6.154-27.469,6.154-4.218,0-8.486.3-12.432-.62h0c-5.186-1.216-10.769-2.233-15.236-4.839l1.042-7.519,14.69-4.045,36.9-10.174Z" transform="translate(-119.7 -318.701)" fill="#ef487d"/>
                </g>
                <path id="Path_7415" data-name="Path 7415" d="M282.051,273.266h0a3.467,3.467,0,0,1-3.772-3.1l-3.424-34.938a3.467,3.467,0,0,1,3.1-3.772h0a3.467,3.467,0,0,1,3.772,3.1l3.424,34.938A3.485,3.485,0,0,1,282.051,273.266Z" transform="translate(-236.344 -179.619)" fill="#fcf8f2"/>
                <g id="Group_1472" data-name="Group 1472" transform="translate(15.236 43.871)">
                  <path id="Path_7416" data-name="Path 7416" d="M219.645,218.9l-4.094,1.117-6.725,1.861-23.226,6.4.645-20.844L215.4,199.4h2.109Z" transform="translate(-184.483 -199.4)" fill="#ff668c"/>
                  <path id="Path_7417" data-name="Path 7417" d="M221,379.767c-7.891,4.566-17.692,6.154-27.469,6.154-4.218,0-8.486.3-12.432-.62h0l.074-2.754.4-13.672,25.831-7.122,6.749-1.861,4.342-1.191Z" transform="translate(-181.1 -319.172)" fill="#ff668c"/>
                </g>
                <g id="Group_1473" data-name="Group 1473" transform="translate(34.69 32.481)">
                  <path id="Path_7418" data-name="Path 7418" d="M274.239,156.428H260.964a1.467,1.467,0,0,1-1.464-1.464h0a1.467,1.467,0,0,1,1.464-1.464h13.275a1.467,1.467,0,0,1,1.464,1.464h0A1.483,1.483,0,0,1,274.239,156.428Z" transform="translate(-259.5 -153.5)" fill="#ff6e7c"/>
                </g>
                <g id="Group_1474" data-name="Group 1474" transform="translate(13.151 18.288)">
                  <path id="Path_7419" data-name="Path 7419" d="M233.881,99.724h-1.737a.837.837,0,0,1-.844-.844V97.144a.837.837,0,0,1,.844-.844h1.737a.837.837,0,0,1,.844.844v1.737A.837.837,0,0,1,233.881,99.724Z" transform="translate(-216.759 -96.3)" fill="#f9af6b"/>
                  <path id="Path_7420" data-name="Path 7420" d="M284.881,99.724h-1.737a.837.837,0,0,1-.844-.844V97.144a.837.837,0,0,1,.844-.844h1.737a.837.837,0,0,1,.844.844v1.737A.837.837,0,0,1,284.881,99.724Z" transform="translate(-255.104 -96.3)" fill="#f9af6b"/>
                  <path id="Path_7421" data-name="Path 7421" d="M175.281,99.724h-1.737a.837.837,0,0,1-.844-.844V97.144a.837.837,0,0,1,.844-.844h1.737a.837.837,0,0,1,.844.844v1.737A.837.837,0,0,1,175.281,99.724Z" transform="translate(-172.7 -96.3)" fill="#f9af6b"/>
                </g>
                <path id="Path_7422" data-name="Path 7422" d="M263.331,54.535h-4.814a1.006,1.006,0,0,1-1.017-1.017h0a1.006,1.006,0,0,1,1.017-1.017h4.814a1.006,1.006,0,0,1,1.017,1.017h0A1.022,1.022,0,0,1,263.331,54.535Z" transform="translate(-223.307 -45.081)" fill="#ff6e7c"/>
                <ellipse id="Ellipse_105" data-name="Ellipse 105" cx="1.39" cy="1.39" rx="1.39" ry="1.39" transform="translate(29.727 2.382)" fill="#fcf8f2"/>
              </g>
            </g>
          </g>
        </g>
      </g>
    </g>
    <g id="Group_1481" data-name="Group 1481" transform="translate(79.926 13.231)">
      <path id="Path_7424" data-name="Path 7424" d="M323.742,70.446l24.814,8.288a3.268,3.268,0,0,0,4.293-3.1V57a3.268,3.268,0,0,0-4.293-3.1l-24.814,8.288a1.528,1.528,0,0,0-1.042,1.464v5.335A1.552,1.552,0,0,0,323.742,70.446Z" transform="translate(-322.7 -53.728)" fill="#f9df73"/>
      <path id="Path_7425" data-name="Path 7425" d="M322.7,77.836v5.335a1.528,1.528,0,0,0,1.042,1.464l11.588,3.871a2.026,2.026,0,0,0-.893-3.846h-2.432a2.044,2.044,0,0,1-2.035-2.035,2.033,2.033,0,0,1,2.035-2.035h7.047a2.035,2.035,0,0,0,0-4.069h-.844a2.028,2.028,0,0,1-2.035-2.035,2,2,0,0,0-.6-1.439,1.861,1.861,0,0,0-.695-.447l-11.141,3.722A1.694,1.694,0,0,0,322.7,77.836Z" transform="translate(-322.7 -67.917)" fill="#f9af6b"/>
    </g>
    <g id="Group_1482" data-name="Group 1482" transform="translate(2.978 13.231)">
      <path id="Path_7426" data-name="Path 7426" d="M41.707,62.183,16.893,53.9A3.268,3.268,0,0,0,12.6,57v18.66a3.268,3.268,0,0,0,4.293,3.1l24.814-8.288a1.528,1.528,0,0,0,1.042-1.464V63.672A1.518,1.518,0,0,0,41.707,62.183Z" transform="translate(-12.6 -53.728)" fill="#f9df73"/>
      <path id="Path_7427" data-name="Path 7427" d="M78.487,82.87V77.535a1.528,1.528,0,0,0-1.042-1.464L65.857,72.2a2.026,2.026,0,0,0,.893,3.846h2.432a2.044,2.044,0,0,1,2.035,2.035,2.033,2.033,0,0,1-2.035,2.035H62.135a2.035,2.035,0,0,0,0,4.069h.844a2.028,2.028,0,0,1,2.035,2.035,2,2,0,0,0,.6,1.439,1.861,1.861,0,0,0,.695.447l11.141-3.722A1.667,1.667,0,0,0,78.487,82.87Z" transform="translate(-48.313 -67.616)" fill="#f9af6b"/>
    </g>
  </g>
</svg>
